<svg id="Layer_1" data-name="Layer 1" xmlns="http://www.w3.org/2000/svg" viewBox="0 0 692.83 217.39"><defs><style>.cls-1,.cls-2{fill:#fff;}.cls-2{stroke:#fff;stroke-miterlimit:10;stroke-width:3px;}</style></defs><title>logo3</title><path class="cls-1" d="M102.07,147.22c5.79,1.1,11.62,1.89,17.48,2.42,8,.73,16.06.43,24.09.53a79.86,79.86,0,0,0,22.4-2.93,47.87,47.87,0,0,0,25.86-17.45,40.3,40.3,0,0,0,6-11.88c3.13-9.34,6.13-18.73,7-28.62.39-4.19.32-8.41.81-12.59V75.26c-.49-1.35-.13-2.74-.24-4.11V58.05c0-5.59-.38-11.18-1-16.74-.36-3.53-1.13-4.1-4.62-4.55a197.37,197.37,0,0,0-22.79-1.2c-8.22-.11-16.45-.13-24.67.23-5.75.26-11.5.2-17.22,1-7.39,1-14.6,2.56-21,6.62-9.23,5.85-15,14.38-18.39,24.58a156.74,156.74,0,0,0-7.5,34.28,135.49,135.49,0,0,0,0,26.94c.28,2.79,1,5.64-.52,8.43a31.78,31.78,0,0,0-3.39,10.67c-.9,6,0,11.63,3.86,16.5,8.12,10.13,18.35,16.15,31.62,16a325.74,325.74,0,0,1,37.86,1.88,51.37,51.37,0,0,1,28.91,12.51c5,4.32,7.82,9.93,6.69,16.8a28.13,28.13,0,0,1-10.23,17.33c-6.08,5.06-13.25,7.85-20.9,9.47a101,101,0,0,1-38.43.31c-7.39-1.28-14.64-3-21.33-6.69-5.65-3.07-8.4-7.72-7.76-14.11a31.85,31.85,0,0,1,4.64-14,34.54,34.54,0,0,1,7.65-8.79c2.74-2.19,3.47-5.39,2.13-8.1-1.5-3-4.1-4.26-7.57-3.54-2.12.45-3.62,2-5.12,3.37C86.42,196.63,81.67,208.13,82.22,222c.29,7.47,2.7,13.74,8.61,18.34,9,7,19.55,10.09,30.67,11.56,4.5.59,9.07.43,13.58,1h1.43c1.45-.51,2.94-.11,4.41-.24H145c1.32.12,2.66-.26,4,.24h1.44c.73-.47,1.54-.2,2.32-.23,7.55-.31,15-.94,22.18-3.71,9.08-3.5,17.13-8.36,23.23-16.14a34,34,0,0,0,7.69-19.65v-1.92a8.51,8.51,0,0,1,0-4.31v-1.43c-.16-8.36-4.17-14.83-10.19-20.12a62.89,62.89,0,0,0-33.8-15.5,279.66,279.66,0,0,0-42.11-2.39c-8,.14-14.23-3.42-19.53-9a9.19,9.19,0,0,1-2.63-7.88C98,147.32,98.79,146.59,102.07,147.22Zm1.12-60.75a146.91,146.91,0,0,1,4.65-16.3c4.67-12.6,13.67-19.63,26.93-21.21,18.86-2.24,37.74-3,56.69-1.09,1.71.18,2.22.79,2.43,2.44C196.43,71,194,91.1,187.77,111c-4.48,14.29-14,22.32-28.16,25.54a75.51,75.51,0,0,1-15.62,1.8c-12.74.16-25.45-.27-38-2.6-2.24-.42-2.06-1-.76-2.38,5.4-5.83,11.69-10.57,18-15.34a177.84,177.84,0,0,1,33.1-20.33c3.14-1.45,4.33-4.42,3.07-7.28s-4.38-4-7.65-2.49c-14.9,6.74-28.23,16-41,26.07-3.55,2.79-7,5.78-10.76,9A123.87,123.87,0,0,1,103.19,86.47Z" transform="translate(-82.17 -35.49)"/><path class="cls-2" d="M225.75,189a9.26,9.26,0,0,1-7-2.86,9.59,9.59,0,0,1-2.73-6.89,19.44,19.44,0,0,1,1.18-6.29,56.8,56.8,0,0,1,3-7q1.77-3.57,3.8-7t3.68-6.06q1.66-2.85,3.33-5.46c1-1.58,1.9-3.29,2.85-5.11s1.82-3.6,2.61-5.35a16.13,16.13,0,0,0,1.67-5.46,2.44,2.44,0,0,0-.6-1.79,4.18,4.18,0,0,0-2.73-.59h-5a10.11,10.11,0,0,1-4.4-1,5.88,5.88,0,0,1-3-3.56q-4.75,6.18-10.93,13.3t-13.07,15a2.49,2.49,0,0,1-2.14,1,2.66,2.66,0,0,1-2.14-.84,3,3,0,0,1-.71-2,4.28,4.28,0,0,1,.71-2.13q6.9-7.84,13.07-15.1t10.93-13.18c1.75-2.22,3.21-4,4.4-5.35s2.26-2.65,3.21-3.92a3,3,0,0,1,2.61-1.43,3,3,0,0,1,2.38.83,2.73,2.73,0,0,1,.71,1.79,6.43,6.43,0,0,1-1.19,3.32,17.22,17.22,0,0,0-1.78,4.28,13.21,13.21,0,0,0-.35,2.14c0,.47.31.75,1,.83a17,17,0,0,0,2.13.12h5a7.8,7.8,0,0,1,5.58,2.14,6.94,6.94,0,0,1,2.26,5.23,16.53,16.53,0,0,1-1.19,5.58q-1.19,3.21-2.85,6.66t-3.69,6.89L232.64,156c-1.27,2.06-2.49,4.16-3.68,6.3s-2.34,4.24-3.45,6.3a39.88,39.88,0,0,0-2.61,5.82,14.89,14.89,0,0,0-1,4.87,3.43,3.43,0,0,0,1.19,2.86,4.1,4.1,0,0,0,2.61.95,4.83,4.83,0,0,0,3.09-.95,97.45,97.45,0,0,0,9.15-7.73q4.63-4.39,8.91-8.91t8.2-8.91q3.91-4.4,7.25-7.72a2.93,2.93,0,0,1,2.14-1,3.12,3.12,0,0,1,2.13.84,2.55,2.55,0,0,1,.95,2,2.91,2.91,0,0,1-.95,2.13q-2.85,3.1-7,7.73t-8.79,9.5q-4.63,4.88-9.5,9.39a99.23,99.23,0,0,1-9.15,7.61A12.17,12.17,0,0,1,225.75,189Z" transform="translate(-82.17 -35.49)"/><path class="cls-2" d="M275.89,189.24q-9.75,0-13.9-6.06a24,24,0,0,1-4.16-13.9A53.59,53.59,0,0,1,261,152.41a74.83,74.83,0,0,1,8.79-17.82,61.91,61.91,0,0,1,12.71-14q7.14-5.71,15-5.71a13.05,13.05,0,0,1,8.79,2.85,9.79,9.79,0,0,1,3.33,7.85q0,8.31-10.82,17T265.91,156a51.32,51.32,0,0,0-2.14,13.79q0,6.18,2.73,9.86t8.92,3.68q8.31,0,21.74-8.08t29.35-26.37a2.75,2.75,0,0,1,2.38-1,2.1,2.1,0,0,1,2,1.07,4.18,4.18,0,0,1,.6,2,2.57,2.57,0,0,1-.71,1.9q-15,17.35-29.35,26.86T275.89,189.24Zm21.63-68.44a16.11,16.11,0,0,0-9.15,3,41.8,41.8,0,0,0-8.2,7.37,79.22,79.22,0,0,0-11.65,18.18,91.73,91.73,0,0,0,15.93-5.47,56.43,56.43,0,0,0,10.93-6.41,28.05,28.05,0,0,0,6.3-6.42,10.67,10.67,0,0,0,2-5.7,3.55,3.55,0,0,0-2.26-3.57A10.51,10.51,0,0,0,297.52,120.8Z" transform="translate(-82.17 -35.49)"/><path class="cls-2" d="M340.05,189.24q-9.75,0-13.9-6.06a24,24,0,0,1-4.16-13.9,53.59,53.59,0,0,1,3.21-16.87A74.83,74.83,0,0,1,334,134.59a61.71,61.71,0,0,1,12.72-14q7.13-5.71,15-5.71a13.05,13.05,0,0,1,8.79,2.85,9.79,9.79,0,0,1,3.33,7.85q0,8.31-10.82,17T330.07,156a51.32,51.32,0,0,0-2.14,13.79q0,6.18,2.74,9.86t8.91,3.68q8.31,0,21.74-8.08t29.35-26.37a2.78,2.78,0,0,1,2.38-1,2.13,2.13,0,0,1,2,1.07,4.27,4.27,0,0,1,.59,2,2.57,2.57,0,0,1-.71,1.9q-15,17.35-29.35,26.86T340.05,189.24Zm21.63-68.44a16.11,16.11,0,0,0-9.15,3,41.8,41.8,0,0,0-8.2,7.37,79.22,79.22,0,0,0-11.65,18.18,91.73,91.73,0,0,0,15.93-5.47,56.43,56.43,0,0,0,10.93-6.41,28.05,28.05,0,0,0,6.3-6.42,10.67,10.67,0,0,0,2-5.7,3.55,3.55,0,0,0-2.26-3.57A10.51,10.51,0,0,0,361.68,120.8Z" transform="translate(-82.17 -35.49)"/><path class="cls-2" d="M410.39,187.82q-3.09,0-3.09-3.09a9.22,9.22,0,0,1,1.19-3.57q3.57-6.41,7.49-14.61t7.24-16.28q3.33-8.07,5.59-15t2.26-10.69a7.68,7.68,0,0,0-.48-2.86,2,2,0,0,0-2.14-1.18q-2.37,0-5.94,2.61a56.94,56.94,0,0,0-5.35,4.87q-3.44,3.45-7.36,7.84T402,144.8l-7,8.08a2.47,2.47,0,0,1-2.13,1,3.15,3.15,0,0,1-2.14-.84,2.58,2.58,0,0,1-.95-2,3,3,0,0,1,.95-2.13q3.09-3.57,7-8.2t8-9q4-4.4,7.6-8a67.54,67.54,0,0,1,5.71-5.22q5.22-3.81,9.5-3.81A7.41,7.41,0,0,1,435,118a12.17,12.17,0,0,1,2.26,6.89,36.46,36.46,0,0,1-1.91,9.63q-1.89,6.3-3.8,11.05a126.14,126.14,0,0,1,20.2-21.75q10.45-8.67,21.39-8.67a11.1,11.1,0,0,1,7.13,2.26,7.56,7.56,0,0,1,2.85,6.29,28.86,28.86,0,0,1-1.19,7.61q-1.19,4.28-2.73,8.55t-3.33,8.08q-1.78,3.81-3,6.18-1.67,3.33-3.32,6.89t-3.09,7a56.09,56.09,0,0,0-2.26,6.41,19.22,19.22,0,0,0-.83,5.11q0,3.09,2.85,3.09,3.09,0,7.6-3.09a85.15,85.15,0,0,0,9.75-8q5.22-4.87,10.81-10.81t10.81-11.88a2.94,2.94,0,0,1,2.14-1c1.9,0,2.85,1,2.85,3.09a2.57,2.57,0,0,1-.71,1.9q-5.24,5.72-11.05,12t-11.53,11.52a78.7,78.7,0,0,1-11.17,8.68q-5.46,3.43-9.74,3.44-4.51,0-6.53-2.73a9.59,9.59,0,0,1-2-5.82c0-3.49,1-7.69,3-12.6s4.31-10.14,7-15.68q1.65-3.33,3.32-7.13c1.11-2.54,2.14-5,3.09-7.49s1.74-4.75,2.38-6.89a19.68,19.68,0,0,0,.95-5.35c0-1.74-.36-2.81-1.07-3.21a6.23,6.23,0,0,0-3-.59q-8.33,0-17,7.13A115.11,115.11,0,0,0,439.62,145q-4.28,5.47-8.31,11.65t-7.49,11.76q-3.45,5.58-6.06,10.22c-1.75,3.09-3.09,5.43-4,7a4.43,4.43,0,0,1-1.9,1.78A4.55,4.55,0,0,1,410.39,187.82Z" transform="translate(-82.17 -35.49)"/><path class="cls-2" d="M510.91,190.91a29.73,29.73,0,0,1-15.92-4.4,45.39,45.39,0,0,1-12.12-10.81,7,7,0,0,0-.59-.95,2.35,2.35,0,0,1-.36-1.43,3.42,3.42,0,0,1,1.19-2.37q5.46-5.47,11.17-11.29t10.93-12q6.89-8.08,12.71-16.4t10.58-15.21a21.83,21.83,0,0,1,2.14-2.85,4.26,4.26,0,0,1,3.32-1.67,2.28,2.28,0,0,1,1.91,1,3.48,3.48,0,0,1,.71,2.13,4,4,0,0,1-1.19,2.74c-.8.87-1.51,1.7-2.14,2.49a12.75,12.75,0,0,0-1.19,4.52q-.24,2.61-.24,5.94a148,148,0,0,0,.72,15.09,138.85,138.85,0,0,1,.71,13.9,80,80,0,0,1-.71,10.7,30.51,30.51,0,0,1-2.85,9.5,85.14,85.14,0,0,0,19-13.78q9-8.57,16.63-16.87a2.5,2.5,0,0,1,2.14-1,2.65,2.65,0,0,1,2.14.84,3,3,0,0,1,.71,2,2.86,2.86,0,0,1-.71,2.13q-5.7,6.42-12.48,13.19a124.26,124.26,0,0,1-14.37,12.36,78.11,78.11,0,0,1-15.69,9A40.87,40.87,0,0,1,510.91,190.91Zm-22.1-17.11a34.24,34.24,0,0,0,10.1,8.2,28.22,28.22,0,0,0,12.95,2.73,12.67,12.67,0,0,0,12.24-7.25,26.1,26.1,0,0,0,2.5-8,63.24,63.24,0,0,0,.71-9.74,128.43,128.43,0,0,0-.83-15.21,113.91,113.91,0,0,1-.83-13.79q-6.42,9.27-17.11,22.1-4.05,4.77-9,10.11T488.81,173.8Z" transform="translate(-82.17 -35.49)"/><path class="cls-2" d="M577.45,188.77a14.5,14.5,0,0,1-7.37-1.78,16,16,0,0,1-5.11-4.64,20.13,20.13,0,0,1-3-6.41,27.79,27.79,0,0,1-1-7.13,50,50,0,0,1,1.9-12.95,64,64,0,0,1,5.83-14.14,81.49,81.49,0,0,1,9.62-13.79,62.65,62.65,0,0,1,13.31-11.64,3.57,3.57,0,0,1,1.42-.48,3.17,3.17,0,0,1,2.14.83,2.61,2.61,0,0,1,1,2,3,3,0,0,1-1.42,2.62A52.28,52.28,0,0,0,583,131.62a79.06,79.06,0,0,0-8.67,12.47A62.33,62.33,0,0,0,568.9,157,42.18,42.18,0,0,0,567,168.81a18.91,18.91,0,0,0,2.5,9.74q2.49,4.27,8,4.28a21.12,21.12,0,0,0,13.07-4.52,84.31,84.31,0,0,0,10.22-9q-8.55-6.42-8.56-20.91a48.78,48.78,0,0,1,1.31-10.22,46.91,46.91,0,0,1,4-11.29,34.45,34.45,0,0,1,6.66-9.15,12.47,12.47,0,0,1,8.91-3.8,7.92,7.92,0,0,1,5.22,1.78,11.09,11.09,0,0,1,3.21,4.4,25.23,25.23,0,0,1,1.55,5.47,32.67,32.67,0,0,1,.47,5.22,48.13,48.13,0,0,1-4,19.49,90.94,90.94,0,0,1-9.5,16.87,19.77,19.77,0,0,0,3.56.48q11.17,0,27.57-18.77a3.19,3.19,0,0,1,2.37-1,2.17,2.17,0,0,1,2,1,3.89,3.89,0,0,1,.6,2.13,2.57,2.57,0,0,1-.71,1.9,114.34,114.34,0,0,1-15.33,14.5q-8,6.18-16.76,6.18a20.92,20.92,0,0,1-7.36-1.43,76.07,76.07,0,0,1-13.07,11.65A26.41,26.41,0,0,1,577.45,188.77Zm35.65-68.92a8,8,0,0,0-6.06,3.09,29.6,29.6,0,0,0-4.76,7.61,49.32,49.32,0,0,0-3.09,9.38,40.29,40.29,0,0,0-1.06,8.44,41.21,41.21,0,0,0,1.06,8.32,12.49,12.49,0,0,0,5.11,7.84,84.68,84.68,0,0,0,9.51-16,42.14,42.14,0,0,0,3.8-17.47q0-1.19-.12-3.09a19.48,19.48,0,0,0-.59-3.68,9.36,9.36,0,0,0-1.43-3.09A2.84,2.84,0,0,0,613.1,119.85Z" transform="translate(-82.17 -35.49)"/><path class="cls-2" d="M672.74,189a9.26,9.26,0,0,1-7-2.86,9.59,9.59,0,0,1-2.73-6.89,19.2,19.2,0,0,1,1.19-6.29,56.7,56.7,0,0,1,3-7c1.19-2.38,2.45-4.72,3.8-7s2.57-4.31,3.68-6.06q1.67-2.85,3.33-5.46c.95-1.58,1.9-3.29,2.85-5.11s1.82-3.6,2.62-5.35a16.28,16.28,0,0,0,1.66-5.46,2.47,2.47,0,0,0-.59-1.79,4.24,4.24,0,0,0-2.74-.59h-5a10.07,10.07,0,0,1-4.39-1,5.93,5.93,0,0,1-3-3.56q-4.75,6.18-10.93,13.3t-13.07,15a2.49,2.49,0,0,1-2.14,1,2.62,2.62,0,0,1-2.13-.84,3,3,0,0,1-.72-2,4.21,4.21,0,0,1,.72-2.13q6.89-7.84,13.07-15.1t10.93-13.18c1.74-2.22,3.21-4,4.39-5.35s2.26-2.65,3.21-3.92a3.39,3.39,0,0,1,5-.6,2.7,2.7,0,0,1,.72,1.79,6.52,6.52,0,0,1-1.19,3.32,17.32,17.32,0,0,0-1.79,4.28,14.52,14.52,0,0,0-.35,2.14c0,.47.31.75,1,.83a17.09,17.09,0,0,0,2.14.12h5a7.79,7.79,0,0,1,5.58,2.14,6.91,6.91,0,0,1,2.26,5.23,16.53,16.53,0,0,1-1.19,5.58q-1.19,3.21-2.85,6.66t-3.68,6.89L679.63,156c-1.27,2.06-2.49,4.16-3.68,6.3s-2.34,4.24-3.45,6.3a39.88,39.88,0,0,0-2.61,5.82,14.89,14.89,0,0,0-.95,4.87,3.43,3.43,0,0,0,1.19,2.86,4.1,4.1,0,0,0,2.61.95,4.81,4.81,0,0,0,3.09-.95,97.45,97.45,0,0,0,9.15-7.73q4.63-4.39,8.91-8.91t8.2-8.91q3.92-4.4,7.25-7.72a2.93,2.93,0,0,1,2.14-1,3.16,3.16,0,0,1,2.14.84,2.58,2.58,0,0,1,1,2,3,3,0,0,1-1,2.13q-2.86,3.1-7,7.73t-8.8,9.5q-4.63,4.88-9.5,9.39a99.23,99.23,0,0,1-9.15,7.61A12.15,12.15,0,0,1,672.74,189Z" transform="translate(-82.17 -35.49)"/><path class="cls-2" d="M711.48,153.84a3,3,0,0,1-2.26-.84,2.75,2.75,0,0,1-.83-2,3,3,0,0,1,1-2.13,138.74,138.74,0,0,0,11.4-13.67q4.51-6.3,8.56-13.19H717.66c-2.07,0-3.09-1-3.09-3.09,0-1.9,1-2.85,3.09-2.85h14.73q1.67-3.09,3.09-6.42t3.09-6.65q2.85-7.61,5-12.6t3.33-8.07q1.43-3.57,2.37-5.71a3,3,0,0,1,4.87-1.07,2.74,2.74,0,0,1,.83,2,4.65,4.65,0,0,1-.47,2.14q-3.33,8.55-6.65,16.52t-7.13,17l-1.19,2.85h24.24c2,0,3.09,1,3.09,2.85,0,2.06-1,3.09-3.09,3.09H737.14q-2.13,5.24-4.51,11.76t-4.4,13.31q-2,6.78-3.33,13.19a58,58,0,0,0-1.3,11.41,23.09,23.09,0,0,0,1.3,7.25c.87,2.61,2.58,3.92,5.11,3.92q2.61,0,7-3.21a107,107,0,0,0,9.63-8.08q5.22-4.87,10.93-10.93t10.69-11.76a2.94,2.94,0,0,1,2.14-1,3.15,3.15,0,0,1,2.14.84,2.58,2.58,0,0,1,1,2,3,3,0,0,1-1,2.13q-2.85,3.57-8.2,9.51T753,174.27a95.25,95.25,0,0,1-12.24,10.22q-6.18,4.27-10.7,4.28c-4.28,0-7.36-1.78-9.27-5.35a24.09,24.09,0,0,1-2.85-11.52q0-11.18,6.42-31.61-2.62,3.33-5,6.18t-5.71,6.41A2.92,2.92,0,0,1,711.48,153.84Z" transform="translate(-82.17 -35.49)"/></svg>