<svg id="Layer_1" data-name="Layer 1" xmlns="http://www.w3.org/2000/svg" xmlns:xlink="http://www.w3.org/1999/xlink" viewBox="0 0 269.36 192.99"><defs><style>.cls-1,.cls-5,.cls-6{fill:none;}.cls-2{fill:#e3fdf5;}.cls-3{clip-path:url(#clip-path);}.cls-4{opacity:0.5;}.cls-5{stroke:#6cb5a5;stroke-width:0.6px;}.cls-5,.cls-6{stroke-miterlimit:10;}.cls-6{stroke:#fff;stroke-width:0.9px;}</style><clipPath id="clip-path" transform="translate(-14.25 -38)"><rect class="cls-1" x="19" y="38" width="246" height="186"/></clipPath></defs><title>bg</title><rect class="cls-2" x="4.75" width="246" height="186"/><g class="cls-3"><g class="cls-4"><path class="cls-5" d="M165.59,125.19l20.93-26.95c1.94-6.38,3.89-11.57,5.37-15.26,4-9.83,6-14.85,10.46-20a41.58,41.58,0,0,1,11.42-9.13c-.82,2.18-2,5.54-3.24,9.72-2.24,7.67-2.31,10.3-3.88,14.27a34.86,34.86,0,0,1-9.31,12.92A41.33,41.33,0,0,1,186.69,98Z" transform="translate(-14.25 -38)"/><path class="cls-5" d="M187,97.57A68,68,0,0,0,199,79.46a117,117,0,0,1,5.78-12.08,81.13,81.13,0,0,1,6.17-8.88h0l2.1-2.69" transform="translate(-14.25 -38)"/><path class="cls-5" d="M182.85,103a101.95,101.95,0,0,0-3.52-40.9A45.21,45.21,0,0,0,176,77.48,46.27,46.27,0,0,0,182.85,103Z" transform="translate(-14.25 -38)"/><line class="cls-5" x1="168.61" y1="64.96" x2="165.19" y2="24.86"/><path class="cls-5" d="M174,114.46c4.23-6.35,8.63-8.55,11.38-9.44,4.82-1.57,8.38-.38,23.22,2.15,5.19.89,9.39,1.54,11.94,1.92a78.78,78.78,0,0,1-18.29,5.57A79.17,79.17,0,0,1,174,114.46Z" transform="translate(-14.25 -38)"/><path class="cls-5" d="M174.13,114.19a40.79,40.79,0,0,1,10.53-3.35c6.29-1.09,10.51-.25,15.81,0a74.47,74.47,0,0,0,20.05-1.71" transform="translate(-14.25 -38)"/><path class="cls-5" d="M167.26,123.08a102,102,0,0,0,2.48-41,45.1,45.1,0,0,0-5.54,14.77A46.24,46.24,0,0,0,167.26,123.08Z" transform="translate(-14.25 -38)"/><line class="cls-5" x1="153.01" y1="85.08" x2="155.48" y2="44.91"/></g><path class="cls-6" d="M17,133.37l34.66-32c4.1-8.27,7.93-14.9,10.79-19.61C70.08,69.24,74,62.87,81.26,56.9A57.63,57.63,0,0,1,98.9,47c-1.6,2.79-4,7.1-6.62,12.54-4.8,9.95-5.48,13.52-8.52,18.58A48.35,48.35,0,0,1,68.12,93.66,57.37,57.37,0,0,1,52,101.09Z" transform="translate(-14.25 -38)"/><path class="cls-6" d="M52.54,100.56a93.31,93.31,0,0,0,20.35-22A163.17,163.17,0,0,1,83.51,63.39,109.93,109.93,0,0,1,94,52.68h0l3.46-3.21" transform="translate(-14.25 -38)"/><path class="cls-6" d="M45.61,107a140.83,140.83,0,0,0,4.93-26,141.07,141.07,0,0,0-.46-30.62,61.84,61.84,0,0,0-8,20.27A63.94,63.94,0,0,0,45.61,107Z" transform="translate(-14.25 -38)"/><line class="cls-6" x1="31.36" y1="68.96" x2="35.79" y2="13.49"/><path class="cls-6" d="M30.88,120.63c7.2-7.71,13.7-9.7,17.66-10.3,6.93-1,11.52,1.38,31.18,8.21,6.88,2.38,12.46,4.21,15.85,5.32a108.8,108.8,0,0,1-26.21,3.45A109.38,109.38,0,0,1,30.88,120.63Z" transform="translate(-14.25 -38)"/><path class="cls-6" d="M31.17,120.3a56.72,56.72,0,0,1,15.11-2.19c8.83,0,14.4,2,21.56,3.64A102.82,102.82,0,0,0,95.58,124" transform="translate(-14.25 -38)"/><path class="cls-6" d="M19.79,130.86a141.13,141.13,0,0,0,8.65-25,141.32,141.32,0,0,0,4-30.36A61.87,61.87,0,0,0,21.55,94.42,63.81,63.81,0,0,0,19.79,130.86Z" transform="translate(-14.25 -38)"/><line class="cls-6" x1="5.54" y1="92.86" x2="18" y2="38.63"/><g class="cls-4"><path class="cls-5" d="M141.82,228.7,113.66,199c-7.21-3.47-13-6.73-17.13-9.16-10.94-6.48-16.52-9.84-21.77-16A50.08,50.08,0,0,1,66,158.53c2.44,1.36,6.21,3.39,11,5.61,8.69,4.06,11.8,4.61,16.22,7.2a42.1,42.1,0,0,1,13.64,13.42,49.71,49.71,0,0,1,6.62,13.94Z" transform="translate(-14.25 -38)"/><path class="cls-5" d="M113,198.21a81.34,81.34,0,0,0-19.32-17.44,141.07,141.07,0,0,1-13.27-9.05A97,97,0,0,1,71,162.77h0l-2.81-3" transform="translate(-14.25 -38)"/><path class="cls-5" d="M118.59,204.16a122.36,122.36,0,0,0-49.17-3.29,53.88,53.88,0,0,0,17.68,6.77A55.57,55.57,0,0,0,118.59,204.16Z" transform="translate(-14.25 -38)"/><line class="cls-5" x1="104.34" y1="166.16" x2="56.14" y2="162.9"/><path class="cls-5" d="M130.61,216.81c-6.76-6.18-8.57-11.8-9.13-15.23-1-6,1.08-10,6.8-27.16,2-6,3.53-10.85,4.45-13.81A94,94,0,0,1,136,183.32,94.91,94.91,0,0,1,130.61,216.81Z" transform="translate(-14.25 -38)"/><path class="cls-5" d="M130.32,216.55a49,49,0,0,1-2-13.09c-.15-7.67,1.62-12.52,2.93-18.76a89.49,89.49,0,0,0,1.62-24.1" transform="translate(-14.25 -38)"/><path class="cls-5" d="M139.61,226.32a122.51,122.51,0,0,0-48.16-10.41A54,54,0,0,0,108,225.18,55.44,55.44,0,0,0,139.61,226.32Z" transform="translate(-14.25 -38)"/><line class="cls-5" x1="125.36" y1="188.32" x2="78.15" y2="178.07"/></g><path class="cls-6" d="M280.88,139.49l-34,19.8c-4.82,6-9.13,10.69-12.31,14-8.44,8.8-12.8,13.28-19.76,16.83A48.23,48.23,0,0,1,198.73,195c1.8-2,4.53-5.06,7.64-9,5.69-7.23,6.89-10,10.28-13.58a40.33,40.33,0,0,1,15.51-9.81,47.61,47.61,0,0,1,14.48-3.13Z" transform="translate(-14.25 -38)"/><path class="cls-6" d="M246.07,159.79A77.88,77.88,0,0,0,225.56,174a137.16,137.16,0,0,1-11.37,10.42,90.79,90.79,0,0,1-10.42,6.83h0l-3.39,2" transform="translate(-14.25 -38)"/><path class="cls-6" d="M252.86,155.83A118,118,0,0,0,239,201.05a51.59,51.59,0,0,0,10.19-15A53.18,53.18,0,0,0,252.86,155.83Z" transform="translate(-14.25 -38)"/><line class="cls-6" x1="238.62" y1="117.83" x2="225.03" y2="162.15"/><path class="cls-6" d="M267.31,147.36c-7.24,5-12.89,5.43-16.22,5.2-5.82-.4-9.12-3.2-23.89-12.29-5.16-3.18-9.37-5.68-11.93-7.18a90.48,90.48,0,0,1,52,14.27Z" transform="translate(-14.25 -38)"/><path class="cls-6" d="M267,147.58a47.19,47.19,0,0,1-12.68-1c-7.2-1.54-11.34-4.25-16.88-6.84A85.93,85.93,0,0,0,215.28,133" transform="translate(-14.25 -38)"/><path class="cls-6" d="M278.18,141a117.59,117.59,0,0,0-20.27,42.72,51.49,51.49,0,0,0,12.27-13.39A53.29,53.29,0,0,0,278.18,141Z" transform="translate(-14.25 -38)"/><line class="cls-6" x1="263.93" y1="103.03" x2="244.02" y2="144.9"/></g></svg>