<svg xmlns="http://www.w3.org/2000/svg" xmlns:xlink="http://www.w3.org/1999/xlink" viewBox="0 0 1205.39 348.03"><defs><style>.cls-1{isolation:isolate;}.cls-2{fill:#3b5849;}.cls-3{fill:#fbe0ca;}.cls-4{fill:#6cb5a5;}.cls-5,.cls-7,.cls-8,.cls-9{fill:none;stroke-miterlimit:10;}.cls-5{stroke:#fbe0ca;}.cls-6{fill:#e3fdf5;}.cls-7,.cls-9{stroke:#fff;}.cls-7{stroke-width:0.79px;}.cls-8{stroke:#6cb5a5;}.cls-10{fill:#c4d6d5;}.cls-11{fill:#15b8b5;}.cls-12{fill:#077773;}.cls-13,.cls-36{fill:#fff;}.cls-13{opacity:0.21;mix-blend-mode:overlay;}.cls-14,.cls-21,.cls-28{fill:#c7dee0;}.cls-14{opacity:0.6;}.cls-14,.cls-18,.cls-22,.cls-28,.cls-41,.cls-48{mix-blend-mode:multiply;}.cls-15{fill:#0e5e5a;}.cls-16{fill:#106f6c;}.cls-17{fill:#758989;}.cls-18{fill:#f79d59;}.cls-18,.cls-22,.cls-28,.cls-41{opacity:0.35;}.cls-19{fill:#697777;}.cls-20,.cls-22{fill:#b1c8c9;}.cls-23{fill:#93a3a2;}.cls-24{fill:#e8e8e8;}.cls-25{fill:#f49987;}.cls-26{fill:#b7cecd;}.cls-27{fill:url(#linear-gradient);}.cls-29{fill:#feb19e;}.cls-30{fill:url(#linear-gradient-2);}.cls-31{fill:#332012;}.cls-32{fill:#ff856a;}.cls-33{fill:#127266;}.cls-34{fill:#16998f;}.cls-35{fill:#1baa9c;}.cls-37{fill:#f9ded7;}.cls-38{fill:#16b596;}.cls-39{fill:#07514c;}.cls-40{fill:#4c321c;}.cls-41{fill:#d64136;}.cls-42{fill:#28190f;}.cls-43{fill:#f16e46;}.cls-44{fill:#e8cfbf;}.cls-45{fill:#14988e;}.cls-46{fill:#98aeaf;}.cls-47{fill:url(#linear-gradient-3);}.cls-48{fill:#107a7a;opacity:0.17;}.cls-49{fill:#edcfbc;}.cls-50{fill:#d1a98b;}.cls-51{fill:#ffd9a6;}.cls-52{fill:#e2bfa6;}.cls-53{fill:url(#linear-gradient-4);}</style><linearGradient id="linear-gradient" x1="960.34" y1="411.7" x2="948.49" y2="363.71" gradientUnits="userSpaceOnUse"><stop offset="0" stop-color="#c7e2e2"/><stop offset="1" stop-color="#e1efef"/></linearGradient><linearGradient id="linear-gradient-2" x1="966.71" y1="410.13" x2="956.93" y2="370.5" xlink:href="#linear-gradient"/><linearGradient id="linear-gradient-3" x1="634.64" y1="354.83" x2="643.55" y2="313.73" gradientUnits="userSpaceOnUse"><stop offset="0" stop-color="#0f847e"/><stop offset="1" stop-color="#159b91"/></linearGradient><linearGradient id="linear-gradient-4" x1="650.05" y1="358.17" x2="658.96" y2="317.07" xlink:href="#linear-gradient-3"/></defs><title>greensort-main2</title><g class="cls-1"><g id="Layer_1" data-name="Layer 1"><path class="cls-2" d="M174.68,361.12c-17.52,44.79-57.49,52.25-52.2,73.85,6.11,24.92,60.81,20.93,89.33,58.92,18.05,24,4.69,37,24.36,47.92,16.89,9.36,47.29,4.33,109.05-1.57,36-3.43,52.71-7.19,95.13-13.35,20.52-3,36-4.92,48.95-6.36,38.68-4.31,67.07-7.24,72.87-7.78,30.41-2.87,104-12.86,295.83-44.79C369.4,300.76,217,289,182.81,320.26,175.91,326.56,184.22,336.74,174.68,361.12Z" transform="translate(-122 -229)"/><path class="cls-3" d="M542,318c-129.64-31.27-186.55-49.1-211.84-60-7-3-37.72-16.76-66.83-17-3.55,0-12.44.1-30.27,0-23.75-.13-24.48-.44-26.48,0-25.79,5.72-50.08,78.28-11.35,113,27.13,24.31,74.43,20.36,141.23,14A741.66,741.66,0,0,0,542,318Z" transform="translate(-122 -229)"/><path class="cls-3" d="M479.53,514.64c.66.21,1.18-.2,1.73-.42,7.66-3.13,15.31-6.3,22.84-9.72.55-.25,1.07-.58,1.76-1,.24,1.47-.52,2.34-.61,3.36a40.66,40.66,0,0,0,.05,7c.45,5.82.84,11.62-.13,17.43a63.63,63.63,0,0,1-5,15.31,2.6,2.6,0,0,0-.43,1.9c-.74.1-.95.72-1.18,1.27-1.41,3.44-4.08,6.22-5.27,9.78-.18.57-.59.6-1.05.55-1.59-.15-3.19-.32-4.78-.49-.67-.07-1-.32-.41-.92,3.32-3.51,4.94-8.12,7.68-12,.53-.74,1.33-1.37,1.32-2.42a47,47,0,0,0,4.13-8.5,17.41,17.41,0,0,0-.5-13.44,6.59,6.59,0,0,0-.88-1.4,3.08,3.08,0,0,0-5.2,0c-1.71,2.1-1.95,4.79-2.83,7.22-.72,2-.86,4.24-2.09,6.08-.72,1.72-1.41,3.44-2.15,5.14-3.67,8.44-10.88,11.62-19.61,8.65-1.26-.42-2.53-.84-3.76-1.33-2.32-.93-3-2-2.59-4.48a19.57,19.57,0,0,1,4.25-10,76.33,76.33,0,0,0,6-7.76,14.1,14.1,0,0,0,2.36-6,1.75,1.75,0,0,1,1.26-1.52C476.15,516.23,478.05,515.88,479.53,514.64Z" transform="translate(-122 -229)"/><path class="cls-3" d="M483,465.15c2.66.36,4.86,1.76,7,3.17,4.43,2.86,8.09,6.72,12.42,9.72,2.36,1.63,4.71,3.31,7.67,3.77a4.37,4.37,0,0,0,4.66-1.79c1-1.45.72-2.94,0-4.38a8.41,8.41,0,0,0-1.12-1.65c-3.31-3.8-6.59-7.63-10-11.36-2.65-2.92-6.25-4.31-9.83-5.69-1.09-.41-2.16-.88-3.64-1.49a32.82,32.82,0,0,1,7.59-.82c7.35.12,13.56,3.23,19.39,7.38a41.53,41.53,0,0,1,14.65,17.68c1.25,2.92,3,5.56,6.46,6.94-2.4,1.16-4.59,2.18-6.73,3.27-4.79,2.44-9.57,4.89-14.33,7.4a2.42,2.42,0,0,1-2.9-.23,18,18,0,0,0-2.22-1.45,3.57,3.57,0,0,1-2.1-3.2c-.25-3.29-4-6.23-7.24-6a1.38,1.38,0,0,1-1.17-.33,81.63,81.63,0,0,0-17.3-10.72c-1.34-.65-2.66-1.35-4-2a24.69,24.69,0,0,0-4.87-2c-1.89-.59-3.84-.89-5.83-1.36C473.62,467.14,477.45,463.83,483,465.15Z" transform="translate(-122 -229)"/><path class="cls-3" d="M500.05,548.74c.66-.27.71-1,1-1.48,5.12-10.36,6.62-21.29,5.29-32.71-.4-3.35-.57-6.74.74-10a4.27,4.27,0,0,1,2.49-2.5,140.56,140.56,0,0,0,13.06-6.22c.64-.34,1.13-.59,1.52.39,1.12,2.88.88,5.9,1,8.88,0,.67-.86.83-1.1,1.4a13,13,0,0,0-.22,10.17,2.88,2.88,0,0,0,2.67,1.72c1,.06,1.31.58,1.5,1.39,2,8.58,2.25,17.11-.51,25.61-1.08,3.32-2.33,6.59-3.36,9.91-.86,2.8-2.9,3.11-5.33,3.55a70.17,70.17,0,0,0,2.2-12.65,89.74,89.74,0,0,0-1.78-24.47,8.9,8.9,0,0,0-2.77-4.65c-1.91-1.79-3.93-1.33-4.81,1.13-1,2.69-.9,5.57-1.11,8.37-.45,6-.36,12.08-1.41,18.06a33.15,33.15,0,0,1-2.46,8.26,2.44,2.44,0,0,0-.41,1.89c-.47-.15-.7.09-.92.47A19.41,19.41,0,0,1,504,557c-3.24,4.11-3.55,4.21-8.68,3.44-1.11-.17-1.25-.5-.75-1.5,1.56-3.13,3.86-5.83,5.13-9.13C499.88,549.46,500.12,549.15,500.05,548.74Z" transform="translate(-122 -229)"/><path class="cls-3" d="M475.4,471.36a10.58,10.58,0,0,1,4.87,2c-.4.67-.2,1.07.5,1.43,3,1.51,5.87,3.09,8.81,4.61a74.16,74.16,0,0,1,10.82,7.06,1.47,1.47,0,0,1,.65,1.53,7.61,7.61,0,0,0,5.16,7.66c.31.09.74.26,1,.13,2.33-1.36,3.75.56,5.44,1.47a20.41,20.41,0,0,1,1.81,1.27c-2.49,1.15-4.76,2.25-7.07,3.26-3.4,1.49-6.88,2.82-10.24,4.41-2.47,1.18-4.83.84-7.24,0-4-1.35-7.15-4.14-10.64-6.35-.89-.57-1.78-1.11-2.68-1.66-7.69-4.41-15.58-7.3-24.36-3.17.48-3.68,4.42-8.09,8.86-8.42a19.81,19.81,0,0,1,10.9,2.29l4.55,2.42a4.52,4.52,0,0,1,2.25,1c3.36,1.93,6.61,4.08,10.52,4.86a11.92,11.92,0,0,0,5.11.19,3.33,3.33,0,0,0,2.61-4.67,7,7,0,0,0-1.15-2,23.43,23.43,0,0,0-15.13-9.49c-.9-.16-1.93-.1-2.53-1a137.37,137.37,0,0,1-14.25-2.2c-1.07-.25-1.1-.49-.56-1.37a30.46,30.46,0,0,1,3.47-4.44,2.44,2.44,0,0,1,2.1-.72,24.73,24.73,0,0,1,9.3,2.26c.43.18,1.07.83,1.42.1.44-.92-.6-.86-1.05-1.08C477.56,472.22,476.47,471.81,475.4,471.36Z" transform="translate(-122 -229)"/><path class="cls-3" d="M476.52,499.32c2.43,1.71,4.81,3.5,7.3,5.12a26.12,26.12,0,0,0,7.93,3.92l-12.56,5.38a162.52,162.52,0,0,0-28.36,14.62c-3.76,2.46-7.83,4.42-11.62,7.57,1.49-5.31,2.38-10.44,5.67-14.65a13.37,13.37,0,0,1,9.54-5.16c2.71-.28,5.42-.08,8.14-.17a19.62,19.62,0,0,0,8.77-2.28c2.32-1.26,4.18-2.89,4.12-5.76-.07-3.09-2.06-4.93-4.59-6.23a11.38,11.38,0,0,0-8.43-.5c-3,.81-5.82,2.18-8.76,3.18-4.19,1.43-4.2,1.45-3.46-2.82.79-4.62,2.11-6,6.84-7,4.16-.85,8.16-.08,12.08,1.31A59.56,59.56,0,0,1,476.52,499.32Z" transform="translate(-122 -229)"/><path class="cls-3" d="M439.32,537.75c2.54-3.25,26.84-17.64,32.9-19.57a14,14,0,0,1-3,6.91,57.46,57.46,0,0,1-4.29,5.28c-3.84,4.07-5.27,9-5.31,14.52C452.86,542.73,447.24,537.24,439.32,537.75Z" transform="translate(-122 -229)"/><path class="cls-3" d="M524.73,556.46c.78-2.24,1.48-4.49,2.33-6.68a47.79,47.79,0,0,0,1.83-29.72,5.78,5.78,0,0,1,.19-3.36,12.53,12.53,0,0,0-.9-9.2c-.11-.25-.3-.57-.52-.63-2.06-.59-1.63-2.3-1.73-3.77-.17-2.38-.1-4.8-1.11-7-.32-.71,0-1,.57-1.28a89,89,0,0,1,9-5c1.62-.72,3.23-1.48,4.84-2.21.56-.24,1-.49,1,.56-.11,3.07,1.46,5.5,3.14,7.88,3.12,4.39,6.89,8.29,9.65,12.93,4.61,7.74,5.36,15.93,2.72,24.51-.82,2.66-1.87,5.21-3,8a4.29,4.29,0,0,1-.26-2.06c-.17-6.3-.67-12.54-3.36-18.38a25.13,25.13,0,0,0-6-8.49,5.91,5.91,0,0,0-1-.84c-1.35-.74-2.69-1.75-4.34-1s-1.68,2.37-1.78,3.85c-.22,3.55.59,7.06.48,10.62-.22,7.81-1,15.51-4.07,22.78a17.81,17.81,0,0,1-6.58,8.18C525.54,556.29,525.27,556.62,524.73,556.46Z" transform="translate(-122 -229)"/><path class="cls-3" d="M574.27,480.41A6.07,6.07,0,0,1,578,482c-7.08.45-14.18.73-21.22,1.74-1.43.21-2.86.38-4.29.58-1,.13-2,.44-2.21,1.47a2.51,2.51,0,0,0,1.17,2.71c4.6,3.54,8.75,7.49,11.67,12.61a26.52,26.52,0,0,1,3.33,14.24,44.35,44.35,0,0,1-4.62,18.92A32.73,32.73,0,0,1,553,545a22.87,22.87,0,0,1,1.58-5.34c2.06-5.18,3.73-10.41,3.61-16.11-.17-8.26-3.66-15.06-8.73-21.29a74.8,74.8,0,0,1-7.27-10.13,7.86,7.86,0,0,1-.7-1.5c-.88-2.83-.48-3.74,2.26-4.73A100,100,0,0,1,574.27,480.41Z" transform="translate(-122 -229)"/><path class="cls-3" d="M502.25,450.75a65.54,65.54,0,0,1,15.14-.62c14.61,1.55,25.74,14.86,28.44,18.24a2.08,2.08,0,0,1,.42.91,1.88,1.88,0,0,1,0,.48,20.41,20.41,0,0,1-2.19,8.81c-1.36,2.45-.72,3.65,2.08,3.63a25.18,25.18,0,0,0,6.21-1.13c4.62-1.24,9.31-2.13,14-2.91.88-.15,1.82-.52,2.68.14a2.76,2.76,0,0,1,2.47,1A120,120,0,0,0,547,483.67a32.62,32.62,0,0,0-4.41,1.48c-2.75,1.28-4.77.71-7.16-1.68-1.92-1.92-3-4.4-4.16-6.79-3.92-8.06-10.12-13.91-17.72-18.39-6.76-4-13.94-5.91-21.82-4.41a1.36,1.36,0,0,1-1.4-.21A68.91,68.91,0,0,1,502.25,450.75Z" transform="translate(-122 -229)"/><path class="cls-4" d="M500,330a56.22,56.22,0,0,0-18,6c-2.1,1-13.73,4.67-37,12s-49,14.06-69,19c-1.28,2.75-10.42,23.33,0,44,9.21,18.27,29.93,29.15,52,27a974.22,974.22,0,0,0,144-4c107.59-11,183.87-36.92,271-67,55.19-19.05,142.23-49.1,139-65-2-10-53.08-6.81-104-12a180.15,180.15,0,0,0-23-1c-12.12.26-18.19.39-24,2-4.07,1.13-7.17,2.47-12,2-1-.1-2.67-.33-11-3-5.31-1.7-9-3-9-3-14.51-5.11-15.93-5.65-17-6-6.37-2.1-13.26-1.77-34,4-21.57,6-37,12-37,12-38.61,15-34,15.6-46,19-37.27,10.54-77.26,3.51-80,3-6.54-1.21-18.55-3.88-34-2-8.9,1.08-14.73,1.79-22,5-6.22,2.74-9.47,5.53-17,7C506.8,330,505.53,329.23,500,330Z" transform="translate(-122 -229)"/><path class="cls-2" d="M683.05,401.87c.67-54.56,16.06-63.81,20.75-65.87,1.86-.82,8.18-3.21,20.81-8,16.06-6.09,18-6.62,19.65-7,14.15-3.22,26.54,1,33.53,3,23.91,6.9,60.87,10.26,87.35,2.85,18.07-5.07,13.9-10.28,50.22-30.85,26.95-15.27,40.43-22.9,59.27-27.15,32.6-7.37,61.5-.43,102.12,8.51a330.18,330.18,0,0,1,44.33,12.71c33.53,12.41,42.66,27.3,58.64,24.3,15.75-3,14.09-17.87,30.43-25.37,26.42-12.13,75.22,6.43,99.12,37.31,18.91,24.43,25.59,60.87,5.54,89.93-25.09,36.36-77.1,39.5-82.7,39.76-21.57,1-26.8-5.21-67-7-24.79-1.11-33.55.77-53.17,1-41.22.48-52.68-7.22-106.36-15-51.52-7.47-47.36-1.31-112.14-9-45.52-5.4-53.34-9.13-98.26-15C755.88,405.87,718.41,403,683.05,401.87Z" transform="translate(-122 -229)"/><path class="cls-4" d="M1165,485.31c-.37-.56-1-.58-1.55-.75-7.62-2.35-15.25-4.66-23-6.72-.56-.15-1.14-.22-1.89-.36.72-1.24,1.81-1.43,2.51-2.13a38.55,38.55,0,0,0,4.23-5.23c3.22-4.6,6.47-9.16,10.75-12.9a60.65,60.65,0,0,1,13.06-8.35c.56-.29,1.2-.49,1.48-1.15.61.37,1.14,0,1.65-.23,3.16-1.7,6.84-2.14,9.9-4.07.48-.3.81-.07,1.12.24q1.63,1.63,3.26,3.29c.45.46.53.83-.26.93-4.62.59-8.64,3-13.06,4.24-.84.23-1.82.21-2.45,1a45.5,45.5,0,0,0-8.27,3.8,16.85,16.85,0,0,0-7.85,10.31,6.54,6.54,0,0,0-.2,1.59,3,3,0,0,0,3.88,3.17c2.56-.53,4.38-2.37,6.52-3.65,1.77-1.06,3.23-2.63,5.28-3.25,1.58-.84,3.15-1.7,4.74-2.51,7.89-4,15.2-2,19.89,5.54.68,1.09,1.36,2.17,2,3.29,1.17,2.11,1,3.29-.81,4.92a18.79,18.79,0,0,1-9.25,4.82,72.94,72.94,0,0,0-9.2,2.12,13.65,13.65,0,0,0-5.42,3,1.68,1.68,0,0,1-1.86.37C1168.44,486.19,1166.81,485.29,1165,485.31Z" transform="translate(-122 -229)"/><path class="cls-4" d="M1132.13,520.05c-1.76-1.89-2.55-4.28-3.31-6.67-1.55-4.84-1.91-9.95-3.31-14.82-.76-2.66-1.48-5.35-3.4-7.5a4.21,4.21,0,0,0-4.57-1.52,3.79,3.79,0,0,0-2.65,3.29,8.14,8.14,0,0,0-.17,1.91c.14,4.85.24,9.71.49,14.55.19,3.8,2,7,3.84,10.25.56,1,1.07,2,1.79,3.33a31.65,31.65,0,0,1-6.14-4c-5.4-4.59-8.13-10.69-9.93-17.35a40,40,0,0,1-.1-22.12c.85-2.93,1.14-6-.57-9.12,2.5.61,4.74,1.19,7,1.69q7.59,1.67,15.19,3.25a2.31,2.31,0,0,1,2,1.94,16.07,16.07,0,0,0,.77,2.44,3.44,3.44,0,0,1-.4,3.66c-1.83,2.61-.83,7.08,1.76,8.86a1.3,1.3,0,0,1,.66,1,78.11,78.11,0,0,0,6.33,18.56c.6,1.31,1.16,2.63,1.74,4a23.56,23.56,0,0,0,2.39,4.49c1,1.59,2.31,3,3.51,4.57C1140.32,524.29,1135.44,524.41,1132.13,520.05Z" transform="translate(-122 -229)"/><path class="cls-4" d="M1170.51,447.38c-.66-.2-1.11.27-1.63.51A55.06,55.06,0,0,0,1145,469c-1.76,2.74-3.71,5.36-6.68,7a4.1,4.1,0,0,1-3.38.35,137.77,137.77,0,0,0-13.53-3.36c-.68-.13-1.2-.25-.89-1.21.92-2.84,3-4.94,4.7-7.22.39-.51,1.14-.09,1.67-.36a12.52,12.52,0,0,0,6.38-7.45,2.78,2.78,0,0,0-.94-2.91,1.37,1.37,0,0,1-.26-1.94c3.75-7.61,8.78-14.12,16-18.76,2.83-1.81,5.76-3.48,8.56-5.33,2.35-1.55,4.06-.54,6.13.62a68.22,68.22,0,0,0-9.36,8.07,86.61,86.61,0,0,0-13.64,19.31A8.67,8.67,0,0,0,1139,461c.33,2.5,2.11,3.4,4.27,2.1,2.37-1.41,4.08-3.59,6-5.55,4-4.21,7.65-8.78,12.09-12.59a32,32,0,0,1,6.88-4.64c.56-.28,1.21-.48,1.46-1.16.26.4.57.36,1,.22a18.11,18.11,0,0,1,2-.57c4.93-1.08,5.23-1,8.57,2.75.72.8.63,1.13-.35,1.57-3.08,1.38-6.45,2-9.4,3.66C1171.08,447,1170.71,447,1170.51,447.38Z" transform="translate(-122 -229)"/><path class="cls-4" d="M1141.57,520.06a10.2,10.2,0,0,1-2.39-4.49c.71-.26.81-.67.5-1.37-1.27-2.93-2.48-5.88-3.73-8.82a71.65,71.65,0,0,1-3.75-11.86,1.43,1.43,0,0,1,.45-1.54,7.34,7.34,0,0,0,.85-8.86c-.18-.26-.4-.64-.64-.68-2.57-.41-2.45-2.71-3.15-4.42a17.69,17.69,0,0,1-.57-2c2.55.66,4.91,1.23,7.25,1.89,3.45,1,6.85,2.1,10.32,3,2.56.64,4.11,2.33,5.41,4.4,2.16,3.46,2.8,7.46,4,11.24.32,1,.65,1.91,1,2.87,3,8,7.14,15,16.2,17.25-2.6,2.45-8.23,3.33-11.74.86a19.14,19.14,0,0,1-6.72-8.38c-.64-1.52-1.27-3.05-1.9-4.57a4.27,4.27,0,0,1-1.08-2.11c-1.33-3.49-2.43-7.08-4.87-10.05a11.27,11.27,0,0,0-3.68-3.26,3.21,3.21,0,0,0-4.8,1.88,6.87,6.87,0,0,0-.38,2.2,22.64,22.64,0,0,0,5.47,16.32c.57.66,1.38,1.25,1.25,2.31a133.91,133.91,0,0,1,9.27,10.35c.63.84.51,1-.42,1.36a30.29,30.29,0,0,1-5.3,1.19,2.35,2.35,0,0,1-2-.75,24,24,0,0,1-5.54-7.36c-.21-.41-.29-1.28-1-1-.89.42-.07,1,.13,1.45C1140.48,518.1,1141.05,519.07,1141.57,520.06Z" transform="translate(-122 -229)"/><path class="cls-4" d="M1157.82,498.56c-.76-2.76-1.44-5.55-2.3-8.28a25.24,25.24,0,0,0-3.5-7.76l12.63,3.67a156.7,156.7,0,0,0,30,6.45c4.3.46,8.53,1.5,13.28,1.47-4.36,3-8.15,6.31-13.18,7.44a12.9,12.9,0,0,1-10.25-2c-2.19-1.45-4.09-3.26-6.17-4.85a18.83,18.83,0,0,0-7.93-3.66c-2.49-.49-4.87-.41-6.58,1.77s-1.48,4.92-.38,7.44a11,11,0,0,0,6,5.53c2.74,1.23,5.67,1.93,8.47,3,4,1.49,4,1.49.85,4.22-3.42,3-5.24,3.16-9.34,1a21.51,21.51,0,0,1-8.19-8.36A57.41,57.41,0,0,1,1157.82,498.56Z" transform="translate(-122 -229)"/><path class="cls-4" d="M1209,492.68c-3.87.86-30.77-3.27-36.46-5.54a13.51,13.51,0,0,1,6.45-3.32,54.1,54.1,0,0,1,6.42-1.31c5.35-.68,9.4-3.45,12.82-7.57C1202,480.7,1202.8,488.22,1209,492.68Z" transform="translate(-122 -229)"/><path class="cls-4" d="M1156.85,426.54c-1.94,1.19-3.84,2.44-5.82,3.55a46.06,46.06,0,0,0-19.52,21,5.63,5.63,0,0,1-2.19,2.38,12,12,0,0,0-5,7.4,1.13,1.13,0,0,0,0,.79c1.18,1.7-.18,2.7-1,3.87-1.33,1.87-2.86,3.63-3.48,5.91-.19.72-.61.7-1.2.61a87.5,87.5,0,0,1-9.77-1.82c-1.65-.45-3.3-.87-5-1.32-.56-.15-1.07-.26-.4-1,2-2.22,2.28-5,2.48-7.79.36-5.17-.06-10.38.72-15.52,1.3-8.58,5.74-15.14,13-19.91,2.23-1.48,4.57-2.74,7.08-4.12a4.1,4.1,0,0,1-1.07,1.69c-3.72,4.8-7.16,9.75-8.73,15.74a24.25,24.25,0,0,0-.71,10,5.21,5.21,0,0,0,.25,1.26c.55,1.38.93,2.95,2.61,3.42s2.7-.74,3.67-1.79c2.34-2.51,3.88-5.61,6.14-8.2,4.94-5.67,10.21-10.94,17-14.46a17.2,17.2,0,0,1,9.9-2.08C1156.15,426.18,1156.55,426.1,1156.85,426.54Z" transform="translate(-122 -229)"/><path class="cls-4" d="M1073.49,452.89a5.92,5.92,0,0,1-1.86-3.44c5.55,4,11,8.12,16.87,11.67,1.19.72,2.36,1.47,3.55,2.19a2.17,2.17,0,0,0,2.54.26,2.4,2.4,0,0,0,.78-2.73c-1.25-5.45-1.93-10.93-1-16.52a25.61,25.61,0,0,1,6.22-12.64,42.58,42.58,0,0,1,15-11.26,31.48,31.48,0,0,1,13.19-2.65,22.77,22.77,0,0,1-4.44,3c-4.7,2.59-9.14,5.47-12.54,9.78-4.92,6.26-6.48,13.46-6.51,21.19a73,73,0,0,1-.78,12,7.42,7.42,0,0,1-.4,1.54c-1.07,2.64-1.93,3.08-4.57,2.14A96.35,96.35,0,0,1,1073.49,452.89Z" transform="translate(-122 -229)"/><path class="cls-4" d="M1109,519a62.63,62.63,0,0,1-11.65-8.79c-9.93-10.08-10.09-26.79-10-31a2.11,2.11,0,0,1,.24-.94,2,2,0,0,1,.28-.37,19.71,19.71,0,0,1,7-5.23c2.52-1,2.77-2.27.67-4a24,24,0,0,0-5.31-3c-4.2-1.9-8.23-4.1-12.22-6.39-.75-.44-1.67-.74-1.91-1.75a2.68,2.68,0,0,1-1.24-2.24,116.75,116.75,0,0,0,20.93,11.72,33.31,33.31,0,0,0,4.19,1.59c2.83.72,4,2.39,4.31,5.63.25,2.6-.47,5.1-1.06,7.59-2,8.4-1,16.54,2,24.53,2.59,7.09,6.76,12.92,13.55,16.61.34.19.8.35.91,1A66.74,66.74,0,0,1,1109,519Z" transform="translate(-122 -229)"/><path class="cls-5" d="M1013.32,436.84l47.2-37c6-10.06,11.58-18.08,15.69-23.75,10.92-15.08,16.58-22.76,26.36-29.59a73.26,73.26,0,0,1,23.37-10.71c-2.32,3.37-5.8,8.6-9.67,15.22-7.1,12.12-8.33,16.58-12.71,22.68-7.7,10.74-17.54,15.92-21.41,18.07a72.73,72.73,0,0,1-21.23,7.77Z" transform="translate(-122 -229)"/><path class="cls-5" d="M1061.7,398.87a118.85,118.85,0,0,0,28-25.82,207.85,207.85,0,0,1,15-18.13,143.48,143.48,0,0,1,14.33-12.52h0l4.72-3.7" transform="translate(-122 -229)"/><path class="cls-5" d="M1052.26,406.28A179.39,179.39,0,0,0,1063.71,335a78.75,78.75,0,0,0-12.26,24.87A81.31,81.31,0,0,0,1052.26,406.28Z" transform="translate(-122 -229)"/><line class="cls-5" x1="930.26" y1="177.28" x2="941.54" y2="107.41"/><path class="cls-5" d="M1032.18,422.1c9.92-9,18.36-10.9,23.44-11.25,8.9-.62,14.47,2.93,38.7,13.59,8.47,3.72,15.35,6.62,19.54,8.36a137.72,137.72,0,0,1-33.57,1.7A139.35,139.35,0,0,1,1032.18,422.1Z" transform="translate(-122 -229)"/><path class="cls-5" d="M1032.59,421.71a72,72,0,0,1,19.38-1.22c11.2.83,18,4.06,27,6.81a130.91,130.91,0,0,0,34.93,5.64" transform="translate(-122 -229)"/><path class="cls-5" d="M1017.08,433.94a179.65,179.65,0,0,0,21.71-68.84A78.94,78.94,0,0,0,1023,387.92,81.25,81.25,0,0,0,1017.08,433.94Z" transform="translate(-122 -229)"/><line class="cls-5" x1="895.08" y1="204.94" x2="916.42" y2="137.47"/><path class="cls-6" d="M428,438a527.59,527.59,0,0,1,98,26c59.34,22.14,69.55,39.25,122,52,28,6.82,51.27,9,95,13,58.79,5.43,67.9,1.63,97,10,47.57,13.67,42.74,29.42,79,36,62.3,11.31,116.47-27.93,129-37,17-12.31,25.52-21.07,31-31,12.87-23.33,10-47.47,8-58-7-.84-16.26-2.09-27-4-3.62-.64-11.17-2-20-4-29.41-6.68-31.55-11.21-47-12-11.49-.59-9.9,1.94-26,2-17.51.07-17.17-2.92-37-4-17.79-1-35.53.48-46-2-.88-.21-4.58-1.12-9.7-1.92-4.66-.73-8.14-1-9.3-1.08-11-.88-17.09-3.08-33-5-12.69-1.53-24.14-2-29-5a49.7,49.7,0,0,0-7.65-3.85c-1-.4-2.09-.78-3.35-1.15-5.64-1.64-9.34-1.42-20-2-4.67-.25-9.33-.72-14-1-19.33-1.16-63.49-4.8-66-5C670.45,397.31,603.62,404.94,428,438Z" transform="translate(-122 -229)"/><path class="cls-7" d="M1324,367l-45.43-12.71c-9.19.84-16.85,1.06-22.35,1.1-14.64.08-22.14.06-31-3a57.58,57.58,0,0,1-17.66-9.84c3.22-.1,8.15-.33,14.15-.94,11-1.14,14.38-2.43,20.29-2.49a48.4,48.4,0,0,1,21.41,5.17,57.09,57.09,0,0,1,14.8,9.86Z" transform="translate(-122 -229)"/><path class="cls-7" d="M1277.38,354A93.59,93.59,0,0,0,1248,348.2a163.45,163.45,0,0,1-18.47-1.09,110.71,110.71,0,0,1-14.6-3.27h0l-4.54-1.27" transform="translate(-122 -229)"/><path class="cls-7" d="M1286.47,356.52A141.11,141.11,0,0,0,1236,382.39a61.63,61.63,0,0,0,21.47-3.79A63.85,63.85,0,0,0,1286.47,356.52Z" transform="translate(-122 -229)"/><line class="cls-7" x1="1164.47" y1="127.52" x2="1114.93" y2="152.85"/><path class="cls-7" d="M1305.84,361.89c-10.34-2.09-15.45-6.57-18-9.63-4.53-5.35-4.87-10.53-9.38-30.85-1.57-7.11-2.94-12.82-3.78-16.29a108.73,108.73,0,0,1,31.19,56.77Z" transform="translate(-122 -229)"/><path class="cls-7" d="M1305.4,361.81a56.49,56.49,0,0,1-9.79-11.72c-4.68-7.48-5.81-13.32-8.21-20.26a103.14,103.14,0,0,0-12.66-24.77" transform="translate(-122 -229)"/><path class="cls-7" d="M1320.37,366a141.4,141.4,0,0,0-53.75,18.24,62.23,62.23,0,0,0,21.8-.62A63.88,63.88,0,0,0,1320.37,366Z" transform="translate(-122 -229)"/><line class="cls-7" x1="1198.37" y1="136.96" x2="1145.66" y2="154.8"/><path class="cls-2" d="M527.15,308.53c-.94.36-1.16,1.29-1.57,2-5.76,10.42-11.45,20.88-16.8,31.52-.39.78-.68,1.61-1.11,2.66-1.59-1.43-1.54-3.09-2.35-4.32a58.65,58.65,0,0,0-6.37-7.77c-5.75-6.11-11.43-12.25-15.6-19.64-3.84-6.82-6.25-14.14-8.25-21.64-.25-.92-.35-1.91-1.23-2.52.72-.78.41-1.66.17-2.48-1.53-5.14-1.06-10.66-3-15.73-.29-.79.14-1.2.68-1.56,1.93-1.27,3.88-2.51,5.82-3.77.81-.52,1.37-.53,1.28.67-.55,6.93,1.81,13.55,2.24,20.38.08,1.3-.25,2.73.7,3.9a68.31,68.31,0,0,0,3.06,13.25,25.06,25.06,0,0,0,12.7,14.6,9.4,9.4,0,0,0,2.25.79c3.41.73,5.81-1.19,5.82-4.72,0-3.9-2.14-7.12-3.36-10.65-1-2.91-2.87-5.52-3.15-8.7-.75-2.57-1.52-5.12-2.23-7.7-3.52-12.77,1.69-22.84,14.15-27.41,1.8-.66,3.59-1.33,5.41-1.9,3.45-1.06,5.12-.47,6.95,2.68a28.05,28.05,0,0,1,4.24,15,108.79,108.79,0,0,0,.31,14.1,20.16,20.16,0,0,0,2.74,8.84,2.5,2.5,0,0,1,0,2.83C529.49,303.69,527.68,305.8,527.15,308.53Z" transform="translate(-122 -229)"/><path class="cls-2" d="M568,367.08c-3.31,2-7,2.43-10.77,2.82-7.55.8-15.13-.22-22.68.34-4.12.3-8.27.55-12,2.7-2.44,1.4-3.8,3.36-3.61,6.22.17,2.55,1.86,3.94,4,4.87a12,12,0,0,0,2.74.83c7.14,1.27,14.28,2.6,21.44,3.71,5.61.87,10.9-.81,16.16-2.51,1.59-.51,3.21-1,5.42-1.61a47.49,47.49,0,0,1-7.76,7.77c-8.34,6.51-18.11,8.64-28.39,9.25-11.38.68-22.2-1.14-32.39-6.57-4-2.14-8.4-3.49-13.5-1.94,1.64-3.47,3.17-6.58,4.59-9.74Q496,372.63,500.61,362a3.47,3.47,0,0,1,3.45-2.37,24.22,24.22,0,0,0,3.8-.38,5.17,5.17,0,0,1,5.24,1.69c3.26,3.47,10.1,3.38,13.5.13a1.94,1.94,0,0,1,1.6-.68c9.87.24,19.5-1.43,29.06-3.62,2.1-.48,4.21-.9,6.31-1.35a34.5,34.5,0,0,0,7.3-2.13c2.64-1,5.1-2.47,7.75-3.74C576.67,356.4,575.37,363.57,568,367.08Z" transform="translate(-122 -229)"/><path class="cls-2" d="M473.35,288.87c-.49.9.06,1.71.24,2.54,3.63,16.23,11.83,29.83,23.64,41.41,3.47,3.4,6.72,7,8.21,11.9a6.15,6.15,0,0,1-.52,5,204.48,204.48,0,0,0-9,18.76c-.41,1-.73,1.69-2,.93-3.87-2.21-6.32-5.81-9.12-9.06-.63-.73.21-1.7,0-2.55a18.71,18.71,0,0,0-8.95-11.6,4.14,4.14,0,0,0-4.55.49c-1.22.88-2,.53-2.92-.2-10-7.81-18-17.14-22.56-29.15-1.8-4.7-3.35-9.49-5.2-14.14-1.56-3.91.44-6.1,2.77-8.79a99.76,99.76,0,0,0,9,16.15,128.89,128.89,0,0,0,24.1,25.81,12.89,12.89,0,0,0,7.3,2.71c3.75.28,5.61-2.06,4.37-5.61-1.35-3.9-4-7-6.32-10.38-4.93-7.16-10.51-13.86-14.73-21.51a47.79,47.79,0,0,1-4.71-11.47c-.23-.92-.33-1.92-1.25-2.5.66-.25.7-.72.62-1.35a24.58,24.58,0,0,1-.22-3.1c-.09-7.53.17-7.93,6.61-11.7,1.39-.81,1.85-.56,2.2,1,1.08,4.92.94,10,2.5,14.86C472.89,287.9,472.9,288.47,473.35,288.87Z" transform="translate(-122 -229)"/><path class="cls-2" d="M570.87,353.28a15.17,15.17,0,0,1-7.3,2.13c-.16-1.12-.73-1.38-1.85-1.15-4.67,1-9.36,1.84-14,2.79a107.33,107.33,0,0,1-18.49,1.87,2.11,2.11,0,0,1-2.11-1.13c-2.51-3.94-8.44-5.7-12.71-3.92-.43.18-1.06.38-1.19.72-1.38,3.63-4.71,2.77-7.42,3.27a28.54,28.54,0,0,1-3.17.21c1.74-3.53,3.29-6.82,5-10,2.47-4.74,5.16-9.37,7.48-14.19,1.72-3.55,4.66-5.3,8.09-6.57,5.71-2.11,11.76-1.83,17.67-2.5,1.5-.17,3-.37,4.49-.56,12.61-2,24.06-5.9,30.16-18.46,2.79,4.56,2.36,13.06-2.32,17.44a28.58,28.58,0,0,1-14.29,7.29l-7.27,1.39c-1,.83-2.24.75-3.41.93-5.51.88-11.1,1.41-16.17,4.07a17,17,0,0,0-5.9,4.4c-2.15,2.79-1.66,5.64,1.29,7.58a10.06,10.06,0,0,0,3.11,1.23A33.79,33.79,0,0,0,556,347c1.14-.63,2.25-1.63,3.77-1.12,5.91-3.59,11.66-7.46,17.94-10.42,1.43-.67,1.67-.44,1.87,1a44.85,44.85,0,0,1,.12,8.11,3.5,3.5,0,0,1-1.7,2.71,35.85,35.85,0,0,1-12.46,5.87c-.65.18-2,0-1.68,1.17.34,1.43,1.45.42,2.16.26C567.67,354.27,569.26,353.74,570.87,353.28Z" transform="translate(-122 -229)"/><path class="cls-2" d="M544.35,323c-4.26.27-8.55.42-12.8.85s-8.35.9-12.42,2.77q4.61-8.69,9.2-17.36a233.92,233.92,0,0,0,18.57-42c2-6.15,4.78-12,6.18-19,3.12,7.29,6.76,13.84,6.88,21.54a19.21,19.21,0,0,1-6,14.38c-2.78,2.77-6,5-9,7.56a28.36,28.36,0,0,0-7.77,10.48c-1.46,3.49-2.07,7,.59,10.17,2.86,3.39,6.76,3.65,10.77,2.82,4.29-.9,7.38-3.58,9.9-7,2.64-3.63,4.55-7.7,6.94-11.48,3.39-5.38,3.39-5.41,6.42,0,3.29,5.89,3,8.62-1.38,14-3.9,4.7-9.07,7.46-14.72,9.44A83.69,83.69,0,0,1,544.35,323Z" transform="translate(-122 -229)"/><path class="cls-2" d="M551.31,246.31c.08,5.94-14.13,44-19.18,51.65a20.19,20.19,0,0,1-2.9-10.43,84.13,84.13,0,0,1,0-9.79c.63-8-2.19-14.81-7.17-21.06C531.65,253,542.89,254,551.31,246.31Z" transform="translate(-122 -229)"/><path class="cls-2" d="M438.72,302.52c1.15,3.2,2.4,6.36,3.43,9.59A68.76,68.76,0,0,0,467,347.05a8.35,8.35,0,0,1,2.82,3.93c1.74,4.4,5.11,7.43,9.33,9.5a1.71,1.71,0,0,0,1.15.24c2.84-1.2,3.89,1.09,5.35,2.66,2.33,2.51,4.44,5.28,7.59,6.87,1,.51.84,1.11.52,1.95a128,128,0,0,1-5.62,13.73c-1.17,2.28-2.29,4.57-3.44,6.85-.4.77-.71,1.48-1.61.27-2.65-3.54-6.6-4.85-10.64-6-7.45-2.1-15.2-3.06-22.49-5.77-12.15-4.51-20.39-13-25.19-25-1.48-3.71-2.6-7.51-3.87-11.6a6,6,0,0,1,2.15,2.07c5.88,6.9,12.08,13.44,20.36,17.55a36.22,36.22,0,0,0,14.41,4.08,8.15,8.15,0,0,0,1.91,0c2.19-.39,4.6-.47,5.8-2.78s-.27-4.18-1.5-5.91c-3-4.19-7-7.39-10.13-11.48-6.8-8.94-12.91-18.25-16-29.19a25.68,25.68,0,0,1,0-15.11C438,303.43,438,302.82,438.72,302.52Z" transform="translate(-122 -229)"/><path class="cls-2" d="M451.94,432.46a8.85,8.85,0,0,1-5.6,1.67c7.53-6.9,15.22-13.64,22.2-21.13,1.41-1.51,2.86-3,4.28-4.52,1-1,1.79-2.25,1.15-3.65s-2-2-3.76-2c-8.35.19-16.57-.49-24.46-3.59a38.13,38.13,0,0,1-16.59-12.94A63.7,63.7,0,0,1,417.23,361a47.34,47.34,0,0,1,.13-20.1,33.37,33.37,0,0,1,3.06,7.42c2.37,7.65,5.22,15,10.5,21.3,7.66,9.1,17.72,13.57,29,16a109.12,109.12,0,0,1,17.29,4.79,11.23,11.23,0,0,1,2.15,1c3.53,2.38,3.91,3.77,1.73,7.35A143.82,143.82,0,0,1,451.94,432.46Z" transform="translate(-122 -229)"/><path class="cls-2" d="M559.4,400.62A92.78,92.78,0,0,1,543,415c-17.75,11.46-42.25,6.61-48.33,5.26a3,3,0,0,1-1.3-.64,2.9,2.9,0,0,1-.46-.52c-2.54-3.62-4.75-7.41-5.51-11.84-.68-4-2.49-4.74-5.61-2.18a35.74,35.74,0,0,0-5.94,6.87c-4.05,5.56-8.5,10.79-13.06,15.92-.87,1-1.59,2.23-3.15,2.27-1.07.85-2.19,1.53-3.65,1.13a173.13,173.13,0,0,0,23.51-27.06,49.32,49.32,0,0,0,3.6-5.64c1.91-3.92,4.7-5.11,9.54-4.59,3.88.43,7.32,2.23,10.78,3.85,11.68,5.48,23.9,6.44,36.47,4.59,11.16-1.64,21-6,28.42-14.77a2,2,0,0,1,1.77-1A98.82,98.82,0,0,1,559.4,400.62Z" transform="translate(-122 -229)"/><path class="cls-8" d="M378,369.64c13.75,14.52-27.49-29.06-41.24-43.58-10.57-5.09-19.07-9.86-25.1-13.42-16-9.48-24.19-14.41-31.89-23.52a73.11,73.11,0,0,1-12.83-22.28c3.57,2,9.1,5,16.05,8.23,12.72,5.95,17.28,6.76,23.76,10.55,11.4,6.68,17.48,16,20,19.65a73.16,73.16,0,0,1,9.7,20.43Z" transform="translate(-122 -229)"/><path class="cls-8" d="M335.73,325a119,119,0,0,0-28.3-25.54A204.88,204.88,0,0,1,288,286.17a141,141,0,0,1-13.79-13.11h0l-4.12-4.36" transform="translate(-122 -229)"/><path class="cls-8" d="M344,333.69a179.19,179.19,0,0,0-72-4.81,78.71,78.71,0,0,0,25.9,9.9A81.23,81.23,0,0,0,344,333.69Z" transform="translate(-122 -229)"/><line class="cls-8" x1="221.98" y1="104.69" x2="151.37" y2="99.92"/><path class="cls-8" d="M361.59,352.22c-9.91-9.05-12.55-17.28-13.37-22.3-1.44-8.8,1.58-14.68,9.95-39.79,2.93-8.78,5.18-15.9,6.52-20.23a138.05,138.05,0,0,1-3.1,82.32Z" transform="translate(-122 -229)"/><path class="cls-8" d="M361.16,351.84a72.05,72.05,0,0,1-3-19.18c-.2-11.23,2.38-18.33,4.3-27.47a131.14,131.14,0,0,0,2.38-35.3" transform="translate(-122 -229)"/><path class="cls-8" d="M374.77,366.16a179.66,179.66,0,0,0-70.54-15.26,78.72,78.72,0,0,0,24.17,13.58A81.24,81.24,0,0,0,374.77,366.16Z" transform="translate(-122 -229)"/><line class="cls-8" x1="252.77" y1="137.16" x2="183.62" y2="122.15"/><path class="cls-9" d="M221.77,422.85l56.06,21.37c11.73,0,21.46.61,28.44,1.2,18.55,1.59,28.05,2.49,38.93,7.35a73.33,73.33,0,0,1,21.23,14.51c-4.09-.25-10.36-.53-18-.45-14.05.16-18.51,1.41-26,.8-13.17-1.07-22.69-6.83-26.52-9a72.71,72.71,0,0,1-17.6-14.19Z" transform="translate(-122 -229)"/><path class="cls-9" d="M279.23,444.75a119.06,119.06,0,0,0,36.58,10.73A206.44,206.44,0,0,1,339.08,459a141.61,141.61,0,0,1,18.11,5.83h0L362.8,467" transform="translate(-122 -229)"/><path class="cls-9" d="M268,440.48a179.59,179.59,0,0,0,67-26.91,78.57,78.57,0,0,0-27.64,2.31A81.21,81.21,0,0,0,268,440.48Z" transform="translate(-122 -229)"/><line class="cls-9" x1="146.02" y1="211.48" x2="211.71" y2="185.14"/><path class="cls-9" d="M244.11,431.43c12.85,3.84,18.81,10.11,21.73,14.28,5.11,7.31,4.94,13.91,8.29,40.17,1.17,9.18,2.24,16.57,2.9,21.06a138.28,138.28,0,0,1-32.92-75.51Z" transform="translate(-122 -229)"/><path class="cls-9" d="M244.66,431.58a71.54,71.54,0,0,1,11,16c5.06,10,5.82,17.55,8.05,26.61A131.62,131.62,0,0,0,276.91,507" transform="translate(-122 -229)"/><path class="cls-9" d="M226.18,424.58a179.67,179.67,0,0,0,70.19-16.86A78.69,78.69,0,0,0,268.69,406,81.22,81.22,0,0,0,226.18,424.58Z" transform="translate(-122 -229)"/><line class="cls-9" x1="104.18" y1="195.58" x2="173.01" y2="179.11"/><path class="cls-7" d="M946.25,263.6l34.21,32.49c8.51,3.55,15.38,6.94,20.27,9.48,13,6.78,19.6,10.3,26,17.13a57.76,57.76,0,0,1,11,17c-2.89-1.42-7.36-3.53-13-5.79-10.24-4.14-13.85-4.58-19.09-7.29A48.29,48.29,0,0,1,989.21,312a57.23,57.23,0,0,1-8.47-15.63Z" transform="translate(-122 -229)"/><path class="cls-7" d="M981.31,296.9a93.31,93.31,0,0,0,23.29,18.86,164.48,164.48,0,0,1,15.82,9.61,111.86,111.86,0,0,1,11.38,9.71h0l3.42,3.25" transform="translate(-122 -229)"/><path class="cls-7" d="M974.47,290.4a141,141,0,0,0,56.75.76,61.94,61.94,0,0,0-20.75-6.69A63.9,63.9,0,0,0,974.47,290.4Z" transform="translate(-122 -229)"/><line class="cls-7" x1="852.47" y1="61.4" x2="908.11" y2="62.19"/><path class="cls-7" d="M959.87,276.59c8.16,6.68,10.58,13,11.43,17,1.5,6.85-.63,11.58-6.15,31.65-1.93,7-3.4,12.7-4.27,16.16a108.55,108.55,0,0,1-1-64.76Z" transform="translate(-122 -229)"/><path class="cls-7" d="M960.22,276.86a56.48,56.48,0,0,1,3.16,14.94c.64,8.8-1.09,14.49-2.22,21.75a103.55,103.55,0,0,0-.39,27.82" transform="translate(-122 -229)"/><path class="cls-7" d="M948.93,266.19a141.13,141.13,0,0,0,56,9,61.92,61.92,0,0,0-19.55-9.65A63.9,63.9,0,0,0,948.93,266.19Z" transform="translate(-122 -229)"/><line class="cls-7" x1="826.93" y1="37.19" x2="881.86" y2="46.09"/></g><g id="Layer_3" data-name="Layer 3"><ellipse class="cls-10" cx="551.43" cy="246.87" rx="57.22" ry="5.71"/><ellipse class="cls-10" cx="689.93" cy="243.99" rx="57.22" ry="8.92"/><ellipse class="cls-10" cx="811.48" cy="246.21" rx="57.22" ry="8.01"/><ellipse class="cls-10" cx="670.4" cy="233.63" rx="74.57" ry="5.71"/><ellipse class="cls-10" cx="628.38" cy="251.54" rx="3.29" ry="1.37"/><path class="cls-10" d="M785,485.25c0,1.12-5.14,2-11.48,2s-11.48-.91-11.48-2,5.14-2,11.48-2S785,484.13,785,485.25Z" transform="translate(-122 -229)"/><path class="cls-10" d="M859.64,484.81c0,.88-2.23,1.59-5,1.59s-5-.71-5-1.59,2.23-1.59,5-1.59S859.64,483.93,859.64,484.81Z" transform="translate(-122 -229)"/><path class="cls-6" d="M918.82,338.93h-4.41v-4.41a2.1,2.1,0,0,0-2.1-2.1H911.1a2.1,2.1,0,0,0-2.1,2.1v4.41h-4.4a2.1,2.1,0,0,0-2.1,2.09v1.21a2.1,2.1,0,0,0,2.1,2.1H909v4.41a2.1,2.1,0,0,0,2.1,2.1h1.21a2.1,2.1,0,0,0,2.1-2.1v-4.41h4.41a2.09,2.09,0,0,0,2.09-2.1V341A2.09,2.09,0,0,0,918.82,338.93Z" transform="translate(-122 -229)"/><path class="cls-6" d="M702.49,254.94h-4.4v-4.41a2.1,2.1,0,0,0-2.1-2.1h-1.21a2.1,2.1,0,0,0-2.1,2.1v4.41h-4.41a2.1,2.1,0,0,0-2.1,2.1v1.21a2.1,2.1,0,0,0,2.1,2.09h4.41v4.41a2.1,2.1,0,0,0,2.1,2.1H696a2.1,2.1,0,0,0,2.1-2.1v-4.41h4.4a2.1,2.1,0,0,0,2.1-2.09V257A2.1,2.1,0,0,0,702.49,254.94Z" transform="translate(-122 -229)"/><path class="cls-6" d="M629.29,320.13h-4.41v-4.4a2.1,2.1,0,0,0-2.1-2.1h-1.2a2.1,2.1,0,0,0-2.1,2.1v4.4h-4.41a2.1,2.1,0,0,0-2.1,2.1v1.21a2.1,2.1,0,0,0,2.1,2.1h4.41V330a2.1,2.1,0,0,0,2.1,2.09h1.2a2.1,2.1,0,0,0,2.1-2.09v-4.41h4.41a2.1,2.1,0,0,0,2.1-2.1v-1.21A2.1,2.1,0,0,0,629.29,320.13Z" transform="translate(-122 -229)"/><path class="cls-6" d="M796.35,275.67h-4.41v-4.41a2.1,2.1,0,0,0-2.1-2.1h-1.21a2.1,2.1,0,0,0-2.1,2.1v4.41h-4.4a2.1,2.1,0,0,0-2.1,2.09V279a2.1,2.1,0,0,0,2.1,2.1h4.4v4.41a2.1,2.1,0,0,0,2.1,2.1h1.21a2.1,2.1,0,0,0,2.1-2.1v-4.41h4.41a2.1,2.1,0,0,0,2.09-2.1v-1.21A2.1,2.1,0,0,0,796.35,275.67Z" transform="translate(-122 -229)"/><path class="cls-6" d="M849,251.8h-4.41v-4.41a2.1,2.1,0,0,0-2.1-2.1h-1.21a2.1,2.1,0,0,0-2.09,2.1v4.41h-4.41a2.1,2.1,0,0,0-2.1,2.09v1.21a2.1,2.1,0,0,0,2.1,2.1h4.41v4.41a2.1,2.1,0,0,0,2.09,2.1h1.21a2.1,2.1,0,0,0,2.1-2.1V257.2H849a2.1,2.1,0,0,0,2.1-2.1v-1.21A2.1,2.1,0,0,0,849,251.8Z" transform="translate(-122 -229)"/><circle class="cls-6" cx="693.36" cy="40.47" r="2.62"/><path class="cls-6" d="M641.17,269.92a2.63,2.63,0,1,1-2.63-2.62A2.63,2.63,0,0,1,641.17,269.92Z" transform="translate(-122 -229)"/><circle class="cls-6" cx="811.94" cy="98.25" r="2.62"/><path class="cls-6" d="M851.06,315.48a2.63,2.63,0,1,1-2.63-2.63A2.62,2.62,0,0,1,851.06,315.48Z" transform="translate(-122 -229)"/><circle class="cls-6" cx="746.85" cy="43.1" r="2.62"/><path class="cls-6" d="M695.49,297.57a2.63,2.63,0,1,1-2.62-2.62A2.62,2.62,0,0,1,695.49,297.57Z" transform="translate(-122 -229)"/><circle class="cls-6" cx="767.94" cy="70.7" r="7.01"/><circle class="cls-6" cx="628.66" cy="7.01" r="7.01"/><path class="cls-6" d="M837.14,385.42s9-12.05,11.94-25.14a17.57,17.57,0,0,0,7.58-17.65A33.86,33.86,0,0,1,860,321.79s-28.89,10.94-13.93,38.49c0,0,2.21,6-10.69,24Z" transform="translate(-122 -229)"/><path class="cls-11" d="M837.34,317a72.36,72.36,0,1,1-27.74-28.86A72.26,72.26,0,0,1,837.34,317Z" transform="translate(-122 -229)"/><path class="cls-12" d="M788.13,414a15.48,15.48,0,0,0-2.13.53c-.57,0-1-.33-.89.13s.33.57,0,.64-.67.08-.2.3.83-.06,1.23-.33,1-1.14.56-.43-1.08,1.06-.15.66.42-.48,1.28-.63,1.1,0,1.17-.18-.35-.28-.45-.53S789.63,413.83,788.13,414Z" transform="translate(-122 -229)"/><path class="cls-12" d="M751.22,330.81c.32.05,1.12-.21,3.76-.54s1.46-.32,1.12-.64-.88-.18-1.44-.57-.2-.45-.66-.39a7.18,7.18,0,0,1-1.78-.45c-.73-.16-.52.1-1.35-.51s-.17-.26-1.76-.23-1.17-.32-1.17-.32l-2-.14-1.83.5s-1.74.49-2,.9a1.33,1.33,0,0,1-.86.78c-.34.14,0,.27.37.28s.46,0,1-.67.39-.23,1.31-.58.35-.36.9-.5,1,.14.62.33-.41.21.4.31.41.14,1,0,.5.13,1.08.18.59.26,1.49.07.45-.06.67.39S750.9,330.76,751.22,330.81Z" transform="translate(-122 -229)"/><path class="cls-12" d="M768,331.11c-.69,0-.34,0-.84.08-.84.07-.62.9,0,.78s.29-.05,1,.28.24-.17.55-.32,1-.43,1-.45-.46-.1-.93-.26S768.69,331.13,768,331.11Z" transform="translate(-122 -229)"/><path class="cls-12" d="M751.25,325.28c.33,0,.56-.23.42-.74s-.72-1.39-1.06-1.28c-.75.25-1.57-.17-.46.92S750.92,325.31,751.25,325.28Z" transform="translate(-122 -229)"/><path class="cls-12" d="M753,286.05c-.08-.41-.39,0-.39,0l-.2,0C752.78,286.23,753,286.33,753,286.05Z" transform="translate(-122 -229)"/><path class="cls-12" d="M751.74,285.88c-.6-.14-.58.38-.91.43l.41-.06,1.13-.18A5.35,5.35,0,0,0,751.74,285.88Z" transform="translate(-122 -229)"/><path class="cls-12" d="M749.79,286.62s-.46.2-.1.22.21.06.85-.23c.14-.06.23-.15.31-.16l-.11,0C749.9,286.59,749.79,286.62,749.79,286.62Z" transform="translate(-122 -229)"/><path class="cls-12" d="M751.49,286.44a1.57,1.57,0,0,1-.82.45s.19.61.32.59l.87-.12a3.27,3.27,0,0,0,0-.64C751.82,286.54,751.49,286.44,751.49,286.44Z" transform="translate(-122 -229)"/><path class="cls-12" d="M753.24,287c.12-.2-.08-.52-.08-.52l-.41.19-.12.41S753.11,287.15,753.24,287Z" transform="translate(-122 -229)"/><path class="cls-12" d="M774.3,295.48c.38.21.37.36.77,0a1.79,1.79,0,0,0,.45-.64.4.4,0,0,0,.51-.15c.11-.18-.06-.18.19-.31s.39-.27.4-.34.29-.16-.06-.37-.88.08-.6-.38,1.29-.36.18-.6-1-.25-1.53-.16.19.35-.77.17-1.25-.1-1-.5.77-1,.66-1.15-.27-.26-.63-.14a2.67,2.67,0,0,0-.76.45,5.72,5.72,0,0,1-.16.83l-.44.92-.23.69s.13,0-.12.2-1,.21-.48.25,1-.1.45.27-1.24.62-.5.57,2.29-.33,2.29-.33l.53-.13.63.33a6.13,6.13,0,0,1,.86-.31h.1a.36.36,0,0,1-.12.35C774.61,295.4,773.93,295.27,774.3,295.48Z" transform="translate(-122 -229)"/><path class="cls-12" d="M769.86,297a2.36,2.36,0,0,0,.35.33c.13.08,0,0,.44-.16s.35-.23.38-.35-.43,0-.68-.14-.1-.1-.32-.86-.27-.11-.27-.11l-.62.82a2.88,2.88,0,0,0-.06.68c0,.31.38.31.58.24s0,0,0-.18A.39.39,0,0,1,769.86,297Z" transform="translate(-122 -229)"/><path class="cls-12" d="M776.53,295.21c0,.13.35-.41.45-.06s.18.4.18.4l.59-.26.31-.53,0-.38s-.05-.49-.32-.37-.2.18-.41.34-.14.32-.21.16a4.49,4.49,0,0,1-.15-.7c-.39.25-.41.5-.41.5a.34.34,0,0,0-.2.43A1.67,1.67,0,0,1,776.53,295.21Z" transform="translate(-122 -229)"/><path class="cls-12" d="M763.78,280.09a8.55,8.55,0,0,0,2.36-.29l1.61.32c1.61.32.28.12,1,.25s.35-.05.93-.13.31.17-.06.22a4.63,4.63,0,0,0-.88.33c-.52.18.09.16.81.26s.82-.34.82-.34a.37.37,0,0,1,.05.39c-.1.19-.12.1-.35.47s0,0,.49.37a15.68,15.68,0,0,0,1.58.87,27,27,0,0,0,2.9,1l1.77-.09a5.16,5.16,0,0,1,1.58.1c.8.2.47.33.66.3a10,10,0,0,0,1.5,0c0-.1-.53-.74-.83-1.16s-.1-.54-.1-.54l-.16-.33s-.42-.64-.19-.87.39-.08,1.62-.23.45-.11.06-.52-.08-.25.14-.28.45.07.58-.08.29-.17.83-.25,1-.1.41-.54-2.32-.15-8-.54a33,33,0,0,0-9,.41c-.31.05-1.53.32-1.82.38s-.84.24-1.93.41a9.34,9.34,0,0,1-1.38.19,3.9,3.9,0,0,0-1.13.28,2.14,2.14,0,0,0-.44.16,11.92,11.92,0,0,1,1.54,0C763.45,280.58,761.87,280.19,763.78,280.09Z" transform="translate(-122 -229)"/><path class="cls-12" d="M789.57,281.25c1-.06,1.3.31,1.74,0a16.66,16.66,0,0,0-2.92-.9,10.21,10.21,0,0,0-1.5.21l.45.79S788.54,281.32,789.57,281.25Z" transform="translate(-122 -229)"/><path class="cls-12" d="M806.27,288.71s.9-.16,1-.3.2-.69-.15-1A24.56,24.56,0,0,0,804,286a.4.4,0,0,0-.37.42l.88,1.52Z" transform="translate(-122 -229)"/><path class="cls-12" d="M817,297.22a3.9,3.9,0,0,0,.9,1.85,6.35,6.35,0,0,0,.83.85c.34.26,2.26,1.63,2.84,1.52s.86.93.81-.12.28-.8-.19-1.36-.77-1-1.16-1.38-.89-.47-1-1.25A7.2,7.2,0,0,1,820,296c0-.52-7.3-5.49-7.3-5.49-1.23.17-2.66-.78-1.23.17a16.76,16.76,0,0,1,1.62,1.16l1.31.9s2.35,1.35,2.33,1.91-2.58-.22-2.27.33S816.93,296.22,817,297.22Z" transform="translate(-122 -229)"/><path class="cls-12" d="M820.42,324.86c-.2-.12-.45.06-.45.06-.11.32-.11.41.17.49s.35-.05.35-.05S820.62,325,820.42,324.86Z" transform="translate(-122 -229)"/><path class="cls-12" d="M821.11,325.26c-.27.22-.31.3-.16.38a3.83,3.83,0,0,0,.4.18l.2-.33Z" transform="translate(-122 -229)"/><path class="cls-12" d="M821.71,324.93l.31.13.25-.12-.32-.36C821.65,324.8,821.71,324.93,821.71,324.93Z" transform="translate(-122 -229)"/><path class="cls-12" d="M822.11,325.77l.41.23.26-.17-.45-.45A.43.43,0,0,0,822.11,325.77Z" transform="translate(-122 -229)"/><path class="cls-12" d="M822.32,326.7c.22.12.23.41.38.21l.15-.2-.57-.32C822.2,326.52,822.11,326.58,822.32,326.7Z" transform="translate(-122 -229)"/><path class="cls-12" d="M821.64,327c.05.11.14.28.29.32a.33.33,0,0,0,.28,0s-.21-.38-.23-.44S821.64,327,821.64,327Z" transform="translate(-122 -229)"/><polygon class="cls-12" points="698.71 98.13 699.13 98.4 699.26 98.05 698.91 97.77 698.71 98.13"/><path class="cls-12" d="M805.58,412.6l-1.14,0a.38.38,0,0,0-.17.55l.6.31s.84.3,1.07.11.88.1.32-.44S806.1,412.57,805.58,412.6Z" transform="translate(-122 -229)"/><path class="cls-12" d="M771.14,416.09c0-.08-.22-.09-.22-.09s-.12.17,0,.09.1,0,.15.05S771.15,416.11,771.14,416.09Z" transform="translate(-122 -229)"/><polygon class="cls-12" points="649.44 187.39 649.44 187.39 649.43 187.39 649.44 187.39"/><path class="cls-12" d="M771.1,416.23c-.12,0-.52,0-.57.07a3.09,3.09,0,0,1-.6.24l0,.25.64,0,.49,0a1.33,1.33,0,0,1,.36-.22l-.15,0A1.34,1.34,0,0,0,771.1,416.23Z" transform="translate(-122 -229)"/><path class="cls-12" d="M760.64,333.29c.35-.2.49-.77.86-1.18s.46.2,1.23-.24.11-.32,1.22,0,.92.26,1.17-.43-1.29-.72-2.19-1.12a3.44,3.44,0,0,0-2.36-.48c-1.58,0-.6.42-1.38.09s-.88-.14-1.73.24c-.54.25,0,.51.68.41s.51.17.57.58-.23.39-.63.58a6.07,6.07,0,0,1-2,.71c-1.22.26.08.52.08.52a5.82,5.82,0,0,0,1.92-.1c1.16-.23.73-.46,1.84-.3h0C761,332.77,760.3,333.49,760.64,333.29Z" transform="translate(-122 -229)"/><path class="cls-12" d="M842,327.86A71.19,71.19,0,0,0,833.84,311a72.18,72.18,0,0,0-6.63-8.59l-1.16-.92c-1.2-.3-1.53-.48-1.79-.21s-.62.71-.59.91,1,0,0,.19-1.1.42-1.33.19-.84-1.3-.7-.79.93,1.45.87,1.95a7.08,7.08,0,0,0,.05,1.51,13,13,0,0,0,.94,2.41,1,1,0,0,1,.79,1.14c-.09,1-.07,1.13-.14,1.57s-.4.23-.43.72a10.63,10.63,0,0,1,2.48,0s.45.3,1.18.82v0a1.57,1.57,0,0,0-.11.89c.11.47,0,.89-.5.73s-1.71-1.07-1.19-.18,1.33,1.26.88,1.85-1-.51-.44.6,1.74,2.34,1,2.49c-.53.11-1.81-.05-2.76.12a5.62,5.62,0,0,0,1,1.44c.39.44-.23.71.56,1.47a3.17,3.17,0,0,1,.84,2.17,2.78,2.78,0,0,0,.29,1.07,3.79,3.79,0,0,0,.18.34c.36.6,0,1.08-.07,1.44s0,.15.6,1,1,.41.78,1.27a1.45,1.45,0,0,0,.72,1.68c.55.43.64-.05.76.7a1.1,1.1,0,0,0,.54.75c.24.15.47.21.51.25s1.21.88,1.26,1.6.7,1.83,2.17,3.29l.13.12c1.56,1.52,2,3.41,2.74,2.4a5.91,5.91,0,0,1,1.8-1.5c.15-.16.08-.48.55-.59s.71-.14.58-.59a1.47,1.47,0,0,1,.3-1.16s-.77-4.35-.67-4.72a4.38,4.38,0,0,0-.64-2.2.41.41,0,0,0-.21-.13.36.36,0,0,1,.24.13,4.44,4.44,0,0,1,.63,2.2,47.57,47.57,0,0,0,.66,4.72c.15-.18.59-.59.86.65s.12,1.32.46,1.25.8-.42,1,.6c.1.42-.12-3.67-.42-8.61C842.31,328.85,842.16,328.35,842,327.86ZM831,326h0l.06.09Zm-1.37-12.46h0l-.05,0Zm2.19,15.84.27.11Zm5.88-5.19a4.39,4.39,0,0,1,.1.54,3.43,3.43,0,0,0-.1-.52,19.68,19.68,0,0,0-1.84-3.94A19.33,19.33,0,0,1,837.66,324.19Zm-3.22,9.94h0Zm2-2.58h0a.28.28,0,0,0,0-.14A.33.33,0,0,1,836.4,331.55Zm1,.27h0l.06,0Zm-.42-1.14c.06.21.37.45.43.83C837.39,331.13,837.07,330.89,837,330.68ZM835.89,328a7,7,0,0,0,.05,1.75,7.19,7.19,0,0,1-.08-1.91c.12-1.47-.24-1.83.72-2.55a1.27,1.27,0,0,1,.7-.28.88.88,0,0,0,.08.62c-.18,0-.46-.23-.73,0C835.68,326.31,836,326.52,835.89,328Zm3,.49a1,1,0,0,0-.09.7c.07.49.06.67-.6.91.53-.22.1-.34,0-.82,0-.22-.53-.35-.55-.48h0c.36-1.2-.8-2.17-.48-3.1.27.59,1,1.3,1.37,2A1.89,1.89,0,0,1,838.86,328.48Z" transform="translate(-122 -229)"/><path class="cls-12" d="M816.23,357.19c-.9.16-.94.2-2.57-.89s-2.49-1-3-.91-1.65.39-1.77.18-.35-.19-.53.1-.43.09-1.36-.24-.83.05-1.25.5a13.26,13.26,0,0,1-.9,1c0-.06,0-.29,0-.44a2,2,0,0,1,.16-.86c.15-.48-.12-.68-.33-.9s-.68-.18-1.11-.06-.07-.34-.32-.55-1.25-.1-2.26-.38-1.2-.07-1.63.3-.34,1.08-.68,1.33-.76.68-.75.57-.39-.21,0-.42.33-.29.73-.75.14-.52.26-1.11,0-.21-.69-.21a5.3,5.3,0,0,1-2-.71c-.66-.3-.48.64-.48.64a2.19,2.19,0,0,0-.92.71,3,3,0,0,0-.47,1.3c-.07.44-.55.38-.46,0s.35-.63.83-1.71.26-.19.64-.49.27-.17.3-.47.69-1.25.64-1.59-.32,0-.57,0-.69-.51-1.16-1.33-.55-1.77-1.32-1.79c-.38,0-1.06,0-1.08-.09s.41-.32.09-.49c-.62-.33-.28-.06-.71-.56s-.46-.4-.89-.44a5.28,5.28,0,0,1-1.1-.24v0L789,346c-.87-.27-.94.14-.94.14s-1-.06-1.37.42-.47,0-1.47.11c-.57.08-.72.06-.8,0a2.92,2.92,0,0,0-.21-.34,2.88,2.88,0,0,0-2-.4c-.65.09-.11-.18-.1-.6s-.1-.21-.5-.59a3,3,0,0,0-1.25-.52l-.37-.13c-.68-.28-.65-.06-.89-.2s-.2-.29-.44-.74c0-.05,0-.1-.08-.16a1.16,1.16,0,0,0-1-.47l-.42,0a10.28,10.28,0,0,1-1.51-.26c-.2-.11-.26-.51-.51-.89s-.28,0-1.52.15-.95.09-.92.41,0,.31-.55.73-.54.34-1.21.27a4.45,4.45,0,0,1-1.66-.84c-.36-.21-.44.05-.88.39a1.82,1.82,0,0,1-1.39.36c-.66,0-.41-.22-.47-.86s-.64-.53-2.17-.49-1.12.62-2,.87-.6.07-.54.52.7,1.29.79,1.8,0,.5-.43.69-.49.45-.51.17-.28-.35-.55-.73.08-.34.12-.64.22-.21.37-.55-.13-.56-.22-.84-.23-.28-.58-.71,0-.27.46-.5.34-.29.46-.82-.45-.38-1.18,0-.25.93-.61.8-.6-.23-.61.38a.58.58,0,0,1-.76.59c-.21-.05-.72-.19-.8,0s-.07.57-.51.48-.31,0-.88.42-.45,1.24-.34,2.05-.54-.06-.83.71-.95.23-.82,1.17-.18.4-.24.27a1.34,1.34,0,0,0-.18-.24c-.1-.1-.25-.23-.46-.4-.41-.32-.51-.12-1.15-.76s-1.94.18-2.81.4a9.15,9.15,0,0,0-1.88.93c-.67.31-.86-.11-1.1-.49s-.23-.07-.21.23-.15,0-.31,0-.24-.12-.2-.46-.09-.22-.32-.24l-.2,0a1,1,0,0,1-.62-.53,3.45,3.45,0,0,1-.42-.73,2.57,2.57,0,0,0-.33-.58s-.21-.3-.41-.64-.16-.32.12-.56,0-.11-.15-.57.08-.31.43-.64-.11-.63-.19-1,0-.27.15-.7a7.55,7.55,0,0,1,.38-.93.38.38,0,0,0-.39-.54,7.56,7.56,0,0,1-.81.25c-.29.06.28-.17.46-.41s.39-.16.56-.36.08-.25-.15-.25a2.14,2.14,0,0,1-.88-.37c-.45-.23-.88,0-1.14-.25s-.73.34-1.08.16-.39.07-.89.32a2.57,2.57,0,0,1-1.65,0c-.56-.12-.55.27-.77.13s-.1-.1-.5.05-.37-.12-.61-.09c-.08,0-.07,0,0-.1s.47-.44.79-.78c.48-.51.26-1,.25-1.51s.19-.53.49-.71.1-.11.09-.27a1.94,1.94,0,0,1,.31-1c.6-1.19.32-.66.29-1.06a1.36,1.36,0,0,1,.11-.91c.16-.29.72-1,.95-1.39s.21-.71-.41-.56-.71.45-1,.17-1.42.13-2.2.36-.81.55-.89,1.38a6.09,6.09,0,0,1-.57,2.06c-.22.42-.51.6-1.62.82s-.22.21-.81.38-.49.13-1.25.68-.85-.1-1.15-.49-.74.21-1.17-.15-.22-.79-.27-1.24-.56-.42-.72-1.19a17.24,17.24,0,0,1-.54-2.1c-.16-1.13-.11-.71.3-2s0-1.09.37-1.6a1.37,1.37,0,0,0,.21-.56,5.74,5.74,0,0,0,0-1c0-.5,0-.32.15-.68a1,1,0,0,0,.16-.81c-.06-.41.08-.48.42-.89s.45-.34.57-.66.1-.11.62-.18.25-.09.45-.33.13,0,.48-.13.24-.14.27-.39-.13-.33.07-.69.16.23,1.08-.23.35-.3,1-.1.51.05,1-.21.26.21.55.22a2.45,2.45,0,0,1,.76.11.52.52,0,0,0,.7-.3c.14-.27.24,0,.52.14s.13-.23-.19-.59,0-.33,0-.72-.14,0-.5.07-.32-.07-.13-.34.49,0,1.33-.06.72-.27.83-.45.09,0,.15.36.2,0,.89-.27.3-.34,1.37-.1,0,.64,1,.73.77-.47,1.35-.55.59.07.93.48.77.09,1,.66-.2.69-.17,1.21.24,1.24.52,1.2.11.3.29.49.94,1.21,1.14,1.22.59.23,1.06-.45a2,2,0,0,0-.07-2.26c-.44-.42-.18-.59-.13-1s-.17-.39-.49-.94a6.07,6.07,0,0,1-.56-1.33c-.15-.44-.36-.38-.13-.88a7.12,7.12,0,0,1,.73-1.57c.33-.36.42-.33,1.27-1.07a13.28,13.28,0,0,0,1.36-1.34c.47-.47,1.15-.43,1.24-.71s.24-.24.93-.6a5.81,5.81,0,0,0,1-.62c.55-.36.83-.9.25-1.18s0-.21.83-.47-.16-.25-.47-.44-.29-.45-.26-.81.16-.43,0-.92,0-.68.38-1.13,0,.15,0,.63.06.32.42.48.32.17.35-.16a6.86,6.86,0,0,1,.07-.92c.09-.33.1-.05.52.14s.18-.12.53-.57.25-.33.33-.81c0,0-.49-.21.15-.38s.06-.24.35-.54.17-.08,1.07-.17.88-.09,1.05-.51.13,0,.63.14.65-.57.52-.67-.5-.11-.51-.56-.06-.51.77-1.24.56-.23,1-.59.29-.3.7-.31.48-.15.77-.21.29-.24.85-.34.3-.2.24-.53,0-.15.71-.28a6.56,6.56,0,0,0,1.67-.67c.6-.27,0,.21.06.26s.24-.05.88-.05,0,.16,0,.29-.28.15-.55.12-.29-.09-.53,0-.93.45-.93.45a4.65,4.65,0,0,1-.19.53,1.26,1.26,0,0,0-.16.56c0,.22.33.41.51.4a4,4,0,0,0,.88-.38,3.6,3.6,0,0,0,.67-.6c.19-.17,0-.16.1-.4s.33.11.33.11a1,1,0,0,0,.4-.22c.22-.2.13-.09.49-.16s.46-.06.65-.29.11-.12.8-.32.28-.3.07-.53-.16,0-.45-.16,0-.12-.23.06-.25,0-.92.1-1,0-1.07-.23,0-.21-.63-.25-.3-.16-.37-.61,0-.1-.4,0-.09-.06.07-.44.2-.31.27-.5-.36,0-.63.2a.4.4,0,0,1-.64,0c-.18-.21-.23-.15-.61-.14s-.1-.05,0-.09a1,1,0,0,1,.44-.12.81.81,0,0,1,.47,0l.62-.17a5.14,5.14,0,0,0,.8-.28c.49-.21.46-.28.08-.41a1.94,1.94,0,0,0-1.25-.21,11.1,11.1,0,0,0-2.13.62l-1.14.51a4.05,4.05,0,0,0-1,.79c-.36.34-.54,0-.32-.28s.6-.52,1.06-1,.56-.12,1.13-.15.44-.16.78-.8.36-.25.83-.45a5.38,5.38,0,0,1,1.49-.21s1.19-.07,2.95-.22.82-.32,1.81-1,.48-.65,1.52-.84.71-.2.71-.2a1.34,1.34,0,0,0,.65-.5c.38-.45-.25-.1-.23-.5s-.15-.38-.57-.56-.52.09-.61-.18.07-.14-.84,0a2.77,2.77,0,0,0-1.41.58,1,1,0,0,1-.65.17c-.25,0,.22-.29.22-.29a3.12,3.12,0,0,0,.91-.25,5,5,0,0,1,.71-.38c.46-.23.49-.22.19-.34s.13-.28-.53-.06-.75.11-.9-.16-.1,0-.61.13-.55.08-.67-.3-.7,0-1.12.06-.28-.22-.11-.64-.08-.11-.14-.44-.15-.18-1-.39a4.46,4.46,0,0,1-1.77-.91c-.64-.47-.25.05-.3.16s-.37.68-.51.9-.37.05-1,.52-.6.2-.6.2a5.38,5.38,0,0,0-.93-.51c-.49-.19,0,0-.46-.28s0-.26,0-.93,0,0-.65.21-.4.07-.52-.23-.49-.14-1.07-.4-.34,0-1,.06a13.11,13.11,0,0,0-1.94.3c-1,.18-.19.33-.38.62s-.72.27-.35.77-.27.67-1.1.89-.21.16,1.06.7.19.67,0,1.22-.95.76-1.91,1-1.25.28-.7.46.12,1.3.12,1.3l0,1.82s-.33,1.19-.75,1.25l-.18,0h-.11c-.29,0-.72-1.14-.72-1.14a7.89,7.89,0,0,1-.74-1.25,1.67,1.67,0,0,1-.15-1,4.81,4.81,0,0,1,.41-1.12c.25-.57-.47,0-.88.13a7.64,7.64,0,0,1-1.23.21c-.52.07-.44-.08-1.35-.42s-.73,0-1.52-.45-1.6.22-2.22.47,0-.27-.07-.78-.11-.51-.38-.66.2-.47,1.37-1.37,1.06-.93,2.09-1.12.67-.51,1.47-.91,1.91.09,2.15-.32.5-.42,1-.86a2.69,2.69,0,0,0,.65-.61c.15-.19.89-.05,1.26-.23s1-.46,1.76-.83.07-.42-.09-.93,1.79,0,2.24,0,.35-.78.42-.79l.16,0c-.11,0,0,.23,0,.66.06.61,0,0,.36-.07s.38,0,.84.16,0,.11-.09.25a3.36,3.36,0,0,1-.88.41s-.7.3-.31.29a3.87,3.87,0,0,0,1-.15c.45-.1.27-.24.57-.61s.18,0,.66-.18.47.06.49.17-.23.25-.64.47a1.65,1.65,0,0,0-.6.41,4.82,4.82,0,0,1-1.13.45,15.47,15.47,0,0,0-1.66.56c-.17.14.44.34,1.11.2s.84-.26,1.6-.39.53.19,1.12.44.41.27.66.16a2.62,2.62,0,0,1,.64-.15l2-.08a4,4,0,0,0,1.2-.31c.32-.21-1.07.09-1.07.09a5.5,5.5,0,0,1-1.27-.37c-.36-.21,1.32-.08,1.32-.08l1.21,0a1.58,1.58,0,0,0,.53-.47c.12-.23-.09-.3-.63-.41s-.9.17-1.28,0-.23-.36-.19-.44a14.94,14.94,0,0,1,1.79.37,1.06,1.06,0,0,0,.82-.28c.39-.34.69-.6.84-.75s-1.77-.06-1.77-.06l-1.29.08-1.18-.23a3.38,3.38,0,0,0,.65-.4c.46-.33-.48-.09-.48-.09h-1l-1.2.09-1.27-.42.78-.41a7.35,7.35,0,0,1,.89-.51,4.85,4.85,0,0,0-2,.66c-.27.1-.76.34-1.3.55,0-.12-.29,0-.9.09a9.53,9.53,0,0,0-1.53.22c-.64.16-.42.87-.52.52s-.27-.14-1,.06-.8.74-.37.72.65-.06.57.34-.72.38-1.06.52-.47.19-.46.34a.31.31,0,0,1-.38.26c-.21,0,0,0-.1-.23s.17-.2.45-.41,0-.33-.51-.26-1,.62-1.67.72.21-.49.6-1-.66-.1-1.12.16a2.08,2.08,0,0,0-1,1.22c-.05.45-.59.46-1.13.54a6,6,0,0,0-2,.66c-1,.5-1.19.24-1.49.13s.11-.28.5-.33a1.8,1.8,0,0,0,1-.34,5.87,5.87,0,0,1,.76-.49c.21-.16-.39-.08-1.2,0a7.7,7.7,0,0,0-2.47,1.06c-.64.33.07.31,0,.75s-.45.43-1.1.39-.36.05-1.06.38-.5.15-.63-.15a71.16,71.16,0,0,0-6.08,3.79c-2.12,1.52-4.37,3.29-6,4.7-.67.58-1.33,1.18-2,1.78-1.79,1.74-3.11,3.37-3.63,3.93s-.14.63-.5,1,.09.74-.27,1.05a1.78,1.78,0,0,0-.28.39,10.06,10.06,0,0,1-.71,1.32,11.46,11.46,0,0,1-1.49,2.27,7.81,7.81,0,0,0-2,3.38,6.08,6.08,0,0,1-1.45,2.54,1.33,1.33,0,0,0-.38,1.4,1.7,1.7,0,0,1-.26,1.44c-.27.26.11.29-.13,1.21s-.21,1,.47,1.29.48.15.41.91a4.86,4.86,0,0,0,.16,1.21,2.12,2.12,0,0,1,0,.69c-.19.86,0,1.78-.17,2.4s.46.44.52,1.31-.24,1.07-.79,1.14,0,.64.61,1.15.87.36.71,1.15a2.37,2.37,0,0,0,.66,2.13c.57.6.41,1.15.53.78s.34-.4.25-1-.13-.49-.44-.49-.05-.48-.12-1-.24-.42-.18-.94a2,2,0,0,0-.53-1.66c-.51-.61-.14-.27-.18-1.25s.11-1.14-.17-1.73-.17-1.17.36-2,.17-.31.26-.28a1.53,1.53,0,0,1,.55.74c.12.35-.06.47-.14.87s0,.81-.13,1.08.26.42.34.85.16.39.46.59.18.22.21.66.39.34.21.78a1.6,1.6,0,0,0,.55,1.51,1.48,1.48,0,0,1,.54,1.19c.06.57.64.46.82,1.69s.6,1.17.78,1.45a1.35,1.35,0,0,1-.08,1.16,2,2,0,0,0-.21,1.46c.16.54,1.22,1,1.31,1.26a1.41,1.41,0,0,0,1.45.78c.9,0,.32,0,.71.38a5.19,5.19,0,0,0,1.25.83c.35.16.79.12,1.77.41s.36.41.72.41a3.92,3.92,0,0,1,1.19.19c.85.18.54.06,1-.27s.59-1,1.49-1,.05.19.91.18.1,0,.42.27.93.86,1.55,1.5c.16.16.32.32.46.48.73.77,1.09.32,1.85.16l.39-.07c.25,0,.11.12.17.52s.26.33.94.54.79,0,1.41-.51.27.14.14.54,0,.37.69.78.78,1.29,1.68,1.23-.09-.47.07-1,1.11.71,1.43,1-.11.15-.63.22-.22,0-.6.34.08.51.14,1,.23.78,1,.6.9.32.9.32l.49.42a2.37,2.37,0,0,1,.35.71c0,.28,0,.28.63.67a.65.65,0,0,0,1-.12,13.53,13.53,0,0,0,1.71.22c.32,0,.18,0,.75.27s.26.45.44.93.18,0,.61-.27.49-.48.49-.48l-.19-.45-.56-.56s.61-.21.91-.33.36-.63.69-.86,1.56.06,1.68.51a7.3,7.3,0,0,0,.28,1.08c.15.32.67.48.79.77s.59.76.47,1,.45.45.18.8.32,1.29.07,1.84.29.78.36,1.32a1.85,1.85,0,0,1-.63,1.37c-.17.08-1.12.25-1.14.79s-.41.61-.41.61a.57.57,0,0,0,0,.39c.09.18.07.24-.18.62s-.3.17-1.27.38-.27.08.23.67-.11.27-.3.44-.16.53-.33,1-.33.11-.2.52a1.73,1.73,0,0,1,0,1.4c-.26.6,0,.44.27.71s.32-.06,1.07.29.24.81-.19.87,0,0-.43.39-.16.24-.78,1.23-.08.41.57,1.09.27.87,0,1,.63.32,1.86,1,.42.15.71.69.17.27.9.76,1.57,2.33,2.06,2.71a2.12,2.12,0,0,1,.82,1.28c.08.44,0,.49.46.43s.87.72,1.5,1.24.74.66.81,1.06,0,.6.14.93.77.55,1.88,1.17a10.14,10.14,0,0,0,3.88,1.43c2.32.48.49.29,1.44.59s.11.33.34.53.8,0,1.33.28a3.3,3.3,0,0,1,.42.22c.1.07.11.14.17.33s.2.48.52,1.42a6.35,6.35,0,0,1,.35,1.45c.2.92,0,.5,0,1.54s.14,1.43-.19,1.78-.23.41,0,.6.16.42.43,1.17.33,1.06.23,1.41.26.5,0,1-.13.53,0,1,0,.76-.3,1.5.16.68.3,1.5-.39.79-.16,1.35a13.74,13.74,0,0,1,.56,1.38,2,2,0,0,1,0,1.16c-.06.55-.16,1.57-.24,1.94a12,12,0,0,1-.23,1.27c-.19.69-.38.27-.32.69s0,.24-.26.47-.19.17,0,.57.33.67.54,1a3.92,3.92,0,0,1,.27.47s-.08.19-.18.47a1.82,1.82,0,0,1-.29.52c-.2.29,0,.52.1.85s0,.11.11.56a.9.9,0,0,1,0,.66,1.37,1.37,0,0,1-.32.66c-.2.31,0,.15,0,.3s.26,0,.6-.06.12-.09.18-.15a3.31,3.31,0,0,0,.17-.65,2.8,2.8,0,0,1,.25-.94c.22-.49.56-.08.56-.08l0,.69s-.09.29-.2.7-.07.29,0,.72,0,.67.12,1.2-.1.56-.22.57-.23-.11-.41-.33-.14-.32-.31-.57,0,.13-.18.37-.23.24-.27.53-.21.35-.6.42-.7.1-1.49.22.31,0,.86.09a1.77,1.77,0,0,0,1.26-.23c.32-.22.2,0,.31,0a2.86,2.86,0,0,0,.63,0c.32,0,.13.24-.06.32s-.21.15-.27.32.25.24.25.24,0,.28-.17.28-.23,0-.39,0a.92.92,0,0,0-.49.25c-.07.08.25.32.25.32a1.69,1.69,0,0,1,.36-.19c.2-.09.23.55.38.59s.18.6.19.64v0a.62.62,0,0,1,.15-.2,2.12,2.12,0,0,1,.4.06l0,.18-.33.22c-.2.13,0,.13,0,.19s.41-.05.41-.05a1.36,1.36,0,0,1,.55.11c.18.1.64.29.64.29s0,.4-.17.38-.21-.1-.3-.11,0,.17-.06.31a.21.21,0,0,0,0,.26l.8.15.78.27.6-.16.41-.25.24.16a2.13,2.13,0,0,0,0,.36c0,.09.83.23.83.23s.51,0,.71,0,.62-.21,1-.18h0a3.78,3.78,0,0,0,1-.15l1.18-.27a1.41,1.41,0,0,0,.33-.18c.12-.11-.44-.09-.65-.17s-.67-.22-.85-.26-.34.23-.5.08-.4-.32-.48-.44a3.88,3.88,0,0,0-.71-.73c-.3-.2-.48-.45-.24-.75s.16-.21.81-.32.42-.19.42-.57,0-.38.57-.72.67-.3,1.14-1.29-.11-.31-.2-.23-.53.32-1.37,0-.3-.45-.09-.86.79-.52,1.43-.65.1-.24.39-.51.17-.11.21-.51-.08-.47.5-.78-.38-.38-.32-.65-.3,0-.26-.62-.4,0-.24-.76.79.15,2.35,0,1.07-.58,1.07-.58-.77-.51-.36-.9-.07-.49-.12-1.07.33,0,1.06,0,1.59,0,3.84-1.17,2-2.17,1.64-2.18-.61.09-.33-.28,0-.52-.24-.73-1.27-.54-1.32-.67-.05-.35.21-.36,1.77.34,1.77.34,1.3,0,2.11-.07.9-.22,1.46-.9c.23-.26.46-.58.72-.94a14.48,14.48,0,0,1,1.42-1.73c.45-.47.56-.56.67-.61a2.8,2.8,0,0,0,0-.4c0-.19.21-.47.21-.47l.4-.85a.57.57,0,0,1,.35-.05c.14,0,.35.21.22.38a6.48,6.48,0,0,0-.67.84.68.68,0,0,0-.12.38c.11-.06.25-.14.43-.26,1.14-.72.78-1.17,1.32-2a3.55,3.55,0,0,1,1.62-1.51c.9-.48.37-.78.42-1.66a4.15,4.15,0,0,1,.32-1.83c.35-.93.5-.55,1.21-1.23s.87-1.13,1.72-1.68.67-.89,1.35-.95.39-.09.86-.72,1.15-.49,2.46-.58.33-.47.85-.81a1.17,1.17,0,0,0,.67-1.09,1.88,1.88,0,0,1,.8-1.33,1.68,1.68,0,0,0,.69-1c.16-.49.47-.66.67-1.28s.23-1.42.43-1.19,0-.5.5-1.39a6.21,6.21,0,0,0,.43-2.57c.1-.9.07-2.08.18-2.89s.44-.66.64-.19.24-.63.88-1.68.93-1.65,1.14-2,.5-.63.92-1.45.5-1.55,1.07-2.69-.09-2.49-.28-3.33S817.14,357,816.23,357.19Zm-57.31-62.42c0-.22.07-.21.48-.31,0,0,.46.15.41.4s0,0-.59.17S758.92,295,758.92,294.77Zm-2.87-.87a.47.47,0,1,1,.6.44c-.12.57-.29.79-.44.68l-.75-.62Zm-.91,2.09c.28-.17.33,0,.39.4l-.37.19s-.43,0-.43-.23S754.85,296.16,755.14,296Zm-1.88-4.24a2.89,2.89,0,0,1,.89-.35,1.75,1.75,0,0,1-.43,1c-.37.36-.26.24-.35.05s-.14-.24-.58-.4S752.79,292,753.26,291.75Zm6.1-7.4s-.4.15-.46.07,0-.3,0-.3l.31-.13a.4.4,0,0,1,.25.06Zm-.11-1.17a1.64,1.64,0,0,1,.35-.05c.11,0,.65.21.54.25a3.23,3.23,0,0,1-.5.07s-.22,0-.16.24-.32.07-.33.05S759.15,283.21,759.25,283.18Zm-8.94,18.42h1.15l.72-.52.46-.33.41.11.18,0a7.46,7.46,0,0,1-.33.88c-.19.38-1.15.3-1.15.3s-.61.11-1.28.18-.37.48-.37.48l-.94.52a5.5,5.5,0,0,0-2,1.24c-.83.86-1.17.17-1.17.17s-.47-.56-.14-1,.39-.41.52-.41,0,.43.28.27a10.07,10.07,0,0,1,1-.28,3.59,3.59,0,0,0,.8-.28,5.55,5.55,0,0,0,.74-.37c.47-.25.26-.35.26-.35l.07-.45Zm-8.36-5c.2-.62,0,0,.41-.19a2.73,2.73,0,0,1,.48.86c.07.36-.2.14-1,.33S741.75,297.25,742,296.63Zm-3,.2c0-.59,0,0,.47-.06l.93.28-.34.4S739,297.43,739,296.83Zm-.4,3.23,2.07-1.07,2.05-.95s1.08-.79,1.45-.2a7.68,7.68,0,0,0,.67.84,3.15,3.15,0,0,1,.45.8s-.74.72.82.5,1.58-.82,2.35-.34.76.05.82.66.38.91-.18.75-1-.28-1.15-.06a5,5,0,0,0-.46.95s-.2.77-.43.87-.63.22-.63.22,0-.85-.27-1-.51.43-.83.4.52-.55.6-1.09a.66.66,0,0,0-.77-.77c-.39,0-.22-.3-.67.14s-1,1-1,1-1,.35-1,1,.25.71,0,1.22-.49,1-.49,1-.47.44-.68.23a8.53,8.53,0,0,1-.11-2.2l.3-1.44,1.19-.82s.71-.28,1-.37a2.22,2.22,0,0,1,.79-.16c.18,0,.43-.1,0-.44s-1.34.19-1.34.19c-.23.1.06.22-.58.09s.05-.34-.85-.15a8,8,0,0,0-1.61.54h-.86a3.15,3.15,0,0,1-.67.1C738.4,300.57,738.58,300.06,738.58,300.06ZM737.19,299c-.25.12,0,0-.51-.24s0-.17.49-.64a3.33,3.33,0,0,1,.39.54C737.63,298.81,737.43,298.86,737.19,299Zm-1.5-6.16c.1-.85-.15-.29.42-.92l.58.64a9.9,9.9,0,0,1-.87,1.16C735.36,294.2,735.59,293.66,735.69,292.82Zm.11,2.84c0-.59.18-.36.68-.71l.16.35a3,3,0,0,1,0,1.26,7.23,7.23,0,0,1-.5,1.23c-.09,0,0-.2.07-.84S735.85,296.25,735.8,295.66Zm-2.18-2.75a2,2,0,0,1-1,.14c-.32-.11-.4-.25.88-.64ZM735,297c.24.39,0,.91.07,1.36s-.42.17-.42.17.07-.43.17-.83-.39-.68-.39-.68a2.34,2.34,0,0,0,.17-.83c0-.44-.06-.43.31-.79A4,4,0,0,0,735,297Zm-2.49-5c.68-.3.55-.48,1.28-1l.53.32a8.6,8.6,0,0,1-1,.93c-.62.49-.8.31-1.41.34S731.78,292.29,732.47,292Zm3.3,43.86,0,0,0,0Zm33.62,36.75h0a.16.16,0,0,0-.1,0ZM766.6,363h0ZM781,352.13c-.42-.67-.56-.94-.2-1.39s.64-.52.28-1a3.93,3.93,0,0,0-1-1.16,3.93,3.93,0,0,1,1,1.16c.36.48.09.55-.28,1s-.22.72.2,1.39.52,1.08,1,1.34a1.8,1.8,0,0,0,.9.23,1.7,1.7,0,0,1-.9-.23C781.55,353.21,781.46,352.79,781,352.13Zm6.37-.6a1.81,1.81,0,0,0,.23,0,1.18,1.18,0,0,1-.27,0l-.21,0Zm-1.77.44.08.15c.5,0,1.18.29,1.47.25-.28.05-1-.25-1.48-.27l-.07-.13ZM792.85,389l0,0,0,0Zm-3.15-37.59a3.71,3.71,0,0,0-.92-.42h0a3.37,3.37,0,0,1,.92.42h0l.5-.06A3.77,3.77,0,0,1,789.7,351.45Zm1.2-.16.1,0a.8.8,0,0,1,.33,0C791.26,351.33,791.19,351.26,790.9,351.29Z" transform="translate(-122 -229)"/><path class="cls-12" d="M817.65,359.24a3.37,3.37,0,0,0-2.81-3.29c-1.1-.15-2.28.25-3.29-.2S810,354.22,809,354c-.84-.18-1.74.29-2.54,0-.61-.23-1-.86-1.47-1.28a2.66,2.66,0,0,0-3.75.57c-.24.37-.58.87-1,.68-.22-.1-.29-.38-.4-.6a1.27,1.27,0,0,0-2.11,0c-1.52-1.36-1.44-3.72-2.31-5.56a5.67,5.67,0,0,0-8.28-2.3,3.57,3.57,0,0,1-1.62.82c-1.6.09-2.61-2.52-4.12-2-.36.12-.65.42-1,.47-.64.09-1.12-.55-1.54-1.06a6.19,6.19,0,0,0-6.56-1.9,6.59,6.59,0,0,1-1.6.45,6.5,6.5,0,0,1-2.21-.6,2.1,2.1,0,0,0-2.17.23c-.17.17-.3.41-.53.51-.6.27-1.09-.59-1.72-.81-.94-.32-1.68.91-1.7,1.9s.22,2.12-.42,2.88a4.52,4.52,0,0,0-.55.61,1.7,1.7,0,0,0-.06,1.22,13.42,13.42,0,0,0,4.71,7.61,25.42,25.42,0,0,0,4,2.47l4.74,2.51a39.66,39.66,0,0,0,9.83,4.1,38.7,38.7,0,0,0,7.22.64l7.08.2c2.12.05,4.24.11,6.37.1a13.08,13.08,0,0,0,4.74-.64c2.57-1,4.6-3.56,7.36-3.57" transform="translate(-122 -229)"/><path class="cls-12" d="M759.92,295.94c1.1.11,2.05-.69,3-1.22s2.46-.66,2.95.33a1.45,1.45,0,0,0,.24.44c.25.26.68.16,1,0a3,3,0,0,1,2.72,0,1.51,1.51,0,0,1,.22,2.14,1.41,1.41,0,0,1-2.1-.14,7.37,7.37,0,0,1-1.29,3,2.52,2.52,0,0,1-2.94.81c-.25-1.14,1.79-1.76,1.64-2.92-.1-.85-1.37-1.05-2-.52a5,5,0,0,0-1.25,2.2c-.32.79-.88,1.63-1.73,1.72a3.81,3.81,0,0,0-1.07.09c-.66.27-.65,1.21-.45,1.89s.45,1.51,0,2.05-1.49.33-2.28.48a2.08,2.08,0,0,0-1.62,2.18,2,2,0,0,1,0,1c-.26.61-1.16.55-1.63,1-.72.69-.1,2.11-.84,2.77a2.27,2.27,0,0,1-1,.39,5.56,5.56,0,0,0-4,5.25,15.19,15.19,0,0,1,.12,3.08c-.19,1-1.21,2-2.17,1.61s-1-1.46-1.31-2.35-1.28-1.81-2-1.25c-.23.18-.37.49-.64.61-.58.25-1.08-.49-1.29-1.08l-1,1.32c-.62-.18-.85-1.17-1.5-1.17-.81,0-.69,1.25-.91,2a2.42,2.42,0,0,1-2.58,1.38c-1.05-.06-2.08-.46-3.13-.43s-2.23.72-2.24,1.77c0,.48.24,1,0,1.42s-1,.66-1.33,1.19,0,1-.05,1.46c-.07,1.37-1.83,2.47-1.36,3.76a2.43,2.43,0,0,0,.85,1l2.26,1.83c.57.47,1.68.78,1.83.06.06-.29-.11-.61,0-.88.29-.62,1.19.11,1.87.11s1.11-1,1-1.77-.31-1.63.13-2.26c1.09-1.54,4.15.62,5.26-.9.67.32.43,1.38-.11,1.9s-1.3.89-1.52,1.6.29,1.62.41,2.46a2.51,2.51,0,0,1-1.67,2.65c.69.94,2.12.89,3.22.49a10.5,10.5,0,0,1,3.3-1.09,1.58,1.58,0,0,1,.9.23,1.49,1.49,0,0,1,.51,1c.22,1.27-.42,2.61-.1,3.86.42,1.66,2.42,2.94,1.93,4.58a3.15,3.15,0,0,1-3.33-.31,15.48,15.48,0,0,0-3-1.86,6.87,6.87,0,0,1-1.85-.64c-.82-.59-1-1.72-1.54-2.57a3.33,3.33,0,0,0-4.17-1.12,2.26,2.26,0,0,1-1,.4,2.79,2.79,0,0,1-1-.38c-1.37-.57-2.88.31-4.35.51a4.92,4.92,0,0,1-5.3-3.7,4,4,0,0,0-.43-1.42c-.29-.4-.79-.64-1-1.07a2.21,2.21,0,0,1-.15-1.2q.27-4.12.55-8.25a10.79,10.79,0,0,1,.7-3.79c1-2.27,3.42-3.56,5.76-4.41s4.83-1.47,6.75-3.05c1.55-1.28,2.76-3.19,4.73-3.63,1.39-.3,2.81.23,4.23.25s3.11-.87,3-2.28a6.77,6.77,0,0,0-.66-1.75,3.22,3.22,0,0,1,.42-3,8.71,8.71,0,0,0,5.32-3.22,3.19,3.19,0,0,1,.73-.78c1.37-.87,3.25,1.15,4.68.37a3.26,3.26,0,0,0,1-1.05,8.25,8.25,0,0,1,4.58-3.08" transform="translate(-122 -229)"/><path class="cls-12" d="M822,302.47c0,1.44,1.24,2.93.53,4.19a10.55,10.55,0,0,0-.59.89,2,2,0,0,0,.9,2.14,7.36,7.36,0,0,1,1.91,1.58.62.62,0,1,0,.11,1.16l-1.73.94a4.34,4.34,0,0,0,2,.15,4.69,4.69,0,0,1-.11,1.78c-.07.6.11,1.33.69,1.5a11.42,11.42,0,0,0-2,.86,1.62,1.62,0,0,0-.68.56c-.44.7.2,1.59.91,2s1.57.74,1.93,1.48c.53,1.08-.33,2.42.08,3.55s2.21,1.59,2.68,2.83c.38,1-.26,2.11-.1,3.16.25,1.74,2.31,2.43,3.73,3.47a12.52,12.52,0,0,1,1.43,1.3l3.12,3.15a3,3,0,0,0,.94.72,2,2,0,0,0,1.89-.39,5.47,5.47,0,0,0,1.23-1.59,6.47,6.47,0,0,0,.9-2,2.34,2.34,0,0,0-.53-2.09c-1.1-1.09-3-.31-4.46-.88s-2-2.36-2.19-3.92-.17-3.29-1.16-4.51a33.35,33.35,0,0,0,1.09,4.67c.61,1.48,2,2.83,3.57,2.73a.64.64,0,0,0,.41-.12.73.73,0,0,0,.23-.42,8.39,8.39,0,0,0-2.32-8.33c-1.2-1.11-2.71-1.84-3.89-3-2.13-2-2.93-5-4-7.78s-2.79-5.6-5.63-6.35" transform="translate(-122 -229)"/><path class="cls-12" d="M827.76,316.42a4.69,4.69,0,0,1-2.81-1.37,8.16,8.16,0,0,1-1.59-3.15,2.19,2.19,0,0,1-.15-1.18,2.35,2.35,0,0,1,.5-.79,2.55,2.55,0,0,1,1.7-1.1,2.1,2.1,0,0,1,1.18.47,6.35,6.35,0,0,1,2.39,3.45,2.53,2.53,0,0,1,.11.9,1.77,1.77,0,0,1-1.18,1.45,2.19,2.19,0,0,1-1.89-.26" transform="translate(-122 -229)"/><path class="cls-12" d="M816.17,361.81l-2.39,4.68a2.21,2.21,0,0,0-.36,1.28c.18,1.22,2.2,1.62,2.14,2.86l-3.41.55a1,1,0,0,0-.61.25.92.92,0,0,0-.09.83c.43,1.64,1.77,3.11,1.52,4.79-.4,2.74-4.57,3.6-5,6.33a3.73,3.73,0,0,1-.31,1.57c-.74,1.13-2.56.2-3.82.66a3.51,3.51,0,0,0-1.74,2.21l-1.68,4.09a5.61,5.61,0,0,1-.6,1.2,7.4,7.4,0,0,1-1.36,1.26,14.74,14.74,0,0,0-3.13,3.55,6.76,6.76,0,0,1-.23-2.72c-1.31.59-.5,2.71-1.26,3.93a3,3,0,0,1-1.36,1,14.46,14.46,0,0,1-5.25,1.28,2.24,2.24,0,0,1,0,3.34,3.89,3.89,0,0,1-3.61.64,1.89,1.89,0,0,0-1.17-.09c-1,.39-.38,1.89-.5,2.95-.2,1.81-2.73,2.38-3.45,4.05-.26.61-.25,1.31-.52,1.92s-1,1.11-1.58.73a1.36,1.36,0,0,1-.46-.8c-.57-2.11,0-4.33.58-6.43l2.1-7.7,2-7.37a22.89,22.89,0,0,1,2.32-6.07,22.3,22.3,0,0,1,5-5.09l4.68-3.86a11.5,11.5,0,0,1,3-1.95,9.56,9.56,0,0,1,3.61-.47c4.78.07,9.79,1,14.16-.87" transform="translate(-122 -229)"/><path class="cls-13" d="M714.41,381.73A72.38,72.38,0,0,1,805,285.66a72.38,72.38,0,1,0-55.34,133.49A72.12,72.12,0,0,1,714.41,381.73Z" transform="translate(-122 -229)"/><path class="cls-14" d="M840.22,323.08a72.39,72.39,0,0,1-98,93c84.58-7,93.66-102.5,73.09-124.33A72,72,0,0,1,840.22,323.08Z" transform="translate(-122 -229)"/><path class="cls-14" d="M845.54,345.56A72.42,72.42,0,0,1,716,395C745.63,402.67,804.62,407.86,845.54,345.56Z" transform="translate(-122 -229)"/><path class="cls-12" d="M750.39,329.47" transform="translate(-122 -229)"/><path class="cls-6" d="M722.31,317s-6-15.19-1.91-25.23c.21-14.73,10.19-14.14,12.8-21.89,0,0,6.42,20.17-10.19,23.09,0,0-6,5.59.73,23.93Z" transform="translate(-122 -229)"/><path class="cls-6" d="M719,298.79s-.38-17.16-21.51-14.52c5.88,5,5.31,14.84,19.4,10.44a45.14,45.14,0,0,1,2.45,10.57Z" transform="translate(-122 -229)"/><path class="cls-6" d="M833.51,388.34s8.64-10.26,12.67-13c6.94-17.3,23.68-8.4,31.78-10.06a31,31,0,0,1-29.49,11.62s-7.78,4.79-16.86,16.74Z" transform="translate(-122 -229)"/><path class="cls-6" d="M818.88,406.94s15.29-12.5,15.91-27.52c0,0-9.06-6.47-8.74-23.68,0,0,17.9,8.74,12.54,25.06,0,0-6.64,17-19.54,27.84Z" transform="translate(-122 -229)"/><path class="cls-6" d="M980,467.48s2.07,5.94.5,9.58c0,0-10.35,1.74-18.24,0,0,0-.45-5.38,8-6.07l-.68-3.83Z" transform="translate(-122 -229)"/><path class="cls-15" d="M954.53,426.9,969,469.59s9.95,1.69,12.1-1.64c0,0-2.65-17.85-7.74-25,0,0-.6-27.62-3.64-38.16Z" transform="translate(-122 -229)"/><path class="cls-6" d="M935.23,468.79s.39,4.85-.64,7.28c0,0-10.41,1.31-18.22-.76,0,0-.23-5.39,8.25-5.73l1.14-3.73Z" transform="translate(-122 -229)"/><path class="cls-16" d="M971,405.56s.12,13.22-22.43,29.83l-12.74,35.77s-6.91-.12-11.15-3.39c0,0,7.76-34,10.55-38.93s10.42-21.58,10.42-21.58Z" transform="translate(-122 -229)"/><path class="cls-17" d="M938.76,401.1l-.49-2.05a5.19,5.19,0,0,0-3-3.58h0a5.18,5.18,0,0,0-2.67-.36c-2,.25-8.39,1.31-8.33,1.44s.94,2.61.94,2.61l7.49-1.34a2.65,2.65,0,0,1,1.52.18h0a2.73,2.73,0,0,1,1.53,1.77l.6,2.22Z" transform="translate(-122 -229)"/><path class="cls-4" d="M877.69,462.43l14.61,6.79a7.43,7.43,0,0,0,9.62-3.1l27.8-49.55,1-1.79-38-19.45-18.35,56.14-.62,1.91A7.43,7.43,0,0,0,877.69,462.43Z" transform="translate(-122 -229)"/><path class="cls-18" d="M877.69,462.43l14.61,6.79a7.43,7.43,0,0,0,9.62-3.1l27.8-49.55-23.93,24.06a37.7,37.7,0,0,1-31.42,10.84l-.62,1.91A7.43,7.43,0,0,0,877.69,462.43Z" transform="translate(-122 -229)"/><circle class="cls-19" cx="761.19" cy="239.46" r="6.75"/><path class="cls-20" d="M880.28,468.46a2.92,2.92,0,1,0,2.91-2.91A2.91,2.91,0,0,0,880.28,468.46Z" transform="translate(-122 -229)"/><path class="cls-21" d="M933.94,412.18a6.83,6.83,0,0,1-.24,1.79l-.23.81-11-5.47-32.26-16.12.79-1a4.16,4.16,0,0,1,4.79-1.38l2.47-1.94a7.88,7.88,0,0,1,8-1L928,397.32a7.55,7.55,0,0,1,2.68,1.84,7.63,7.63,0,0,1,2.11,5.28v4A6.68,6.68,0,0,1,933.94,412.18Z" transform="translate(-122 -229)"/><path class="cls-22" d="M933.94,412.18a6.83,6.83,0,0,1-.24,1.79l-.23.81-11-5.47a6.09,6.09,0,0,0,.14-3.75c-.87-1.77-18.46-10.72-20.84-11.94,2.08,1,15.65,7.63,22.41,9.76,5.21,1.65,6.29-2,6.48-4.22a7.63,7.63,0,0,1,2.11,5.28v4A6.68,6.68,0,0,1,933.94,412.18Z" transform="translate(-122 -229)"/><path class="cls-23" d="M933.48,414.78l-.51.76a2.34,2.34,0,0,1-3,.79l-38.75-19.88a2.33,2.33,0,0,1-1-3.26h0Z" transform="translate(-122 -229)"/><path class="cls-24" d="M896,432.81a1.6,1.6,0,0,1-.29-1.23,3.51,3.51,0,0,1,1.4-1.14l2.78,1.46-1.19,2.26Z" transform="translate(-122 -229)"/><path class="cls-24" d="M895.06,427.73a1.51,1.51,0,0,1,.68-.9,9.91,9.91,0,0,0,1.16-.66l.2-.13-.27-.79,2.19,1.28,0,2.23-.21-.33-.24.08a10.13,10.13,0,0,0-3.41,2C895.14,429.39,895.08,428,895.06,427.73Z" transform="translate(-122 -229)"/><path class="cls-24" d="M906.73,433.19a4.65,4.65,0,0,1-1.51-.38l-.66-3.06,2.49-.54.7,2.93c-.09.29-.34.88-.75,1A1,1,0,0,1,906.73,433.19Z" transform="translate(-122 -229)"/><path class="cls-24" d="M901,433.86l1.69-1.46-.13.38.22.13a10.49,10.49,0,0,0,3.7,1.35l-2,1.86a1.92,1.92,0,0,1-.69.15,1,1,0,0,1-.44-.09,9.53,9.53,0,0,0-1.25-.46l-.23-.07-.43.72Z" transform="translate(-122 -229)"/><path class="cls-24" d="M899.34,424l2.49-1.71H902a1.5,1.5,0,0,1,1.07.34,3.43,3.43,0,0,1,.31,1.78l-2.62,1.73Z" transform="translate(-122 -229)"/><path class="cls-24" d="M903.88,427l.4,0,0-.24a9.92,9.92,0,0,0-.06-3.94l2.46,1.22a1.46,1.46,0,0,1,.46,1,8,8,0,0,0,0,1.33v.24l.83.15L905.85,428Z" transform="translate(-122 -229)"/><path class="cls-25" d="M939.43,385.49l-.24,1.85a29.31,29.31,0,0,0-3.75,4.16,13.48,13.48,0,0,1-4.72,3.88l4.72,2.18a22.71,22.71,0,0,0,7.12-3c3.16-2.19,5.66-8.37,5.66-8.37Z" transform="translate(-122 -229)"/><path class="cls-26" d="M944.78,388.65s-5.17-.91-6.32-3.28c0,0,2.18-18.49,7.94-18.37S944.78,388.65,944.78,388.65Z" transform="translate(-122 -229)"/><path class="cls-27" d="M944.36,408.87l.17.1c1.6.87,14.63,7.46,27.06-1.93,0,0-.57-35.07-13.46-43a8.92,8.92,0,0,0-12,1.7s-3.07,1.37-3.56,7c-.35,4.14,1.54,14.43,2,25.15A79.65,79.65,0,0,1,944.36,408.87Z" transform="translate(-122 -229)"/><path class="cls-28" d="M944.36,408.87l.17.1c5-1,14.93-3.52,19.82-9.47,6.67-8.13.55-23.95.55-23.95l-10.58-4.18-.85,5.75c-.76,5.11-9.41,13.05-9.41,13.05l.32,4,.24,1.76S944.71,405.29,944.36,408.87Z" transform="translate(-122 -229)"/><path class="cls-29" d="M954.32,387.86l-13.9,9.05s-5.66,1.3-6.55,3.56,0,2.83,0,2.83l1.72-1s2.36,1.45,4,1,3.28-2.79,3.28-2.79,19.76-3.92,21.78-9.58S954.32,387.86,954.32,387.86Z" transform="translate(-122 -229)"/><path class="cls-30" d="M954.32,387.86s.07-4.16-.2-8.39c-.25-3.86-.9-7.72.53-9.8,3-4.37,7.76-2.51,10.67,7.19,2.64,8.81,2,14.64,2,14.64S956.83,391.25,954.32,387.86Z" transform="translate(-122 -229)"/><path class="cls-17" d="M935.59,402.29l-2.11,1.09-7.38.88a1.4,1.4,0,0,0-1.22,1.57h0a1.39,1.39,0,0,0,1.53,1.2l6.77-.73a7.1,7.1,0,0,0,3.17-1.14l2.41-1.58Z" transform="translate(-122 -229)"/><path class="cls-31" d="M952.82,359.65s2.56-9,.49-11.69-3.76-2.34-3.76-2.34-.06-3.95-3.67-4.25c-3.44-.28-9.18,3.28-9.62,1.18,0,0-1.66,1.9-.53,3.72,0,0-2.75-.09-3.31-1.22,0,0-1,5.7,3.43,6,0,0-1,4.44,4.21,6A112.6,112.6,0,0,0,952.82,359.65Z" transform="translate(-122 -229)"/><path class="cls-29" d="M944.86,362.48a28,28,0,0,1,.9,6.22,9.59,9.59,0,0,0,8.56-5.74l-3.57-7.86,0,0S944,358.92,944.86,362.48Z" transform="translate(-122 -229)"/><path class="cls-32" d="M944.86,362.48a28,28,0,0,1,.9,6.22s6.8-3.69,5-13.29l-.06-.31,0,0S944,358.92,944.86,362.48Z" transform="translate(-122 -229)"/><path class="cls-29" d="M937.61,352.75s2.55,10.8,5.82,11.95,6.13-2.37,7.1-4.73a8.16,8.16,0,0,0,.2-4.9s1.74-2.28-.2-3.11-2.07,2.13-2.07,2.13-3.27-.52-2.94-4.4C945.52,349.69,943.33,354.35,937.61,352.75Z" transform="translate(-122 -229)"/><path class="cls-29" d="M935.92,395.83s-3.56-.7-2.52,2.2a1.64,1.64,0,0,1-2,0s-.12.61-1.4.32c0,0-1,.88-1.52-.91s.84-3.62,1.7-3.49,1.89-.74,3.46-.36A2.63,2.63,0,0,1,935.92,395.83Z" transform="translate(-122 -229)"/><path class="cls-33" d="M815.81,474.87h-7.46c-3.66,0-11.24-3.93-5.93-13.65l15.16-9.39,5.7,9Z" transform="translate(-122 -229)"/><path class="cls-34" d="M810.35,468.59s-.16-4.91,9.3-13.78l19.82-2.66,5.4,3.28s.75,7.8-7.54,9S810.35,468.59,810.35,468.59Z" transform="translate(-122 -229)"/><path class="cls-35" d="M846.6,465.37V475s-27.32,3.66-33.81-1.55c-5.49-4.41-1.95-10.92,11.65-10.77S846.6,465.37,846.6,465.37Z" transform="translate(-122 -229)"/><path class="cls-36" d="M862.25,472.19c-.41,2.45-2.86,2.78-5.38,2.57-1-.09-2-.25-2.87-.41a20.66,20.66,0,0,0-5.57-.26v-7.47c2.66.2,6-.36,8.63-.41a13.37,13.37,0,0,1,2,.09C861.82,466.69,862.81,468.78,862.25,472.19Z" transform="translate(-122 -229)"/><path class="cls-37" d="M862.25,472.19c-.41,2.45-2.86,2.78-5.38,2.57l1.41-1.1a7.38,7.38,0,0,1,0-6.52l-1.22-.93a13.37,13.37,0,0,1,2,.09C861.82,466.69,862.81,468.78,862.25,472.19Z" transform="translate(-122 -229)"/><rect class="cls-29" x="724.6" y="237.95" width="1.84" height="6.67"/><path class="cls-25" d="M788.21,454.83l-1,1.34s-4.41,3.94-5.49,6.46,6.18-.37,6.18-.37,2.84-1.54,3-3l1.51-1.72Z" transform="translate(-122 -229)"/><path class="cls-3" d="M812.79,419.65s-3-.92-5.71,5.56c-2,4.89-6.09,12.35-6.09,12.35l-13.12,16.67s1.81,3.65,4.66,4.14c0,0,14.62-13.13,15.82-15.63s4.44-7.51,4.44-7.51Z" transform="translate(-122 -229)"/><path class="cls-38" d="M780.7,438.18a4.54,4.54,0,0,0-.94-4.68c-2-2.22-6.43-2.71-6.43-2.71S775.73,437.34,780.7,438.18Z" transform="translate(-122 -229)"/><path class="cls-38" d="M785.09,443.6s-.94-3.73,2.17-5.63a46.35,46.35,0,0,0,4-2.59S792,442.5,785.09,443.6Z" transform="translate(-122 -229)"/><path class="cls-38" d="M782.12,458.28a3.12,3.12,0,0,0-2.68-3.17c-2.85-.6-4.92.3-5.91-.39C773.53,454.72,776.55,461.18,782.12,458.28Z" transform="translate(-122 -229)"/><path class="cls-39" d="M789.2,438.24a.39.39,0,0,0-.54-.06c-3,2.42-4.39,6.22-5,9-.06-.5-.11-1-.18-1.46-1.22-8.7-5.57-12-5.75-12.09a.39.39,0,1,0-.46.62s4.26,3.2,5.44,11.58a84.77,84.77,0,0,1,.5,12.6,10.27,10.27,0,0,0-3.09-1.94.38.38,0,0,0-.5.21.39.39,0,0,0,.22.51c.76.3,2.76,1.31,3.33,2.46-.14,4.7-.46,8.37-.46,8.44a.39.39,0,0,0,.35.42h0a.39.39,0,0,0,.38-.35c0-.07.31-3.61.46-8.19a.39.39,0,0,0,.06-.35s0-.07,0-.11c.08-2.79.09-5.91-.05-8.88h0c0-.08.46-8,5.25-11.83A.39.39,0,0,0,789.2,438.24Z" transform="translate(-122 -229)"/><path class="cls-31" d="M802.29,476.15H766.45s-.52-4,2.24-4c0,0,.26-2.59,1.9-2.07,0,0,.78-5.7,5.27-4.84,0,0,1.56-3.6,4.41-1.93a9.12,9.12,0,0,1,4.51-2.06c2.61-.34,6,.66,9,6,0,0,2.24-1.15,2.42,2.15,0,0,2.33-.42,3.11,2.86C799.27,472.23,803,473.16,802.29,476.15Z" transform="translate(-122 -229)"/><path class="cls-40" d="M786.42,472.86c-1.15,3.47-10.86-1.56-14.3,3.26h-5.67s-.52-4,2.24-4c0,0,.26-2.59,1.9-2.07,0,0,.78-5.7,5.27-4.84,0,0,1.56-3.6,4.41-1.93a9.12,9.12,0,0,1,4.51-2.06c.49.53,3.53,4.29-3.74,7.31C781,468.52,787.65,469.18,786.42,472.86Z" transform="translate(-122 -229)"/><ellipse class="cls-31" cx="653.44" cy="241.55" rx="0.92" ry="0.39"/><path class="cls-31" d="M784.15,471.93c0,.38-.75.69-1.68.69s-1.69-.31-1.69-.69.76-.69,1.69-.69S784.15,471.55,784.15,471.93Z" transform="translate(-122 -229)"/><path class="cls-31" d="M780.35,466.77c0,.28-.55.5-1.23.5s-1.23-.22-1.23-.5.55-.5,1.23-.5S780.35,466.5,780.35,466.77Z" transform="translate(-122 -229)"/><path class="cls-40" d="M796.24,471.93c0,.38-.9.69-2,.69s-2-.31-2-.69.9-.69,2-.69S796.24,471.55,796.24,471.93Z" transform="translate(-122 -229)"/><path class="cls-3" d="M844.87,455.43a15.51,15.51,0,0,0-6.26-1.14h0a29.22,29.22,0,0,0-10.17,1.92C818,460,815,454.4,815,454.4s2.16-2.51,0-9.07c-.1-.29-.2-.57-.3-.83s-.31-.73-.47-1.06c-2.17-4.4-5.17-3.77-5.8-10.37a24.92,24.92,0,0,1,2-11.25.14.14,0,0,1,0-.06l0-.08a29.36,29.36,0,0,1,1.72-3.56c5.79-6.22,12.66-2.7,16.2,1.85,5.18,6.65,6.78,20.26,6.78,20.26C843.14,446,844.87,455.43,844.87,455.43Z" transform="translate(-122 -229)"/><path class="cls-41" d="M838.59,454.29a29.22,29.22,0,0,0-10.17,1.92C818,460,815,454.4,815,454.4s2.16-2.51,0-9.07a15.08,15.08,0,0,0-.77-1.89L826,425.72s7,3,0,21.25C820.53,461.23,828,453,838.59,454.29Z" transform="translate(-122 -229)"/><path class="cls-41" d="M817.23,435.31l-2.54,9.19c-.15-.38-.31-.73-.47-1.06-2.17-4.4-5.17-3.77-5.8-10.37a24.92,24.92,0,0,1,2-11.25c-.36,1-2.27,6.74-.3,12C812.31,439.63,817.23,435.31,817.23,435.31Z" transform="translate(-122 -229)"/><path class="cls-29" d="M794.32,459.21l-3.11,2s-3.88,2.13-6.93,2.26-1.68,2.4-1.68,2.4h5.71c2.19,0,4.91.91,5.43-.91l4.4-1.87Z" transform="translate(-122 -229)"/><path class="cls-3" d="M793.74,458.63s0,2.76,4.32,5.44c0,0,17.18-7.6,21.16-13.13s12.61-18.48,7.77-24.27c-3.67-4.38-7.53,2.05-10.1,6.74-2.9,5.27-6.06,11.66-6.06,11.66Z" transform="translate(-122 -229)"/><path class="cls-42" d="M808.4,397.09s.89-7.83,8.33-6.8c7.15,1,7,9.8,4.34,15.23,0,0,1.82-1.69,3.24,0s-2.33,8.55-7.06,4S808.4,397.09,808.4,397.09Z" transform="translate(-122 -229)"/><path class="cls-43" d="M808.4,396.18s6.35-3.62,7.41,3.7S808.4,396.18,808.4,396.18Z" transform="translate(-122 -229)"/><path class="cls-31" d="M805,412.83a7.18,7.18,0,0,1-4.79-6.15c-.26-4.05,1.81-4,1.81-4s.64-7,7.77-6.47,11.82,8.72,7.72,17S805,412.83,805,412.83Z" transform="translate(-122 -229)"/><path class="cls-29" d="M820.51,415.79s-1.47,7.2-6,7.34a1.44,1.44,0,0,1-1.36-1.45,13.27,13.27,0,0,1,0-1.65l-2-2.21,5.12-6.54h0A12.73,12.73,0,0,0,820.51,415.79Z" transform="translate(-122 -229)"/><path class="cls-32" d="M813.11,421.68a13.27,13.27,0,0,1,0-1.65l-2-2.21,5.12-6.54h0A8.52,8.52,0,0,1,813.11,421.68Z" transform="translate(-122 -229)"/><path class="cls-29" d="M802.87,407s3.7,12.61,7.91,13c3.39.28,6.88-6.47,5.44-8.68,0,0,1.18-1.79-.07-3.13s-2.72-.17-1.38,2.16c0,0-2.72-.22-3.07-2.38C811.7,407.93,806,411.73,802.87,407Z" transform="translate(-122 -229)"/><path class="cls-25" d="M671.33,328.21s5.59-.49,6.93,1.52-9.53,3-9.53,3Z" transform="translate(-122 -229)"/><path class="cls-33" d="M645.5,322.06l7.25,6.15,18.48-1,.87,8.29s-16.58,2.58-20.73,2.63-16.84-5.83-16.84-5.83Z" transform="translate(-122 -229)"/><path class="cls-33" d="M650,407.91l-1.26,6.61s-3.28,0-3.84-4.19,1.9-5.66,1.9-5.66l2.94,1.73Z" transform="translate(-122 -229)"/><path class="cls-44" d="M648.73,348.71S659.4,368.53,661,374.36s-.27,12.67-9.11,33.55c0,0-7,0-8-4.33s-5.32-53.19-5.32-53.19Z" transform="translate(-122 -229)"/><path class="cls-45" d="M635.31,418.92s-1.56,5.45-.85,8.68A58.16,58.16,0,0,0,650,429.09s1.36-3.61-2.27-4.46-3.95-2.86-3.95-2.86l-.52-2.85Z" transform="translate(-122 -229)"/><path class="cls-3" d="M623.82,350.13s-.52,4.67,3.28,15.38,7.26,18.65,7.26,18.65v35.58s1.9,1.56,10,0c0,0,4.84-33,4.32-38.86s-4-30.75-4-30.75Z" transform="translate(-122 -229)"/><path class="cls-31" d="M653.16,301a2.73,2.73,0,0,0,3.26-2.78s4.28.84,3.69-5.05a5.65,5.65,0,0,1-3.44,0s1.24-.19,1.37-2c0,0-2.65,1.82-6.41-1.88s-10.43-4.92-12.18,1.62a5.61,5.61,0,0,0-1.62,6.87c1.91,4.32,1,5.65,1,5.65Z" transform="translate(-122 -229)"/><path class="cls-29" d="M646.51,308.22l-3.8,3.74-.09.08s-6.54-5.57-5.24-6.86a36.69,36.69,0,0,0,3.17-4.35l.72-1.13Z" transform="translate(-122 -229)"/><path class="cls-32" d="M646.51,308.22l-3.8,3.74-.15-.3s-3.49-3.92-2-10.83l.72-1.13Z" transform="translate(-122 -229)"/><path class="cls-29" d="M654.22,298.66s-4.39,10.6-8.29,10.62c-2.85,0-6.65-6.3-4.66-9.59,0,0-1.95-1.68-.09-3,1.63-1.13,2.42.31,1.55,2.16a2.07,2.07,0,0,0,2.55-2s4.58,3.16,8.77-.13a6.35,6.35,0,0,1-4.36,2.21A6,6,0,0,0,654.22,298.66Z" transform="translate(-122 -229)"/><polygon class="cls-21" points="543.1 100.73 548.16 100.73 516.6 248.44 511.54 248.44 543.1 100.73"/><polygon class="cls-21" points="566.06 100.73 561 100.73 592.56 248.44 597.62 248.44 566.06 100.73"/><rect class="cls-46" x="539.56" y="100.73" width="29.97" height="6.67" rx="2.52"/><path class="cls-46" d="M698.38,399.62H654.72a2.08,2.08,0,0,1-2.08-2.07h0a2.07,2.07,0,0,1,2.08-2.07h43.66a2.07,2.07,0,0,1,2.07,2.07h0A2.07,2.07,0,0,1,698.38,399.62Z" transform="translate(-122 -229)"/><path class="cls-21" d="M655.78,397.55a1,1,0,1,1-1-1A1,1,0,0,1,655.78,397.55Z" transform="translate(-122 -229)"/><path class="cls-21" d="M699.37,397.55a1,1,0,1,1-1-1A1,1,0,0,1,699.37,397.55Z" transform="translate(-122 -229)"/><path class="cls-47" d="M650,350.56C634.1,360.5,622.18,353,622.18,353s.43-10.79,4.4-27.29,8.64-19.82,8.64-19.82-.17-2.2,1.21-2.12,7.17,9.07,7.17,9.07l2.72,10.06,1.42,2.47c-.18,3.15-.15,8.81,0,11.41A56.33,56.33,0,0,0,650,350.56Z" transform="translate(-122 -229)"/><path class="cls-48" d="M647.73,336.76c-15.9-3.84-14.13-19-14.13-19l12.72,5.14,1.42,1.43C647.56,327.46,647.59,334.16,647.73,336.76Z" transform="translate(-122 -229)"/><path class="cls-3" d="M683.29,317.8s-2.17,2.6-4.53,13.87a3.2,3.2,0,0,0,2,3.61c3.59,1.45,10.67,3.68,18.16,2.6a3.17,3.17,0,0,0,2.71-2.77c.43-3.63,1.1-11.08,0-14.74Z" transform="translate(-122 -229)"/><path class="cls-49" d="M701.54,320.37c-.1.69-4.27.68-9.31,0s-9-1.84-8.94-2.54,4.26-.67,9.3,0S701.63,319.68,701.54,320.37Z" transform="translate(-122 -229)"/><path class="cls-50" d="M699.28,319.44c0,.37-3.13.23-6.88-.3s-6.74-1.24-6.69-1.6,3.13-.23,6.88.3S699.33,319.08,699.28,319.44Z" transform="translate(-122 -229)"/><path class="cls-3" d="M719.28,326.27a.77.77,0,0,1-.5.46c-1.25.24-2.53-2.77-2.53-2.77L700.63,329s-2-2.27-.59-6.52l16.74-1.88.32,0a2.57,2.57,0,0,1,2.52,2.32A7.48,7.48,0,0,1,719.28,326.27Z" transform="translate(-122 -229)"/><path class="cls-51" d="M719.28,326.27a5.45,5.45,0,0,1-2.18-5.68,2.57,2.57,0,0,1,2.52,2.32A7.48,7.48,0,0,1,719.28,326.27Z" transform="translate(-122 -229)"/><path class="cls-52" d="M700.63,320.32h-.07a.38.38,0,0,1-.27-.44c0-.05,1.07-4.59-1-7.74a7.27,7.27,0,0,0-9.66-1.9c-3.47,2.36-4.52,7.7-4.53,7.76a.36.36,0,0,1-.71-.14c0-.23,1.12-5.7,4.83-8.22a8,8,0,0,1,10.68,2.11c2.2,3.42,1.1,8.1,1.06,8.3A.36.36,0,0,1,700.63,320.32Z" transform="translate(-122 -229)"/><path class="cls-36" d="M722.67,328a1.62,1.62,0,0,1,1-.08,2.7,2.7,0,0,1,.88.35,2.38,2.38,0,0,1,1.09,1.53,3.44,3.44,0,0,1-.89-.3,5.63,5.63,0,0,1-.73-.39A7.56,7.56,0,0,1,722.67,328Z" transform="translate(-122 -229)"/><path class="cls-36" d="M726.68,326.61a2.25,2.25,0,0,1,1.13.06,3.45,3.45,0,0,1,1,.47,3.29,3.29,0,0,1,.79.79A2.13,2.13,0,0,1,730,329c-.37-.18-.64-.36-.93-.53s-.54-.35-.81-.53A9.27,9.27,0,0,1,726.68,326.61Z" transform="translate(-122 -229)"/><path class="cls-36" d="M723.41,322.17a1.92,1.92,0,0,1,1-.23,2.47,2.47,0,0,1,1,.26,2.07,2.07,0,0,1,1.24,1.61c-.36-.12-.62-.25-.9-.37l-.77-.36A11.45,11.45,0,0,1,723.41,322.17Z" transform="translate(-122 -229)"/><path class="cls-36" d="M735.83,331.73" transform="translate(-122 -229)"/><path class="cls-36" d="M733.11,330.48a3.66,3.66,0,0,1,1.19.58A5.6,5.6,0,0,1,736,333a3.51,3.51,0,0,1,.4,1.26,6.45,6.45,0,0,1-1-.8,10.08,10.08,0,0,1-.86-.87c-.26-.31-.52-.62-.76-1A6.33,6.33,0,0,1,733.11,330.48Z" transform="translate(-122 -229)"/><path class="cls-36" d="M733.56,326a2.48,2.48,0,0,1,1.24.15,3.45,3.45,0,0,1,1.07.61,3.23,3.23,0,0,1,.8,1,2.33,2.33,0,0,1,.31,1.22c-.36-.26-.63-.51-.91-.74l-.83-.68A18.61,18.61,0,0,1,733.56,326Z" transform="translate(-122 -229)"/><path class="cls-36" d="M730,333.9a3.28,3.28,0,0,1,1.29.87,4.94,4.94,0,0,1,.9,1.28,4.83,4.83,0,0,1,.45,1.5,3.7,3.7,0,0,1-.09,1.55,15,15,0,0,1-.65-1.35l-.6-1.27C730.89,335.64,730.45,334.84,730,333.9Z" transform="translate(-122 -229)"/><path class="cls-36" d="M738.46,336.4a2.13,2.13,0,0,1,1,.45,2.93,2.93,0,0,1,.74.83,2.6,2.6,0,0,1,.35,2.16,7.52,7.52,0,0,1-.66-.84c-.19-.27-.36-.53-.53-.81A13.42,13.42,0,0,1,738.46,336.4Z" transform="translate(-122 -229)"/><path class="cls-29" d="M682.13,308.78l3.26-2.22s1.16-1.94,4.55-.85,4,1.75,3.58,2.86c0,0,2.19,1.49,1.82,2.53s-1.72,1.31-1.79,2a2,2,0,0,1-1.58,1.68c-1,.18-1.27.95-2.47.65a12.45,12.45,0,0,1-3.33-2.18l-2.43.69Z" transform="translate(-122 -229)"/><path class="cls-53" d="M634.67,320.59c1.62,2.72,5.63,4.36,8.78,4.71,5.38.61,14.85,1.86,21.6-.4,9.38-3.12,20-10.51,20-10.51s.33-3.74-3.38-7.18c0,0-15.85,7.49-18.18,7.49a138.16,138.16,0,0,1-21.12-3.86C638.42,309.57,630.76,314,634.67,320.59Z" transform="translate(-122 -229)"/></g></g></svg>