<svg xmlns="http://www.w3.org/2000/svg" xmlns:xlink="http://www.w3.org/1999/xlink" viewBox="0 0 1022.57 379.03"><defs><style>.cls-1{isolation:isolate;}.cls-2{fill:#3b5849;}.cls-3{fill:#fbe0ca;}.cls-4{fill:#6cb5a5;}.cls-5,.cls-7,.cls-8,.cls-9{fill:none;stroke-miterlimit:10;}.cls-5{stroke:#fbe0ca;}.cls-6{fill:#e3fdf5;}.cls-7,.cls-9{stroke:#fff;}.cls-7{stroke-width:0.79px;}.cls-8{stroke:#6cb5a5;}.cls-10{fill:#c4d6d5;}.cls-11{fill:#15b8b5;}.cls-12{fill:#077773;}.cls-13,.cls-36{fill:#fff;}.cls-13{opacity:0.21;mix-blend-mode:overlay;}.cls-14,.cls-21,.cls-28{fill:#c7dee0;}.cls-14{opacity:0.6;}.cls-14,.cls-18,.cls-22,.cls-28,.cls-41,.cls-48{mix-blend-mode:multiply;}.cls-15{fill:#0e5e5a;}.cls-16{fill:#106f6c;}.cls-17{fill:#758989;}.cls-18{fill:#f79d59;}.cls-18,.cls-22,.cls-28,.cls-41{opacity:0.35;}.cls-19{fill:#697777;}.cls-20,.cls-22{fill:#b1c8c9;}.cls-23{fill:#93a3a2;}.cls-24{fill:#e8e8e8;}.cls-25{fill:#f49987;}.cls-26{fill:#b7cecd;}.cls-27{fill:url(#linear-gradient);}.cls-29{fill:#feb19e;}.cls-30{fill:url(#linear-gradient-2);}.cls-31{fill:#332012;}.cls-32{fill:#ff856a;}.cls-33{fill:#127266;}.cls-34{fill:#16998f;}.cls-35{fill:#1baa9c;}.cls-37{fill:#f9ded7;}.cls-38{fill:#16b596;}.cls-39{fill:#07514c;}.cls-40{fill:#4c321c;}.cls-41{fill:#d64136;}.cls-42{fill:#28190f;}.cls-43{fill:#f16e46;}.cls-44{fill:#e8cfbf;}.cls-45{fill:#14988e;}.cls-46{fill:#98aeaf;}.cls-47{fill:url(#linear-gradient-3);}.cls-48{fill:#107a7a;opacity:0.17;}.cls-49{fill:#edcfbc;}.cls-50{fill:#d1a98b;}.cls-51{fill:#ffd9a6;}.cls-52{fill:#e2bfa6;}.cls-53{fill:url(#linear-gradient-4);}</style><linearGradient id="linear-gradient" x1="1015.34" y1="411.82" x2="1001.48" y2="355.66" gradientUnits="userSpaceOnUse"><stop offset="0" stop-color="#c7e2e2"/><stop offset="1" stop-color="#e1efef"/></linearGradient><linearGradient id="linear-gradient-2" x1="1022.79" y1="409.98" x2="1011.35" y2="363.61" xlink:href="#linear-gradient"/><linearGradient id="linear-gradient-3" x1="634.15" y1="345.27" x2="644.58" y2="297.17" gradientUnits="userSpaceOnUse"><stop offset="0" stop-color="#0f847e"/><stop offset="1" stop-color="#159b91"/></linearGradient><linearGradient id="linear-gradient-4" x1="652.19" y1="349.18" x2="662.62" y2="301.08" xlink:href="#linear-gradient-3"/></defs><title>greensort main</title><g class="cls-1"><g id="Layer_1" data-name="Layer 1"><path class="cls-2" d="M269,361.12c-15.11,44.79-49.56,52.25-45,73.85,5.26,24.92,52.41,20.93,77,58.92,15.56,24,4.05,37,21,47.92,14.56,9.36,40.76,4.33,94-1.57,31-3.43,45.43-7.19,82-13.35,17.68-3,31-4.92,42.19-6.36,33.34-4.31,57.81-7.24,62.81-7.78,26.22-2.87,89.62-12.86,255-44.79C436.84,300.76,305.48,289,276,320.26,270.06,326.56,277.22,336.74,269,361.12Z" transform="translate(-217.5 -198)"/><path class="cls-3" d="M542,318c-102.81-31.27-147.94-49.1-168-60-5.56-3-29.91-16.76-53-17-2.81,0-9.86.1-24,0-18.84-.13-19.42-.44-21,0-20.46,5.72-39.72,78.28-9,113,21.51,24.31,59,20.36,112,14C418.53,363.26,476.09,351.24,542,318Z" transform="translate(-217.5 -198)"/><path class="cls-3" d="M479.53,514.64c.66.21,1.18-.2,1.73-.42,7.66-3.13,15.31-6.3,22.84-9.72.55-.25,1.07-.58,1.76-1,.24,1.47-.52,2.34-.61,3.36a40.66,40.66,0,0,0,.05,7c.45,5.82.84,11.62-.13,17.43a63.63,63.63,0,0,1-5,15.31,2.6,2.6,0,0,0-.43,1.9c-.74.1-.95.72-1.18,1.27-1.41,3.44-4.08,6.22-5.27,9.78-.18.57-.59.6-1.05.55-1.59-.15-3.19-.32-4.78-.49-.67-.07-1-.32-.41-.92,3.32-3.51,4.94-8.12,7.68-12,.53-.74,1.33-1.37,1.32-2.42a47,47,0,0,0,4.13-8.5,17.41,17.41,0,0,0-.5-13.44,6.59,6.59,0,0,0-.88-1.4,3.08,3.08,0,0,0-5.2,0c-1.71,2.1-1.95,4.79-2.83,7.22-.72,2-.86,4.24-2.09,6.08-.72,1.72-1.41,3.44-2.15,5.14-3.67,8.44-10.88,11.62-19.61,8.65-1.26-.42-2.53-.84-3.76-1.33-2.32-.93-3-2-2.59-4.48a19.57,19.57,0,0,1,4.25-10,76.33,76.33,0,0,0,6-7.76,14.1,14.1,0,0,0,2.36-6,1.75,1.75,0,0,1,1.26-1.52C476.15,516.23,478.05,515.88,479.53,514.64Z" transform="translate(-217.5 -198)"/><path class="cls-3" d="M483,465.15c2.66.36,4.86,1.76,7,3.17,4.43,2.86,8.09,6.72,12.42,9.72,2.36,1.63,4.71,3.31,7.67,3.77a4.37,4.37,0,0,0,4.66-1.79c1-1.45.72-2.94,0-4.38a8.41,8.41,0,0,0-1.12-1.65c-3.31-3.8-6.59-7.63-10-11.36-2.65-2.92-6.25-4.31-9.83-5.69-1.09-.41-2.16-.88-3.64-1.49a32.82,32.82,0,0,1,7.59-.82c7.35.12,13.56,3.23,19.39,7.38a41.53,41.53,0,0,1,14.65,17.68c1.25,2.92,3,5.56,6.46,6.94-2.4,1.16-4.59,2.18-6.73,3.27-4.79,2.44-9.57,4.89-14.33,7.4a2.42,2.42,0,0,1-2.9-.23,18,18,0,0,0-2.22-1.45,3.57,3.57,0,0,1-2.1-3.2c-.25-3.29-4-6.23-7.24-6a1.38,1.38,0,0,1-1.17-.33,81.63,81.63,0,0,0-17.3-10.72c-1.34-.65-2.66-1.35-4-2a24.69,24.69,0,0,0-4.87-2c-1.89-.59-3.84-.89-5.83-1.36C473.62,467.14,477.45,463.83,483,465.15Z" transform="translate(-217.5 -198)"/><path class="cls-3" d="M500.05,548.74c.66-.27.71-1,1-1.48,5.12-10.36,6.62-21.29,5.29-32.71-.4-3.35-.57-6.74.74-10a4.27,4.27,0,0,1,2.49-2.5,140.56,140.56,0,0,0,13.06-6.22c.64-.34,1.13-.59,1.52.39,1.12,2.88.88,5.9,1,8.88,0,.67-.86.83-1.1,1.4a13,13,0,0,0-.22,10.17,2.88,2.88,0,0,0,2.67,1.72c1,.06,1.31.58,1.5,1.39,2,8.58,2.25,17.11-.51,25.61-1.08,3.32-2.33,6.59-3.36,9.91-.86,2.8-2.9,3.11-5.33,3.55a70.17,70.17,0,0,0,2.2-12.65,89.74,89.74,0,0,0-1.78-24.47,8.9,8.9,0,0,0-2.77-4.65c-1.91-1.79-3.93-1.33-4.81,1.13-1,2.69-.9,5.57-1.11,8.37-.45,6-.36,12.08-1.41,18.06a33.15,33.15,0,0,1-2.46,8.26,2.44,2.44,0,0,0-.41,1.89c-.47-.15-.7.09-.92.47A19.41,19.41,0,0,1,504,557c-3.24,4.11-3.55,4.21-8.68,3.44-1.11-.17-1.25-.5-.75-1.5,1.56-3.13,3.86-5.83,5.13-9.13C499.88,549.46,500.12,549.15,500.05,548.74Z" transform="translate(-217.5 -198)"/><path class="cls-3" d="M475.4,471.36a10.58,10.58,0,0,1,4.87,2c-.4.67-.2,1.07.5,1.43,3,1.51,5.87,3.09,8.81,4.61a74.16,74.16,0,0,1,10.82,7.06,1.47,1.47,0,0,1,.65,1.53,7.61,7.61,0,0,0,5.16,7.66c.31.09.74.26,1,.13,2.33-1.36,3.75.56,5.44,1.47a20.41,20.41,0,0,1,1.81,1.27c-2.49,1.15-4.76,2.25-7.07,3.26-3.4,1.49-6.88,2.82-10.24,4.41-2.47,1.18-4.83.84-7.24,0-4-1.35-7.15-4.14-10.64-6.35-.89-.57-1.78-1.11-2.68-1.66-7.69-4.41-15.58-7.3-24.36-3.17.48-3.68,4.42-8.09,8.86-8.42a19.81,19.81,0,0,1,10.9,2.29l4.55,2.42a4.52,4.52,0,0,1,2.25,1c3.36,1.93,6.61,4.08,10.52,4.86a11.92,11.92,0,0,0,5.11.19,3.33,3.33,0,0,0,2.61-4.67,7,7,0,0,0-1.15-2,23.43,23.43,0,0,0-15.13-9.49c-.9-.16-1.93-.1-2.53-1a137.37,137.37,0,0,1-14.25-2.2c-1.07-.25-1.1-.49-.56-1.37a30.46,30.46,0,0,1,3.47-4.44,2.44,2.44,0,0,1,2.1-.72,24.73,24.73,0,0,1,9.3,2.26c.43.18,1.07.83,1.42.1.44-.92-.6-.86-1.05-1.08C477.56,472.22,476.47,471.81,475.4,471.36Z" transform="translate(-217.5 -198)"/><path class="cls-3" d="M476.52,499.32c2.43,1.71,4.81,3.5,7.3,5.12a26.12,26.12,0,0,0,7.93,3.92l-12.56,5.38a162.52,162.52,0,0,0-28.36,14.62c-3.76,2.46-7.83,4.42-11.62,7.57,1.49-5.31,2.38-10.44,5.67-14.65a13.37,13.37,0,0,1,9.54-5.16c2.71-.28,5.42-.08,8.14-.17a19.62,19.62,0,0,0,8.77-2.28c2.32-1.26,4.18-2.89,4.12-5.76-.07-3.09-2.06-4.93-4.59-6.23a11.38,11.38,0,0,0-8.43-.5c-3,.81-5.82,2.18-8.76,3.18-4.19,1.43-4.2,1.45-3.46-2.82.79-4.62,2.11-6,6.84-7,4.16-.85,8.16-.08,12.08,1.31A59.56,59.56,0,0,1,476.52,499.32Z" transform="translate(-217.5 -198)"/><path class="cls-3" d="M439.32,537.75c2.54-3.25,26.84-17.64,32.9-19.57a14,14,0,0,1-3,6.91,57.46,57.46,0,0,1-4.29,5.28c-3.84,4.07-5.27,9-5.31,14.52C452.86,542.73,447.24,537.24,439.32,537.75Z" transform="translate(-217.5 -198)"/><path class="cls-3" d="M524.73,556.46c.78-2.24,1.48-4.49,2.33-6.68a47.79,47.79,0,0,0,1.83-29.72,5.78,5.78,0,0,1,.19-3.36,12.53,12.53,0,0,0-.9-9.2c-.11-.25-.3-.57-.52-.63-2.06-.59-1.63-2.3-1.73-3.77-.17-2.38-.1-4.8-1.11-7-.32-.71,0-1,.57-1.28a89,89,0,0,1,9-5c1.62-.72,3.23-1.48,4.84-2.21.56-.24,1-.49,1,.56-.11,3.07,1.46,5.5,3.14,7.88,3.12,4.39,6.89,8.29,9.65,12.93,4.61,7.74,5.36,15.93,2.72,24.51-.82,2.66-1.87,5.21-3,8a4.29,4.29,0,0,1-.26-2.06c-.17-6.3-.67-12.54-3.36-18.38a25.13,25.13,0,0,0-6-8.49,5.91,5.91,0,0,0-1-.84c-1.35-.74-2.69-1.75-4.34-1s-1.68,2.37-1.78,3.85c-.22,3.55.59,7.06.48,10.62-.22,7.81-1,15.51-4.07,22.78a17.81,17.81,0,0,1-6.58,8.18C525.54,556.29,525.27,556.62,524.73,556.46Z" transform="translate(-217.5 -198)"/><path class="cls-3" d="M574.27,480.41A6.07,6.07,0,0,1,578,482c-7.08.45-14.18.73-21.22,1.74-1.43.21-2.86.38-4.29.58-1,.13-2,.44-2.21,1.47a2.51,2.51,0,0,0,1.17,2.71c4.6,3.54,8.75,7.49,11.67,12.61a26.52,26.52,0,0,1,3.33,14.24,44.35,44.35,0,0,1-4.62,18.92A32.73,32.73,0,0,1,553,545a22.87,22.87,0,0,1,1.58-5.34c2.06-5.18,3.73-10.41,3.61-16.11-.17-8.26-3.66-15.06-8.73-21.29a74.8,74.8,0,0,1-7.27-10.13,7.86,7.86,0,0,1-.7-1.5c-.88-2.83-.48-3.74,2.26-4.73A100,100,0,0,1,574.27,480.41Z" transform="translate(-217.5 -198)"/><path class="cls-3" d="M502.25,450.75a65.54,65.54,0,0,1,15.14-.62c14.61,1.55,25.74,14.86,28.44,18.24a2.08,2.08,0,0,1,.42.91,1.88,1.88,0,0,1,0,.48,20.41,20.41,0,0,1-2.19,8.81c-1.36,2.45-.72,3.65,2.08,3.63a25.18,25.18,0,0,0,6.21-1.13c4.62-1.24,9.31-2.13,14-2.91.88-.15,1.82-.52,2.68.14a2.76,2.76,0,0,1,2.47,1A120,120,0,0,0,547,483.67a32.62,32.62,0,0,0-4.41,1.48c-2.75,1.28-4.77.71-7.16-1.68-1.92-1.92-3-4.4-4.16-6.79-3.92-8.06-10.12-13.91-17.72-18.39-6.76-4-13.94-5.91-21.82-4.41a1.36,1.36,0,0,1-1.4-.21A68.91,68.91,0,0,1,502.25,450.75Z" transform="translate(-217.5 -198)"/><path class="cls-4" d="M500,330a56.22,56.22,0,0,0-18,6c-2.1,1-13.73,4.67-37,12s-49,14.06-69,19c-1.28,2.75-10.42,23.33,0,44,9.21,18.27,29.93,29.15,52,27a974.22,974.22,0,0,0,144-4c107.59-11,183.87-36.92,271-67,55.19-19.05,142.23-49.1,139-65-2-10-53.08-6.81-104-12a180.15,180.15,0,0,0-23-1c-12.12.26-18.19.39-24,2-4.07,1.13-7.17,2.47-12,2-1-.1-2.67-.33-11-3-5.31-1.7-9-3-9-3-14.51-5.11-15.93-5.65-17-6-6.37-2.1-13.26-1.77-34,4-21.57,6-37,12-37,12-38.61,15-34,15.6-46,19-37.27,10.54-77.26,3.51-80,3-6.54-1.21-18.55-3.88-34-2-8.9,1.08-14.73,1.79-22,5-6.22,2.74-9.47,5.53-17,7C506.8,330,505.53,329.23,500,330Z" transform="translate(-217.5 -198)"/><path class="cls-2" d="M683.05,401.87c.58-54.56,13.9-63.81,18-65.87,1.61-.82,7.07-3.21,18-8,13.89-6.09,15.56-6.62,17-7,12.23-3.22,23,1,29,3,20.69,6.9,52.65,10.26,75.56,2.85,15.63-5.07,12-10.28,43.44-30.85,23.32-15.27,35-22.9,51.28-27.15,28.19-7.37,53.19-.43,88.33,8.51A256.88,256.88,0,0,1,1062,290.07c29,12.41,36.9,27.3,50.73,24.3,13.62-3,12.18-17.87,26.32-25.37,22.85-12.13,65.07,6.43,85.74,37.31,16.36,24.43,22.13,60.87,4.79,89.93-21.7,36.36-66.69,39.5-71.53,39.76-18.66,1-23.19-5.21-58-7-21.44-1.11-29,.77-46,1-35.65.48-45.56-7.22-92-15-44.56-7.47-41-1.31-97-9-39.38-5.4-46.14-9.13-85-15A871.33,871.33,0,0,0,683.05,401.87Z" transform="translate(-217.5 -198)"/><path class="cls-4" d="M1165,485.31c-.37-.56-1-.58-1.55-.75-7.62-2.35-15.25-4.66-23-6.72-.56-.15-1.14-.22-1.89-.36.72-1.24,1.81-1.43,2.51-2.13a38.55,38.55,0,0,0,4.23-5.23c3.22-4.6,6.47-9.16,10.75-12.9a60.65,60.65,0,0,1,13.06-8.35c.56-.29,1.2-.49,1.48-1.15.61.37,1.14,0,1.65-.23,3.16-1.7,6.84-2.14,9.9-4.07.48-.3.81-.07,1.12.24q1.63,1.63,3.26,3.29c.45.46.53.83-.26.93-4.62.59-8.64,3-13.06,4.24-.84.23-1.82.21-2.45,1a45.5,45.5,0,0,0-8.27,3.8,16.85,16.85,0,0,0-7.85,10.31,6.54,6.54,0,0,0-.2,1.59,3,3,0,0,0,3.88,3.17c2.56-.53,4.38-2.37,6.52-3.65,1.77-1.06,3.23-2.63,5.28-3.25,1.58-.84,3.15-1.7,4.74-2.51,7.89-4,15.2-2,19.89,5.54.68,1.09,1.36,2.17,2,3.29,1.17,2.11,1,3.29-.81,4.92a18.79,18.79,0,0,1-9.25,4.82,72.94,72.94,0,0,0-9.2,2.12,13.65,13.65,0,0,0-5.42,3,1.68,1.68,0,0,1-1.86.37C1168.44,486.19,1166.81,485.29,1165,485.31Z" transform="translate(-217.5 -198)"/><path class="cls-4" d="M1132.13,520.05c-1.76-1.89-2.55-4.28-3.31-6.67-1.55-4.84-1.91-9.95-3.31-14.82-.76-2.66-1.48-5.35-3.4-7.5a4.21,4.21,0,0,0-4.57-1.52,3.79,3.79,0,0,0-2.65,3.29,8.14,8.14,0,0,0-.17,1.91c.14,4.85.24,9.71.49,14.55.19,3.8,2,7,3.84,10.25.56,1,1.07,2,1.79,3.33a31.65,31.65,0,0,1-6.14-4c-5.4-4.59-8.13-10.69-9.93-17.35a40,40,0,0,1-.1-22.12c.85-2.93,1.14-6-.57-9.12,2.5.61,4.74,1.19,7,1.69q7.59,1.67,15.19,3.25a2.31,2.31,0,0,1,2,1.94,16.07,16.07,0,0,0,.77,2.44,3.44,3.44,0,0,1-.4,3.66c-1.83,2.61-.83,7.08,1.76,8.86a1.3,1.3,0,0,1,.66,1,78.11,78.11,0,0,0,6.33,18.56c.6,1.31,1.16,2.63,1.74,4a23.56,23.56,0,0,0,2.39,4.49c1,1.59,2.31,3,3.51,4.57C1140.32,524.29,1135.44,524.41,1132.13,520.05Z" transform="translate(-217.5 -198)"/><path class="cls-4" d="M1170.51,447.38c-.66-.2-1.11.27-1.63.51A55.06,55.06,0,0,0,1145,469c-1.76,2.74-3.71,5.36-6.68,7a4.1,4.1,0,0,1-3.38.35,137.77,137.77,0,0,0-13.53-3.36c-.68-.13-1.2-.25-.89-1.21.92-2.84,3-4.94,4.7-7.22.39-.51,1.14-.09,1.67-.36a12.52,12.52,0,0,0,6.38-7.45,2.78,2.78,0,0,0-.94-2.91,1.37,1.37,0,0,1-.26-1.94c3.75-7.61,8.78-14.12,16-18.76,2.83-1.81,5.76-3.48,8.56-5.33,2.35-1.55,4.06-.54,6.13.62a68.22,68.22,0,0,0-9.36,8.07,86.61,86.61,0,0,0-13.64,19.31A8.67,8.67,0,0,0,1139,461c.33,2.5,2.11,3.4,4.27,2.1,2.37-1.41,4.08-3.59,6-5.55,4-4.21,7.65-8.78,12.09-12.59a32,32,0,0,1,6.88-4.64c.56-.28,1.21-.48,1.46-1.16.26.4.57.36,1,.22a18.11,18.11,0,0,1,2-.57c4.93-1.08,5.23-1,8.57,2.75.72.8.63,1.13-.35,1.57-3.08,1.38-6.45,2-9.4,3.66C1171.08,447,1170.71,447,1170.51,447.38Z" transform="translate(-217.5 -198)"/><path class="cls-4" d="M1141.57,520.06a10.2,10.2,0,0,1-2.39-4.49c.71-.26.81-.67.5-1.37-1.27-2.93-2.48-5.88-3.73-8.82a71.65,71.65,0,0,1-3.75-11.86,1.43,1.43,0,0,1,.45-1.54,7.34,7.34,0,0,0,.85-8.86c-.18-.26-.4-.64-.64-.68-2.57-.41-2.45-2.71-3.15-4.42a17.69,17.69,0,0,1-.57-2c2.55.66,4.91,1.23,7.25,1.89,3.45,1,6.85,2.1,10.32,3,2.56.64,4.11,2.33,5.41,4.4,2.16,3.46,2.8,7.46,4,11.24.32,1,.65,1.91,1,2.87,3,8,7.14,15,16.2,17.25-2.6,2.45-8.23,3.33-11.74.86a19.14,19.14,0,0,1-6.72-8.38c-.64-1.52-1.27-3.05-1.9-4.57a4.27,4.27,0,0,1-1.08-2.11c-1.33-3.49-2.43-7.08-4.87-10.05a11.27,11.27,0,0,0-3.68-3.26,3.21,3.21,0,0,0-4.8,1.88,6.87,6.87,0,0,0-.38,2.2,22.64,22.64,0,0,0,5.47,16.32c.57.66,1.38,1.25,1.25,2.31a133.91,133.91,0,0,1,9.27,10.35c.63.84.51,1-.42,1.36a30.29,30.29,0,0,1-5.3,1.19,2.35,2.35,0,0,1-2-.75,24,24,0,0,1-5.54-7.36c-.21-.41-.29-1.28-1-1-.89.42-.07,1,.13,1.45C1140.48,518.1,1141.05,519.07,1141.57,520.06Z" transform="translate(-217.5 -198)"/><path class="cls-4" d="M1157.82,498.56c-.76-2.76-1.44-5.55-2.3-8.28a25.24,25.24,0,0,0-3.5-7.76l12.63,3.67a156.7,156.7,0,0,0,30,6.45c4.3.46,8.53,1.5,13.28,1.47-4.36,3-8.15,6.31-13.18,7.44a12.9,12.9,0,0,1-10.25-2c-2.19-1.45-4.09-3.26-6.17-4.85a18.83,18.83,0,0,0-7.93-3.66c-2.49-.49-4.87-.41-6.58,1.77s-1.48,4.92-.38,7.44a11,11,0,0,0,6,5.53c2.74,1.23,5.67,1.93,8.47,3,4,1.49,4,1.49.85,4.22-3.42,3-5.24,3.16-9.34,1a21.51,21.51,0,0,1-8.19-8.36A57.41,57.41,0,0,1,1157.82,498.56Z" transform="translate(-217.5 -198)"/><path class="cls-4" d="M1209,492.68c-3.87.86-30.77-3.27-36.46-5.54a13.51,13.51,0,0,1,6.45-3.32,54.1,54.1,0,0,1,6.42-1.31c5.35-.68,9.4-3.45,12.82-7.57C1202,480.7,1202.8,488.22,1209,492.68Z" transform="translate(-217.5 -198)"/><path class="cls-4" d="M1156.85,426.54c-1.94,1.19-3.84,2.44-5.82,3.55a46.06,46.06,0,0,0-19.52,21,5.63,5.63,0,0,1-2.19,2.38,12,12,0,0,0-5,7.4,1.13,1.13,0,0,0,0,.79c1.18,1.7-.18,2.7-1,3.87-1.33,1.87-2.86,3.63-3.48,5.91-.19.72-.61.7-1.2.61a87.5,87.5,0,0,1-9.77-1.82c-1.65-.45-3.3-.87-5-1.32-.56-.15-1.07-.26-.4-1,2-2.22,2.28-5,2.48-7.79.36-5.17-.06-10.38.72-15.52,1.3-8.58,5.74-15.14,13-19.91,2.23-1.48,4.57-2.74,7.08-4.12a4.1,4.1,0,0,1-1.07,1.69c-3.72,4.8-7.16,9.75-8.73,15.74a24.25,24.25,0,0,0-.71,10,5.21,5.21,0,0,0,.25,1.26c.55,1.38.93,2.95,2.61,3.42s2.7-.74,3.67-1.79c2.34-2.51,3.88-5.61,6.14-8.2,4.94-5.67,10.21-10.94,17-14.46a17.2,17.2,0,0,1,9.9-2.08C1156.15,426.18,1156.55,426.1,1156.85,426.54Z" transform="translate(-217.5 -198)"/><path class="cls-4" d="M1073.49,452.89a5.92,5.92,0,0,1-1.86-3.44c5.55,4,11,8.12,16.87,11.67,1.19.72,2.36,1.47,3.55,2.19a2.17,2.17,0,0,0,2.54.26,2.4,2.4,0,0,0,.78-2.73c-1.25-5.45-1.93-10.93-1-16.52a25.61,25.61,0,0,1,6.22-12.64,42.58,42.58,0,0,1,15-11.26,31.48,31.48,0,0,1,13.19-2.65,22.77,22.77,0,0,1-4.44,3c-4.7,2.59-9.14,5.47-12.54,9.78-4.92,6.26-6.48,13.46-6.51,21.19a73,73,0,0,1-.78,12,7.42,7.42,0,0,1-.4,1.54c-1.07,2.64-1.93,3.08-4.57,2.14A96.35,96.35,0,0,1,1073.49,452.89Z" transform="translate(-217.5 -198)"/><path class="cls-4" d="M1109,519a62.63,62.63,0,0,1-11.65-8.79c-9.93-10.08-10.09-26.79-10-31a2.11,2.11,0,0,1,.24-.94,2,2,0,0,1,.28-.37,19.71,19.71,0,0,1,7-5.23c2.52-1,2.77-2.27.67-4a24,24,0,0,0-5.31-3c-4.2-1.9-8.23-4.1-12.22-6.39-.75-.44-1.67-.74-1.91-1.75a2.68,2.68,0,0,1-1.24-2.24,116.75,116.75,0,0,0,20.93,11.72,33.31,33.31,0,0,0,4.19,1.59c2.83.72,4,2.39,4.31,5.63.25,2.6-.47,5.1-1.06,7.59-2,8.4-1,16.54,2,24.53,2.59,7.09,6.76,12.92,13.55,16.61.34.19.8.35.91,1A66.74,66.74,0,0,1,1109,519Z" transform="translate(-217.5 -198)"/><path class="cls-5" d="M1019.55,438.58l53.78-26.6c8-8.6,15-15.32,20.21-20,13.77-12.52,20.89-18.88,31.85-23.56a73,73,0,0,1,25.07-5.71c-3,2.83-7.43,7.23-12.58,12.92-9.43,10.41-11.54,14.52-17.07,19.6-9.74,8.94-20.44,12-24.66,13.31a72.69,72.69,0,0,1-22.37,3.26Z" transform="translate(-217.5 -198)"/><path class="cls-5" d="M1074.67,411.32a119,119,0,0,0,32.73-19.54,207.52,207.52,0,0,1,18.4-14.68,141.1,141.1,0,0,1,16.59-9.32h0l5.38-2.66" transform="translate(-217.5 -198)"/><path class="cls-5" d="M1063.92,416.64a179.77,179.77,0,0,0,25.78-67.42,78.76,78.76,0,0,0-17.09,21.84A81.17,81.17,0,0,0,1063.92,416.64Z" transform="translate(-217.5 -198)"/><line class="cls-5" x1="846.41" y1="218.64" x2="871.74" y2="152.56"/><path class="cls-5" d="M1041,428c11.55-6.81,20.2-6.92,25.24-6.22,8.84,1.21,13.56,5.82,35.1,21.21,7.53,5.38,13.67,9.63,17.42,12.19A138,138,0,0,1,1041,428Z" transform="translate(-217.5 -198)"/><path class="cls-5" d="M1041.51,427.72a71.48,71.48,0,0,1,19.22,2.77c10.79,3.1,16.82,7.66,25,12.18a131,131,0,0,0,33,12.66" transform="translate(-217.5 -198)"/><path class="cls-5" d="M1023.82,436.52a179.59,179.59,0,0,0,35.34-62.94,78.83,78.83,0,0,0-20.09,19.11A81.19,81.19,0,0,0,1023.82,436.52Z" transform="translate(-217.5 -198)"/><line class="cls-5" x1="806.31" y1="238.52" x2="841.01" y2="176.84"/><path class="cls-6" d="M428,438a527.59,527.59,0,0,1,98,26c59.34,22.14,69.55,39.25,122,52,28,6.82,51.27,9,95,13,58.79,5.43,67.9,1.63,97,10,47.57,13.67,42.74,29.42,79,36,62.3,11.31,116.47-27.93,129-37,17-12.31,25.52-21.07,31-31,12.87-23.33,10-47.47,8-58a107.12,107.12,0,0,1-27-1c-9.8-1.63-10.19-3.13-19-5-23-4.88-31,3.12-52-3-8.12-2.36-6.07-3.3-15-6-14.92-4.51-21-2-42-3-5.7-.27-27.31-1.29-48-6a120.83,120.83,0,0,0-19-3c-1.88-.14-10.78,0-13.93,0H847c-22.06,0-44-10-44-10-3.88-2-6.2-3.6-11-5-5.64-1.64-9.34-1.42-20-2-4.67-.25-9.33-.72-14-1-19.33-1.16-63.49-4.8-66-5C670.45,397.31,603.62,404.94,428,438Z" transform="translate(-217.5 -198)"/><path class="cls-7" d="M1228,318l-45.43-12.71c-9.19.84-16.85,1.06-22.35,1.1-14.64.08-22.14.06-31-3a57.58,57.58,0,0,1-17.66-9.84c3.22-.1,8.15-.33,14.15-.94,11-1.14,14.38-2.43,20.29-2.49a48.4,48.4,0,0,1,21.41,5.17,57.09,57.09,0,0,1,14.8,9.86Z" transform="translate(-217.5 -198)"/><path class="cls-7" d="M1181.38,305A93.59,93.59,0,0,0,1152,299.2a163.45,163.45,0,0,1-18.47-1.09,110.71,110.71,0,0,1-14.6-3.27h0l-4.54-1.27" transform="translate(-217.5 -198)"/><path class="cls-7" d="M1190.47,307.52A141.11,141.11,0,0,0,1140,333.39a61.63,61.63,0,0,0,21.47-3.79A63.85,63.85,0,0,0,1190.47,307.52Z" transform="translate(-217.5 -198)"/><line class="cls-7" x1="972.97" y1="109.52" x2="923.42" y2="134.85"/><path class="cls-7" d="M1209.84,312.89c-10.34-2.09-15.45-6.57-18-9.63-4.53-5.35-4.87-10.53-9.38-30.85-1.57-7.11-2.94-12.82-3.78-16.29a108.73,108.73,0,0,1,31.19,56.77Z" transform="translate(-217.5 -198)"/><path class="cls-7" d="M1209.4,312.81a56.49,56.49,0,0,1-9.79-11.72c-4.68-7.48-5.81-13.32-8.21-20.26a103.14,103.14,0,0,0-12.66-24.77" transform="translate(-217.5 -198)"/><path class="cls-7" d="M1224.37,317a141.4,141.4,0,0,0-53.75,18.24,62.23,62.23,0,0,0,21.8-.62A63.88,63.88,0,0,0,1224.37,317Z" transform="translate(-217.5 -198)"/><line class="cls-7" x1="1006.86" y1="118.96" x2="954.16" y2="136.8"/><path class="cls-2" d="M527.15,308.53c-.94.36-1.16,1.29-1.57,2-5.76,10.42-11.45,20.88-16.8,31.52-.39.78-.68,1.61-1.11,2.66-1.59-1.43-1.54-3.09-2.35-4.32a58.65,58.65,0,0,0-6.37-7.77c-5.75-6.11-11.43-12.25-15.6-19.64-3.84-6.82-6.25-14.14-8.25-21.64-.25-.92-.35-1.91-1.23-2.52.72-.78.41-1.66.17-2.48-1.53-5.14-1.06-10.66-3-15.73-.29-.79.14-1.2.68-1.56,1.93-1.27,3.88-2.51,5.82-3.77.81-.52,1.37-.53,1.28.67-.55,6.93,1.81,13.55,2.24,20.38.08,1.3-.25,2.73.7,3.9a68.31,68.31,0,0,0,3.06,13.25,25.06,25.06,0,0,0,12.7,14.6,9.4,9.4,0,0,0,2.25.79c3.41.73,5.81-1.19,5.82-4.72,0-3.9-2.14-7.12-3.36-10.65-1-2.91-2.87-5.52-3.15-8.7-.75-2.57-1.52-5.12-2.23-7.7-3.52-12.77,1.69-22.84,14.15-27.41,1.8-.66,3.59-1.33,5.41-1.9,3.45-1.06,5.12-.47,6.95,2.68a28.05,28.05,0,0,1,4.24,15,108.79,108.79,0,0,0,.31,14.1,20.16,20.16,0,0,0,2.74,8.84,2.5,2.5,0,0,1,0,2.83C529.49,303.69,527.68,305.8,527.15,308.53Z" transform="translate(-217.5 -198)"/><path class="cls-2" d="M568,367.08c-3.31,2-7,2.43-10.77,2.82-7.55.8-15.13-.22-22.68.34-4.12.3-8.27.55-12,2.7-2.44,1.4-3.8,3.36-3.61,6.22.17,2.55,1.86,3.94,4,4.87a12,12,0,0,0,2.74.83c7.14,1.27,14.28,2.6,21.44,3.71,5.61.87,10.9-.81,16.16-2.51,1.59-.51,3.21-1,5.42-1.61a47.49,47.49,0,0,1-7.76,7.77c-8.34,6.51-18.11,8.64-28.39,9.25-11.38.68-22.2-1.14-32.39-6.57-4-2.14-8.4-3.49-13.5-1.94,1.64-3.47,3.17-6.58,4.59-9.74Q496,372.63,500.61,362a3.47,3.47,0,0,1,3.45-2.37,24.22,24.22,0,0,0,3.8-.38,5.17,5.17,0,0,1,5.24,1.69c3.26,3.47,10.1,3.38,13.5.13a1.94,1.94,0,0,1,1.6-.68c9.87.24,19.5-1.43,29.06-3.62,2.1-.48,4.21-.9,6.31-1.35a34.5,34.5,0,0,0,7.3-2.13c2.64-1,5.1-2.47,7.75-3.74C576.67,356.4,575.37,363.57,568,367.08Z" transform="translate(-217.5 -198)"/><path class="cls-2" d="M473.35,288.87c-.49.9.06,1.71.24,2.54,3.63,16.23,11.83,29.83,23.64,41.41,3.47,3.4,6.72,7,8.21,11.9a6.15,6.15,0,0,1-.52,5,204.48,204.48,0,0,0-9,18.76c-.41,1-.73,1.69-2,.93-3.87-2.21-6.32-5.81-9.12-9.06-.63-.73.21-1.7,0-2.55a18.71,18.71,0,0,0-8.95-11.6,4.14,4.14,0,0,0-4.55.49c-1.22.88-2,.53-2.92-.2-10-7.81-18-17.14-22.56-29.15-1.8-4.7-3.35-9.49-5.2-14.14-1.56-3.91.44-6.1,2.77-8.79a99.76,99.76,0,0,0,9,16.15,128.89,128.89,0,0,0,24.1,25.81,12.89,12.89,0,0,0,7.3,2.71c3.75.28,5.61-2.06,4.37-5.61-1.35-3.9-4-7-6.32-10.38-4.93-7.16-10.51-13.86-14.73-21.51a47.79,47.79,0,0,1-4.71-11.47c-.23-.92-.33-1.92-1.25-2.5.66-.25.7-.72.62-1.35a24.58,24.58,0,0,1-.22-3.1c-.09-7.53.17-7.93,6.61-11.7,1.39-.81,1.85-.56,2.2,1,1.08,4.92.94,10,2.5,14.86C472.89,287.9,472.9,288.47,473.35,288.87Z" transform="translate(-217.5 -198)"/><path class="cls-2" d="M570.87,353.28a15.17,15.17,0,0,1-7.3,2.13c-.16-1.12-.73-1.38-1.85-1.15-4.67,1-9.36,1.84-14,2.79a107.33,107.33,0,0,1-18.49,1.87,2.11,2.11,0,0,1-2.11-1.13c-2.51-3.94-8.44-5.7-12.71-3.92-.43.18-1.06.38-1.19.72-1.38,3.63-4.71,2.77-7.42,3.27a28.54,28.54,0,0,1-3.17.21c1.74-3.53,3.29-6.82,5-10,2.47-4.74,5.16-9.37,7.48-14.19,1.72-3.55,4.66-5.3,8.09-6.57,5.71-2.11,11.76-1.83,17.67-2.5,1.5-.17,3-.37,4.49-.56,12.61-2,24.06-5.9,30.16-18.46,2.79,4.56,2.36,13.06-2.32,17.44a28.58,28.58,0,0,1-14.29,7.29l-7.27,1.39c-1,.83-2.24.75-3.41.93-5.51.88-11.1,1.41-16.17,4.07a17,17,0,0,0-5.9,4.4c-2.15,2.79-1.66,5.64,1.29,7.58a10.06,10.06,0,0,0,3.11,1.23A33.79,33.79,0,0,0,556,347c1.14-.63,2.25-1.63,3.77-1.12,5.91-3.59,11.66-7.46,17.94-10.42,1.43-.67,1.67-.44,1.87,1a44.85,44.85,0,0,1,.12,8.11,3.5,3.5,0,0,1-1.7,2.71,35.85,35.85,0,0,1-12.46,5.87c-.65.18-2,0-1.68,1.17.34,1.43,1.45.42,2.16.26C567.67,354.27,569.26,353.74,570.87,353.28Z" transform="translate(-217.5 -198)"/><path class="cls-2" d="M544.35,323c-4.26.27-8.55.42-12.8.85s-8.35.9-12.42,2.77q4.61-8.69,9.2-17.36a233.92,233.92,0,0,0,18.57-42c2-6.15,4.78-12,6.18-19,3.12,7.29,6.76,13.84,6.88,21.54a19.21,19.21,0,0,1-6,14.38c-2.78,2.77-6,5-9,7.56a28.36,28.36,0,0,0-7.77,10.48c-1.46,3.49-2.07,7,.59,10.17,2.86,3.39,6.76,3.65,10.77,2.82,4.29-.9,7.38-3.58,9.9-7,2.64-3.63,4.55-7.7,6.94-11.48,3.39-5.38,3.39-5.41,6.42,0,3.29,5.89,3,8.62-1.38,14-3.9,4.7-9.07,7.46-14.72,9.44A83.69,83.69,0,0,1,544.35,323Z" transform="translate(-217.5 -198)"/><path class="cls-2" d="M551.31,246.31c.08,5.94-14.13,44-19.18,51.65a20.19,20.19,0,0,1-2.9-10.43,84.13,84.13,0,0,1,0-9.79c.63-8-2.19-14.81-7.17-21.06C531.65,253,542.89,254,551.31,246.31Z" transform="translate(-217.5 -198)"/><path class="cls-2" d="M438.72,302.52c1.15,3.2,2.4,6.36,3.43,9.59A68.76,68.76,0,0,0,467,347.05a8.35,8.35,0,0,1,2.82,3.93c1.74,4.4,5.11,7.43,9.33,9.5a1.71,1.71,0,0,0,1.15.24c2.84-1.2,3.89,1.09,5.35,2.66,2.33,2.51,4.44,5.28,7.59,6.87,1,.51.84,1.11.52,1.95a128,128,0,0,1-5.62,13.73c-1.17,2.28-2.29,4.57-3.44,6.85-.4.77-.71,1.48-1.61.27-2.65-3.54-6.6-4.85-10.64-6-7.45-2.1-15.2-3.06-22.49-5.77-12.15-4.51-20.39-13-25.19-25-1.48-3.71-2.6-7.51-3.87-11.6a6,6,0,0,1,2.15,2.07c5.88,6.9,12.08,13.44,20.36,17.55a36.22,36.22,0,0,0,14.41,4.08,8.15,8.15,0,0,0,1.91,0c2.19-.39,4.6-.47,5.8-2.78s-.27-4.18-1.5-5.91c-3-4.19-7-7.39-10.13-11.48-6.8-8.94-12.91-18.25-16-29.19a25.68,25.68,0,0,1,0-15.11C438,303.43,438,302.82,438.72,302.52Z" transform="translate(-217.5 -198)"/><path class="cls-2" d="M451.94,432.46a8.85,8.85,0,0,1-5.6,1.67c7.53-6.9,15.22-13.64,22.2-21.13,1.41-1.51,2.86-3,4.28-4.52,1-1,1.79-2.25,1.15-3.65s-2-2-3.76-2c-8.35.19-16.57-.49-24.46-3.59a38.13,38.13,0,0,1-16.59-12.94A63.7,63.7,0,0,1,417.23,361a47.34,47.34,0,0,1,.13-20.1,33.37,33.37,0,0,1,3.06,7.42c2.37,7.65,5.22,15,10.5,21.3,7.66,9.1,17.72,13.57,29,16a109.12,109.12,0,0,1,17.29,4.79,11.23,11.23,0,0,1,2.15,1c3.53,2.38,3.91,3.77,1.73,7.35A143.82,143.82,0,0,1,451.94,432.46Z" transform="translate(-217.5 -198)"/><path class="cls-2" d="M559.4,400.62A92.78,92.78,0,0,1,543,415c-17.75,11.46-42.25,6.61-48.33,5.26a3,3,0,0,1-1.3-.64,2.9,2.9,0,0,1-.46-.52c-2.54-3.62-4.75-7.41-5.51-11.84-.68-4-2.49-4.74-5.61-2.18a35.74,35.74,0,0,0-5.94,6.87c-4.05,5.56-8.5,10.79-13.06,15.92-.87,1-1.59,2.23-3.15,2.27-1.07.85-2.19,1.53-3.65,1.13a173.13,173.13,0,0,0,23.51-27.06,49.32,49.32,0,0,0,3.6-5.64c1.91-3.92,4.7-5.11,9.54-4.59,3.88.43,7.32,2.23,10.78,3.85,11.68,5.48,23.9,6.44,36.47,4.59,11.16-1.64,21-6,28.42-14.77a2,2,0,0,1,1.77-1A98.82,98.82,0,0,1,559.4,400.62Z" transform="translate(-217.5 -198)"/><path class="cls-8" d="M378,369.64c13.75,14.52-27.49-29.06-41.24-43.58-10.57-5.09-19.07-9.86-25.1-13.42-16-9.48-24.19-14.41-31.89-23.52a73.11,73.11,0,0,1-12.83-22.28c3.57,2,9.1,5,16.05,8.23,12.72,5.95,17.28,6.76,23.76,10.55,11.4,6.68,17.48,16,20,19.65a73.16,73.16,0,0,1,9.7,20.43Z" transform="translate(-217.5 -198)"/><path class="cls-8" d="M335.73,325a119,119,0,0,0-28.3-25.54A204.88,204.88,0,0,1,288,286.17a141,141,0,0,1-13.79-13.11h0l-4.12-4.36" transform="translate(-217.5 -198)"/><path class="cls-8" d="M344,333.69a179.19,179.19,0,0,0-72-4.81,78.71,78.71,0,0,0,25.9,9.9A81.23,81.23,0,0,0,344,333.69Z" transform="translate(-217.5 -198)"/><line class="cls-8" x1="126.47" y1="135.69" x2="55.87" y2="130.92"/><path class="cls-8" d="M361.59,352.22c-9.91-9.05-12.55-17.28-13.37-22.3-1.44-8.8,1.58-14.68,9.95-39.79,2.93-8.78,5.18-15.9,6.52-20.23a138.05,138.05,0,0,1-3.1,82.32Z" transform="translate(-217.5 -198)"/><path class="cls-8" d="M361.16,351.84a72.05,72.05,0,0,1-3-19.18c-.2-11.23,2.38-18.33,4.3-27.47a131.14,131.14,0,0,0,2.38-35.3" transform="translate(-217.5 -198)"/><path class="cls-8" d="M374.77,366.16a179.66,179.66,0,0,0-70.54-15.26,78.72,78.72,0,0,0,24.17,13.58A81.24,81.24,0,0,0,374.77,366.16Z" transform="translate(-217.5 -198)"/><line class="cls-8" x1="157.27" y1="168.16" x2="88.11" y2="153.15"/><path class="cls-9" d="M221.77,422.85l56.06,21.37c11.73,0,21.46.61,28.44,1.2,18.55,1.59,28.05,2.49,38.93,7.35a73.33,73.33,0,0,1,21.23,14.51c-4.09-.25-10.36-.53-18-.45-14.05.16-18.51,1.41-26,.8-13.17-1.07-22.69-6.83-26.52-9a72.71,72.71,0,0,1-17.6-14.19Z" transform="translate(-217.5 -198)"/><path class="cls-9" d="M279.23,444.75a119.06,119.06,0,0,0,36.58,10.73A206.44,206.44,0,0,1,339.08,459a141.61,141.61,0,0,1,18.11,5.83h0L362.8,467" transform="translate(-217.5 -198)"/><path class="cls-9" d="M268,440.48a179.59,179.59,0,0,0,67-26.91,78.57,78.57,0,0,0-27.64,2.31A81.21,81.21,0,0,0,268,440.48Z" transform="translate(-217.5 -198)"/><line class="cls-9" x1="50.52" y1="242.48" x2="116.2" y2="216.14"/><path class="cls-9" d="M244.11,431.43c12.85,3.84,18.81,10.11,21.73,14.28,5.11,7.31,4.94,13.91,8.29,40.17,1.17,9.18,2.24,16.57,2.9,21.06a138.28,138.28,0,0,1-32.92-75.51Z" transform="translate(-217.5 -198)"/><path class="cls-9" d="M244.66,431.58a71.54,71.54,0,0,1,11,16c5.06,10,5.82,17.55,8.05,26.61A131.62,131.62,0,0,0,276.91,507" transform="translate(-217.5 -198)"/><path class="cls-9" d="M226.18,424.58a179.67,179.67,0,0,0,70.19-16.86A78.69,78.69,0,0,0,268.69,406,81.22,81.22,0,0,0,226.18,424.58Z" transform="translate(-217.5 -198)"/><line class="cls-9" x1="8.68" y1="226.58" x2="77.5" y2="210.11"/></g><g id="Layer_3" data-name="Layer 3"><ellipse class="cls-10" cx="462.05" cy="288.93" rx="66.97" ry="6.68"/><ellipse class="cls-10" cx="624.15" cy="285.56" rx="66.97" ry="10.44"/><ellipse class="cls-10" cx="766.4" cy="288.16" rx="66.97" ry="9.38"/><ellipse class="cls-10" cx="601.29" cy="273.43" rx="87.28" ry="6.68"/><ellipse class="cls-10" cx="552.11" cy="294.39" rx="3.85" ry="1.6"/><path class="cls-10" d="M810.08,497.91c0,1.31-6,2.37-13.43,2.37s-13.44-1.06-13.44-2.37,6-2.38,13.44-2.38S810.08,496.59,810.08,497.91Z" transform="translate(-217.5 -198)"/><path class="cls-10" d="M897.48,497.39c0,1-2.6,1.86-5.82,1.86s-5.82-.83-5.82-1.86,2.61-1.86,5.82-1.86S897.48,496.36,897.48,497.39Z" transform="translate(-217.5 -198)"/><path class="cls-6" d="M966.75,326.65h-5.16V321.5a2.46,2.46,0,0,0-2.46-2.46h-1.41a2.46,2.46,0,0,0-2.46,2.46v5.15H950.1a2.46,2.46,0,0,0-2.45,2.46v1.41A2.46,2.46,0,0,0,950.1,333h5.16v5.16a2.46,2.46,0,0,0,2.46,2.45h1.41a2.46,2.46,0,0,0,2.46-2.45V333h5.16a2.46,2.46,0,0,0,2.45-2.46v-1.41A2.46,2.46,0,0,0,966.75,326.65Z" transform="translate(-217.5 -198)"/><path class="cls-6" d="M713.57,228.36h-5.16V223.2a2.46,2.46,0,0,0-2.45-2.46h-1.42a2.46,2.46,0,0,0-2.46,2.46v5.16h-5.15a2.46,2.46,0,0,0-2.46,2.45v1.42a2.46,2.46,0,0,0,2.46,2.45h5.15v5.16a2.46,2.46,0,0,0,2.46,2.46H706a2.46,2.46,0,0,0,2.45-2.46v-5.16h5.16a2.45,2.45,0,0,0,2.45-2.45v-1.42A2.45,2.45,0,0,0,713.57,228.36Z" transform="translate(-217.5 -198)"/><path class="cls-6" d="M627.9,304.66h-5.16V299.5a2.45,2.45,0,0,0-2.46-2.45h-1.41a2.45,2.45,0,0,0-2.46,2.45v5.16h-5.16a2.45,2.45,0,0,0-2.45,2.45v1.42a2.46,2.46,0,0,0,2.45,2.46h5.16v5.15a2.46,2.46,0,0,0,2.46,2.46h1.41a2.46,2.46,0,0,0,2.46-2.46V311h5.16a2.46,2.46,0,0,0,2.45-2.46v-1.42A2.45,2.45,0,0,0,627.9,304.66Z" transform="translate(-217.5 -198)"/><path class="cls-6" d="M823.41,252.62h-5.16v-5.16A2.46,2.46,0,0,0,815.8,245h-1.42a2.45,2.45,0,0,0-2.45,2.46v5.16h-5.16a2.46,2.46,0,0,0-2.46,2.45v1.42a2.46,2.46,0,0,0,2.46,2.45h5.16v5.16a2.45,2.45,0,0,0,2.45,2.46h1.42a2.46,2.46,0,0,0,2.45-2.46v-5.16h5.16a2.46,2.46,0,0,0,2.46-2.45v-1.42A2.46,2.46,0,0,0,823.41,252.62Z" transform="translate(-217.5 -198)"/><path class="cls-6" d="M885,224.68h-5.16v-5.16a2.46,2.46,0,0,0-2.46-2.45H876a2.46,2.46,0,0,0-2.46,2.45v5.16h-5.15a2.46,2.46,0,0,0-2.46,2.45v1.42a2.46,2.46,0,0,0,2.46,2.46h5.15v5.15a2.46,2.46,0,0,0,2.46,2.46h1.41a2.46,2.46,0,0,0,2.46-2.46V231H885a2.46,2.46,0,0,0,2.45-2.46v-1.42A2.45,2.45,0,0,0,885,224.68Z" transform="translate(-217.5 -198)"/><circle class="cls-6" cx="628.16" cy="47.37" r="3.07"/><path class="cls-6" d="M641.8,245.89a3.07,3.07,0,1,1-3.07-3.07A3.07,3.07,0,0,1,641.8,245.89Z" transform="translate(-217.5 -198)"/><circle class="cls-6" cx="766.94" cy="114.99" r="3.07"/><path class="cls-6" d="M887.44,299.21a3.07,3.07,0,1,1-3.07-3.07A3.06,3.06,0,0,1,887.44,299.21Z" transform="translate(-217.5 -198)"/><circle class="cls-6" cx="690.76" cy="50.44" r="3.07"/><path class="cls-6" d="M705.37,278.25a3.07,3.07,0,1,1-3.07-3.07A3.06,3.06,0,0,1,705.37,278.25Z" transform="translate(-217.5 -198)"/><circle class="cls-6" cx="715.44" cy="82.74" r="8.21"/><circle class="cls-6" cx="552.44" cy="8.21" r="8.21"/><path class="cls-6" d="M871.15,381.07s10.58-14.1,14-29.42A20.57,20.57,0,0,0,894,331a39.73,39.73,0,0,1,3.89-24.39s-33.8,12.81-16.3,45.06c0,0,2.59,7-12.51,28.11Z" transform="translate(-217.5 -198)"/><path class="cls-11" d="M871.39,301a84.69,84.69,0,1,1-32.47-33.78A84.63,84.63,0,0,1,871.39,301Z" transform="translate(-217.5 -198)"/><path class="cls-12" d="M813.8,414.53a17.22,17.22,0,0,0-2.5.62c-.66,0-1.19-.39-1,.15s.38.67,0,.75-.79.09-.24.35,1-.06,1.44-.39,1.21-1.34.66-.49-1.27,1.23-.18.76.49-.56,1.5-.73,1.29,0,1.36-.22-.41-.33-.53-.62S815.55,414.32,813.8,414.53Z" transform="translate(-217.5 -198)"/><path class="cls-12" d="M770.6,317.16c.37.06,1.3-.25,4.4-.64s1.7-.37,1.31-.75-1-.21-1.69-.66-.23-.53-.76-.46a8.61,8.61,0,0,1-2.09-.52c-.86-.19-.61.11-1.59-.6s-.19-.31-2-.28-1.37-.37-1.37-.37l-2.32-.16-2.14.59s-2,.57-2.3,1.05a1.55,1.55,0,0,1-1,.91c-.38.16,0,.32.44.33s.54,0,1.15-.79.45-.27,1.53-.68.41-.41,1-.58,1.19.16.73.38-.48.25.47.37.48.17,1.21,0,.59.15,1.27.21.69.31,1.74.08.53-.07.79.46S770.23,317.1,770.6,317.16Z" transform="translate(-217.5 -198)"/><path class="cls-12" d="M790.24,317.5c-.81,0-.4,0-1,.09-1,.1-.73,1.06,0,.93s.34-.07,1.17.32.28-.2.64-.37,1.2-.51,1.16-.53-.53-.12-1.08-.31S791,317.53,790.24,317.5Z" transform="translate(-217.5 -198)"/><path class="cls-12" d="M770.63,310.68c.39,0,.66-.27.5-.86s-.85-1.63-1.25-1.5c-.87.3-1.83-.2-.54,1.08S770.25,310.71,770.63,310.68Z" transform="translate(-217.5 -198)"/><path class="cls-12" d="M772.65,264.77c-.09-.48-.46,0-.46,0l-.24,0C772.43,265,772.72,265.1,772.65,264.77Z" transform="translate(-217.5 -198)"/><path class="cls-12" d="M771.21,264.57c-.71-.16-.69.45-1.06.5l.47-.06,1.33-.22A5.47,5.47,0,0,0,771.21,264.57Z" transform="translate(-217.5 -198)"/><path class="cls-12" d="M768.92,265.43s-.53.24-.11.26.24.08,1-.26c.16-.07.27-.18.37-.19l-.13,0C769.05,265.4,768.92,265.43,768.92,265.43Z" transform="translate(-217.5 -198)"/><path class="cls-12" d="M770.91,265.22a1.8,1.8,0,0,1-1,.53s.23.72.38.69l1-.14a3.5,3.5,0,0,0,0-.74C771.3,265.35,770.91,265.22,770.91,265.22Z" transform="translate(-217.5 -198)"/><path class="cls-12" d="M773,265.83c.15-.23-.09-.61-.09-.61l-.48.23-.14.48S772.81,266.06,773,265.83Z" transform="translate(-217.5 -198)"/><path class="cls-12" d="M797.61,275.8c.44.25.43.43.9,0a2.16,2.16,0,0,0,.53-.75.45.45,0,0,0,.59-.18c.13-.21-.06-.2.22-.36s.46-.32.47-.39.34-.19-.06-.44-1,.09-.7-.44,1.5-.43.21-.71-1.23-.29-1.79-.19.21.42-.9.21-1.47-.12-1.13-.59.9-1.15.77-1.35-.31-.3-.74-.16a3.16,3.16,0,0,0-.89.53,6.89,6.89,0,0,1-.19,1l-.51,1.08-.27.81s.16,0-.14.23-1.17.24-.56.29,1.13-.12.53.31-1.45.73-.6.67S796,275,796,275l.62-.15.73.38a6.38,6.38,0,0,1,1-.36l.12,0a.48.48,0,0,1-.14.41C798,275.72,797.17,275.56,797.61,275.8Z" transform="translate(-217.5 -198)"/><path class="cls-12" d="M792.42,277.55a2.53,2.53,0,0,0,.4.38c.15.1,0,0,.52-.19s.4-.27.44-.41-.5,0-.79-.15-.12-.12-.38-1-.31-.13-.31-.13l-.73,1a3.38,3.38,0,0,0-.07.79c0,.37.44.36.68.29s0,0,0-.21A.46.46,0,0,1,792.42,277.55Z" transform="translate(-217.5 -198)"/><path class="cls-12" d="M800.22,275.49c0,.15.41-.48.52-.07s.21.47.21.47l.7-.31L802,275l.06-.45s-.06-.57-.37-.43-.25.21-.49.39-.16.37-.24.19a4.63,4.63,0,0,1-.18-.82c-.46.3-.48.59-.48.59a.4.4,0,0,0-.24.49A2.05,2.05,0,0,1,800.22,275.49Z" transform="translate(-217.5 -198)"/><path class="cls-12" d="M785.29,257.8a10.32,10.32,0,0,0,2.77-.34l1.88.37c1.89.38.33.13,1.23.29s.41-.06,1.09-.16.37.21-.06.27-.42.16-1,.38.1.19.94.3.95-.39.95-.39a.44.44,0,0,1,.07.45c-.13.23-.14.13-.41.55s0,0,.57.44a19.1,19.1,0,0,0,1.85,1,32,32,0,0,0,3.39,1.14l2.08-.12a6,6,0,0,1,1.85.13c.93.22.54.38.77.35a11.75,11.75,0,0,0,1.75-.07c.06-.11-.62-.86-1-1.35s-.12-.63-.12-.63l-.18-.39s-.49-.75-.22-1,.45-.09,1.9-.27.52-.13.07-.6-.1-.3.15-.33.53.08.69-.1.33-.2,1-.29,1.18-.11.48-.63-2.71-.18-9.32-.63a38.25,38.25,0,0,0-10.54.48c-.36.05-1.79.37-2.13.44s-1,.28-2.25.48a10,10,0,0,1-1.62.22,4.89,4.89,0,0,0-1.33.33,3.24,3.24,0,0,0-.51.19,14,14,0,0,1,1.81-.05C784.91,258.37,783.06,257.91,785.29,257.8Z" transform="translate(-217.5 -198)"/><path class="cls-12" d="M815.48,259.15c1.21-.07,1.52.37,2,0a19.9,19.9,0,0,0-3.43-1.05,12.06,12.06,0,0,0-1.74.24l.52.93S814.27,259.23,815.48,259.15Z" transform="translate(-217.5 -198)"/><path class="cls-12" d="M835,267.88s1.06-.19,1.11-.35a1.14,1.14,0,0,0-.16-1.17,30.16,30.16,0,0,0-3.6-1.61.47.47,0,0,0-.44.48l1,1.79Z" transform="translate(-217.5 -198)"/><path class="cls-12" d="M847.63,277.84a4.53,4.53,0,0,0,1,2.16,8.43,8.43,0,0,0,1,1c.41.3,2.65,1.91,3.33,1.78s1,1.09.95-.14.33-.93-.23-1.59-.9-1.14-1.35-1.62-1.05-.55-1.18-1.45a8.29,8.29,0,0,1-.14-1.53c0-.61-8.54-6.43-8.54-6.43-1.44.21-3.11-.91-1.44.21a15.53,15.53,0,0,1,1.89,1.35l1.55,1.05s2.74,1.58,2.72,2.24-3-.26-2.66.38S847.5,276.67,847.63,277.84Z" transform="translate(-217.5 -198)"/><path class="cls-12" d="M851.59,310.19c-.23-.14-.53.08-.53.08-.13.36-.13.48.19.57s.42-.06.42-.06S851.82,310.33,851.59,310.19Z" transform="translate(-217.5 -198)"/><path class="cls-12" d="M852.39,310.65c-.31.26-.36.36-.19.46a4.71,4.71,0,0,0,.48.2l.23-.38Z" transform="translate(-217.5 -198)"/><path class="cls-12" d="M853.09,310.27l.37.16.29-.14-.37-.43C853,310.12,853.09,310.27,853.09,310.27Z" transform="translate(-217.5 -198)"/><path class="cls-12" d="M853.56,311.26l.48.26.3-.2-.52-.52A.5.5,0,0,0,853.56,311.26Z" transform="translate(-217.5 -198)"/><path class="cls-12" d="M853.81,312.34c.25.14.26.49.44.25l.18-.24-.67-.37C853.67,312.13,853.56,312.21,853.81,312.34Z" transform="translate(-217.5 -198)"/><path class="cls-12" d="M853,312.71a.61.61,0,0,0,.35.37.38.38,0,0,0,.32,0s-.24-.45-.27-.52S853,312.71,853,312.71Z" transform="translate(-217.5 -198)"/><polygon class="cls-12" points="634.42 114.84 634.91 115.16 635.07 114.75 634.65 114.42 634.42 114.84"/><path class="cls-12" d="M834.22,412.87l-1.34.07a.44.44,0,0,0-.19.64l.7.36s1,.35,1.25.13,1,.12.37-.51S834.83,412.84,834.22,412.87Z" transform="translate(-217.5 -198)"/><path class="cls-12" d="M793.91,417c0-.1-.26-.11-.26-.11s-.14.21,0,.11.11,0,.17.06S793.92,417,793.91,417Z" transform="translate(-217.5 -198)"/><polygon class="cls-12" points="576.75 219.32 576.75 219.31 576.75 219.32 576.75 219.32"/><path class="cls-12" d="M793.86,417.12c-.13,0-.6,0-.67.08a2.63,2.63,0,0,1-.69.29l0,.29.76.05.56-.05a2,2,0,0,1,.42-.26l-.17,0A1.62,1.62,0,0,0,793.86,417.12Z" transform="translate(-217.5 -198)"/><path class="cls-12" d="M781.62,320.06c.41-.24.57-.91,1-1.38s.53.23,1.44-.28.13-.38,1.42,0,1.08.31,1.38-.51-1.51-.84-2.56-1.31a4.09,4.09,0,0,0-2.77-.55c-1.85,0-.7.48-1.61.1s-1-.17-2,.28c-.64.3,0,.6.79.48s.59.2.66.68-.27.45-.73.67a7,7,0,0,1-2.28.84c-1.43.31.08.61.08.61a6.91,6.91,0,0,0,2.26-.12c1.36-.27.85-.53,2.14-.36h.07C782.09,319.45,781.22,320.29,781.62,320.06Z" transform="translate(-217.5 -198)"/><path class="cls-12" d="M876.83,313.7a83.35,83.35,0,0,0-9.54-19.76,84.3,84.3,0,0,0-7.76-10.05l-1.36-1.08c-1.4-.34-1.78-.56-2.09-.24s-.73.83-.7,1.06,1.16,0,0,.23-1.29.49-1.56.22-1-1.52-.83-.92,1.09,1.69,1,2.28a8.27,8.27,0,0,0,.06,1.77,15.29,15.29,0,0,0,1.1,2.82,1.14,1.14,0,0,1,.92,1.33c-.1,1.17-.08,1.33-.16,1.84s-.46.26-.5.84a12.35,12.35,0,0,1,2.9,0s.54.35,1.38,1v0a1.88,1.88,0,0,0-.13,1c.13.55-.06,1-.57.85s-2-1.26-1.4-.21,1.55,1.48,1,2.17-1.17-.61-.52.69,2,2.75,1.19,2.92c-.62.12-2.12-.06-3.23.14a6.42,6.42,0,0,0,1.14,1.69c.46.51-.27.82.66,1.72a3.69,3.69,0,0,1,1,2.54,3.31,3.31,0,0,0,.34,1.25l.21.39c.43.71-.06,1.27-.08,1.69s0,.18.7,1.13,1.16.48.91,1.49a1.7,1.7,0,0,0,.85,2c.64.5.74-.06.89.82a1.3,1.3,0,0,0,.63.88c.28.17.55.24.6.29s1.41,1,1.48,1.87.81,2.15,2.53,3.85l.15.14c1.83,1.78,2.35,4,3.22,2.82a7,7,0,0,1,2.09-1.77c.19-.18.11-.55.66-.68s.82-.17.67-.69a1.7,1.7,0,0,1,.35-1.36s-.9-5.1-.78-5.53a5.12,5.12,0,0,0-.76-2.57.36.36,0,0,0-.24-.15.39.39,0,0,1,.28.15,5.09,5.09,0,0,1,.74,2.57,54.9,54.9,0,0,0,.77,5.52c.18-.2.7-.69,1,.76s.14,1.55.54,1.47.93-.49,1.21.7c.11.5-.15-4.3-.49-10.08C877.21,314.86,877,314.28,876.83,313.7Zm-12.91-2.18h0a.86.86,0,0,1,.07.1Zm-1.61-14.58h0l-.06,0Zm2.57,18.54.31.13Zm6.88-6.07c.07.3.11.5.13.63,0-.14-.06-.33-.12-.61a23.05,23.05,0,0,0-2.15-4.61A23.14,23.14,0,0,1,871.76,309.41ZM868,321Zm2.29-3h0a.63.63,0,0,0,0-.16A.43.43,0,0,1,870.29,318Zm1.21.31h0l.08,0ZM871,317c.07.23.44.52.5,1C871.44,317.53,871.07,317.24,871,317Zm-1.32-3.16a8,8,0,0,0,.06,2.06,8,8,0,0,1-.09-2.24c.14-1.72-.28-2.14.84-3a1.41,1.41,0,0,1,.82-.32,1,1,0,0,0,.09.73c-.21,0-.54-.28-.85,0C869.44,311.89,869.83,312.13,869.69,313.85Zm3.47.58a1.2,1.2,0,0,0-.1.82c.08.57.08.78-.7,1.06.62-.26.12-.4,0-1,0-.26-.63-.41-.65-.56h0c.42-1.41-.94-2.53-.56-3.62.32.69,1.2,1.51,1.6,2.32A2.19,2.19,0,0,1,873.16,314.43Z" transform="translate(-217.5 -198)"/><path class="cls-12" d="M846.68,348c-1,.19-1.1.24-3-1s-2.9-1.19-3.56-1.07-1.92.45-2.06.22-.42-.23-.63.11-.5.1-1.59-.29-1,.06-1.46.6-1,1.25-1,1.18,0-.34,0-.52a2.37,2.37,0,0,1,.19-1c.18-.57-.14-.8-.38-1.05s-.81-.22-1.3-.08-.08-.4-.38-.64-1.46-.12-2.64-.44-1.41-.09-1.91.34-.39,1.27-.79,1.56-.89.79-.89.66-.44-.24,0-.49.39-.34.85-.87.17-.61.31-1.3-.06-.25-.81-.25a6.26,6.26,0,0,1-2.34-.82c-.77-.36-.56.75-.56.75a2.42,2.42,0,0,0-1.07.82,3.62,3.62,0,0,0-.56,1.52c-.08.52-.64.45-.54,0s.41-.73,1-2,.31-.22.74-.58.32-.2.35-.55.82-1.46.76-1.86-.38,0-.67,0-.81-.61-1.36-1.56-.64-2.07-1.55-2.1c-.44,0-1.24,0-1.26-.11s.48-.37.11-.57c-.73-.39-.33-.07-.84-.65s-.53-.47-1-.51a7.29,7.29,0,0,1-1.29-.29v0l-.69-.21c-1-.32-1.1.15-1.1.15s-1.17-.06-1.59.5-.55,0-1.73.13c-.66.09-.84.07-.93,0a2.47,2.47,0,0,0-.25-.41,3.34,3.34,0,0,0-2.35-.46c-.76.1-.13-.22-.12-.71s-.11-.24-.59-.69a3.36,3.36,0,0,0-1.45-.6c-.14-.05-.28-.09-.44-.16-.79-.32-.75-.07-1-.23s-.24-.34-.51-.87l-.1-.18a1.34,1.34,0,0,0-1.19-.55c-.21,0-.39,0-.5,0a11.21,11.21,0,0,1-1.77-.31c-.23-.12-.29-.59-.59-1s-.32,0-1.77.17-1.11.1-1.08.49,0,.36-.65.84-.62.4-1.41.32a5,5,0,0,1-1.94-1c-.42-.25-.52.05-1,.45a2.11,2.11,0,0,1-1.62.43c-.78,0-.49-.26-.55-1s-.75-.63-2.55-.59-1.31.73-2.31,1-.7.08-.63.61.82,1.5.92,2.1,0,.59-.5.81-.57.52-.6.2-.33-.42-.64-.85.1-.4.14-.76.26-.25.44-.64-.15-.65-.26-1-.28-.32-.68-.83,0-.31.54-.57.39-.35.54-1-.53-.44-1.38-.05-.3,1.08-.72.93-.7-.27-.71.45a.68.68,0,0,1-.89.68c-.25-.06-.85-.22-.94,0s-.08.67-.6.57-.36.05-1,.49-.53,1.45-.4,2.4-.62-.07-1,.83-1.12.27-1,1.37-.2.47-.28.31a1.68,1.68,0,0,0-.21-.27,6.67,6.67,0,0,0-.54-.47c-.48-.38-.6-.15-1.34-.89s-2.28.21-3.29.47a10.58,10.58,0,0,0-2.21,1.09c-.77.35-1-.13-1.28-.58s-.27-.08-.24.27-.18,0-.36,0-.3-.14-.25-.53-.09-.27-.37-.29l-.23,0c-.43-.1-.54-.33-.73-.61a3.71,3.71,0,0,1-.49-.86,3.41,3.41,0,0,0-.39-.68s-.24-.35-.47-.74-.19-.38.14-.66,0-.13-.18-.67.09-.36.5-.75-.12-.74-.21-1.21,0-.31.16-.82a10.46,10.46,0,0,1,.46-1.09.44.44,0,0,0-.46-.63c-.15,0-.61.22-1,.29s.32-.2.53-.48.46-.18.66-.43.1-.28-.18-.28-.5-.16-1-.43-1,0-1.33-.29-.86.39-1.26.17-.46.1-1,.38a3,3,0,0,1-1.93,0c-.67-.14-.65.32-.91.15s-.12-.11-.58.06-.44-.15-.72-.11c-.09,0-.08,0,0-.11s.55-.52.93-.92c.56-.59.3-1.12.29-1.76s.22-.62.58-.83c.18-.11.11-.13.09-.32a2.36,2.36,0,0,1,.37-1.16c.7-1.39.38-.78.34-1.23a1.73,1.73,0,0,1,.13-1.08c.18-.33.85-1.12,1.11-1.62s.24-.83-.48-.65-.83.52-1.21.19-1.66.16-2.57.42-.94.65-1,1.61a7.31,7.31,0,0,1-.66,2.42c-.27.5-.6.7-1.91,1s-.25.24-.94.44a3.25,3.25,0,0,0-1.46.8c-.89.64-1-.11-1.35-.58s-.87.25-1.37-.16-.26-.93-.32-1.46-.65-.49-.84-1.39a19.86,19.86,0,0,1-.63-2.46c-.19-1.32-.12-.83.36-2.36s.05-1.28.43-1.88a1.63,1.63,0,0,0,.23-.66,5.15,5.15,0,0,0,0-1.18c0-.59,0-.38.18-.8a1.09,1.09,0,0,0,.19-1c-.07-.48.1-.56.49-1s.53-.4.67-.77.11-.13.72-.22.3-.1.53-.38.15,0,.56-.16.28-.15.32-.45-.15-.38.08-.8.19.26,1.26-.28.41-.35,1.2-.11.59.05,1.2-.25.31.25.64.26a3,3,0,0,1,.89.12.59.59,0,0,0,.82-.35c.17-.31.29,0,.61.17s.15-.27-.22-.68,0-.39,0-.85-.17,0-.59.08-.38-.08-.15-.4.58,0,1.56-.07.84-.31,1-.52.1,0,.17.42.23-.05,1-.32.34-.4,1.6-.12,0,.75,1.19.86.9-.55,1.59-.65.68.09,1.08.57.9.1,1.12.77-.25.8-.21,1.42.28,1.45.61,1.4.13.35.34.57,1.1,1.42,1.34,1.43.68.27,1.24-.53a2.35,2.35,0,0,0-.09-2.64c-.51-.49-.2-.69-.15-1.22s-.19-.46-.57-1.1a7.6,7.6,0,0,1-.66-1.55c-.17-.52-.42-.46-.14-1a7.72,7.72,0,0,1,.85-1.83,16,16,0,0,1,1.48-1.25,17.07,17.07,0,0,0,1.6-1.58c.54-.54,1.34-.5,1.45-.82s.28-.29,1.08-.71a7.17,7.17,0,0,0,1.18-.72c.63-.43,1-1.06.28-1.39s0-.24,1-.54-.18-.3-.54-.52-.34-.53-.31-.94a2,2,0,0,0,0-1.09c-.15-.57.05-.79.46-1.31s0,.17,0,.73.08.37.49.57.38.19.42-.2a6.35,6.35,0,0,1,.08-1.07c.1-.38.11-.06.6.16s.21-.14.62-.66.3-.39.39-.95c0,0-.57-.24.17-.45s.08-.28.41-.63.21-.09,1.25-.2,1-.11,1.24-.6.15,0,.74.16.75-.66.6-.78-.58-.13-.59-.65-.07-.6.89-1.45.66-.27,1.14-.69.34-.35.82-.37.56-.17.9-.24.34-.28,1-.4.36-.23.29-.62,0-.18.83-.33a8.1,8.1,0,0,0,2-.78c.7-.32,0,.24.06.3a10.18,10.18,0,0,0,1-.05c.75,0,0,.18,0,.33s-.32.18-.65.15-.34-.11-.61.05-1.09.52-1.09.52a5.84,5.84,0,0,1-.22.61c-.17.43-.18.4-.19.66s.39.49.59.47a4.81,4.81,0,0,0,1-.44,4.18,4.18,0,0,0,.78-.71c.23-.2,0-.19.11-.46s.39.12.39.12a1,1,0,0,0,.47-.26c.26-.23.15-.1.58-.18s.53-.07.75-.34.14-.14.94-.38.33-.34.08-.62-.19,0-.53-.18,0-.14-.26.07-.3,0-1.08.11-1.18,0-1.25-.26,0-.25-.74-.3-.35-.18-.43-.71,0-.11-.47-.05-.11-.06.08-.51.24-.36.32-.59-.42,0-.74.24a.46.46,0,0,1-.75,0c-.21-.25-.26-.17-.71-.16s-.12-.06,0-.11a1.21,1.21,0,0,1,.51-.14,1.08,1.08,0,0,1,.56.05l.71-.19a6.34,6.34,0,0,0,.94-.34c.58-.25.54-.33.1-.48a2.27,2.27,0,0,0-1.47-.24,12.65,12.65,0,0,0-2.48.72l-1.34.6a4.57,4.57,0,0,0-1.21.92c-.42.41-.63.05-.37-.32s.7-.62,1.24-1.22.65-.14,1.32-.17.52-.19.92-.94.42-.3,1-.53a6.51,6.51,0,0,1,1.74-.25s1.39-.08,3.45-.25,1-.37,2.12-1.19.56-.77,1.78-1,.83-.23.83-.23A1.55,1.55,0,0,0,796,270c.44-.52-.29-.12-.26-.58s-.18-.44-.68-.66-.6.1-.71-.21.08-.16-1,0a3.28,3.28,0,0,0-1.64.67,1.13,1.13,0,0,1-.77.21c-.29,0,.26-.35.26-.35a3.43,3.43,0,0,0,1.07-.28,6.35,6.35,0,0,1,.82-.45c.55-.27.59-.25.24-.4s.14-.33-.63-.06-.87.12-1.06-.2-.11,0-.71.16-.64.09-.78-.35-.82,0-1.31.07-.33-.26-.13-.76-.09-.12-.17-.51-.16-.21-1.13-.46a5.1,5.1,0,0,1-2.07-1.06c-.75-.55-.3.06-.36.19s-.43.79-.58,1-.44.06-1.21.61-.71.24-.71.24a5.7,5.7,0,0,0-1.09-.6c-.57-.23,0,0-.53-.33s0-.3-.06-1.09,0,0-.76.24-.47.09-.61-.26-.57-.17-1.25-.48-.4,0-1.17.07a17.09,17.09,0,0,0-2.28.37c-1.17.2-.21.37-.44.71s-.84.32-.41.91-.31.78-1.29,1-.24.19,1.25.83.22.78,0,1.43-1.11.89-2.23,1.17-1.47.32-.81.54.13,1.52.13,1.52l0,2.12s-.39,1.4-.88,1.47l-.21,0h0l-.11,0c-.34,0-.85-1.34-.85-1.34a8.75,8.75,0,0,1-.86-1.46,2,2,0,0,1-.17-1.17,5.91,5.91,0,0,1,.47-1.32c.29-.66-.54,0-1,.16a10.18,10.18,0,0,1-1.44.25c-.61.08-.52-.1-1.58-.49s-.86,0-1.78-.53-1.87.25-2.61.55,0-.32-.07-.92-.13-.59-.45-.77.23-.55,1.61-1.6,1.24-1.09,2.44-1.31.78-.6,1.72-1.07,2.24.11,2.52-.37.59-.49,1.22-1,.59-.49.76-.71,1-.06,1.48-.28,1.21-.53,2.06-1,.08-.5-.11-1.09,2.1.05,2.63-.05.41-.91.49-.92l.19,0c-.13,0-.06.28,0,.78.08.71,0,0,.43-.08s.44,0,1,.18,0,.13-.1.3a4.08,4.08,0,0,1-1,.47s-.83.35-.36.34a4.87,4.87,0,0,0,1.19-.17c.52-.12.32-.28.67-.72s.21,0,.77-.21.55.08.57.2-.27.3-.75.55a2,2,0,0,0-.7.48,5.69,5.69,0,0,1-1.32.53,16,16,0,0,0-1.94.66c-.21.15.51.39,1.29.23s1-.3,1.88-.45.62.22,1.3.51.49.31.78.18a3.4,3.4,0,0,1,.75-.17l2.33-.1a4.83,4.83,0,0,0,1.4-.36c.37-.25-1.25.11-1.25.11a6.13,6.13,0,0,1-1.48-.43c-.43-.25,1.53-.09,1.53-.09l1.43,0a2.1,2.1,0,0,0,.62-.55c.14-.27-.11-.35-.74-.48s-1.06.19-1.5,0-.27-.43-.23-.51a15.93,15.93,0,0,1,2.1.42,1.27,1.27,0,0,0,1-.32c.46-.4.81-.7,1-.88s-2.08-.07-2.08-.07l-1.51.09-1.38-.27a3.86,3.86,0,0,0,.76-.47c.54-.38-.56-.1-.56-.1H781l-1.41.1-1.48-.48.92-.49a7.39,7.39,0,0,1,1-.59,5.54,5.54,0,0,0-2.34.77c-.31.12-.89.4-1.52.65,0-.15-.34,0-1,.1a10.26,10.26,0,0,0-1.79.26c-.75.18-.49,1-.61.61s-.31-.17-1.13.06-.94.87-.44.85.76-.07.67.39-.84.46-1.25.62-.54.21-.53.39a.36.36,0,0,1-.45.31c-.24,0,0,0-.12-.27s.2-.24.53-.48,0-.38-.6-.3-1.12.72-1.95.84.24-.58.7-1.19-.77-.12-1.31.19a2.39,2.39,0,0,0-1.21,1.43c-.06.53-.7.54-1.32.63A7,7,0,0,0,762,265c-1.22.58-1.39.28-1.74.15s.13-.33.58-.39a2,2,0,0,0,1.18-.4,8.38,8.38,0,0,1,.89-.57c.25-.19-.46-.09-1.4,0a8.75,8.75,0,0,0-2.9,1.24c-.74.37.09.35,0,.87s-.53.5-1.29.46-.42.06-1.24.44-.58.17-.74-.17a82.2,82.2,0,0,0-7.11,4.44c-2.48,1.77-5.12,3.84-7.07,5.49-.79.68-1.56,1.38-2.32,2.09-2.11,2-3.65,3.94-4.26,4.59s-.15.74-.58,1.22.1.86-.31,1.22a1.72,1.72,0,0,0-.34.46,11.69,11.69,0,0,1-.83,1.54,13.32,13.32,0,0,1-1.73,2.66,9.11,9.11,0,0,0-2.31,4,7.1,7.1,0,0,1-1.69,3,1.52,1.52,0,0,0-.44,1.63,2.07,2.07,0,0,1-.3,1.69c-.32.3.12.34-.17,1.41s-.24,1.17.56,1.52.56.18.48,1.06a5.82,5.82,0,0,0,.18,1.41,2.3,2.3,0,0,1,0,.81c-.22,1,0,2.09-.2,2.81s.54.52.61,1.54-.29,1.25-.92,1.34,0,.74.71,1.34,1,.42.83,1.35a2.75,2.75,0,0,0,.77,2.49c.67.7.48,1.34.62.91s.4-.47.3-1.17-.16-.57-.52-.57-.06-.56-.14-1.19-.28-.5-.21-1.11a2.37,2.37,0,0,0-.62-1.94c-.61-.71-.17-.31-.21-1.46s.13-1.33-.2-2-.2-1.37.41-2.33.21-.36.32-.33a1.88,1.88,0,0,1,.64.87c.13.41-.08.55-.17,1s0,.95-.15,1.26.3.5.4,1,.19.46.53.69.22.26.26.77.45.39.24.91a1.87,1.87,0,0,0,.64,1.77,1.73,1.73,0,0,1,.64,1.4c.07.66.75.54,1,2s.71,1.37.91,1.7a1.53,1.53,0,0,1-.09,1.35,2.42,2.42,0,0,0-.25,1.71c.2.64,1.43,1.15,1.54,1.48a1.66,1.66,0,0,0,1.7.92c1.06,0,.37,0,.83.44a6.58,6.58,0,0,0,1.46,1c.41.19.93.14,2.08.47s.42.49.84.48a5.24,5.24,0,0,1,1.39.23c1,.21.63.07,1.14-.32s.68-1.17,1.74-1.19.05.22,1.06.22.11,0,.49.31,1.09,1,1.82,1.75l.54.56c.85.9,1.28.38,2.16.2l.46-.09c.29,0,.13.14.19.61.09.63.31.38,1.1.64s.93,0,1.65-.6.32.16.18.63,0,.43.8.91.92,1.51,2,1.43-.12-.54.07-1.11,1.3.84,1.68,1.19-.13.18-.73.26-.27,0-.7.39.08.61.16,1.12.26.91,1.16.7,1.06.37,1.06.37l.57.5a2.56,2.56,0,0,1,.41.83c.05.32,0,.33.73.78a.77.77,0,0,0,1.13-.14,16.68,16.68,0,0,0,2,.26c.38,0,.21,0,.88.32s.3.51.52,1.08.2-.05.71-.31.58-.57.58-.57l-.23-.52-.66-.66s.72-.24,1.07-.39.42-.73.81-1,1.83.07,2,.59a8,8,0,0,0,.33,1.27c.17.38.78.56.93.91s.68.88.55,1.15.52.53.21.94.37,1.51.07,2.15.35.92.43,1.54a2.2,2.2,0,0,1-.73,1.61c-.21.09-1.32.28-1.34.93s-.49.7-.49.7a.66.66,0,0,0,0,.46c.11.22.08.28-.21.72s-.35.21-1.48.45-.32.1.27.79-.13.31-.36.51-.18.63-.38,1.14-.39.13-.24.61a2,2,0,0,1,0,1.64c-.31.7,0,.51.31.82s.38-.07,1.25.35.29.94-.22,1,0,0-.5.46-.19.28-.92,1.44-.09.48.67,1.28.32,1,0,1.2.73.38,2.17,1.12.49.18.83.81.2.32,1.06.89,1.84,2.73,2.4,3.17a2.51,2.51,0,0,1,1,1.5c.09.51,0,.58.54.51s1,.84,1.75,1.45.87.76,1,1.23-.05.7.16,1.1.9.64,2.21,1.36a11.65,11.65,0,0,0,4.53,1.68c2.72.56.57.34,1.69.68s.13.39.4.62.93,0,1.56.34a4.31,4.31,0,0,1,.48.25c.12.08.13.16.21.39.13.38.23.56.6,1.67a8,8,0,0,1,.42,1.69c.23,1.07,0,.58,0,1.8s.16,1.68-.23,2.09-.26.47.07.69.18.5.5,1.38.39,1.24.27,1.64.3.59,0,1.15-.14.62,0,1.16,0,.89-.35,1.75.19.81.35,1.77-.45.91-.19,1.57a15.26,15.26,0,0,1,.66,1.62c.21.69.08.7,0,1.35s-.19,1.84-.28,2.28a14.15,14.15,0,0,1-.27,1.49c-.22.8-.44.31-.37.8s0,.27-.31.55-.22.2,0,.67A11.22,11.22,0,0,0,793,406a3.24,3.24,0,0,1,.31.56s-.08.22-.21.55a2.21,2.21,0,0,1-.34.61c-.22.34,0,.6.12,1s0,.14.13.66a1.17,1.17,0,0,1,0,.78,1.82,1.82,0,0,1-.38.77c-.24.36-.05.18,0,.36s.31,0,.71-.08.14-.1.21-.17a5.1,5.1,0,0,0,.2-.76,3.13,3.13,0,0,1,.29-1.1c.26-.58.66-.1.66-.1l.06.8s-.11.35-.23.83-.09.34,0,.84.05.78.13,1.4-.11.66-.25.67-.28-.13-.48-.38-.17-.38-.37-.67,0,.16-.21.43-.27.28-.31.62-.25.41-.7.5-.82.12-1.75.25.37.05,1,.11a2.1,2.1,0,0,0,1.47-.27c.38-.26.23,0,.36,0a4.31,4.31,0,0,0,.75-.06c.36,0,.15.28-.08.37s-.25.18-.31.38.29.28.29.28-.05.33-.2.33-.27,0-.46-.05a1,1,0,0,0-.57.3c-.09.09.29.37.29.37a2.33,2.33,0,0,1,.42-.23c.24-.1.27.64.45.69s.22.71.22.75l0,0a.6.6,0,0,1,.17-.23,2,2,0,0,1,.46.06l0,.21-.39.27c-.23.14,0,.14,0,.21s.47-.05.47-.05a1.79,1.79,0,0,1,.66.12,7.65,7.65,0,0,0,.74.35s0,.46-.19.44-.25-.12-.36-.13,0,.2-.07.37a.23.23,0,0,0,0,.3l.93.18.92.3.7-.17.47-.3.29.19a2.66,2.66,0,0,0,0,.42c0,.1,1,.27,1,.27a7,7,0,0,1,.83,0c.24,0,.73-.25,1.17-.21h0a4.22,4.22,0,0,0,1.17-.17l1.39-.32a1.53,1.53,0,0,0,.38-.21c.14-.13-.5-.11-.75-.2a10,10,0,0,0-1-.3c-.21,0-.4.26-.58.08s-.47-.36-.57-.5a4.53,4.53,0,0,0-.83-.86c-.35-.23-.56-.53-.28-.88s.19-.24,1-.37.49-.22.48-.67,0-.44.68-.85.78-.34,1.33-1.5-.13-.37-.23-.27-.62.37-1.61,0-.34-.53-.1-1,.92-.62,1.67-.76.12-.29.46-.61.19-.12.24-.59-.09-.55.59-.92-.45-.44-.38-.75-.35,0-.3-.73-.47,0-.28-.89.92.18,2.75,0,1.25-.68,1.25-.68-.89-.61-.42-1.06-.08-.57-.14-1.26.39,0,1.25,0,1.85,0,4.49-1.37,2.39-2.54,1.92-2.55-.72.1-.4-.33,0-.61-.27-.85-1.49-.64-1.55-.79-.06-.41.25-.42,2.07.4,2.07.4,1.52,0,2.47-.08,1-.26,1.71-1.05c.26-.31.53-.69.84-1.1a16.38,16.38,0,0,1,1.66-2c.53-.54.65-.65.78-.71a2.53,2.53,0,0,0,0-.46c0-.23.25-.55.25-.55l.46-1a.77.77,0,0,1,.42-.06c.16.05.4.25.25.45a8.15,8.15,0,0,0-.79,1,.87.87,0,0,0-.14.44c.13-.07.29-.16.51-.3,1.33-.85.91-1.37,1.55-2.31a4,4,0,0,1,1.89-1.76c1-.56.44-.91.5-1.95a4.72,4.72,0,0,1,.36-2.14c.41-1.08.59-.64,1.42-1.44s1-1.32,2-2,.78-1,1.59-1.12.45-.1,1-.83,1.35-.58,2.88-.68.39-.56,1-.95a1.37,1.37,0,0,0,.79-1.27,2.2,2.2,0,0,1,.94-1.57,1.9,1.9,0,0,0,.8-1.19c.19-.57.55-.77.79-1.5s.27-1.66.5-1.39,0-.58.58-1.62a7.38,7.38,0,0,0,.51-3c.12-1.06.08-2.44.21-3.39s.51-.77.74-.22.29-.73,1-2,1.08-1.93,1.33-2.39.59-.74,1.07-1.7.6-1.82,1.26-3.15-.11-2.92-.32-3.89S847.74,347.83,846.68,348Zm-67.07-73c0-.25.09-.24.56-.36,0,0,.54.18.48.47s0,0-.69.2S779.61,275.23,779.61,275Zm-3.35-1a.55.55,0,1,1,.69.52c-.14.66-.33.92-.51.79s-.88-.73-.88-.73Zm-1.08,2.44c.34-.2.39,0,.46.48l-.44.21s-.49,0-.5-.26S774.85,276.6,775.18,276.4Zm-2.2-5a3.64,3.64,0,0,1,1-.41,2.12,2.12,0,0,1-.51,1.13c-.43.42-.3.27-.4.06s-.17-.29-.69-.47S772.43,271.75,773,271.44Zm7.14-8.66s-.47.17-.54.08,0-.35,0-.35l.37-.15a.49.49,0,0,1,.29.07Zm-.12-1.37a1.64,1.64,0,0,1,.4-.06c.13,0,.76.25.64.29a3.78,3.78,0,0,1-.58.09s-.27,0-.2.28-.37.08-.38.06S779.87,261.45,780,261.41ZM769.53,283h1.34l.85-.61.54-.39.48.13.21.06a7.21,7.21,0,0,1-.39,1c-.22.44-1.35.35-1.35.35s-.7.12-1.49.21-.44.56-.44.56l-1.1.61a6.47,6.47,0,0,0-2.32,1.46c-1,1-1.37.19-1.37.19s-.56-.66-.16-1.15.45-.48.6-.48.05.51.33.32c0,0,.54-.18,1.17-.32a4,4,0,0,0,.93-.33,6.44,6.44,0,0,0,.87-.44c.55-.29.3-.41.3-.41l.09-.52Zm-9.78-5.82c.23-.72,0,0,.48-.22a3.23,3.23,0,0,1,.56,1c.08.43-.24.16-1.19.4S759.51,277.88,759.75,277.15Zm-3.48.24c0-.7,0,0,.56-.08l1.08.34-.4.46S756.26,278.09,756.27,277.39Zm-.47,3.77,2.43-1.24,2.4-1.12s1.26-.92,1.69-.24a7.92,7.92,0,0,0,.79,1,3.84,3.84,0,0,1,.52.94s-.86.84,1,.58,1.85-1,2.76-.39.88.05,1,.76.43,1.07-.21.88-1.13-.33-1.35-.06a5.81,5.81,0,0,0-.54,1.1s-.24.91-.5,1-.74.26-.74.26-.07-1-.32-1.14-.6.49-1,.47.6-.65.69-1.28a.78.78,0,0,0-.9-.9c-.46.06-.26-.35-.78.16s-1.17,1.22-1.17,1.22-1.1.41-1.15,1.14.3.83,0,1.44-.57,1.21-.57,1.21-.55.52-.79.27a9.83,9.83,0,0,1-.14-2.58l.36-1.68,1.38-1s.84-.33,1.23-.43a2.7,2.7,0,0,1,.93-.19c.22.05.5-.12,0-.51s-1.57.22-1.57.22c-.27.12.06.25-.68.1s.06-.4-1-.17a9.47,9.47,0,0,0-1.89.63h-1a3.31,3.31,0,0,1-.79.11C755.6,281.76,755.8,281.16,755.8,281.16Zm-1.63-1.26c-.29.15,0,0-.59-.27s0-.2.58-.76a4,4,0,0,1,.45.64C754.69,279.7,754.46,279.76,754.17,279.9Zm-1.75-7.21c.12-1-.17-.34.5-1.08l.67.76a11.13,11.13,0,0,1-1,1.35C752,274.31,752.31,273.68,752.42,272.69Zm.14,3.32c-.06-.68.2-.41.79-.83l.18.41a3.48,3.48,0,0,1,0,1.48,10.22,10.22,0,0,1-.57,1.44c-.11,0,0-.23.07-1S752.61,276.7,752.56,276ZM750,272.8a2.32,2.32,0,0,1-1.11.16c-.38-.13-.48-.3,1-.74Zm1.57,4.78c.27.46,0,1.07.07,1.6s-.48.2-.48.2.08-.5.19-1-.45-.79-.45-.79a2.77,2.77,0,0,0,.2-1c0-.51-.07-.5.36-.92A4.7,4.7,0,0,0,751.57,277.58Zm-2.92-5.85c.8-.34.64-.55,1.5-1.22l.62.38a9.16,9.16,0,0,1-1.18,1.09c-.72.57-.93.37-1.65.39S747.85,272.08,748.65,271.73Zm3.87,51.34,0,0a.1.1,0,0,1,.05,0Zm39.34,43h0Zm-3.26-11.25h0l0,0Zm16.89-12.72c-.5-.78-.66-1.11-.23-1.63s.74-.61.32-1.17a4.84,4.84,0,0,0-1.16-1.36,4.84,4.84,0,0,1,1.16,1.36c.42.56.11.64-.32,1.17s-.27.85.23,1.63.6,1.26,1.2,1.56a2,2,0,0,0,1,.27,2,2,0,0,1-1-.27C806.09,343.37,806,342.88,805.49,342.11Zm7.45-.71a2.06,2.06,0,0,0,.26,0l-.3,0-.25,0Zm-2.07.52.1.17c.58,0,1.37.35,1.71.3-.33.05-1.13-.29-1.73-.31l-.08-.16Zm8.45,43.39,0,0,0,0Zm-3.69-44a4.22,4.22,0,0,0-1.07-.49h-.13c.07,0,.06,0,.13,0a3.89,3.89,0,0,1,1.07.49h0l.59-.08A4.56,4.56,0,0,1,815.63,341.31Zm1.41-.19.12,0a.9.9,0,0,1,.39,0C817.45,341.18,817.38,341.09,817,341.12Z" transform="translate(-217.5 -198)"/><path class="cls-12" d="M848.34,350.42a3.94,3.94,0,0,0-3.29-3.84c-1.28-.18-2.66.29-3.85-.23s-1.81-1.8-3-2.06c-1-.21-2,.33-3,0-.72-.27-1.14-1-1.73-1.49a3.1,3.1,0,0,0-4.39.66c-.28.43-.67,1-1.13.8-.26-.13-.34-.45-.47-.71a1.49,1.49,0,0,0-2.47,0c-1.78-1.58-1.69-4.35-2.7-6.5a6.64,6.64,0,0,0-9.69-2.7,4.21,4.21,0,0,1-1.9,1c-1.87.11-3.06-3-4.83-2.35-.41.14-.76.48-1.19.54-.76.11-1.32-.64-1.81-1.23a7.25,7.25,0,0,0-7.68-2.23,7.34,7.34,0,0,1-1.87.52,7.25,7.25,0,0,1-2.58-.7,2.47,2.47,0,0,0-2.54.27c-.21.21-.36.48-.62.6-.71.31-1.28-.7-2-1-1.1-.37-2,1.06-2,2.22s.26,2.49-.49,3.37a5.41,5.41,0,0,0-.64.72,2,2,0,0,0-.07,1.43,15.71,15.71,0,0,0,5.51,8.91,30.12,30.12,0,0,0,4.66,2.88q2.76,1.49,5.54,2.94c3.69,1.95,7.43,3.92,11.51,4.8a44.94,44.94,0,0,0,8.45.75l8.29.23c2.48.07,5,.14,7.44.13a15.45,15.45,0,0,0,5.55-.76c3-1.19,5.39-4.16,8.63-4.18" transform="translate(-217.5 -198)"/><path class="cls-12" d="M780.78,276.35c1.29.13,2.4-.82,3.54-1.44s2.87-.77,3.44.39a1.86,1.86,0,0,0,.28.52c.3.3.8.18,1.2,0,1-.36,2.3-.67,3.19,0a1.76,1.76,0,0,1,.25,2.51,1.64,1.64,0,0,1-2.46-.17,8.59,8.59,0,0,1-1.5,3.52,2.94,2.94,0,0,1-3.45,1c-.28-1.34,2.1-2.06,1.93-3.42-.13-1-1.61-1.22-2.4-.6a5.81,5.81,0,0,0-1.46,2.57c-.37.93-1,1.9-2,2a4.39,4.39,0,0,0-1.26.1c-.76.32-.75,1.42-.52,2.22s.53,1.76,0,2.39-1.75.38-2.67.56a2.43,2.43,0,0,0-1.89,2.55,2.52,2.52,0,0,1,0,1.22c-.3.7-1.36.63-1.92,1.16-.84.8-.11,2.47-1,3.25a2.57,2.57,0,0,1-1.12.45,6.48,6.48,0,0,0-4.65,6.14,18.24,18.24,0,0,1,.14,3.61c-.23,1.18-1.43,2.33-2.55,1.88s-1.21-1.7-1.53-2.74-1.49-2.13-2.36-1.47c-.27.21-.44.57-.76.71-.67.3-1.26-.56-1.5-1.26l-1.19,1.54c-.74-.21-1-1.36-1.76-1.36-.95,0-.81,1.45-1.07,2.37-.34,1.19-1.79,1.69-3,1.62s-2.43-.55-3.66-.51-2.61.84-2.62,2.08c0,.56.28,1.15,0,1.66s-1.21.77-1.55,1.38,0,1.14-.07,1.71c-.07,1.61-2.14,2.9-1.58,4.41a3,3,0,0,0,1,1.15l2.65,2.14c.67.55,2,.91,2.14.06.08-.34-.13-.71,0-1,.33-.72,1.38.13,2.18.13s1.3-1.17,1.21-2.07-.36-1.9.16-2.64c1.28-1.8,4.85.72,6.16-1.06.78.38.5,1.62-.14,2.23s-1.52,1-1.78,1.88.35,1.89.49,2.87a3,3,0,0,1-2,3.11c.81,1.09,2.49,1,3.77.57S759.66,325,761,325a1.71,1.71,0,0,1,1.06.27,1.74,1.74,0,0,1,.59,1.12c.26,1.49-.49,3-.12,4.52.5,1.94,2.84,3.45,2.27,5.36-1.14.78-2.73.36-3.91-.37a18.26,18.26,0,0,0-3.51-2.17,8,8,0,0,1-2.17-.75c-1-.68-1.16-2-1.8-3a3.89,3.89,0,0,0-4.88-1.32,2.84,2.84,0,0,1-1.22.48,3.49,3.49,0,0,1-1.21-.45c-1.61-.67-3.37.36-5.1.6a5.77,5.77,0,0,1-6.2-4.33,4.52,4.52,0,0,0-.51-1.67c-.33-.47-.92-.74-1.19-1.25a2.56,2.56,0,0,1-.17-1.4q.31-4.83.64-9.66a12.8,12.8,0,0,1,.82-4.44c1.19-2.65,4-4.16,6.74-5.16s5.65-1.72,7.9-3.56c1.82-1.5,3.24-3.75,5.54-4.25,1.62-.36,3.29.26,4.94.29s3.64-1,3.52-2.67a8,8,0,0,0-.78-2,3.76,3.76,0,0,1,.5-3.48,10.22,10.22,0,0,0,6.23-3.76,3.52,3.52,0,0,1,.85-.91c1.6-1,3.8,1.34,5.47.43a3.88,3.88,0,0,0,1.15-1.23,9.6,9.6,0,0,1,5.35-3.61" transform="translate(-217.5 -198)"/><path class="cls-12" d="M853.47,284c0,1.69,1.45,3.43.62,4.9a10.55,10.55,0,0,0-.69,1.05,2.28,2.28,0,0,0,1.05,2.49,8.6,8.6,0,0,1,2.23,1.86.75.75,0,0,0-.88.77.77.77,0,0,0,1,.59l-2,1.1a5.41,5.41,0,0,0,2.3.17A5.67,5.67,0,0,1,857,299c-.08.7.13,1.56.8,1.76a13.69,13.69,0,0,0-2.29,1,2.21,2.21,0,0,0-.8.65c-.5.83.24,1.87,1.07,2.38s1.84.86,2.26,1.72c.62,1.27-.39,2.84.1,4.16s2.58,1.87,3.13,3.31c.44,1.17-.3,2.47-.12,3.7.3,2,2.71,2.85,4.37,4.06a15.06,15.06,0,0,1,1.67,1.52L870.8,327a3.43,3.43,0,0,0,1.1.84,2.33,2.33,0,0,0,2.21-.45,6.44,6.44,0,0,0,1.45-1.86,7.9,7.9,0,0,0,1.05-2.38,2.74,2.74,0,0,0-.62-2.44c-1.29-1.28-3.54-.37-5.23-1s-2.36-2.75-2.55-4.59-.2-3.84-1.36-5.28c.46,1.82.55,3.74,1.27,5.47s2.31,3.31,4.19,3.2a.82.82,0,0,0,.48-.14.9.9,0,0,0,.26-.49,9.81,9.81,0,0,0-2.72-9.75c-1.4-1.3-3.17-2.16-4.55-3.48-2.49-2.37-3.43-5.89-4.67-9.1s-3.26-6.56-6.59-7.44" transform="translate(-217.5 -198)"/><path class="cls-12" d="M860.18,300.32a5.59,5.59,0,0,1-3.3-1.61A9.59,9.59,0,0,1,855,295a1.86,1.86,0,0,1,.41-2.3,2.93,2.93,0,0,1,2-1.29,2.43,2.43,0,0,1,1.39.56,7.42,7.42,0,0,1,2.8,4,3.12,3.12,0,0,1,.13,1.05,2.1,2.1,0,0,1-1.39,1.7,2.61,2.61,0,0,1-2.22-.31" transform="translate(-217.5 -198)"/><path class="cls-12" d="M846.61,353.44l-2.8,5.47a2.56,2.56,0,0,0-.41,1.5c.21,1.43,2.57,1.9,2.5,3.34l-4,.65a1.16,1.16,0,0,0-.72.29,1.09,1.09,0,0,0-.1,1c.5,1.93,2.07,3.65,1.78,5.62-.47,3.19-5.35,4.21-5.85,7.4a4.52,4.52,0,0,1-.37,1.84c-.86,1.32-3,.23-4.47.77-1.07.38-1.61,1.54-2,2.59l-2,4.79a6.83,6.83,0,0,1-.71,1.4,8.51,8.51,0,0,1-1.58,1.47,16.72,16.72,0,0,0-3.66,4.16,7.82,7.82,0,0,1-.28-3.19c-1.53.7-.58,3.18-1.47,4.6a3.39,3.39,0,0,1-1.6,1.2,17.36,17.36,0,0,1-6.13,1.5c1.21.86,1.06,2.9,0,3.91a4.57,4.57,0,0,1-4.23.75,2.17,2.17,0,0,0-1.37-.11c-1.16.46-.44,2.21-.58,3.45-.23,2.12-3.2,2.79-4,4.74-.31.71-.29,1.53-.6,2.24s-1.21,1.3-1.85.86a1.59,1.59,0,0,1-.55-.94c-.67-2.46,0-5.06.68-7.52l2.46-9c.79-2.87,1.57-5.75,2.36-8.62a19.54,19.54,0,0,1,8.55-13.07L819,372a12.9,12.9,0,0,1,3.46-2.28,11.19,11.19,0,0,1,4.23-.56c5.59.08,11.45,1.23,16.57-1" transform="translate(-217.5 -198)"/><path class="cls-13" d="M727.52,376.75a84.71,84.71,0,0,1,106-112.44,84.71,84.71,0,1,0-64.77,156.23A84.35,84.35,0,0,1,727.52,376.75Z" transform="translate(-217.5 -198)"/><path class="cls-14" d="M874.75,308.1A84.71,84.71,0,0,1,760,417c99-8.23,109.61-120,85.54-145.51A84.18,84.18,0,0,1,874.75,308.1Z" transform="translate(-217.5 -198)"/><path class="cls-14" d="M881,334.41a84.75,84.75,0,0,1-151.6,57.85C764.06,401.26,833.09,407.33,881,334.41Z" transform="translate(-217.5 -198)"/><path class="cls-12" d="M769.63,315.59" transform="translate(-217.5 -198)"/><path class="cls-6" d="M736.77,301s-7.09-17.78-2.25-29.53c.25-17.24,11.93-16.55,15-25.62,0,0,7.51,23.6-11.93,27,0,0-7,6.54.85,28Z" transform="translate(-217.5 -198)"/><path class="cls-6" d="M732.87,279.68s-.45-20.08-25.18-17c6.88,5.88,6.21,17.36,22.71,12.21a53.12,53.12,0,0,1,2.86,12.37Z" transform="translate(-217.5 -198)"/><path class="cls-6" d="M866.91,384.49s10.11-12,14.83-15.18c8.12-20.24,27.71-9.83,37.19-11.76a36.3,36.3,0,0,1-34.52,13.59s-9.1,5.61-19.73,19.6Z" transform="translate(-217.5 -198)"/><path class="cls-6" d="M849.78,406.25s17.9-14.62,18.62-32.2c0,0-10.6-7.58-10.22-27.71,0,0,20.94,10.22,14.67,29.32,0,0-7.77,19.88-22.87,32.58Z" transform="translate(-217.5 -198)"/><path class="cls-6" d="M1038.32,477.11s2.42,6.95.58,11.2c0,0-12.11,2.05-21.34,0,0,0-.53-6.3,9.37-7.1l-.8-4.49Z" transform="translate(-217.5 -198)"/><path class="cls-15" d="M1008.54,429.62l16.89,49.95s11.64,2,14.16-1.91c0,0-3.09-20.89-9-29.31,0,0-.71-32.32-4.26-44.66Z" transform="translate(-217.5 -198)"/><path class="cls-6" d="M986,478.64s.45,5.67-.76,8.52c0,0-12.18,1.54-21.32-.88,0,0-.26-6.32,9.66-6.71l1.33-4.38Z" transform="translate(-217.5 -198)"/><path class="cls-16" d="M1027.84,404.64s.14,15.47-26.25,34.91l-14.91,41.87s-8.09-.14-13-4c0,0,9.08-39.73,12.34-45.55s12.21-25.26,12.21-25.26Z" transform="translate(-217.5 -198)"/><path class="cls-17" d="M990.08,399.42l-.57-2.4a6.09,6.09,0,0,0-3.55-4.19h0a6.1,6.1,0,0,0-3.13-.42c-2.29.3-9.82,1.53-9.75,1.68s1.1,3.06,1.1,3.06l8.77-1.57a3.07,3.07,0,0,1,1.77.21h0a3.14,3.14,0,0,1,1.79,2.07l.71,2.6Z" transform="translate(-217.5 -198)"/><path class="cls-4" d="M918.61,471.19l17.1,8A8.7,8.7,0,0,0,947,475.51l32.53-58,1.18-2.1-44.47-22.77-21.48,65.72L914,460.6A8.69,8.69,0,0,0,918.61,471.19Z" transform="translate(-217.5 -198)"/><path class="cls-18" d="M918.61,471.19l17.1,8A8.7,8.7,0,0,0,947,475.51l32.53-58-28,28.16a44.22,44.22,0,0,1-36.77,12.69L914,460.6A8.69,8.69,0,0,0,918.61,471.19Z" transform="translate(-217.5 -198)"/><circle class="cls-19" cx="707.55" cy="280.26" r="7.89"/><path class="cls-20" d="M921.64,478.26a3.41,3.41,0,1,0,3.41-3.41A3.41,3.41,0,0,0,921.64,478.26Z" transform="translate(-217.5 -198)"/><path class="cls-21" d="M984.45,412.39a7.86,7.86,0,0,1-.29,2.09l-.26.95L971.08,409l-37.75-18.87.92-1.21a4.86,4.86,0,0,1,5.6-1.62l2.89-2.27a9.21,9.21,0,0,1,9.4-1.19L977.53,395a9,9,0,0,1,5.6,8.33v4.72A7.8,7.8,0,0,1,984.45,412.39Z" transform="translate(-217.5 -198)"/><path class="cls-22" d="M984.45,412.39a7.86,7.86,0,0,1-.29,2.09l-.26.95L971.08,409c.42-1.57.68-3.33.17-4.39-1-2.07-21.61-12.55-24.4-14,2.43,1.19,18.32,8.92,26.23,11.42,6.09,1.92,7.36-2.33,7.59-4.95a9,9,0,0,1,2.46,6.19v4.72A7.8,7.8,0,0,1,984.45,412.39Z" transform="translate(-217.5 -198)"/><path class="cls-23" d="M983.9,415.43l-.59.89a2.73,2.73,0,0,1-3.53.92L934.43,394a2.74,2.74,0,0,1-1.11-3.82h0Z" transform="translate(-217.5 -198)"/><path class="cls-24" d="M940,436.53a1.9,1.9,0,0,1-.34-1.44,4,4,0,0,1,1.64-1.33l3.25,1.71-1.39,2.64Z" transform="translate(-217.5 -198)"/><path class="cls-24" d="M939,430.59a1.72,1.72,0,0,1,.79-1.06,12,12,0,0,0,1.36-.77l.23-.16-.32-.92,2.57,1.5,0,2.61-.24-.39-.28.1a11.66,11.66,0,0,0-4,2.3C939,432.53,939,430.91,939,430.59Z" transform="translate(-217.5 -198)"/><path class="cls-24" d="M952.6,437a5.75,5.75,0,0,1-1.76-.44l-.78-3.59,2.92-.64.82,3.44c-.11.34-.41,1-.88,1.19A1,1,0,0,1,952.6,437Z" transform="translate(-217.5 -198)"/><path class="cls-24" d="M945.89,437.76l2-1.7-.15.44.25.15a12.26,12.26,0,0,0,4.34,1.57l-2.37,2.19a2.35,2.35,0,0,1-.8.17,1.06,1.06,0,0,1-.51-.11,11.74,11.74,0,0,0-1.47-.54l-.27-.08-.5.84Z" transform="translate(-217.5 -198)"/><path class="cls-24" d="M944,426.25l2.91-2h.19a1.72,1.72,0,0,1,1.24.41,4,4,0,0,1,.37,2.08l-3.07,2Z" transform="translate(-217.5 -198)"/><path class="cls-24" d="M949.27,429.69l.46,0,0-.28a11.77,11.77,0,0,0-.07-4.61l2.88,1.43a1.69,1.69,0,0,1,.54,1.2,11.57,11.57,0,0,0,0,1.56l0,.28,1,.17-2.56,1.52Z" transform="translate(-217.5 -198)"/><path class="cls-25" d="M990.87,381.15l-.28,2.16a34.38,34.38,0,0,0-4.39,4.87,15.74,15.74,0,0,1-5.52,4.54l5.52,2.55a26.53,26.53,0,0,0,8.33-3.54c3.7-2.56,6.63-9.8,6.63-9.8Z" transform="translate(-217.5 -198)"/><path class="cls-26" d="M997.14,384.84s-6.06-1.06-7.4-3.83c0,0,2.55-21.64,9.29-21.5S997.14,384.84,997.14,384.84Z" transform="translate(-217.5 -198)"/><path class="cls-27" d="M996.64,408.52l.19.11c1.88,1,17.14,8.73,31.67-2.26,0,0-.66-41-15.75-50.36a10.44,10.44,0,0,0-14,2s-3.6,1.62-4.16,8.15c-.42,4.84,1.8,16.88,2.31,29.42A93,93,0,0,1,996.64,408.52Z" transform="translate(-217.5 -198)"/><path class="cls-28" d="M996.64,408.52l.19.11c5.83-1.12,17.49-4.12,23.2-11.09,7.81-9.5.65-28,.65-28l-12.38-4.89-1,6.73c-.89,6-11,15.27-11,15.27l.37,4.68.29,2.06S997.06,404.33,996.64,408.52Z" transform="translate(-217.5 -198)"/><path class="cls-29" d="M1008.3,383.92,992,394.52s-6.62,1.51-7.66,4.16,0,3.31,0,3.31l2-1.18s2.77,1.7,4.71,1.18,3.84-3.26,3.84-3.26,23.13-4.59,25.49-11.21S1008.3,383.92,1008.3,383.92Z" transform="translate(-217.5 -198)"/><path class="cls-30" d="M1008.3,383.92s.07-4.87-.24-9.82c-.29-4.52-1-9,.62-11.47,3.5-5.11,9.08-2.93,12.49,8.42,3.09,10.31,2.36,17.13,2.36,17.13S1011.23,387.89,1008.3,383.92Z" transform="translate(-217.5 -198)"/><path class="cls-17" d="M986.37,400.81l-2.47,1.28-8.63,1a1.64,1.64,0,0,0-1.43,1.83h0a1.64,1.64,0,0,0,1.8,1.41l7.92-.85a8.43,8.43,0,0,0,3.71-1.33l2.81-1.86Z" transform="translate(-217.5 -198)"/><path class="cls-31" d="M1006.54,350.91s3-10.51.58-13.68-4.4-2.74-4.4-2.74-.08-4.62-4.3-5c-4-.33-10.74,3.83-11.26,1.37,0,0-1.94,2.22-.62,4.35,0,0-3.21-.09-3.88-1.42,0,0-1.18,6.67,4,7,0,0-1.13,5.21,4.92,7A132.55,132.55,0,0,0,1006.54,350.91Z" transform="translate(-217.5 -198)"/><path class="cls-29" d="M997.23,354.21a33.06,33.06,0,0,1,1,7.29c7.85-.57,10-6.72,10-6.72l-4.18-9.19,0,0S996.19,350.05,997.23,354.21Z" transform="translate(-217.5 -198)"/><path class="cls-32" d="M997.23,354.21a33.06,33.06,0,0,1,1,7.29s8-4.32,5.91-15.55c0-.13,0-.24-.07-.36l0,0S996.19,350.05,997.23,354.21Z" transform="translate(-217.5 -198)"/><path class="cls-29" d="M988.74,342.84s3,12.63,6.81,14,7.17-2.76,8.31-5.53a9.6,9.6,0,0,0,.23-5.74s2-2.66-.23-3.63-2.42,2.49-2.42,2.49-3.83-.61-3.44-5.15C998,339.25,995.44,344.7,988.74,342.84Z" transform="translate(-217.5 -198)"/><path class="cls-29" d="M986.76,393.25s-4.16-.82-3,2.57a1.91,1.91,0,0,1-2.31,0s-.14.72-1.63.38c0,0-1.21,1-1.78-1.06s1-4.24,2-4.09,2.21-.86,4-.42A3.07,3.07,0,0,1,986.76,393.25Z" transform="translate(-217.5 -198)"/><path class="cls-33" d="M846.19,485.76h-8.73c-4.29,0-13.16-4.61-6.94-16l17.74-11,6.67,10.54Z" transform="translate(-217.5 -198)"/><path class="cls-34" d="M839.81,478.41s-.19-5.75,10.87-16.13l23.2-3.11L880.2,463s.88,9.12-8.82,10.56S839.81,478.41,839.81,478.41Z" transform="translate(-217.5 -198)"/><path class="cls-35" d="M882.22,474.63v11.22s-32,4.28-39.57-1.81c-6.42-5.16-2.28-12.78,13.64-12.61S882.22,474.63,882.22,474.63Z" transform="translate(-217.5 -198)"/><path class="cls-36" d="M900.54,482.62c-.47,2.87-3.34,3.26-6.29,3a33.53,33.53,0,0,1-3.36-.48,24.33,24.33,0,0,0-6.52-.3V476.1c3.11.24,7-.42,10.09-.48a13.84,13.84,0,0,1,2.29.11C900,476.18,901.2,478.63,900.54,482.62Z" transform="translate(-217.5 -198)"/><path class="cls-37" d="M900.54,482.62c-.47,2.87-3.34,3.26-6.29,3l1.64-1.28c-2.07-3.69,0-7.63,0-7.63l-1.43-1.09a13.84,13.84,0,0,1,2.29.11C900,476.18,901.2,478.63,900.54,482.62Z" transform="translate(-217.5 -198)"/><rect class="cls-29" x="664.72" y="278.49" width="2.15" height="7.81"/><path class="cls-25" d="M813.89,462.3l-1.21,1.57s-5.16,4.61-6.42,7.56,7.23-.43,7.23-.43,3.33-1.8,3.48-3.53l1.77-2Z" transform="translate(-217.5 -198)"/><path class="cls-3" d="M842.65,421.12s-3.49-1.07-6.67,6.52c-2.4,5.71-7.13,14.45-7.13,14.45L813.49,461.6s2.12,4.27,5.46,4.85c0,0,17.1-15.37,18.51-18.3s5.19-8.79,5.19-8.79Z" transform="translate(-217.5 -198)"/><path class="cls-38" d="M805.1,442.82a5.32,5.32,0,0,0-1.1-5.48c-2.35-2.6-7.53-3.18-7.53-3.18S799.28,441.83,805.1,442.82Z" transform="translate(-217.5 -198)"/><path class="cls-38" d="M810.24,449.16s-1.1-4.37,2.54-6.59,4.65-3,4.65-3S818.37,447.88,810.24,449.16Z" transform="translate(-217.5 -198)"/><path class="cls-38" d="M806.76,466.34a3.65,3.65,0,0,0-3.13-3.71c-3.34-.7-5.76.36-6.93-.45C796.7,462.18,800.24,469.73,806.76,466.34Z" transform="translate(-217.5 -198)"/><path class="cls-39" d="M815.05,442.89a.45.45,0,0,0-.64-.07c-3.52,2.83-5.13,7.27-5.87,10.5-.06-.59-.13-1.16-.21-1.72-1.43-10.18-6.51-14-6.73-14.15a.45.45,0,0,0-.63.1.46.46,0,0,0,.09.64c.05,0,5,3.73,6.37,13.54a98.52,98.52,0,0,1,.58,14.75,11.85,11.85,0,0,0-3.61-2.27.45.45,0,1,0-.33.84c.89.36,3.23,1.53,3.9,2.88-.17,5.5-.54,9.79-.54,9.88a.44.44,0,0,0,.41.49h0a.46.46,0,0,0,.45-.41c0-.08.37-4.22.54-9.58a.46.46,0,0,0,.07-.41s0-.09-.05-.14c.09-3.25.11-6.91,0-10.38h0c0-.1.53-9.33,6.14-13.85A.45.45,0,0,0,815.05,442.89Z" transform="translate(-217.5 -198)"/><path class="cls-31" d="M830.37,487.25h-42s-.61-4.68,2.63-4.68c0,0,.3-3,2.22-2.43,0,0,.91-6.67,6.17-5.67,0,0,1.82-4.21,5.15-2.25a10.76,10.76,0,0,1,5.29-2.42c3-.4,7,.78,10.48,7,0,0,2.63-1.34,2.83,2.51,0,0,2.73-.49,3.64,3.35C826.83,482.66,831.2,483.76,830.37,487.25Z" transform="translate(-217.5 -198)"/><path class="cls-40" d="M811.8,483.41c-1.36,4.06-12.72-1.83-16.74,3.81h-6.64s-.61-4.69,2.63-4.69c0,0,.3-3,2.22-2.43,0,0,.91-6.67,6.17-5.66,0,0,1.82-4.22,5.15-2.26a10.7,10.7,0,0,1,5.29-2.41c.56.62,4.13,5-4.38,8.55C805.5,478.32,813.23,479.09,811.8,483.41Z" transform="translate(-217.5 -198)"/><ellipse class="cls-31" cx="581.44" cy="282.7" rx="1.08" ry="0.45"/><path class="cls-31" d="M809.14,482.32c0,.44-.88.81-2,.81s-2-.37-2-.81.88-.81,2-.81S809.14,481.87,809.14,482.32Z" transform="translate(-217.5 -198)"/><path class="cls-31" d="M804.69,476.28c0,.32-.64.58-1.44.58s-1.44-.26-1.44-.58.65-.58,1.44-.58S804.69,476,804.69,476.28Z" transform="translate(-217.5 -198)"/><path class="cls-40" d="M823.29,482.32c0,.44-1,.81-2.35.81s-2.35-.37-2.35-.81,1-.81,2.35-.81S823.29,481.87,823.29,482.32Z" transform="translate(-217.5 -198)"/><path class="cls-3" d="M880.2,463a18.16,18.16,0,0,0-7.32-1.34h0a34.37,34.37,0,0,0-11.9,2.25c-12.17,4.45-15.72-2.12-15.72-2.12s2.53-2.93,0-10.62c-.12-.34-.23-.66-.35-1-.18-.45-.36-.86-.55-1.25-2.54-5.15-6.05-4.4-6.79-12.14-.46-4.88,1-9.79,2.37-13.16l0-.07,0-.09a35.43,35.43,0,0,1,2-4.17c6.77-7.28,14.82-3.16,19,2.16,6.07,7.79,7.93,23.72,7.93,23.72C878.18,452,880.2,463,880.2,463Z" transform="translate(-217.5 -198)"/><path class="cls-41" d="M872.85,461.67a34.37,34.37,0,0,0-11.9,2.25c-12.17,4.45-15.72-2.12-15.72-2.12s2.53-2.93,0-10.62a16.85,16.85,0,0,0-.9-2.21l13.75-20.73s8.15,3.49,0,24.86C851.72,469.79,860.48,460.15,872.85,461.67Z" transform="translate(-217.5 -198)"/><path class="cls-41" d="M847.85,439.46l-3,10.76c-.18-.45-.36-.86-.55-1.25-2.54-5.15-6.05-4.4-6.79-12.14-.46-4.88,1-9.79,2.37-13.16-.41,1.14-2.65,7.89-.34,14.07C842.09,444.51,847.85,439.46,847.85,439.46Z" transform="translate(-217.5 -198)"/><path class="cls-29" d="M821,467.43l-3.64,2.28s-4.54,2.5-8.11,2.65-2,2.81-2,2.81H814c2.57,0,5.75,1.06,6.36-1.07l5.16-2.19Z" transform="translate(-217.5 -198)"/><path class="cls-3" d="M820.36,466.75s0,3.23,5,6.37c0,0,20.12-8.9,24.77-15.37s14.76-21.63,9.1-28.4c-4.3-5.14-8.82,2.39-11.83,7.88-3.39,6.17-7.08,13.65-7.08,13.65Z" transform="translate(-217.5 -198)"/><path class="cls-42" d="M837.51,394.73s1-9.17,9.75-8c8.37,1.17,8.2,11.46,5.09,17.82,0,0,2.12-2,3.79,0s-2.73,10-8.26,4.7S837.51,394.73,837.51,394.73Z" transform="translate(-217.5 -198)"/><path class="cls-43" d="M837.51,393.67s7.44-4.25,8.68,4.32S837.51,393.67,837.51,393.67Z" transform="translate(-217.5 -198)"/><path class="cls-31" d="M833.56,413.15s-5.27-1.68-5.62-7.2c-.3-4.74,2.12-4.7,2.12-4.7s.75-8.19,9.1-7.58,13.83,10.2,9,19.88S833.56,413.15,833.56,413.15Z" transform="translate(-217.5 -198)"/><path class="cls-29" d="M851.7,416.61s-1.73,8.43-7.08,8.6a1.7,1.7,0,0,1-1.59-1.7,14.94,14.94,0,0,1,0-1.94L840.68,419l6-7.66h0A14.53,14.53,0,0,0,851.7,416.61Z" transform="translate(-217.5 -198)"/><path class="cls-32" d="M843,423.51a14.94,14.94,0,0,1,0-1.94L840.68,419l6-7.66h0A10,10,0,0,1,843,423.51Z" transform="translate(-217.5 -198)"/><path class="cls-29" d="M831.05,406.33s4.32,14.75,9.25,15.16c4,.33,8.06-7.57,6.37-10.16,0,0,1.39-2.09-.08-3.66s-3.18-.2-1.62,2.53c0,0-3.18-.26-3.59-2.78C841.38,407.42,834.71,411.86,831.05,406.33Z" transform="translate(-217.5 -198)"/><path class="cls-25" d="M677.1,314.11s6.53-.57,8.11,1.78-11.16,3.46-11.16,3.46Z" transform="translate(-217.5 -198)"/><path class="cls-33" d="M646.86,306.92l8.49,7.19L677,313l1,9.7s-19.41,3-24.26,3.08S634,319,634,319Z" transform="translate(-217.5 -198)"/><path class="cls-33" d="M652.12,407.39l-1.47,7.73s-3.84,0-4.49-4.9,2.22-6.62,2.22-6.62l3.44,2Z" transform="translate(-217.5 -198)"/><path class="cls-44" d="M650.65,338.1s12.49,23.2,14.31,30-.31,14.83-10.66,39.27c0,0-8.14,0-9.36-5.07s-6.21-62.25-6.21-62.25Z" transform="translate(-217.5 -198)"/><path class="cls-45" d="M634.94,420.28s-1.82,6.37-1,10.16a68.5,68.5,0,0,0,18.12,1.74s1.59-4.23-2.65-5.22-4.63-3.35-4.63-3.35l-.6-3.33Z" transform="translate(-217.5 -198)"/><path class="cls-3" d="M621.49,339.77s-.6,5.46,3.84,18,8.49,21.83,8.49,21.83v41.65s2.23,1.82,11.73,0c0,0,5.66-38.61,5.05-45.49s-4.65-36-4.65-36Z" transform="translate(-217.5 -198)"/><path class="cls-31" d="M655.83,282.22a3.21,3.21,0,0,0,3.82-3.25s5,1,4.32-5.91a6.71,6.71,0,0,1-4,0s1.45-.23,1.61-2.35c0,0-3.11,2.12-7.51-2.2s-12.2-5.76-14.25,1.89a6.57,6.57,0,0,0-1.9,8c2.24,5.05,1.16,6.61,1.16,6.61Z" transform="translate(-217.5 -198)"/><path class="cls-29" d="M648.05,290.72l-4.45,4.37-.1.1s-7.65-6.52-6.14-8a39.93,39.93,0,0,0,3.71-5.1c.51-.78.84-1.32.84-1.32Z" transform="translate(-217.5 -198)"/><path class="cls-32" d="M648.05,290.72l-4.45,4.37a3.78,3.78,0,0,1-.17-.35s-4.09-4.58-2.36-12.68c.51-.78.84-1.32.84-1.32Z" transform="translate(-217.5 -198)"/><path class="cls-29" d="M657.07,279.52s-5.13,12.42-9.7,12.44c-3.34,0-7.78-7.38-5.46-11.22,0,0-2.27-2-.1-3.49,1.91-1.33,2.83.35,1.82,2.53a2.43,2.43,0,0,0,3-2.38s5.36,3.69,10.26-.15a7.45,7.45,0,0,1-5.1,2.58A6.91,6.91,0,0,0,657.07,279.52Z" transform="translate(-217.5 -198)"/><polygon class="cls-21" points="452.31 117.89 458.23 117.89 421.29 290.76 415.37 290.76 452.31 117.89"/><polygon class="cls-21" points="479.17 117.89 473.25 117.89 510.19 290.76 516.11 290.76 479.17 117.89"/><rect class="cls-46" x="448.16" y="117.89" width="35.07" height="7.81" rx="2.52"/><path class="cls-46" d="M708.75,397.69h-51.1a2.42,2.42,0,0,1-2.42-2.43h0a2.42,2.42,0,0,1,2.42-2.42h51.1a2.42,2.42,0,0,1,2.43,2.42h0A2.43,2.43,0,0,1,708.75,397.69Z" transform="translate(-217.5 -198)"/><path class="cls-21" d="M658.89,395.26a1.21,1.21,0,1,1-1.21-1.21A1.21,1.21,0,0,1,658.89,395.26Z" transform="translate(-217.5 -198)"/><path class="cls-21" d="M709.91,395.26a1.21,1.21,0,1,1-1.21-1.21A1.21,1.21,0,0,1,709.91,395.26Z" transform="translate(-217.5 -198)"/><path class="cls-47" d="M652.12,340.27c-18.6,11.63-32.55,2.83-32.55,2.83s.51-12.63,5.16-31.94,10.1-23.2,10.1-23.2-.2-2.57,1.42-2.47,8.39,10.61,8.39,10.61l3.19,11.77,1.66,2.89c-.21,3.69-.18,10.32,0,13.36A66.06,66.06,0,0,0,652.12,340.27Z" transform="translate(-217.5 -198)"/><path class="cls-48" d="M649.48,324.12c-18.61-4.5-16.54-22.26-16.54-22.26l14.89,6,1.66,1.68C649.28,313.23,649.31,321.08,649.48,324.12Z" transform="translate(-217.5 -198)"/><path class="cls-3" d="M691.09,301.93s-2.53,3-5.29,16.23a3.74,3.74,0,0,0,2.27,4.23c4.2,1.69,12.5,4.31,21.26,3a3.71,3.71,0,0,0,3.17-3.24c.51-4.25,1.29-13,0-17.25Z" transform="translate(-217.5 -198)"/><path class="cls-49" d="M712.45,304.94c-.12.81-5,.79-10.89,0s-10.58-2.16-10.47-3,5-.79,10.89,0S712.56,304.13,712.45,304.94Z" transform="translate(-217.5 -198)"/><path class="cls-50" d="M709.81,303.85c-.06.43-3.67.27-8-.35s-7.89-1.46-7.83-1.88,3.66-.27,8.05.35S709.87,303.43,709.81,303.85Z" transform="translate(-217.5 -198)"/><path class="cls-3" d="M733.21,311.84a.85.85,0,0,1-.58.54c-1.47.28-3-3.25-3-3.25l-18.28,5.92s-2.36-2.66-.7-7.64l19.6-2.19a2.36,2.36,0,0,1,.37,0,3,3,0,0,1,3,2.71A8.64,8.64,0,0,1,733.21,311.84Z" transform="translate(-217.5 -198)"/><path class="cls-51" d="M733.21,311.84a6.42,6.42,0,0,1-2.55-6.64,3,3,0,0,1,3,2.71A8.64,8.64,0,0,1,733.21,311.84Z" transform="translate(-217.5 -198)"/><path class="cls-52" d="M711.38,304.87h-.07a.41.41,0,0,1-.31-.51c0-.05,1.24-5.37-1.13-9.06a8.5,8.5,0,0,0-11.31-2.22c-4.06,2.76-5.29,9-5.3,9.08a.41.41,0,0,1-.5.33.41.41,0,0,1-.33-.49c.05-.27,1.31-6.67,5.66-9.62a8.49,8.49,0,0,1,6.63-1.25,8.58,8.58,0,0,1,5.86,3.72c2.57,4,1.29,9.48,1.24,9.71A.43.43,0,0,1,711.38,304.87Z" transform="translate(-217.5 -198)"/><path class="cls-36" d="M737.19,313.85a1.9,1.9,0,0,1,1.15-.09,3.09,3.09,0,0,1,1,.41,2.81,2.81,0,0,1,1.28,1.79,4,4,0,0,1-1-.35,5.87,5.87,0,0,1-.86-.46A8.08,8.08,0,0,1,737.19,313.85Z" transform="translate(-217.5 -198)"/><path class="cls-36" d="M741.88,312.23a2.9,2.9,0,0,1,1.32.08,3.64,3.64,0,0,1,1.18.55,3.39,3.39,0,0,1,.92.93,2.4,2.4,0,0,1,.45,1.26c-.43-.21-.75-.42-1.08-.62s-.64-.41-.95-.62A10,10,0,0,1,741.88,312.23Z" transform="translate(-217.5 -198)"/><path class="cls-36" d="M738.05,307a2.17,2.17,0,0,1,1.2-.26,3,3,0,0,1,1.18.29,2.49,2.49,0,0,1,1.45,1.89c-.42-.14-.73-.3-1-.43l-.9-.42A12.51,12.51,0,0,1,738.05,307Z" transform="translate(-217.5 -198)"/><path class="cls-36" d="M752.58,318.23" transform="translate(-217.5 -198)"/><path class="cls-36" d="M749.4,316.77a4.13,4.13,0,0,1,1.4.67,6,6,0,0,1,1.12,1,5.85,5.85,0,0,1,.86,1.24,4.14,4.14,0,0,1,.47,1.48,7.11,7.11,0,0,1-1.19-.93,12.11,12.11,0,0,1-1-1,10.78,10.78,0,0,1-.89-1.13A7.53,7.53,0,0,1,749.4,316.77Z" transform="translate(-217.5 -198)"/><path class="cls-36" d="M749.93,311.46a3.08,3.08,0,0,1,1.45.18,4.18,4.18,0,0,1,1.25.71,3.67,3.67,0,0,1,.94,1.13,2.78,2.78,0,0,1,.36,1.42c-.42-.3-.73-.59-1.07-.86l-1-.8A20.56,20.56,0,0,1,749.93,311.46Z" transform="translate(-217.5 -198)"/><path class="cls-36" d="M745.75,320.77a3.93,3.93,0,0,1,1.51,1,5.79,5.79,0,0,1,1,1.5,5.63,5.63,0,0,1,.53,1.75,4.32,4.32,0,0,1-.11,1.82c-.31-.55-.52-1.07-.76-1.58l-.7-1.49C746.8,322.81,746.29,321.87,745.75,320.77Z" transform="translate(-217.5 -198)"/><path class="cls-36" d="M755.66,323.7a2.41,2.41,0,0,1,1.22.53,3.47,3.47,0,0,1,.87,1,3.14,3.14,0,0,1,.41,2.54,7,7,0,0,1-.77-1c-.22-.32-.43-.63-.62-.94A15.14,15.14,0,0,1,755.66,323.7Z" transform="translate(-217.5 -198)"/><path class="cls-29" d="M689.74,291.37l3.81-2.6s1.36-2.26,5.33-1,4.71,2.05,4.18,3.35c0,0,2.57,1.74,2.14,2.95s-2,1.55-2.1,2.32a2.36,2.36,0,0,1-1.85,2c-1.11.21-1.48,1.11-2.89.76s-3.9-2.55-3.9-2.55l-2.84.81Z" transform="translate(-217.5 -198)"/><path class="cls-53" d="M634.19,305.19c1.9,3.19,6.59,5.1,10.28,5.52,6.3.71,17.38,2.17,25.28-.47,11-3.66,23.39-12.3,23.39-12.3s.39-4.38-3.95-8.41c0,0-18.55,8.77-21.28,8.77s-19.11-2.69-24.72-4.51C638.58,292.29,629.62,297.51,634.19,305.19Z" transform="translate(-217.5 -198)"/></g></g></svg>