<svg xmlns="http://www.w3.org/2000/svg" xmlns:xlink="http://www.w3.org/1999/xlink" viewBox="0 0 470.22 496.52"><defs><style>.cls-1{mask:url(#mask);}.cls-18,.cls-2,.cls-9{mix-blend-mode:multiply;}.cls-2{fill:url(#linear-gradient);}.cls-3{fill:none;}.cls-4{fill:#ebbea1;}.cls-5{isolation:isolate;}.cls-6{clip-path:url(#clip-path);}.cls-7{clip-path:url(#clip-path-2);}.cls-8,.cls-9{fill:#ceb593;}.cls-9{opacity:0.22;}.cls-10{fill:#cc9f8f;}.cls-11{fill:#d6a894;}.cls-12{fill:#e0b299;}.cls-13{fill:#f7cebb;}.cls-14{fill:#394244;}.cls-15{fill:#fcf7e0;stroke:#fcf7e0;stroke-miterlimit:10;stroke-width:10px;opacity:0.54;}.cls-15,.cls-17,.cls-19{mix-blend-mode:overlay;}.cls-16{mask:url(#mask-2);}.cls-17{fill:url(#linear-gradient-2);}.cls-18{opacity:0.34;fill:url(#linear-gradient-3);}.cls-19{opacity:0.33;fill:url(#radial-gradient);}.cls-20,.cls-21{opacity:0.27;}.cls-20{fill:url(#linear-gradient-4);}.cls-21{fill:url(#linear-gradient-5);}.cls-22{fill:#acb5bc;}.cls-23{fill:#c2c9ce;}.cls-24{fill:#f2e9dd;}.cls-25{fill:#f2ebe7;}.cls-26{opacity:0.12;fill:url(#linear-gradient-6);}.cls-27{fill:#9ecee2;}.cls-28{filter:url(#luminosity-noclip-2);}.cls-29{filter:url(#luminosity-noclip);}</style><filter id="luminosity-noclip" x="101.56" y="-8442" width="216.53" height="32766" filterUnits="userSpaceOnUse" color-interpolation-filters="sRGB"><feFlood flood-color="#fff" result="bg"/><feBlend in="SourceGraphic" in2="bg"/></filter><mask id="mask" x="101.56" y="-8442" width="216.53" height="32766" maskUnits="userSpaceOnUse"><g class="cls-29"/></mask><linearGradient id="linear-gradient" x1="141.19" y1="255.72" x2="329.77" y2="32.3" gradientUnits="userSpaceOnUse"><stop offset="0" stop-color="#fff"/><stop offset="1"/></linearGradient><clipPath id="clip-path" transform="translate(-86.34 -51.49)"><rect class="cls-3" width="500" height="500"/></clipPath><clipPath id="clip-path-2" transform="translate(-86.34 -51.49)"><path class="cls-4" d="M296.25,299c-4.11,2.12-7.26,10.46-9,14.5-1.84,4.26-4.46,9.14-5.21,13.76-.52,3.19-.28,8.55,2.55,10.5,4.37,3,14.44,3,19,.51,8.61-4.79,13.41-14.38,20.29-20.94,3.08-2.93,5.38-7.61,8.87-10,1.93-1.33,5.06-1.39,7.41-1.31,2.73.1,4.5,1.28,6.9,2.71S361,320.68,362.5,323c.81,1.22,2.16,13.81,2.34,15.21.42,3.24-7.19-11.8-6.35-8.64,1.24,4.7,2.83,9.14,4.5,13.69,1,2.81,2.08,5.71,3,8.47,2.33,7,7.81,12.7,12,18.68,6.27,9,13.26,17.49,21.9,24.25,7.53,5.89,19.92,15.46,29.88,10.74,6.26-3,13.89-9.8,16.27-16.66a6.7,6.7,0,0,0,.19-3.12c-.4-1.44-2.21-2.88-3.1-4-1.44-1.9,10.76,6.84,9.45,4.82-8.06-12.46-19.32-33.35-31.57-51.65-9.32-13.92-10.48-15.16-18.84-29.65-1.68-2.91-6.76-10.35-13.16-14.6-2.15-1.43-4.66-3.86-7.24-4.19-8.44-1.1-16-4.5-23.91-7.23-5.3-1.82-10.31-3.11-15.33-5.84-2.58-1.41-5.18-2.89-8.09-4.25s-6.66-2.62-9.64-1.7c-4,1.23-7.12,5.87-9.77,8.81-4.25,4.73-9,8.92-13,13.87C300.5,291.83,296.08,295.37,296.25,299Z"/></clipPath><filter id="luminosity-noclip-2" x="101.56" y="66.14" width="216.53" height="216.53" filterUnits="userSpaceOnUse" color-interpolation-filters="sRGB"><feFlood flood-color="#fff" result="bg"/><feBlend in="SourceGraphic" in2="bg"/></filter><mask id="mask-2" x="15.23" y="14.65" width="216.53" height="216.53" maskUnits="userSpaceOnUse"><g class="cls-28"><g transform="translate(-86.34 -51.49)"><g class="cls-1"><path class="cls-2" d="M209.83,66.14A108.27,108.27,0,1,0,318.09,174.4,108.26,108.26,0,0,0,209.83,66.14ZM210,280.81A106.41,106.41,0,1,1,316.45,174.4,106.42,106.42,0,0,1,210,280.81Z"/></g></g></g></mask><linearGradient id="linear-gradient-2" x1="141.19" y1="255.72" x2="329.77" y2="32.3" gradientUnits="userSpaceOnUse"><stop offset="0" stop-color="#fff"/><stop offset="1" stop-color="#fff"/></linearGradient><linearGradient id="linear-gradient-3" x1="223.6" y1="188.11" x2="100.12" y2="63.3" gradientUnits="userSpaceOnUse"><stop offset="0.01" stop-color="#fff"/><stop offset="0.15" stop-color="#eee8fe"/><stop offset="0.36" stop-color="#dacbfd"/><stop offset="0.58" stop-color="#cbb7fc"/><stop offset="0.79" stop-color="#c2abfb"/><stop offset="1" stop-color="#bfa7fb"/></linearGradient><radialGradient id="radial-gradient" cx="239.58" cy="98.82" r="195.11" gradientTransform="translate(190.94 -99.52) rotate(45)" gradientUnits="userSpaceOnUse"><stop offset="0.01" stop-color="#fff"/><stop offset="0.1" stop-color="#faf8f5"/><stop offset="0.25" stop-color="#ede4da"/><stop offset="0.45" stop-color="#d8c4ad"/><stop offset="0.69" stop-color="#bb976f"/><stop offset="0.96" stop-color="#965f22"/><stop offset="1" stop-color="#8f5514"/></radialGradient><linearGradient id="linear-gradient-4" x1="148.2" y1="106.16" x2="144.34" y2="123.6" gradientUnits="userSpaceOnUse"><stop offset="0.02" stop-color="#fff"/><stop offset="1" stop-color="#fff"/></linearGradient><linearGradient id="linear-gradient-5" x1="134.27" y1="135.38" x2="121.91" y2="191.21" xlink:href="#linear-gradient-4"/><linearGradient id="linear-gradient-6" x1="134.18" y1="197.45" x2="304.71" y2="197.45" gradientTransform="translate(-52.61 82.86) rotate(-19.41)" xlink:href="#linear-gradient-4"/></defs><title>magnifying-glass</title><g class="cls-5"><g id="OBJECT"><g class="cls-6"><path class="cls-4" d="M290.06,305.43c-3.86,2.54-6.11,11.16-7.42,15.37-1.37,4.43-3.46,9.56-3.72,14.24-.17,3.23.63,8.53,3.66,10.16,4.65,2.53,14.67,1.5,18.91-1.49,8.05-5.67,11.81-15.72,18-23,2.75-3.24,4.55-8.14,7.76-10.9,1.78-1.53,4.88-1.92,7.23-2.09,2.72-.19,4.61.8,7.14,2s15.13,10.42,16.9,12.57c.93,1.13,3.61,13.5,3.94,14.88.75,3.17-8.4-11-7.23-7.92,1.73,4.54,3.78,8.79,5.93,13.14,1.32,2.68,2.66,5.45,3.87,8.1,3.06,6.7,9.12,11.8,13.9,17.31,7.19,8.28,15,16,24.35,21.79,8.1,5.06,21.44,13.27,30.85,7.51,5.91-3.61,12.77-11.21,14.41-18.29a6.74,6.74,0,0,0-.14-3.12c-.55-1.39-2.5-2.63-3.51-3.69-1.63-1.73,11.42,5.66,9.91,3.8-9.34-11.54-22.75-31.12-36.86-48-10.74-12.86-12-14-21.88-27.49-2-2.71-7.82-9.57-14.63-13.12-2.29-1.2-5-3.35-7.64-3.41-8.51-.19-16.35-2.78-24.54-4.65-5.47-1.25-10.58-2-15.86-4.19-2.72-1.12-5.46-2.32-8.51-3.37s-6.89-1.89-9.76-.67c-3.84,1.65-6.46,6.59-8.78,9.8-3.72,5.16-8,9.83-11.48,15.17C293.53,297.85,289.5,301.84,290.06,305.43Z" transform="translate(-86.34 -51.49)"/><path class="cls-4" d="M296.25,299c-4.11,2.12-7.26,10.46-9,14.5-1.84,4.26-4.46,9.14-5.21,13.76-.52,3.19-.28,8.55,2.55,10.5,4.37,3,14.44,3,19,.51,8.61-4.79,13.41-14.38,20.29-20.94,3.08-2.93,5.38-7.61,8.87-10,1.93-1.33,5.06-1.39,7.41-1.31,2.73.1,4.5,1.28,6.9,2.71S361,320.68,362.5,323c.81,1.22,2.16,13.81,2.34,15.21.42,3.24-7.19-11.8-6.35-8.64,1.24,4.7,2.83,9.14,4.5,13.69,1,2.81,2.08,5.71,3,8.47,2.33,7,7.81,12.7,12,18.68,6.27,9,13.26,17.49,21.9,24.25,7.53,5.89,19.92,15.46,29.88,10.74,6.26-3,13.89-9.8,16.27-16.66a6.7,6.7,0,0,0,.19-3.12c-.4-1.44-2.21-2.88-3.1-4-1.44-1.9,10.76,6.84,9.45,4.82-8.06-12.46-19.32-33.35-31.57-51.65-9.32-13.92-10.48-15.16-18.84-29.65-1.68-2.91-6.76-10.35-13.16-14.6-2.15-1.43-4.66-3.86-7.24-4.19-8.44-1.1-16-4.5-23.91-7.23-5.3-1.82-10.31-3.11-15.33-5.84-2.58-1.41-5.18-2.89-8.09-4.25s-6.66-2.62-9.64-1.7c-4,1.23-7.12,5.87-9.77,8.81-4.25,4.73-9,8.92-13,13.87C300.5,291.83,296.08,295.37,296.25,299Z" transform="translate(-86.34 -51.49)"/><g class="cls-7"><path class="cls-8" d="M337,307c-.11-3.83-1.13-7.3.37-11,1.23-3.08,3.8-5.54,6.3-7.65.65,3.31-2.33,7.66-3,11-.78,3.73-.54,7.39-.67,11.16C339.15,310.34,338.6,310,337,307Z" transform="translate(-86.34 -51.49)"/><path class="cls-8" d="M360.12,325.35c-.65-4.17,6.56-9.55,9.63-11.24,3.36-1.84,6.93-2.34,10.59-2.73-.64,1.77-4.28,1.88-5.9,2.8a32.29,32.29,0,0,0-8.46,8c-1,1.37-1.35,3.22-2.58,4.23C361.49,328,361.09,326.91,360.12,325.35Z" transform="translate(-86.34 -51.49)"/><path class="cls-9" d="M307.5,275.75c2.14-1,5.86-2.06,8.37-1.64,3.39.56,4.37,4,6.18,7.17,2.92,5.13,5.73,14.81,11.6,17.51,3.88,1.79,8.65,1.62,12.74,2.82a43.53,43.53,0,0,1,14.13,7.78c4,3.58,6,10.3,8.67,15.06,3.66,6.44,8.55,12.23,12.14,18.6,3.33,5.89,5.5,14.87,3.24,21.49-1.63-.71-3-2.25-4.22-3.41-5-4.59-10.21-8.85-15.24-13.36-10.18-9.12-20-18.61-30.16-27.78-6.22-5.62-13.19-12.31-16.71-20.11-1.78-4-3-8.11-5.29-11.83-1.39-2.25-2.08-5-3.45-7.05" transform="translate(-86.34 -51.49)"/></g><path class="cls-10" d="M347,424.68c.89,3.91,1.23,7.86,4.08,10.92,3.3,3.55,8.7,4.31,13.17,5.43,10.1,2.52,20,3.46,30.19.14,2.6-.85,7.46-2.38,7.92-5.66.62-4.45-7-10-10-12.11C378.39,413.92,363.27,417.06,347,424.68Z" transform="translate(-86.34 -51.49)"/><path class="cls-11" d="M340.77,429.33c1.82,2.47,7,1.44,9.49,1.56a131.78,131.78,0,0,1,19.13,1.82c5.45,1.07,10.85,2.57,16.44,2.65,2.78,0,6.26-.38,7.14-3.43,1-3.56-3.21-8.72-5.11-11.35C381,411,356.3,394.9,345.16,400.39,338.18,403.83,337.88,420.52,340.77,429.33Z" transform="translate(-86.34 -51.49)"/><path class="cls-12" d="M317.55,335.94c.79,3.7-.63,19.1-.8,22.88-.3,6.26-.25,12.43-.11,18.69.12,5.18.58,10.44.86,15.6.17,3.18-.07,6.41.51,9.54.73,4,3.31,5,6.78,6.69,9,4.54,19.43,7.91,29.21,10.41,3.91,1,9.1,1.94,12.95-.08,6.08-3.19,6.64-9.73,5.48-15.69-2.68-13.73-10.79-27-20.37-37-8-8.33-16.58-17.26-26.92-22.52" transform="translate(-86.34 -51.49)"/><path class="cls-13" d="M348.71,400.5c-.79,3.55-3.11,11-1.16,14.65,1.78,3.32,9.52,4.15,12.79,4.22,4,.08,8-.63,8.87-5.19C370.89,405.62,358,398.8,348.71,400.5Z" transform="translate(-86.34 -51.49)"/><path class="cls-14" d="M209.69,51.49A123.36,123.36,0,1,0,333.05,174.85,123.35,123.35,0,0,0,209.69,51.49Zm0,231.22A107.87,107.87,0,1,1,317.55,174.85,107.86,107.86,0,0,1,209.69,282.71Z" transform="translate(-86.34 -51.49)"/><path class="cls-15" d="M209.83,66.14A108.27,108.27,0,1,0,318.09,174.4,108.26,108.26,0,0,0,209.83,66.14ZM210,280.81A106.41,106.41,0,1,1,316.45,174.4,106.42,106.42,0,0,1,210,280.81Z" transform="translate(-86.34 -51.49)"/><g class="cls-16"><path class="cls-17" d="M209.83,66.14A108.27,108.27,0,1,0,318.09,174.4,108.26,108.26,0,0,0,209.83,66.14ZM210,280.81A106.41,106.41,0,1,1,316.45,174.4,106.42,106.42,0,0,1,210,280.81Z" transform="translate(-86.34 -51.49)"/></g><path class="cls-18" d="M316.29,173.93A106.72,106.72,0,1,1,209.58,67.22,106.71,106.71,0,0,1,316.29,173.93Z" transform="translate(-86.34 -51.49)"/><circle class="cls-19" cx="215.6" cy="180.73" r="97.38" transform="translate(-150.98 153.9) rotate(-45)"/><path class="cls-20" d="M149.5,103.73a89,89,0,0,0-16.85,18.76l10,5.77a88.83,88.83,0,0,1,16.48-17.57Z" transform="translate(-86.34 -51.49)"/><path class="cls-21" d="M130.47,125.85c-.64,1-1.26,2.09-1.88,3.18-8.92,15.8-17.44,41.92-8.74,77.81l10-.64c-10.14-32.7-.38-58.24,10.52-74.65Z" transform="translate(-86.34 -51.49)"/><rect class="cls-14" x="311.16" y="252.88" width="31.42" height="128.8" transform="translate(-212.75 220.53) rotate(-38.45)"/><rect class="cls-22" x="362.89" y="290.41" width="41.48" height="190.82" transform="translate(-243.06 270.68) rotate(-38.45)"/><rect class="cls-23" x="372.06" y="299.93" width="15.79" height="177.61" transform="translate(-245.66 269.03) rotate(-38.45)"/><path class="cls-9" d="M337,385.16c-2.89.21-7.08,4.72-8.54,7.06-1.22,1.95-2.05,4-1.56,6.3,1.79.6,3.49-2.72,4.84-3.77,1.9-1.48,5.17-3.59,7.28-2.37.93.53,1.73,2.73,2.39,3.63a47.13,47.13,0,0,0,3.73,4.38,45.11,45.11,0,0,0,5.76,5.56,49.37,49.37,0,0,0,9.65,5.27c.21-1.59-.79-3.34-1.39-4.78a108.46,108.46,0,0,0-8.68-15.77c-5.26-8.41-10.38-17.41-17-24.87-2.2-2.48-4.67-4.79-6.18-7.76a34.72,34.72,0,0,0-2.16-4c-2.18,7.18.24,18,3.92,24.22,1,1.78,2.6,3.13,3.69,4.79C333.51,384.19,333.76,385.45,337,385.16Z" transform="translate(-86.34 -51.49)"/><path class="cls-4" d="M324.19,369.51c-6.4-13.72-9.07-19.52,5.06-27.36,12.35-6.84,20.48,3.49,29.77,12.39,14.66,14,17.28,27.27,37.57,34,16.7,5.55,31.83-21.39,48.29-25.65,8.65,13.05,34.92,38.66,37.57,54,1.48,8.58-3.08,8.52-10.07,14.68-12.43,11-29.93,29.06-46,34-6.62,2-6.81.61-13.46-1.35-24.48-7.2-29.32-30-41.27-42.18-11-11.21-21.5-19-30.8-31.5C336.25,384.47,329.79,378.63,324.19,369.51Z" transform="translate(-86.34 -51.49)"/><path class="cls-13" d="M333.08,373.44a3.94,3.94,0,0,1-3.64-2.59c-1.33-3.43-4.53-7-5.48-10.34-.71-2.46-1.8-6.45-1.4-9.08.78-5.1,7.67-7.35,11.68-8.13,6.69-1.3,11.65,4.11,16.23,8.21s5.21,8.15,2.07,12.77C349.05,369.42,341,373.48,333.08,373.44Z" transform="translate(-86.34 -51.49)"/><path class="cls-3" d="M333.28,373.44c.66-3.39.71-6.3,3.93-9.09,4-3.43,11-5.62,16.25-5.47a9.15,9.15,0,0,1,1,.09c.05-2.59-1.28-5.06-4-7.46-4.58-4.1-9.54-9.51-16.23-8.21-4,.78-10.9,3-11.68,8.13-.4,2.63.69,6.62,1.4,9.08,1,3.31,4.15,6.91,5.48,10.34a3.94,3.94,0,0,0,3.64,2.59Z" transform="translate(-86.34 -51.49)"/><path class="cls-24" d="M337.21,364.35c-3.22,2.79-3.27,5.7-3.93,9.09,7.89,0,15.8-4.06,19.26-9.16a9.73,9.73,0,0,0,1.9-5.31,9.15,9.15,0,0,0-1-.09C348.23,358.73,341.17,360.92,337.21,364.35Z" transform="translate(-86.34 -51.49)"/><path class="cls-25" d="M486.77,414.21c-13,10.27-26.85,19.46-40.24,29.24-8.59,6.28-16.16,13.79-24.5,20.14-2.08,1.59-7.64,4.7-7.67,7,0,1,3.49,5.09,4,5.76,1.73,2.23,3.57,4.37,5.32,6.57,2.34-.54,4.65-2.82,6.64-4.06,5.64-3.52,11.48-6.79,17.19-10.19,8.85-5.29,16.57-11.52,24.44-18.09,7.68-6.42,16-12.52,24.1-18.09,3-2.07,5.2-3,4.5-6.42C499.46,420.7,494.14,416.2,486.77,414.21Z" transform="translate(-86.34 -51.49)"/><path class="cls-22" d="M417,485c3.89-4.34,10.52-7.74,15.13-11.5,7.08-5.78,13.92-11.85,20.59-18.09,4.83-4.53,9.52-9.32,14.83-13.28,3.43-2.55,7.1-4.65,10.35-7.38,4.54-3.81,9.63-7,14.14-10.86,2.51-2.14,5-4.85,7.79-6.51,8.54,13.6,18.52,25.8,28.81,38.07,6.46,7.69,12.62,15.51,18.58,23.6,3.23,4.38,5.72,10.09,9.37,14-2.93,2-5.38,4.54-8.2,6.64-6.93,5.19-14.75,9.38-22,14.06-15.84,10.17-31.82,20.07-48.93,28-3.64,1.68-9.19,5.56-13.17,6.17-2.88.44-2.88-.4-4.9-3.11-10.21-13.65-16-30.1-26.26-43.82-2.86-3.84-6.15-8.06-9.34-11.65C422.67,488.14,421.19,487.44,417,485Z" transform="translate(-86.34 -51.49)"/><path class="cls-26" d="M262.09,109.24q.89,2.15,1.67,4.36a85.33,85.33,0,0,1-128.41,99A85.33,85.33,0,1,0,262.09,109.24Z" transform="translate(-86.34 -51.49)"/></g><circle class="cls-27" cx="338.46" cy="419.01" r="3.36"/></g></g></svg>