<svg xmlns="http://www.w3.org/2000/svg" xmlns:xlink="http://www.w3.org/1999/xlink" viewBox="0 0 1439.24 710.59"><defs><style>.cls-1,.cls-101,.cls-84,.cls-85,.cls-87,.cls-88,.cls-89{fill:none;}.cls-2{fill:#6ab5a5;}.cls-3{fill:#5a9e8e;}.cls-4{fill:#312c34;}.cls-5{fill:#555057;}.cls-6{fill:#6b676c;}.cls-7{fill:#6a656c;}.cls-8{fill:#544f55;}.cls-9{fill:#8e8a8f;}.cls-10{fill:#8e8b8f;}.cls-11{fill:#8a878b;}.cls-12{fill:#89868a;}.cls-13{fill:#9a979b;}.cls-14{fill:#908d91;}.cls-15{fill:#929194;}.cls-16{fill:#838084;}.cls-17{fill:#7a767b;}.cls-18{fill:#88858a;}.cls-19{fill:#8f8c8f;}.cls-20{fill:#9c999c;}.cls-21{fill:#848085;}.cls-22{fill:#918e92;}.cls-23{fill:#dcb06f;}.cls-24{fill:#eee;}.cls-25{fill:#94713f;}.cls-26{fill:#c1bdb8;}.cls-27{fill:#a0845a;}.cls-28{fill:#b38d51;}.cls-29{fill:#bcbcbc;}.cls-30{fill:#c7c7c7;}.cls-31{fill:#cba060;}.cls-32{fill:#a6a6a6;}.cls-33{fill:#bd9252;}.cls-34{fill:#b68d51;}.cls-35{fill:#b9b9b9;}.cls-36{fill:#bfbfbf;}.cls-37{fill:#bdbbb4;}.cls-38{fill:#a8a8a8;}.cls-39{fill:#ececec;}.cls-40{fill:#c9c9c9;}.cls-41{fill:#d2d2d2;}.cls-42{fill:#d1d2d2;}.cls-43{fill:#cecece;}.cls-44{fill:#c8c8c8;}.cls-45{fill:#c6c6c6;}.cls-46{fill:#d8ad6d;}.cls-47{fill:#d9ae6e;}.cls-48{fill:#daaf6f;}.cls-49{fill:#b58a4c;}.cls-50{fill:#b78c4c;}.cls-51{fill:#c69c5c;}.cls-52{fill:#f9ebc5;}.cls-53{fill:#93cc1d;}.cls-54{fill:#f3542d;}.cls-55{fill:#f4532d;}.cls-56{fill:#7f6368;}.cls-57{fill:#67b22f;}.cls-58{fill:#c7442b;}.cls-59{fill:#e3d4af;}.cls-60{fill:#e4d5b1;}.cls-61{fill:#7b6361;}.cls-62{fill:#836862;}.cls-63{fill:#bdbdbd;}.cls-64{fill:silver;}.cls-65{fill:#cacaca;}.cls-66{fill:#fafafa;}.cls-67{fill:#d9f1f8;}.cls-68{fill:#a5dbe7;}.cls-69{fill:#addee9;}.cls-70{fill:#b7e6e7;}.cls-71{fill:#a4dae9;}.cls-72{fill:#cce8ef;}.cls-73{fill:#bbe4ea;}.cls-74{fill:#cae9ef;}.cls-75{fill:#c1e8f3;}.cls-76{fill:#bbe5f5;}.cls-77{fill:#c3eaed;}.cls-78,.cls-86{fill:#4f6060;}.cls-78{stroke:#cecece;stroke-width:3px;}.cls-101,.cls-104,.cls-78,.cls-84,.cls-85,.cls-87,.cls-88,.cls-89,.cls-97{stroke-miterlimit:10;}.cls-79{fill:#d1a588;}.cls-80{fill:url(#linear-gradient);}.cls-81{fill:#85ccbb;}.cls-82{clip-path:url(#clip-path);}.cls-83{fill:#a9a6a2;}.cls-84,.cls-87{stroke:#4f6060;}.cls-84{stroke-width:0.87px;}.cls-85{stroke:#ad5364;stroke-width:0.87px;}.cls-86,.cls-90,.cls-91{font-size:6.97px;font-family:ProximaNova-Bold, Proxima Nova;font-weight:700;}.cls-87{stroke-width:0.55px;}.cls-88,.cls-89{stroke:#c1a174;}.cls-88{stroke-width:0.9px;}.cls-89{stroke-width:0.89px;}.cls-90{fill:#c1a174;}.cls-91{fill:#ad5364;}.cls-92{fill:#acb5bc;}.cls-93{fill:#f9e8d5;}.cls-94{fill:#f7cebb;}.cls-95{fill:#edeeef;}.cls-96{fill:#9ecee2;}.cls-97{stroke:#000;fill:url(#radial-gradient);}.cls-104,.cls-97{stroke-width:0.88px;}.cls-98{fill:url(#radial-gradient-2);}.cls-99{fill:#ebbea1;}.cls-100{opacity:0.3;}.cls-101,.cls-104{stroke:#fff;}.cls-101{stroke-width:0.87px;}.cls-102{fill:#fff;}.cls-103{fill:#333;}.cls-104{fill:red;}</style><linearGradient id="linear-gradient" x1="814.77" y1="312.65" x2="1036.54" y2="534.42" gradientUnits="userSpaceOnUse"><stop offset="0"/><stop offset="0.5" stop-color="#4d4d4d"/><stop offset="1"/></linearGradient><clipPath id="clip-path"><rect class="cls-1" x="790.7" y="353.78" width="267.58" height="138.68"/></clipPath><radialGradient id="radial-gradient" cx="1068.3" cy="426.48" r="10.35" gradientTransform="translate(-2.48)" gradientUnits="userSpaceOnUse"><stop offset="0.55" stop-color="#4d4d4d"/><stop offset="1"/></radialGradient><radialGradient id="radial-gradient-2" cx="777.65" cy="446.56" r="51.8" gradientTransform="matrix(0, 1, -0.32, 0, 919.17, -331.77)" xlink:href="#radial-gradient"/></defs><title>photo-lookup</title><g id="Layer_3" data-name="Layer 3"><rect class="cls-2" x="1.79" width="1438.37" height="710.59"/><path class="cls-3" d="M641,376c-4.12,3.82-15.29,14.17-14.13,27.05,1.3,14.45,17.43,24.34,24.68,28.65,96.11,57.24,282,60.09,282,60.09,84.78,2.12,140.51,2.91,201.66-25,15.26-6.95,88.41-38,83.4-71.68-3.74-25.12-49.09-39.43-83.07-49.78-62.86-19.15-116.68-20.94-202-19.48C921.53,326.11,689.56,331,641,376Z"/></g><g id="Layer_4" data-name="Layer 4"><path class="cls-4" d="M1046.9,202.86c-12.09-9.86-23.05-20.77-31.1-34.3-1.75-2.94-4.53-6.5-1.8-9.4,1.43-1.51,5.91-1.33,8.44-.38,9.45,3.53,17.83.66,25.71-3.92,8.79-5.1,14.93-3.29,19.34,5.6a9.37,9.37,0,0,1,2.26,3.81c.61,2-.68,3.87-.33,5.84.91-1.52.8-3.29,1.13-4.94.84-4.11,3.65-7,6-10.25,11.24-6.4,24.34-4.12,32.6,5.68-2.13,3.92-3.57,8.17-6.19,11.88-2,2.8-4.66,4.8-8.31,8.33,8.21-6.72,15.65-9.27,24.27-5.25,6.65.61,12.51,3.13,18.75,8-15.44,8.55-32.26,11.09-47.7,17.22-4.14,1.64-8,3.08-7.6,9.36.36,6.55,5.1,5.26,8.41,6.16,53,14.45,78.14,44.35,82.24,99.63,1.85,25,1.75,50.2,2.88,75.28.7,15.63-7.19,24.72-21.42,28.43a97.48,97.48,0,0,1-23.82,3q-66.32.36-132.65,0c-23-.16-35.62-10.06-36-33.3-.74-47.77,3.44-95.28,23.37-139.68,11.59-25.82,35.49-32,60.72-35a4.2,4.2,0,0,1,1.58,3.62c-.22,4.71-3,7.62-6.87,9.77-3.94.81-8,1.15-11.65,3.18-29.51,11.44-43.06,33.53-46.07,64.55-2.38,24.4-9.37,48.29-8.4,73.15.36,9.21,1.87,18,6.3,26.1,5.23,9.54,21.77,15.27,31.67,11.61,6.19-2.29,3.26-6,2.22-9.72-5.29-18.76-17.88-33.32-28.46-49-8.79-13-9.13-17.9.42-26.47,8.36.14,10.88,9,17.56,11.69,1.71.51,2.57,2.83,4.8,2.3-1.57-.13-2.55-1.36-3.9-2.06-5.5-3.39-10.7-7-12.79-13.49.17-9,3.75-17,6.62-25.23,10.72-6.63,9.53,9.23,15.57,7.73a59.34,59.34,0,0,1-12.38-15.43,10.32,10.32,0,0,1,.11-4.25c1.36-2.92,4-6.06,6.77-4.68,18.45,9.24,40.47-.66,59,12.84,9,6.6,15.5,11.31,15.18,22.83-.16,5.43-.38,12,5.56,14.57s10.28-2.48,14.46-5.87a102,102,0,0,0,13.83-13.82c2.62-3.13,5.82-7,4-10.79-5.27-11-6.74-21.66-1.79-33.22,1.84-4.31-1.78-6.44-5.8-6.51-13.14-.25-15.88-8-14.2-19.11-1.09-5.84-5.7-8.2-10.37-10.5-8.48-2.73-17.25-3.18-26-3.6-5.23-.25-11,.65-14.51-4.84,1.36-7.84,7.9-10.95,13.16-15.1C1057.17,203.57,1050.79,211.46,1046.9,202.86Z"/><path class="cls-5" d="M1046.84,218l-.72-3.41.78-11.72c7.94,4.8,16.23-8.79,25.48,1.49-10.33,1.45-15,10.26-23.36,13.61C1048.31,219.16,1047.58,219.17,1046.84,218Z"/><path class="cls-6" d="M1118.92,175.56c-10.43-1.21-18.42,5.68-31.55,10.56,9.48-10.28,13.25-19.74,21.78-25.52C1110.6,166.77,1111.09,173.56,1118.92,175.56Z"/><path class="cls-7" d="M1076.55,154.92c-1.5,6.66-3,13.34-9.06,21.1V160.46Z"/><path class="cls-8" d="M1046.84,218l2.19,0c11.79,5.87,24.69,2.3,37,4.06,3.93.56,5,1.79,5.45,5,4.19,2.86,7.83,6.43,12.12,9.16-3.09,13.84.65,21.05,16.49,18.22,6.7-1.19,7.41,2.76,4.94,8.33-4.65,10.47-11,21,1,31.27,2.4,2.05,1.62,5.69,0,8.47-8,13.84-19.55,24.1-33.19,32-5,2.89-8.2-.94-10.69-5.25-3.51-6.08-2.75-12.66-2.64-19.13.13-7.22-1.88-10.94-9.73-14.18-15.21-6.28-29.17-15.07-46.69-8.62-4,1.48-7.54-1.82-10.4-4.85-4.26-4.54-6.87-2.14-8.95,2.23-2.46,1.17-3.91-1-5.8-1.75a28.8,28.8,0,0,1,4.21,6.9,4,4,0,0,1-1.15,3.67c1.09,9.77-4.59,18-6.1,27.2-1.61,1.55-4.38.65-5.73,2.71-12.25,5.26-6.76,14.53-1.77,19.14,12.07,11.17,15.06,28,27.16,39.19,5.31,4.91,2.84,15.13,8.87,22.13,3.64,4.22-3.41,6.57-8,7.25-27.92,4.13-43.42-9.28-44.68-38.09-1-23.71,3-46.8,7.27-69.92,2.59-14.15,2.88-28.57,10.11-41.93,9.72-18,23.69-29.25,43.46-33.64,2.71,2.45-.07,5.36.61,8.19.58-5.2,5.12-6.78,8.09-9.69Z"/><path class="cls-8" d="M1145.79,317.36c.12-2.07.23-4.15.34-6.22,2.33-1.75,3.26-5,6.29-6,16.69-.5,16.56,13.27,16.95,23.11,1,25-6.79,49.24-9.38,74-.57,5.45-5.87,9.84-11.35,11-8.72,1.93-17.72,2.7-26.64,3.6-4.59.46-9.4,0-11.55-5-2-4.64-.52-8.95,3.13-12.27,10.94-10,14.3-20.81,6.63-34.83-2.54-4.65-1-11.5-1.4-17.35a66.73,66.73,0,0,0,18.72-18.79C1140.21,324.86,1142.68,320.87,1145.79,317.36Z"/><path class="cls-9" d="M1044.74,190.37c-8.55-5.48-9.86-13.68-13.63-21.13C1038.5,171.86,1039.35,173.19,1044.74,190.37Z"/><path class="cls-10" d="M1139.57,329.55c-5.56,7.55-10.61,15.69-20.76,17.92l17.77-21.21C1138.45,326.57,1138.72,328.33,1139.57,329.55Z"/><path class="cls-11" d="M989.16,323.34c-.17-1.63-.33-3.27-.5-4.91l6.23,2.2,12.32,11.88a4.79,4.79,0,0,1-3,2.67Z"/><path class="cls-12" d="M1001,293.43l.54-3.25a3.44,3.44,0,0,1,2.23-2.28c6.74,3.64,9.64,10.51,16.67,17C1009.55,304.41,1007.37,295.71,1001,293.43Z"/><path class="cls-11" d="M1040.29,226l-9.82,15.95c-4.47-6.49,1.18-10.18,1.12-14.46A7.92,7.92,0,0,1,1040.29,226Z"/><path class="cls-11" d="M1003.76,287.9l-2.23,2.29c-5.48-3.78-7.21-9.57-7.67-16.41l9.87,10.83Z"/><path class="cls-13" d="M1004.18,335.18l3-2.67c3.82,2.06,8.07,3.52,10.87,8.05C1011.49,343,1008.29,337.82,1004.18,335.18Z"/><path class="cls-14" d="M1139.57,329.55c-1-1.09-2-2.19-3-3.29,2.11-4,3.26-8.92,9.21-8.9C1145.78,322.48,1142.09,325.72,1139.57,329.55Z"/><path class="cls-15" d="M1103.59,236.17c-6.59.32-9.43-4.31-12.12-9.16C1098.49,226.12,1101,231.26,1103.59,236.17Z"/><path class="cls-16" d="M1152.42,305.16c-.75,3.4-2.1,6.19-6.29,6,.23-4,.47-7.91,4.9-9.76Z"/><path class="cls-17" d="M1033.53,346.22c-2.63.92-3.82,1.7-5,1.64-1.64-.08-4.25.55-4.1-2.32,0-.78,2-2.14,3-2C1029.1,343.74,1030.66,344.88,1033.53,346.22Z"/><path class="cls-18" d="M999.74,377.76c-9.25-1.23-14.15-7.39-17.8-14.93C991.27,363.79,994.9,371.39,999.74,377.76Z"/><path class="cls-19" d="M1079.29,232.46c9.45,7.65,10.19,17.39,7.22,28Q1082.9,246.47,1079.29,232.46Z"/><path class="cls-20" d="M1058.67,247.8V228.4c4.38,4.81,2.37,9.34,3,13.42C1062.58,244.78,1064.48,248.21,1058.67,247.8Z"/><path class="cls-21" d="M1058.67,247.8l3-6c2.81,3.11,4.17,7.22,1.27,10.1C1061.28,253.55,1059.22,250.24,1058.67,247.8Z"/><path class="cls-22" d="M1153.93,339.52c.57,9-4.77,13.32-12.85,15.4Q1147.5,347.23,1153.93,339.52Z"/><path class="cls-1" d="M814.36,261.92c-.11-.41-.23-.79-.35-1.13a10.82,10.82,0,0,1,1.24.84C815,261.74,814.66,261.82,814.36,261.92Z"/><path class="cls-1" d="M840.73,355.07h.65c0,.27-.07.54-.08.79a6.67,6.67,0,0,1-.55-.52A2.45,2.45,0,0,1,840.73,355.07Z"/><path class="cls-23" d="M778.89,279.67c-1.59-.43-3.19-.76-4.79-1.05A12,12,0,0,1,778.89,279.67Z"/><path class="cls-23" d="M649.08,267c11,3.32,21.87,7.25,33,9.74,6.78,1.51,8.19,4.7,8.14,10.93-.26,29.56-.22,59.14,0,88.71,0,3.42-2.17,7.6,2,10.38h0c2.32-2.75,5.52-2,8.45-2q62.86,0,125.73.14c.21-3.76.43-7.52.64-11.28h0q-.06-3.58-.1-7.17,0-25.08,0-50.16a16.89,16.89,0,0,1,2-11.31c-2.74-1.68-2.06-4.37-2-6.86v-4.59h0l.06-9.05c-.9-5.34,1.66-7.28,6.69-6.79h0l31.85-9.07h0c1.4-1.67,5.77-.56,4.48-4.77l-4.47-2h0c-23.06-9.84-43.08,2.54-63.94,8.76,5.61,3.69,13.49,2.78,19,8.85H799.1l-20.21.16H695.47c6.52-6.45,14.6-4.46,19.73-9.3h0c-13.68-4.25-27.17-9.36-41.12-12.44C665.25,256,657,260.84,649.08,267Zm143.23,98.85c.94-10.47.2-21.08.2-31.64,0-22.6,0-22.6,22.72-22.3h0c5.76,6.49.76,13.59,1,20.38.57,14.44,3,29-.87,43.32h0a3.24,3.24,0,0,1,.34,1.07c0,.28-.31.79-.51.8-3.34.19-6.72.05-10,.52C795.69,379.38,791.36,376.4,792.31,365.87Z"/><path class="cls-24" d="M858.69,252.47l1,.67A4.66,4.66,0,0,1,858.69,252.47Z"/><path class="cls-24" d="M834,366.58l-.57,6.71c27,0,53.92-.25,80.87.32,8.82.18,10.77-3,10.73-11.2q-.47-84.86,0-169.71c0-8.38-2.22-11.16-10.87-11.07-41.38.41-82.77.47-124.15,0-9.42-.11-11.5,3.16-11.31,11.81.51,23.52.2,47.07.22,70.61,11.78-1.32,23.87,1.85,35.48-2.09-.11-.41-.23-.79-.35-1.13-7.52-4.53-17.3,1.78-24.48-5.88h44a16.52,16.52,0,0,0-2,.54,17,17,0,0,0,2-.54c4.55-1.17,9.74,1.46,13.87-2.31-13.51-5-27.53-1.11-41.25-2.35-5.61-.5-11.54,1.19-16.8-2.9a669.81,669.81,0,0,1,69.38-1.28c7.94.29.65,4.12.07,6.33h0l-.15.07c5.71.62,7.45-2.45,6.89-7.51-.72-6.51,2.29-8.64,8.58-8.44q16.47.51,33,0c6.27-.19,8.9,1.94,8.69,8.45-.35,11-.43,22,0,33,.3,7.18-2.69,9.19-9.39,8.91a248.64,248.64,0,0,0-29.53.07c-9.07.7-12.65-2.48-11.37-11.45a43.07,43.07,0,0,0-.07-6.81l-31.85,9.07c.07,2.12.15,4.25.23,6.37H860.6l-.05,2.77H833.68l0-.05-.13,6.82h0l.13-.1h80.54v4.66H833.63l-.14-.1h0l.24,6.86h0c23.42,0,46.84-.07,70.26.09,4,0,8.42-1.6,11.71,2.25h0c-1.64,3.77,4.1,7.58-.05,11.34h0a6.09,6.09,0,0,1,0,6.88c0,.75,0,1.51,0,2.26-2.55,3.21-6.16,2.26-9.43,2.28q-28.21.09-56.43,0c-3.24,0-6.84.93-9.35-2.26-2.93,2.24-3,4.51-.08,6.83h0c2.23-2.79,5.38-2.23,8.33-2.24q29.34,0,58.66,0c3,0,6.12-.58,8.28,2.31q0,1.1,0,2.19h0c-5,2.31-5,4.62,0,6.92h0c0,.76,0,1.51,0,2.26l0,6.81h0c4,3.11-.85,6.14-.09,9.22-2.53,3.3-6.18,2.27-9.45,2.28-21.92,0-43.84,0-65.76-.08-2.16.77-4.31,1.54-6.48,2.3ZM789.56,228.49v-2h125c0,.67,0,1.34,0,2Zm-.08,11.35,0-2.27h72.14l0,2.27Zm126.38-30.9c.21,7.69-2.72,9.73-10,9.57-17.83-.39-35.67-.13-53.51-.13-15.56,0-31.12.12-46.68,0-20-.19-17.14,2.92-18-18.49-.38-9.36,3-11.44,11.72-11.32,32.25.45,64.52,0,96.78.25C918.12,189,915.22,184.49,915.86,208.94Z"/><path class="cls-25" d="M799.27,271c-.06,2.84-.11,5.69-.17,8.53h0l-20.21.16a12,12,0,0,0-4.79-1.05c-15.49-2.81-31.21.16-46.77-.92-4.7-.33-10.58,1.36-10-6.72h0l61.15-.69,20.77.69Z"/><path class="cls-24" d="M801.55,270.66l-2.28.32h0l-20.77-.69c.12-2.09.25-4.19.37-6.28h0c11.78-1.32,23.87,1.85,35.48-2.09.3-.1.6-.18.89-.29,6.1-.3,10.79-4.41,16.34-6.18a17,17,0,0,0,2-.54c4.55-1.17,9.74,1.46,13.87-2.31l11.4-.2-.15.07c.3.27,6.9-7.68,7.26-7.5,1.9,1.31,3.07-1.71-.55,12.09h0c0,1.61.05,3.22.08,4.84h0"/><polygon class="cls-26" points="858.84 252.4 858.84 252.41 858.84 252.4 858.84 252.4"/><path class="cls-27" d="M700.64,384.79q62.86,0,125.73.14c-1.11,2.89-3.67,2.13-5.77,2.13q-64.22-.09-128.41-.28h0C694.51,384,697.71,384.79,700.64,384.79Z"/><path class="cls-28" d="M727.33,277.7c15.56,1.08,31.28-1.89,46.77.92,1.6.29,3.2.62,4.79,1.05H695.47c6.52-6.45,14.6-4.46,19.73-9.3h0a3,3,0,0,1,2.15.61h0C716.75,279.06,722.63,277.37,727.33,277.7Z"/><path class="cls-29" d="M826.91,366.48l6.89-2a11,11,0,0,0,.15,2.14h0l-.57,6.71-6.37.36h0Q827,370.07,826.91,366.48Z"/><path class="cls-30" d="M865.41,257.06c-.11,9.32.73-7,.17-12.1-.72-6.51,2.29-8.64,8.58-8.44q16.47.51,33,0c6.27-.19,8.9,1.94,8.69,8.45-.35,11-.43,22,0,33,.3,7.18-2.69,9.19-9.39,8.91a248.64,248.64,0,0,0-29.53.07c-9.07.7-12.65-2.48-11.37-11.45a43.07,43.07,0,0,0-.07-6.81h0c1.4-1.67,5.77-.56,4.48-4.77l7.52-5.41c-4.05-1.88-7.4-5.87-12.07-1.41h0"/><path class="cls-31" d="M812.83,361.19c-.23-3-2-3.75-4.38-1.42h0l-9,.06c-1-1.86-2.65-2.33-4.57-2.31l0-2.44c3,0,6.05,0,9.07.07,9.32.27,11.8-3.38,6.66-11.48h0c-1.66-4.23-5.25-4.6-9-4.55-1.63-2.66-4.26-2.17-6.74-2.16l0-4.69c4.22-1.67,4.7-5.19,4.51-9h0a15.4,15.4,0,0,1,9.09,2.28c.22,1.85.17,4.26,2.26,4.71,3.08.67,2.22-2.12,2.26-3.66.12-4.12,0-8.25,0-12.37l2.25-2.26c5.76,6.49.76,13.59,1,20.38.57,14.44,3,29-.87,43.32h0l-2.35.05C813,370.85,813.2,366,812.83,361.19Z"/><path class="cls-32" d="M833.75,316.29h0c2.21,16,3.65,32.1,0,48.15h0l-6.89,2q0-25.08,0-50.16Z"/><path class="cls-33" d="M792.51,334.23c0-22.6,0-22.6,22.72-22.3h0L813,314.19c-20.79,0-18-2.41-18.11,18.08h0l0,4.69.06,18.12h0l0,2.44c-.14,21.6-1.77,17.79,18.16,18.16h0l2.35-.05h0a3.24,3.24,0,0,1,.34,1.07c0,.28-.31.79-.51.8-3.34.19-6.72.05-10,.52-9.52,1.36-13.85-1.62-12.9-12.15S792.51,344.79,792.51,334.23Z"/><path class="cls-34" d="M799.27,271h0l2.28-.32c5.61,3.69,13.49,2.78,19,8.85H799.1C799.16,276.67,799.21,273.82,799.27,271Z"/><path class="cls-30" d="M865.41,257.06h0c4.67-4.46,8-.47,12.07,1.41L870,263.88l-4.47-2h0C865.46,260.28,865.43,258.67,865.41,257.06Z"/><path class="cls-35" d="M831.34,305l2.47,2.35q0,1.11.06,2.22h0c-.06.76-.12,1.53-.17,2.29,0,1.48,0,2.95,0,4.43l-6.8,0a16.89,16.89,0,0,1,2-11.31Z"/><path class="cls-36" d="M833.64,286.81h0l-.13,6.82-6.63-.07h0l.06-9.05Z"/><path class="cls-37" d="M833.86,284.09l-.18,2.77h0l0-.05h0l-6.7-2.3c-.9-5.34,1.66-7.28,6.69-6.79h0C833.7,279.84,833.78,282,833.86,284.09Z"/><path class="cls-36" d="M833.49,298.09l.24,6.86h0l-2.39.05h-2.43c-2.74-1.68-2.06-4.37-2-6.86Z"/><polygon class="cls-38" points="833.63 298.19 833.63 298.19 833.63 298.19 833.63 298.19"/><path class="cls-38" d="M833.51,293.63h0l.13-.1c0,1.55,0,3.11,0,4.66l-.14-.1h0l-6.62.06v-4.59h0Z"/><path class="cls-30" d="M905.91,218.51c-17.83-.39-35.67-.13-53.51-.13-15.56,0-31.12.12-46.68,0-20-.19-17.14,2.92-18-18.49-.38-9.36,3-11.44,11.72-11.32,32.25.45,64.52,0,96.78.25,21.9.18,19-4.3,19.64,20.15C916.07,216.63,913.14,218.67,905.91,218.51Z"/><path class="cls-39" d="M840.75,355.34c-.09-.1-.19-.16-.29-.27h.27A2.45,2.45,0,0,0,840.75,355.34Z"/><path class="cls-39" d="M833.8,364.44h0a11,11,0,0,0,.15,2.14h0c2.17-.76,4.32-1.53,6.48-2.3h0l.06-2.16,0,0,63.7-.2c-15.33-4.76-31.05-1.3-46.58-2-5.65-.24-12-2.43-17.19,2.15-3.65-5.3-3.58-10.62-.08-16,0,2.32.09,4.64.13,7l75.1-.15c-2.52,3.3-6.17,2.26-9.43,2.26-21.6,0-43.2-.07-64.8-.12,0,.27-.07.54-.08.79,3.15,2.79,7.19,1.49,10.81,1.52,19.68.16,39.36.07,60.72.07l-6.22,4.44,9,.19c-.76-3.08,4.1-6.11.09-9.22h0l0-6.81L840.54,346c3-3.48,7-2.15,10.61-2.17,21.51-.1,43,0,64.53,0-5-2.3-5-4.61,0-6.92-21.51,0-43,.11-64.51,0-3.6,0-7.65,1.32-10.61-2.17l75.12,0c-2.16-2.89-5.33-2.3-8.28-2.31q-29.32,0-58.66,0c-3,0-6.1-.55-8.33,2.24h0c-2.94-2.32-2.85-4.59.08-6.83C843,331,846.59,330,849.83,330q28.21.12,56.43,0c3.27,0,6.88.93,9.43-2.28l-75.16,0c2.91-3.55,7-2.21,10.56-2.23,21.53-.1,43.07,0,64.6,0a6.09,6.09,0,0,0,0-6.88h0c4.15-3.76-1.59-7.57.05-11.34h0l-81.89.06q0,1.11.06,2.22h78.35l.16,4.54c-8.32,0-16.64.25-25-.05-17.92-.65-36,2-53.73-2.2,0,1.48,0,2.95,0,4.43h0C836,332.34,837.4,348.39,833.8,364.44Zm6.64-2.35h0l0,0ZM843,318.63c21.46-2.31,42.9-2.32,64.35-2.29,2.93,0,6.13-.67,8.27,2.29h0l0,0,0,0Zm-2.56,9.11h0Zm4.79,13.11c0-.38,0-.76,0-1.14h58.7l-.36,1.14Z"/><path class="cls-40" d="M789.57,226.48h125c0,.67,0,1.34,0,2h-125Z"/><path class="cls-41" d="M833.65,293.53h80.54v4.66H833.63C833.64,296.64,833.64,295.08,833.65,293.53Z"/><path class="cls-42" d="M847.44,252.6c-13.51-5-27.53-1.11-41.25-2.35-5.61-.5-11.54,1.19-16.8-2.9a669.81,669.81,0,0,1,69.38-1.28c7.94.29.65,4.12.07,6.33h0Z"/><path class="cls-43" d="M861.65,237.57l0,2.27H789.48l0-2.27Z"/><path class="cls-24" d="M815.25,261.63a10.82,10.82,0,0,0-1.24-.84c-7.52-4.53-17.3,1.78-24.48-5.88h44a16.52,16.52,0,0,0-2,.54C826,257.22,821.35,261.33,815.25,261.63Z"/><path class="cls-44" d="M833.81,307.35,831.34,305h0l2.39-.05h0c23.42,0,46.84-.07,70.26.09,4,0,8.42-1.6,11.71,2.25h0Z"/><path class="cls-44" d="M840.49,362.12l0,0,63.7-.2h2.38l9,.19c-2.53,3.3-6.18,2.27-9.45,2.28-21.92,0-43.84,0-65.76-.08h0Z"/><path class="cls-45" d="M840.54,346c3-3.48,7-2.15,10.61-2.17,21.51-.1,43,0,64.53,0h0c0,.76,0,1.51,0,2.26Z"/><polygon class="cls-45" points="840.43 327.74 840.43 327.74 840.44 327.74 840.43 327.74"/><path class="cls-45" d="M840.53,327.74c2.91-3.55,7-2.21,10.56-2.23,21.53-.1,43.07,0,64.6,0,0,.75,0,1.51,0,2.26Z"/><path class="cls-30" d="M851.16,336.89c-3.6,0-7.65,1.32-10.61-2.17l75.12,0q0,1.1,0,2.19h0C894.16,336.9,872.66,337,851.16,336.89Z"/><path class="cls-44" d="M833.86,284.09H860.6l-.05,2.77H833.68Z"/><path class="cls-46" d="M799.45,359.83c-.06,3.41-.25,7.7,4,8,5.34.38,4.95-4.33,5-8.07,2.38-2.33,4.15-1.54,4.38,1.42.37,4.81.17,9.66.21,14.49h0c-19.93-.37-18.3,3.44-18.16-18.16C796.8,357.5,798.48,358,799.45,359.83Z"/><path class="cls-47" d="M801.59,339.12c-1.76,1.35-5.52,2.91-.54,4.47,2.92.91,6.37.11,9.59.08,5.14,8.1,2.66,11.75-6.66,11.48-3-.09-6.05,0-9.07-.07h0L794.85,337C797.33,337,800,336.46,801.59,339.12Z"/><path class="cls-48" d="M813,326.56c0,1.54.82,4.33-2.26,3.66-2.09-.45-2-2.86-2.26-4.71-.62-2.53,1.75-6.57-2.17-7.26-2.92-.52-6.82.28-6.92,5h0c.19,3.85-.29,7.37-4.51,9h0c.08-20.49-2.68-18.08,18.11-18.08C813,318.31,813.11,322.44,813,326.56Z"/><path class="cls-49" d="M803.44,367.84c-4.24-.31-4.05-4.6-4-8l9-.06h0C808.39,363.51,808.78,368.22,803.44,367.84Z"/><path class="cls-50" d="M801.05,343.59c-5-1.56-1.22-3.12.54-4.47,3.8-.05,7.39.32,9,4.55h0C807.42,343.7,804,344.5,801.05,343.59Z"/><path class="cls-51" d="M806.3,318.25c3.92.69,1.55,4.73,2.17,7.26a15.4,15.4,0,0,0-9.09-2.28h0C799.48,318.53,803.38,317.73,806.3,318.25Z"/><path class="cls-24" d="M912.22,309.57l.16,4.54c-8.32,0-16.64.25-25-.05-17.92-.65-36,2-53.73-2.2,0-.76.11-1.53.17-2.29h78.35Z"/><path class="cls-24" d="M840.47,362.09l0,0,0,0h0Z"/><path class="cls-24" d="M904.23,361.89c-15.33-4.76-31.05-1.3-46.58-2-5.65-.24-12-2.43-17.19,2.15-3.65-5.3-3.58-10.62-.08-16,0,2.32.09,4.64.13,7,0,.66,0,1.32,0,2h0c.1.11.2.17.29.27a6.67,6.67,0,0,0,.55.52c3.15,2.79,7.19,1.49,10.81,1.52,19.68.16,39.36.07,60.72.07l-6.22,4.44h-2.38Z"/><path class="cls-44" d="M907.34,316.34c2.93,0,6.13-.67,8.27,2.29H843C864.45,316.32,885.89,316.31,907.34,316.34Z"/><path class="cls-44" d="M915.66,318.63l0,0,0,0Z"/><path class="cls-24" d="M903.93,339.71l-.36,1.14H845.22c0-.38,0-.76,0-1.14Z"/><path class="cls-44" d="M840.46,355.07h0c0-.67,0-1.33,0-2l75.1-.15c-2.52,3.3-6.17,2.26-9.43,2.26-21.6,0-43.2-.07-64.8-.12h-.92Z"/><path class="cls-1" d="M900.61,432.68a.76.76,0,0,0-.08.11l.21.34C900.7,433,900.65,432.84,900.61,432.68Z"/><path class="cls-52" d="M899.68,380.48c-9.19-10.39-14.4-10.31-21.89,1.2-3.87-9.21-11.68-9.91-19.36-10.88h0c-4.78,3.23-.2,3.09,1.28,4.14,21.17,15,22.2,43.82,2.11,60.62-1.71,1.42-3.38,2.55-3.17,5.17,8,1.17,14.8-.82,18.92-9.11,8.2,10.75,14.32,10.76,22.19-.25.25.49.5,1,.77,1.42a.76.76,0,0,1,.08-.11c0,.16.09.3.13.45,4.27,7,10.72,8.78,18.34,7.56h0c.28-.4.89-1,.8-1.16a4.6,4.6,0,0,0-1.45-1.74c-20-12.49-21.39-38.12-9.61-54.86,2.95-4.18,8.49-5.15,10.16-10.5C909.39,370.91,906.93,371.93,899.68,380.48ZM883,421.37c-3-4.25,3.27-8.89-1.27-12.42h0c-2-.32-2.28-1.82-1.92-3.48.25-1.12.49-3,2.33-1.45,3.68-3.73-1.73-7.83.44-11.87C888.13,401.82,887.9,411.3,883,421.37ZM896,409c-3.8,3.64,0,7.7-.42,11.72-5.78-8.44-6.07-18.48-.67-29.13,2,3.78-2.93,8.34,1.44,11.19h0C898,405,898.77,407.12,896,409Z"/><path class="cls-53" d="M899,351.47c1.61,2.2-1.69,2.79-1.68,4.64,13.74,4.17,25.79,1.83,35.62-10.25-17.18-11.38-24.64-11.3-35.35.09-2.46,1.05-3.21,3-2.57,5.69a9.32,9.32,0,0,1,.67.74C896.88,352,898.69,351.08,899,351.47Z"/><path class="cls-54" d="M900.74,433.13l-.21-.34c-.27-.45-.52-.93-.77-1.42-7.87,11-14,11-22.19.25-4.12,8.29-10.88,10.28-18.92,9.11,3.07,5.19,7.51,6.78,13.13,6.63,11.09-.31,22.2-.38,33.29,0,5.93.21,10.56-1.51,14-6.68h0C911.46,441.91,905,440.15,900.74,433.13Z"/><path class="cls-55" d="M885.06,367.6c-8.95.35-18.27-2.77-26.63,3.2h0c7.68,1,15.49,1.67,19.36,10.88,7.49-11.51,12.7-11.59,21.89-1.2,7.25-8.55,9.71-9.57,19.3-8.05-1.29-4.14-4.71-4.79-8-4.92-6.09-.24-12.19.05-18.29.12h0C890.17,370,887.61,369.92,885.06,367.6Z"/><path class="cls-56" d="M894.29,355.75c-3-1.41-5.44-3.32-6.31-7.09a9.52,9.52,0,0,0-4.52-6.1c-5.38-.37-4.49,2.38-2.72,5.91,3,5.9,6.46,11.64,6,18.8l2.94,0h0c-1.58-5.26,2.8-7.74,4.62-11.42C894.29,355.84,894.3,355.8,894.29,355.75Z"/><path class="cls-57" d="M894.31,355.93l3,.18h0c0-1.85,3.29-2.44,1.68-4.64-.28-.39-2.09.51-3.31.91l-.19.06a3.57,3.57,0,0,0-1.18,3.31c0,.05,0,.09,0,.14A.08.08,0,0,1,894.31,355.93Z"/><path class="cls-58" d="M885.06,367.6c2.55,2.32,5.11,2.36,7.68,0h0l-3-.32h0l-2.94,0Z"/><path class="cls-59" d="M896.32,402.8c-4.37-2.85.54-7.41-1.44-11.19-5.4,10.65-5.11,20.69.67,29.13.39-4-3.38-8.08.42-11.72C894.48,406.84,895.48,404.83,896.32,402.8Z"/><path class="cls-60" d="M882.15,404c-.14,1.64-.27,3.29-.41,4.93,4.54,3.53-1.68,8.17,1.27,12.42,4.89-10.07,5.12-19.55-.42-29.22C880.42,396.19,885.83,400.29,882.15,404Z"/><path class="cls-61" d="M879.82,405.47c-.36,1.66,0,3.16,1.92,3.48h0c.14-1.64.27-3.29.41-4.93C880.31,402.52,880.07,404.35,879.82,405.47Z"/><path class="cls-62" d="M896.32,402.8c-.84,2-1.84,4-.35,6.22,2.8-1.9,2-4,.35-6.22Z"/><polygon class="cls-1" points="971.87 350.96 971.87 350.96 971.87 350.96 971.87 350.96"/><path class="cls-63" d="M976.85,331h0c4.79.4,9.1-1.32,13.41-3.24,3.23-1.43,4.13-3.84,3.24-7.27-3.07-11.93-8.2-22.48-17.1-30.76-4.81-4.48-8.94-4.08-13.57.26-8.66,8.12-13.59,18.47-16.76,30.06-1.39,5.07,1.1,7.28,4.93,8.48,4.91,1.53,9.91,2.72,14.88,4.05C969.49,331.7,972.93,329.42,976.85,331ZM960,321c-4.94,0-6.71-2.31-6.7-6.65,0-4.52,2.43-6.53,6.23-6.55s6.3,2.53,6.22,6.69S963.06,320.67,960,321Z"/><path class="cls-63" d="M978.65,420c-5.48-2-7.93-4.86-5-10.92-1.11-5.05-6.34.52-7.85-3.5h0c-1.73-.31-3.46-2.73-5.28-.09,8.24,8.29,7.91,10.26-2.46,15.25-7.53,3.63-12.35,12.1-12.14,21.29.09,3.81,1.49,5.45,5.35,4.78,8.71-1.51,14.72-6.68,18.58-15.95,3.7,9.3,9.45,14,17.75,15.77,4.59,1,5.67-1.22,5.66-5.11C993.2,430,989.13,423.77,978.65,420Z"/><path class="cls-36" d="M971.87,351h0c5.84-4,13.71-2.68,18.89-8.36-.69-1.4-1.93-1.65-3.24-1.77h0c-5.14-1.28-10.25,4-15.4.07-3-.94-4.61-3.9-3.06-6,1.39-1.85,2.79.83,3.11,2.85h0c1.45-2.35,2-5.42,4.68-6.8h0c-3.92-1.57-7.36.71-11,1.58,1,7.64-.63,11.78-9,8.63-3.54-1.33-7.5-1.35-12.49-2.16a28.71,28.71,0,0,0,17.87,9.58c4.46.73,5.51,3.16,5.24,7.24C970.78,356.1,970.06,352.23,971.87,351Z"/><path class="cls-64" d="M973.63,409.08c2.43-.32,4.37-1.29,5-4.23-2.15-1.68-6.55.82-6.64-4.64-.07-5,3.66-4.54,6.18-5.77,2.88-1.41,6.48-1.71,7.52-6.36-5-2.3-16.81,6.74-13.34-8.87h0c-4.21,1.79,1,9.21-5.13,9.85h0c-4.83,1.05-9.36-2.7-14.48-1.17,1.59,4.7,5.59,6.17,9,7,7,1.63,6.37,5.58,4,10.72h0C967.29,409.6,972.52,404,973.63,409.08Z"/><path class="cls-64" d="M972.32,364.22h0c8.43,0,15.61-3.1,23.08-10.26-6.64,1.37-11.63,2.4-16.63,3.41-4.81,1-7.48-.73-6.9-6.41h0c-1.81,1.27-1.09,5.14-4.38,4.9-5.71,4.41-11.39-.72-17.1-.06-1.26.12-2.48.32-3.16,1.69h0a28.2,28.2,0,0,0,14.94,6.37c4.66.56,5.56,2.91,5.43,7C971.81,370.78,969.35,365.28,972.32,364.22Z"/><path class="cls-64" d="M972.39,379.21h0c7.35.49,13.29-2.72,20.52-7.47-6.06-1.87-9.66.45-13.45.86-6.43.69-8.59-1.85-7.14-8.38h0c-3,1.06-.51,6.56-4.72,6.6-6.72,4.95-13.78-1.62-22.19.82,5.58,2.82,9.83,6.55,14.29,6.86,7.36.51,8.54,4.18,7.56,10.56h0C973.39,388.42,968.18,381,972.39,379.21Z"/><path class="cls-63" d="M969.06,334.93c-1.55,2.07.11,5,3.06,6,0-1,0-2.08,0-3.12h0C971.85,335.76,970.45,333.08,969.06,334.93Z"/><path class="cls-65" d="M990.76,342.6c1.25-.79,3-1,3.25-3.1-2.37-.52-4.63-.76-6.49,1.33h0C988.83,341,990.07,341.2,990.76,342.6Z"/><path class="cls-43" d="M950.39,355.8c-1.5-1.73-3.56-2.54-5.11-.92-.91.94.84,2.05,2,2.61h0C947.91,356.12,949.13,355.92,950.39,355.8Z"/><path class="cls-66" d="M959.53,307.77c-3.8,0-6.22,2-6.23,6.55,0,4.34,1.76,6.69,6.7,6.65,3.06-.3,5.68-2.34,5.75-6.51S963.45,307.75,959.53,307.77Z"/><path class="cls-1" d="M815.21,422.57h0l.18.05-.18-.2Z"/><path class="cls-67" d="M826.64,324.57c-.88,7.05-5.52,11.8-10.15,16.55-2.77,27.06-.61,54.2-1.28,81.3l.18.2a5.66,5.66,0,0,0,6.16-1.33h0c0-22.22.05-44.44,0-66.66,0-8.57,1.6-16.61,6.83-23.64a12.2,12.2,0,0,0,2.14-7.78c-.09-7.62,0-15.23,0-22.85h0a5.74,5.74,0,0,1,2.54-6.26c-6.46-1.31-8.73,1.54-7.7,7.72a18.57,18.57,0,0,1,.09,2.48h0C828,310.92,826,317.82,826.64,324.57Z"/><path class="cls-68" d="M847,422.57h0l-1.3,0h0l-.63,0h-.63c-5.46-.09-10.76-2-16.32-1.33-2.25.28-4.55.11-6.59,1.35,0,1.27,0,2.53,0,3.79h0c6.48,0,13,0,19.44.09,3.12,0,5.86-.5,7.07-3.88Z"/><path class="cls-69" d="M830.51,300.36h0c2.65-1.4,3.71-.69,3.82,2.39.26,6.9,1.15,13.8,1.1,20.69,0,4.71,2.57,7.88,4.81,11.36,1.69,2.63,3.65,5.08,5.5,7.6h0c0-.46,0-.93,0-1.39h0c-.84-6.05-6.66-9.48-7.89-15.5-1.73-8.48-.27-17.12-2-25.56-.46-2.31.83-5.2-2.85-5.84h0A5.74,5.74,0,0,0,830.51,300.36Z"/><path class="cls-70" d="M815.21,422.57h0v-.15c.67-27.1-1.49-54.24,1.28-81.3l-1.21,0h0a33.73,33.73,0,0,0-1.43,8c.1,24.45.09,48.91.12,73.36l1.24,0Z"/><path class="cls-71" d="M848.29,347.88c0-2.57-.43-5-2.51-6.87h0c0,.46,0,.93,0,1.39,0,1.27,0,2.53,0,3.8h0c2,1.88,1.22,4.37,1.23,6.59q.09,34.89,0,69.78h1.06Q848.2,385.22,848.29,347.88Z"/><path class="cls-72" d="M816.49,341.12c4.63-4.75,9.27-9.5,10.15-16.55l-1.32-1.34h0c-1.37,7.08-7.83,11.32-10,17.93h0Z"/><path class="cls-73" d="M826.64,324.57c-.62-6.75,1.39-13.65-1.2-20.27h0l-.12,18.93h0Z"/><path class="cls-74" d="M821.55,421.29h0a5.66,5.66,0,0,1-6.16,1.33l-.18-.05h0l-1.24,0c1.06,4.22,4.45,3.79,7.61,3.81h0c0-1.26,0-2.52,0-3.79C821.56,422.14,821.56,421.71,821.55,421.29Z"/><path class="cls-75" d="M840.24,334.8c-2.24-3.48-4.84-6.65-4.81-11.36.05-6.89-.84-13.79-1.1-20.69-.11-3.08-1.17-3.79-3.82-2.39h0c0,7.62-.09,15.23,0,22.85a12.2,12.2,0,0,1-2.14,7.78c-5.23,7-6.85,15.07-6.83,23.64.06,22.22,0,44.44,0,66.66h0c0,.42,0,.85,0,1.28,2-1.24,4.34-1.07,6.59-1.35,5.56-.67,10.86,1.24,16.32,1.33q0-32.34,0-64.67c0-2.22-.85-4.7,1.23-6.57,0-1.71,0-3.41,0-5.11h0c0-1.27,0-2.53,0-3.8h0C843.89,339.88,841.93,337.43,840.24,334.8Z"/><path class="cls-76" d="M845.74,351.31q0,35.61,0,71.22l1.3,0h0q0-34.89,0-69.78c0-2.22.82-4.71-1.23-6.59h0C845.75,347.9,845.74,349.6,845.74,351.31Z"/><path class="cls-77" d="M845.74,351.31c-2.08,1.87-1.23,4.35-1.23,6.57q-.09,32.34,0,64.67h.63l.63,0h0Q845.75,386.92,845.74,351.31Z"/><path class="cls-78" d="M789,257.49h72.14"/></g><g id="Capa_2" data-name="Capa 2"><path class="cls-79" d="M710.31,356.77,744.17,365l36.43-22.25h33.23l-46,58.5s-23.92,14.85-30.49,26.19C737.33,427.47,705.83,379.66,710.31,356.77Z"/><path class="cls-79" d="M1141,356.77,1107.14,365l-36.43-22.25h-33.23l46,58.5s23.92,14.85,30.49,26.19C1114,427.47,1145.48,379.66,1141,356.77Z"/><path class="cls-80" d="M793.29,502.19a25.88,25.88,0,0,1-25.91-25.79V370.67a25.88,25.88,0,0,1,25.91-25.79H1058a25.88,25.88,0,0,1,25.91,25.79V476.4A25.88,25.88,0,0,1,1058,502.19Z"/><path d="M1058,345.32a25.41,25.41,0,0,1,25.47,25.35V476.4A25.41,25.41,0,0,1,1058,501.75H793.29a25.41,25.41,0,0,1-25.47-25.35V370.67a25.41,25.41,0,0,1,25.47-25.35H1058m0-.88H793.29a26.32,26.32,0,0,0-26.35,26.23V476.4a26.32,26.32,0,0,0,26.35,26.23H1058a26.32,26.32,0,0,0,26.35-26.23V370.67A26.32,26.32,0,0,0,1058,344.44Z"/><rect class="cls-81" x="790.7" y="354.17" width="267.58" height="138.68"/><g class="cls-82"><path class="cls-3" d="M662.55,460.38c-4.12,1.21-15.29,4.49-14.13,8.56,1.3,4.58,17.43,7.71,24.67,9.08,96.11,18.13,282,19,282,19,84.78.68,140.51.93,201.67-7.91,15.26-2.2,88.41-12,83.39-22.7-3.74-8-49.09-12.49-83.07-15.77-62.85-6.07-116.67-6.64-202-6.17C943.12,444.56,711.16,446.11,662.55,460.38Z"/><path class="cls-4" d="M982.86,372.23c-6-4.87-11.36-10.24-15.33-16.91-.86-1.45-2.23-3.21-.89-4.63.7-.75,2.91-.66,4.16-.19,4.66,1.74,8.79.32,12.68-1.93,4.33-2.52,7.35-1.63,9.53,2.75a4.64,4.64,0,0,1,1.11,1.89c.3,1-.33,1.9-.16,2.87a7.29,7.29,0,0,0,.56-2.43c.41-2,1.79-3.47,3-5a12.45,12.45,0,0,1,16.08,2.79,57.14,57.14,0,0,1-3,5.86,34.09,34.09,0,0,1-4.1,4.11c4-3.32,7.71-4.57,12-2.59a17.1,17.1,0,0,1,9.24,3.93c-7.61,4.21-15.9,5.47-23.51,8.49-2,.81-3.92,1.51-3.75,4.61s2.52,2.59,4.15,3C1030.59,386,1043,400.7,1045,428c.91,12.34.86,24.74,1.42,37.11.34,7.7-3.55,12.18-10.56,14a47.86,47.86,0,0,1-11.74,1.47q-32.7.19-65.39,0c-11.35-.08-17.56-5-17.74-16.42-.36-23.55,1.7-47,11.52-68.85,5.71-12.73,17.5-15.76,29.94-17.25a2.07,2.07,0,0,1,.77,1.78c-.11,2.32-1.48,3.75-3.38,4.81-1.94.4-4,.57-5.74,1.57-14.55,5.64-21.23,16.53-22.72,31.82-1.17,12-4.61,23.8-4.14,36.06a28.5,28.5,0,0,0,3.11,12.86c2.58,4.71,10.73,7.53,15.61,5.73,3-1.13,1.6-3,1.09-4.79-2.6-9.25-8.81-16.43-14-24.14-4.34-6.41-4.51-8.82.2-13,4.12.07,5.36,4.46,8.66,5.77.84.25,1.27,1.39,2.36,1.13-.77-.06-1.25-.67-1.92-1-2.71-1.67-5.27-3.44-6.3-6.66.08-4.41,1.85-8.37,3.26-12.43,5.29-3.27,4.7,4.55,7.68,3.81a29.23,29.23,0,0,1-6.11-7.61,5.08,5.08,0,0,1,.06-2.09c.67-1.44,2-3,3.33-2.31,9.1,4.55,20-.33,29.07,6.33,4.45,3.26,7.64,5.58,7.47,11.26-.07,2.67-.18,5.89,2.75,7.18s5.06-1.22,7.13-2.9a51,51,0,0,0,6.81-6.81c1.29-1.54,2.87-3.47,2-5.32-2.6-5.42-3.33-10.67-.89-16.37.91-2.13-.88-3.18-2.86-3.21-6.48-.13-7.83-3.94-7-9.43-.53-2.87-2.81-4-5.11-5.17-4.18-1.35-8.5-1.57-12.84-1.77-2.57-.13-5.41.32-7.15-2.39.67-3.87,3.89-5.4,6.49-7.44C987.92,372.58,984.78,376.47,982.86,372.23Z"/><path class="cls-5" d="M982.83,379.68c-.12-.56-.24-1.12-.35-1.67q.18-2.89.38-5.78c3.91,2.36,8-4.34,12.56.73-5.09.71-7.41,5.06-11.51,6.71C983.55,380.26,983.2,380.26,982.83,379.68Z"/><path class="cls-6" d="M1018.36,358.77c-5.14-.6-9.08,2.8-15.55,5.2,4.67-5.07,6.53-9.73,10.74-12.58C1014.26,354.43,1014.5,357.78,1018.36,358.77Z"/><path class="cls-7" d="M997.47,348.6c-.74,3.28-1.45,6.57-4.46,10.4v-7.68Z"/><path class="cls-8" d="M982.83,379.68h1.08c5.81,2.89,12.17,1.13,18.23,2,1.94.28,2.48.88,2.69,2.46,2.06,1.41,3.86,3.17,6,4.52-1.52,6.82.32,10.37,8.13,9,3.31-.59,3.66,1.36,2.44,4.1-2.29,5.17-5.4,10.38.48,15.42,1.18,1,.8,2.8,0,4.17a43,43,0,0,1-16.36,15.75c-2.48,1.42-4-.46-5.27-2.59-1.73-3-1.36-6.24-1.3-9.43.06-3.56-.93-5.39-4.8-7-7.5-3.09-14.38-7.42-23-4.24-2,.72-3.72-.9-5.13-2.4-2.1-2.23-3.38-1.05-4.41,1.1-1.22.58-1.93-.5-2.86-.86a14.26,14.26,0,0,1,2.07,3.4,2,2,0,0,1-.56,1.81c.53,4.82-2.26,8.88-3,13.41-.79.76-2.16.32-2.83,1.34-6,2.59-3.33,7.16-.87,9.43,6,5.51,7.43,13.8,13.39,19.32,2.62,2.42,1.4,7.46,4.37,10.91,1.8,2.08-1.68,3.24-3.93,3.57-13.77,2-21.41-4.57-22-18.78-.51-11.68,1.49-23.06,3.58-34.46,1.28-7,1.43-14.08,5-20.67,4.79-8.86,11.68-14.42,21.42-16.58,1.34,1.21,0,2.64.3,4,.29-2.57,2.52-3.35,4-4.78Z"/><path class="cls-8" d="M1031.61,428.67c.05-1,.11-2.05.16-3.07,1.15-.86,1.61-2.45,3.11-3,8.22-.24,8.16,6.55,8.35,11.4.48,12.32-3.35,24.27-4.62,36.48-.29,2.69-2.9,4.85-5.6,5.45a113.17,113.17,0,0,1-13.13,1.77c-2.26.23-4.63,0-5.7-2.47a5.09,5.09,0,0,1,1.55-6c5.39-4.92,7-10.26,3.27-17.17-1.26-2.29-.52-5.67-.69-8.55a32.79,32.79,0,0,0,9.22-9.26A60.39,60.39,0,0,1,1031.61,428.67Z"/><path class="cls-9" d="M981.79,366.07c-4.21-2.7-4.86-6.75-6.72-10.41C978.72,356.94,979.14,357.6,981.79,366.07Z"/><path class="cls-10" d="M1028.54,434.68c-2.74,3.72-5.23,7.73-10.23,8.83l8.76-10.45C1028,433.21,1028.12,434.07,1028.54,434.68Z"/><path class="cls-11" d="M954.39,431.62l-.24-2.42,3.07,1.08,6.07,5.86a2.32,2.32,0,0,1-1.49,1.31Z"/><path class="cls-12" d="M960.23,416.87l.27-1.6a1.65,1.65,0,0,1,1.09-1.12c3.33,1.79,4.76,5.18,8.22,8.38C964.45,422.29,963.37,418,960.23,416.87Z"/><path class="cls-11" d="M979.6,383.62l-4.84,7.86c-2.2-3.2.58-5,.55-7.13A3.91,3.91,0,0,1,979.6,383.62Z"/><path class="cls-11" d="M961.59,414.15l-1.1,1.12c-2.7-1.86-3.55-4.71-3.78-8.08q2.44,2.65,4.87,5.33C961.58,413.06,961.59,413.61,961.59,414.15Z"/><path class="cls-13" d="M961.8,437.45l1.49-1.31c1.89,1,4,1.73,5.36,4C965.4,441.29,963.83,438.75,961.8,437.45Z"/><path class="cls-14" d="M1028.54,434.68l-1.47-1.62c1-2,1.6-4.4,4.54-4.39C1031.6,431.19,1029.78,432.79,1028.54,434.68Z"/><path class="cls-15" d="M1010.8,388.65c-3.24.16-4.65-2.13-6-4.52C1008.29,383.69,1009.5,386.23,1010.8,388.65Z"/><path class="cls-16" d="M1034.88,422.65c-.38,1.68-1,3.05-3.11,3,.12-2,.23-3.9,2.42-4.81Z"/><path class="cls-17" d="M976.27,442.9a9.22,9.22,0,0,1-2.45.8c-.82,0-2.1.27-2-1.14,0-.38,1-1.05,1.47-1A12.42,12.42,0,0,1,976.27,442.9Z"/><path class="cls-18" d="M959.61,458.44c-4.56-.6-7-3.64-8.77-7.36C955.44,451.55,957.23,455.3,959.61,458.44Z"/><path class="cls-19" d="M998.83,386.82c4.65,3.77,5,8.57,3.55,13.81Z"/><path class="cls-20" d="M988.66,394.38v-9.56c2.16,2.37,1.17,4.6,1.47,6.61C990.59,392.89,991.53,394.58,988.66,394.38Z"/><path class="cls-21" d="M988.66,394.38l1.47-2.95c1.38,1.54,2,3.56.62,5C990,397.21,988.93,395.58,988.66,394.38Z"/><path class="cls-22" d="M1035.62,439.59c.28,4.43-2.35,6.57-6.34,7.59Z"/><path class="cls-1" d="M865.93,414.06q-.07-.26-.15-.48a4.4,4.4,0,0,1,.52.36Z"/><path class="cls-1" d="M876.94,453h.27c0,.11,0,.23,0,.33a2.39,2.39,0,0,1-.23-.22S876.94,453,876.94,453Z"/><path class="cls-23" d="M851.12,421.47c-.67-.18-1.34-.32-2-.44A5.12,5.12,0,0,1,851.12,421.47Z"/><path class="cls-23" d="M796.9,416.19c4.6,1.38,9.14,3,13.81,4.07,2.83.63,3.42,2,3.39,4.56q-.15,18.53,0,37.05c0,1.43-.9,3.17.82,4.33h0c1-1.15,2.3-.83,3.53-.83l52.5.06.27-4.71h0c0-1,0-2,0-3q0-10.49,0-21a7.07,7.07,0,0,1,.81-4.72c-1.14-.7-.85-1.82-.85-2.86,0-.64,0-1.28,0-1.92h0l0-3.78c-.37-2.23.7-3,2.79-2.83h0l13.31-3.79h0c.58-.7,2.41-.24,1.87-2l-1.87-.83h0c-9.63-4.11-18,1.06-26.7,3.66,2.34,1.54,5.63,1.16,7.95,3.69h-9l-8.44.07H816.28c2.72-2.69,6.1-1.86,8.24-3.88h0c-5.72-1.78-11.35-3.91-17.17-5.2C803.66,411.58,800.21,413.61,796.9,416.19Zm59.82,41.28c.39-4.37.08-8.81.08-13.21,0-9.44,0-9.44,9.49-9.32h0c2.41,2.71.32,5.68.43,8.51.24,6,1.27,12.1-.36,18.1h0a1.32,1.32,0,0,1,.14.44c0,.12-.13.33-.21.34-1.4.08-2.81,0-4.18.21C858.13,463.11,856.33,461.87,856.72,457.47Z"/><path class="cls-24" d="M884.44,410.11l.42.28A2.36,2.36,0,0,1,884.44,410.11Z"/><path class="cls-24" d="M874.11,457.77l-.24,2.8c11.26,0,22.52-.1,33.77.13,3.69.08,4.5-1.24,4.49-4.68q-.2-35.43,0-70.87c0-3.5-.93-4.66-4.54-4.62q-25.92.25-51.85,0c-3.93-.05-4.8,1.32-4.72,4.93.21,9.83.08,19.66.09,29.49,4.92-.55,10,.77,14.82-.87q-.07-.26-.15-.48c-3.14-1.89-7.22.75-10.22-2.45H874c-.28.06-.55.14-.82.22a7.62,7.62,0,0,0,.82-.22c1.9-.49,4.07.61,5.79-1-5.64-2.11-11.49-.47-17.22-1-2.34-.21-4.82.49-7-1.22a280.48,280.48,0,0,1,29-.53c3.31.12.27,1.72,0,2.64h0l-.06,0c2.38.26,3.11-1,2.88-3.14-.3-2.72,1-3.6,3.58-3.52q6.89.21,13.77,0c2.62-.08,3.72.81,3.63,3.53-.15,4.58-.18,9.18,0,13.76.12,3-1.12,3.84-3.92,3.73a103.5,103.5,0,0,0-12.33,0c-3.79.3-5.29-1-4.75-4.78a19.28,19.28,0,0,0,0-2.84L874,420.66c0,.88.07,1.77.1,2.66h11.17l0,1.15H874l0,0-.05,2.85h0l.05,0h33.64v1.95H874l-.06,0h0L874,432h0c9.78,0,19.56,0,29.34,0,1.65,0,3.52-.67,4.89.94h0c-.68,1.57,1.71,3.16,0,4.73h0a2.53,2.53,0,0,1,0,2.87c0,.32,0,.63,0,.95-1.06,1.34-2.57.94-3.93.95q-11.79,0-23.57,0c-1.35,0-2.85.39-3.9-.95-1.23.94-1.26,1.89,0,2.86h0c.92-1.17,2.24-.94,3.47-.94h24.5c1.23,0,2.55-.24,3.46,1,0,.3,0,.6,0,.91h0c-2.07,1-2.1,1.93,0,2.89h0c0,.31,0,.63,0,.94V452h0c1.68,1.3-.35,2.56,0,3.85-1.06,1.38-2.58.95-4,.95-9.15,0-18.31,0-27.46,0l-2.71,1ZM855.57,400.1v-.84h52.2c0,.28,0,.56,0,.84Zm0,4.74v-.95h30.13v.95Zm52.78-12.91c.08,3.21-1.14,4.07-4.16,4-7.44-.17-14.89-.05-22.34-.05-6.5,0-13,0-19.5,0-8.34-.08-7.16,1.22-7.52-7.72-.16-3.91,1.27-4.78,4.9-4.73,13.47.19,26.94,0,40.42.11C909.26,383.59,908.05,381.72,908.32,391.93Z"/><path class="cls-25" d="M859.63,417.84c0,1.19,0,2.38-.07,3.56h0l-8.44.07a5.12,5.12,0,0,0-2-.44c-6.47-1.17-13,.07-19.54-.38-2-.14-4.42.57-4.17-2.81h0l25.54-.29,8.68.29Z"/><path class="cls-26" d="M865.93,414.06l.37-.12c2.55-.13,4.51-1.84,6.83-2.59a7.62,7.62,0,0,0,.82-.22c1.9-.49,4.07.61,5.79-1l4.76-.09-.06,0a2.36,2.36,0,0,0,.42.28l2.39,1.64h0l0,2h0c-9.63-4.11-18,1.06-26.7,3.66l-1,.13h0l-8.68-.29c0-.87.11-1.75.16-2.62h0C856,414.38,861.08,415.7,865.93,414.06Z"/><polygon class="cls-26" points="884.5 410.08 884.5 410.08 884.5 410.08 884.5 410.08"/><path class="cls-27" d="M818.44,465.37l52.5.06c-.46,1.21-1.53.89-2.41.89q-26.81,0-53.62-.12h0C815.88,465.05,817.21,465.37,818.44,465.37Z"/><path class="cls-28" d="M829.58,420.65c6.5.45,13.07-.79,19.54.38.66.12,1.33.26,2,.44H816.28c2.72-2.69,6.1-1.86,8.24-3.88h0a1.23,1.23,0,0,1,.89.25h0C825.16,421.22,827.62,420.51,829.58,420.65Z"/><path class="cls-29" d="M871.17,457.73l2.88-.86a4.54,4.54,0,0,0,.06.9h0l-.24,2.8-2.66.15h0C871.2,459.72,871.18,458.72,871.17,457.73Z"/><path class="cls-30" d="M892.29,412.62c-1.69-.79-3.09-2.45-5-.59h0l-2.39-1.64-.42-.28c2.38.26,3.11-1,2.88-3.14-.3-2.72,1-3.6,3.58-3.52q6.89.21,13.77,0c2.62-.08,3.72.81,3.63,3.53-.15,4.58-.18,9.18,0,13.76.12,3-1.12,3.84-3.92,3.73a103.5,103.5,0,0,0-12.33,0c-3.79.3-5.29-1-4.75-4.78a19.28,19.28,0,0,0,0-2.84h0c.58-.7,2.41-.24,1.87-2Z"/><path class="cls-31" d="M865.29,455.52c-.1-1.24-.84-1.57-1.83-.6h0l-3.76,0a1.89,1.89,0,0,0-1.9-1c0-.34,0-.68,0-1,1.26,0,2.52,0,3.78,0,3.9.11,4.93-1.41,2.78-4.79h0c-.69-1.77-2.19-1.92-3.77-1.9-.68-1.11-1.78-.91-2.82-.9v-2c1.76-.7,2-2.17,1.88-3.78h0a6.5,6.5,0,0,1,3.8.95c.09.78.07,1.79.94,2,1.29.28.93-.88,1-1.53,0-1.72,0-3.44,0-5.16l.94-.95c2.41,2.71.32,5.68.43,8.51.24,6,1.27,12.1-.36,18.1h0l-1,0C865.36,459.55,865.45,457.52,865.29,455.52Z"/><path class="cls-32" d="M874,436.77h0c.92,6.7,1.52,13.4,0,20.1h0l-2.88.86q0-10.49,0-21Z"/><path class="cls-33" d="M856.8,444.26c0-9.44,0-9.44,9.49-9.32h0l-.94.95c-8.68,0-7.53-1-7.56,7.55h0v2l0,7.56h0c0,.34,0,.68,0,1-.06,9-.75,7.43,7.58,7.59h0l1,0h0a1.32,1.32,0,0,1,.14.44c0,.12-.13.33-.21.34-1.4.08-2.81,0-4.18.21-4,.57-5.78-.67-5.39-5.07S856.8,448.66,856.8,444.26Z"/><path class="cls-34" d="M859.63,417.84h0l1-.13c2.34,1.54,5.63,1.16,7.95,3.69h-9C859.58,420.22,859.6,419,859.63,417.84Z"/><path class="cls-83" d="M887.25,412h0c2-1.86,3.35-.2,5,.59l-3.14,2.26-1.87-.83h0Z"/><path class="cls-35" d="M873,432.05l1,1q0,.47,0,.93h0c0,.32-.05.64-.08,1l0,1.86h-2.84a7.07,7.07,0,0,1,.81-4.72Z"/><path class="cls-36" d="M874,424.45h0l-.05,2.85-2.77,0h0l0-3.78Z"/><path class="cls-37" d="M874.07,423.32c0,.38-.05.77-.07,1.15h0l0,0h0l-2.8-1c-.37-2.23.7-3,2.79-2.83h0C874,421.54,874,422.43,874.07,423.32Z"/><path class="cls-36" d="M873.92,429.16,874,432h0l-1,0h-1c-1.14-.7-.85-1.82-.85-2.86Z"/><polygon class="cls-38" points="873.98 429.21 873.98 429.21 873.98 429.21 873.98 429.21"/><path class="cls-38" d="M873.93,427.3h0l.05,0v1.95l-.06,0h0l-2.77,0c0-.64,0-1.28,0-1.92h0Z"/><path class="cls-30" d="M904.16,395.93c-7.44-.17-14.89-.05-22.34-.05-6.5,0-13,0-19.5,0-8.34-.08-7.16,1.22-7.52-7.72-.16-3.91,1.27-4.78,4.9-4.73,13.47.19,26.94,0,40.42.11,9.14.07,7.93-1.8,8.2,8.41C908.4,395.14,907.18,396,904.16,395.93Z"/><path class="cls-39" d="M877,453.07l-.12-.11h.11S877,453,877,453.07Z"/><path class="cls-39" d="M874.05,456.87h0a4.54,4.54,0,0,0,.06.9h0l2.71-1h0c0-.3,0-.6,0-.91h0l26.6-.08c-6.4-2-13-.54-19.45-.82-2.36-.11-5-1-7.18.89a5.51,5.51,0,0,1,0-6.66c0,1,0,1.94.05,2.91l31.37-.06c-1.06,1.38-2.58.94-4,.94-9,0-18,0-27.06-.05,0,.11,0,.23,0,.33,1.31,1.16,3,.62,4.51.63,8.22.07,16.44,0,25.36,0l-2.6,1.86,3.78.08c-.32-1.29,1.71-2.55,0-3.85h0v-2.85l-31.39,0c1.24-1.45,2.93-.9,4.43-.91,9,0,18,0,27,0-2.1-1-2.07-1.92,0-2.89-9,0-18,.05-26.94,0-1.51,0-3.2.55-4.43-.91h31.37c-.91-1.21-2.23-1-3.46-1h-24.5c-1.23,0-2.55-.23-3.47.94h0c-1.23-1-1.2-1.92,0-2.86,1,1.34,2.55.94,3.9.95q11.79,0,23.57,0c1.36,0,2.87.39,3.93-.95l-31.38,0c1.21-1.47,2.91-.92,4.41-.93,9,0,18,0,27,0a2.53,2.53,0,0,0,0-2.87h0c1.73-1.57-.66-3.16,0-4.73h0l-34.2,0q0,.47,0,.93H906.8l.07,1.89c-3.48,0-7,.11-10.43,0-7.48-.27-15,.82-22.44-.92l0,1.86h0C875,443.47,875.55,450.17,874.05,456.87Zm2.77-1Zm1.07-18.15a246.22,246.22,0,0,1,26.87-.95c1.22,0,2.56-.29,3.45.95H877.89Zm-1.07,3.8Zm2,5.48v-.48h24.51l-.15.48Z"/><path class="cls-40" d="M855.58,399.26h52.2c0,.28,0,.56,0,.84h-52.2Z"/><path class="cls-41" d="M874,427.26h33.64v1.95H874Z"/><path class="cls-42" d="M879.74,410.17c-5.64-2.11-11.49-.47-17.22-1-2.34-.21-4.82.49-7-1.22a280.48,280.48,0,0,1,29-.53c3.31.12.27,1.72,0,2.64h0Z"/><path class="cls-43" d="M885.68,403.89v.95H855.54v-.95Z"/><path class="cls-30" d="M866.3,413.94a4.4,4.4,0,0,0-.52-.36c-3.14-1.89-7.22.75-10.22-2.45H874c-.28.06-.55.14-.82.22C870.81,412.1,868.85,413.81,866.3,413.94Z"/><path class="cls-44" d="M874.05,433l-1-1h0l1,0h0c9.78,0,19.56,0,29.34,0,1.65,0,3.52-.67,4.89.94h0Z"/><path class="cls-44" d="M876.84,455.9h0l26.6-.08h1l3.78.08c-1.06,1.38-2.58.95-4,.95-9.15,0-18.31,0-27.46,0h0C876.83,456.51,876.84,456.21,876.84,455.9Z"/><path class="cls-45" d="M876.86,449.16c1.24-1.45,2.93-.9,4.43-.91,9,0,18,0,27,0h0c0,.31,0,.63,0,.94Z"/><polygon class="cls-45" points="876.82 441.55 876.82 441.54 876.82 441.55 876.82 441.55"/><path class="cls-45" d="M876.86,441.54c1.21-1.47,2.91-.92,4.41-.93,9,0,18,0,27,0,0,.32,0,.63,0,.95Z"/><path class="cls-30" d="M881.3,445.37c-1.51,0-3.2.55-4.43-.91h31.37c0,.3,0,.6,0,.91h0C899.26,445.37,890.28,445.41,881.3,445.37Z"/><path class="cls-44" d="M874.07,423.32h11.17l0,1.15H874C874,424.09,874.05,423.7,874.07,423.32Z"/><path class="cls-46" d="M859.7,455c0,1.42-.1,3.21,1.67,3.34,2.23.16,2.07-1.81,2.09-3.37,1-1,1.73-.64,1.83.6.16,2,.07,4,.09,6.05h0c-8.33-.16-7.64,1.43-7.58-7.59A1.89,1.89,0,0,1,859.7,455Z"/><path class="cls-47" d="M860.6,446.3c-.74.56-2.31,1.21-.23,1.86,1.22.39,2.66,0,4,0,2.15,3.38,1.12,4.9-2.78,4.79-1.26,0-2.52,0-3.78,0h0l0-7.56C858.82,445.39,859.92,445.19,860.6,446.3Z"/><path class="cls-48" d="M865.36,441.05c0,.65.34,1.81-1,1.53-.87-.18-.85-1.19-.94-2-.26-1.05.73-2.74-.91-3-1.22-.22-2.85.12-2.89,2.08h0c.08,1.61-.12,3.08-1.88,3.78h0c0-8.56-1.12-7.55,7.56-7.55C865.36,437.61,865.41,439.33,865.36,441.05Z"/><path class="cls-49" d="M861.37,458.29c-1.77-.13-1.69-1.92-1.67-3.34l3.76,0h0C863.44,456.48,863.6,458.45,861.37,458.29Z"/><path class="cls-50" d="M860.37,448.16c-2.08-.65-.51-1.3.23-1.86,1.58,0,3.08.13,3.77,1.9h0C863,448.21,861.59,448.55,860.37,448.16Z"/><path class="cls-51" d="M862.56,437.58c1.64.29.65,2,.91,3a6.5,6.5,0,0,0-3.8-.95h0C859.71,437.7,861.34,437.36,862.56,437.58Z"/><path class="cls-24" d="M906.8,434l.07,1.89c-3.48,0-7,.11-10.43,0-7.48-.27-15,.82-22.44-.92,0-.31,0-.63.08-1H906.8Z"/><path class="cls-24" d="M876.83,455.89h0Z"/><path class="cls-24" d="M903.46,455.81c-6.4-2-13-.54-19.45-.82-2.36-.11-5-1-7.18.89a5.51,5.51,0,0,1,0-6.66c0,1,0,1.94.05,2.91,0,.28,0,.55,0,.83h0l.12.11a2.39,2.39,0,0,0,.23.22c1.31,1.16,3,.62,4.51.63,8.22.07,16.44,0,25.36,0l-2.6,1.86h-1Z"/><path class="cls-44" d="M904.76,436.79c1.22,0,2.56-.29,3.45.95H877.89A246.22,246.22,0,0,1,904.76,436.79Z"/><path class="cls-44" d="M908.23,437.74h0Z"/><path class="cls-24" d="M903.33,446.54l-.15.48H878.82v-.48Z"/><path class="cls-44" d="M876.83,453h0c0-.28,0-.55,0-.83l31.37-.06c-1.06,1.38-2.58.94-4,.94-9,0-18,0-27.06-.05h-.38Z"/><path class="cls-1" d="M916.94,477.44l0,0,.07.11Z"/><path class="cls-52" d="M916.64,461.54c-3-3.17-4.69-3.14-7.13.36-1.26-2.8-3.81-3-6.31-3.31h0c-1.56,1-.07.94.41,1.26,6.9,4.56,7.24,13.35.69,18.47-.55.43-1.1.77-1,1.57,2.62.36,4.82-.25,6.16-2.77,2.68,3.27,4.67,3.27,7.24-.08.08.15.16.29.25.43l0,0,0,.14c1.39,2.13,3.49,2.67,6,2.3h0c.1-.12.29-.3.27-.35a1.48,1.48,0,0,0-.48-.54c-6.51-3.8-7-11.61-3.13-16.71,1-1.27,2.77-1.57,3.31-3.19C919.81,458.62,919,458.93,916.64,461.54ZM911.21,474c-1-1.29,1.07-2.71-.42-3.78h0c-.63-.1-.74-.55-.62-1.06.08-.34.16-.9.76-.44,1.2-1.14-.57-2.39.14-3.62A8.4,8.4,0,0,1,911.21,474Zm4.22-3.76c-1.24,1.11,0,2.35-.13,3.57-1.89-2.57-2-5.63-.22-8.87.64,1.15-1,2.54.47,3.41h0C916.09,469,916.35,469.65,915.43,470.23Z"/><path class="cls-53" d="M916.41,452.7c.53.67-.55.85-.55,1.41,4.48,1.27,8.41.56,11.61-3.12-5.6-3.47-8-3.44-11.52,0a1.31,1.31,0,0,0-.84,1.73,2.39,2.39,0,0,1,.22.23C915.73,452.86,916.32,452.58,916.41,452.7Z"/><path class="cls-54" d="M917,477.58l-.07-.11c-.09-.14-.17-.28-.25-.43-2.57,3.35-4.56,3.35-7.24.08-1.34,2.52-3.54,3.13-6.16,2.77a4.43,4.43,0,0,0,4.28,2c3.61-.09,7.24-.11,10.85,0a4.89,4.89,0,0,0,4.56-2h0C920.48,480.25,918.38,479.71,917,477.58Z"/><path class="cls-55" d="M911.88,457.61c-2.92.11-6-.84-8.68,1h0c2.5.3,5,.51,6.31,3.31,2.44-3.5,4.14-3.53,7.13-.36,2.36-2.61,3.17-2.92,6.29-2.45-.42-1.27-1.53-1.46-2.59-1.5-2-.08-4,0-6,0h0A1.73,1.73,0,0,1,911.88,457.61Z"/><path class="cls-56" d="M914.88,454a3.13,3.13,0,0,1-2-2.16,2.93,2.93,0,0,0-1.48-1.85c-1.75-.12-1.46.72-.88,1.8,1,1.79,2.1,3.54,1.95,5.72h1c-.51-1.6.92-2.35,1.51-3.47A.09.09,0,0,0,914.88,454Z"/><path class="cls-57" d="M914.89,454.06l1,.05h0c0-.56,1.08-.74.55-1.41-.09-.12-.68.16-1.08.28l-.06,0a1.05,1.05,0,0,0-.39,1,.09.09,0,0,1,0,.05Z"/><path class="cls-58" d="M911.88,457.61a1.73,1.73,0,0,0,2.5,0h0l-1-.1h-1Z"/><path class="cls-59" d="M915.55,468.34c-1.43-.87.17-2.26-.47-3.41-1.76,3.24-1.67,6.3.22,8.87.12-1.22-1.11-2.46.13-3.57C915,469.57,915.27,469,915.55,468.34Z"/><path class="cls-60" d="M910.93,468.71c0,.5-.09,1-.14,1.5,1.49,1.07-.54,2.49.42,3.78a8.4,8.4,0,0,0-.14-8.9C910.36,466.32,912.13,467.57,910.93,468.71Z"/><path class="cls-61" d="M910.17,469.15c-.12.51,0,1,.62,1.06h0c.05-.5.09-1,.14-1.5C910.33,468.25,910.25,468.81,910.17,469.15Z"/><path class="cls-62" d="M915.55,468.34c-.28.61-.6,1.23-.12,1.89.92-.58.66-1.23.12-1.89Z"/><polygon class="cls-1" points="940.17 452.55 940.17 452.55 940.17 452.55 940.17 452.55"/><path class="cls-63" d="M941.79,446.46h0a9.33,9.33,0,0,0,4.37-1,1.64,1.64,0,0,0,1.06-2.21,18.36,18.36,0,0,0-5.58-9.37c-1.56-1.37-2.91-1.24-4.42.08a18.57,18.57,0,0,0-5.46,9.16c-.45,1.54.36,2.21,1.61,2.58,1.6.46,3.23.83,4.84,1.23C939.39,446.68,940.51,446,941.79,446.46Zm-5.49-3c-1.61,0-2.19-.7-2.18-2a1.8,1.8,0,0,1,2-2,1.86,1.86,0,0,1,2,2A1.92,1.92,0,0,1,936.3,443.41Z"/><path class="cls-63" d="M942.38,473.58c-1.79-.61-2.59-1.48-1.64-3.33-.36-1.54-2.07.16-2.56-1.07h0c-.56-.09-1.12-.83-1.72,0,2.69,2.52,2.58,3.12-.8,4.64a6.94,6.94,0,0,0-4,6.49c0,1.16.49,1.66,1.75,1.45a7.58,7.58,0,0,0,6-4.85,7.44,7.44,0,0,0,5.79,4.8c1.49.29,1.85-.37,1.84-1.56C947.12,476.63,945.79,474.73,942.38,473.58Z"/><path class="cls-36" d="M940.17,452.55h0c1.9-1.21,4.47-.81,6.16-2.54a1.17,1.17,0,0,0-1.06-.54h0c-1.68-.39-3.34,1.23-5,0-1-.29-1.5-1.19-1-1.82s.91.25,1,.87h0c.47-.71.65-1.65,1.52-2.07h0c-1.28-.48-2.4.22-3.58.48.33,2.33-.2,3.59-2.93,2.63a25.07,25.07,0,0,0-4.07-.66,9.5,9.5,0,0,0,5.82,2.92c1.46.22,1.8,1,1.71,2.21C939.81,454.11,939.58,452.93,940.17,452.55Z"/><path class="cls-64" d="M940.74,470.25a1.65,1.65,0,0,0,1.64-1.29c-.7-.51-2.13.25-2.16-1.41s1.19-1.38,2-1.76,2.11-.52,2.44-1.94c-1.64-.7-5.47,2.06-4.34-2.7h0c-1.38.55.32,2.81-1.68,3h0c-1.57.32-3-.82-4.72-.36a3.59,3.59,0,0,0,2.95,2.13c2.27.49,2.07,1.7,1.29,3.26h0C938.67,470.41,940.38,468.71,940.74,470.25Z"/><path class="cls-64" d="M940.31,456.58h0a10.72,10.72,0,0,0,7.53-3.12l-5.42,1c-1.57.29-2.44-.22-2.25-2h0c-.59.38-.36,1.56-1.43,1.49-1.86,1.34-3.71-.22-5.57,0a1.14,1.14,0,0,0-1,.51h0a9.4,9.4,0,0,0,4.87,1.94c1.52.17,1.81.89,1.77,2.12C940.15,458.58,939.35,456.91,940.31,456.58Z"/><path class="cls-64" d="M940.34,461.15h0c2.39.15,4.33-.83,6.68-2.27-2-.57-3.14.13-4.38.26-2.09.21-2.8-.57-2.33-2.56h0c-1,.33-.16,2-1.53,2-2.19,1.51-4.49-.49-7.24.25,1.82.86,3.21,2,4.66,2.09,2.4.16,2.78,1.28,2.46,3.22h0C940.66,464,939,461.7,940.34,461.15Z"/><path class="cls-63" d="M939.25,447.66c-.5.63,0,1.53,1,1.82,0-.32,0-.63,0-1h0C940.16,447.91,939.7,447.1,939.25,447.66Z"/><path class="cls-65" d="M946.33,450c.4-.24,1-.3,1-.95a2.06,2.06,0,0,0-2.11.41h0A1.17,1.17,0,0,1,946.33,450Z"/><path class="cls-43" d="M933.17,454c-.49-.53-1.16-.77-1.67-.28-.29.29.28.62.64.79h0A1.14,1.14,0,0,1,933.17,454Z"/><path class="cls-66" d="M936.15,439.39a1.8,1.8,0,0,0-2,2c0,1.33.57,2,2.18,2a1.92,1.92,0,0,0,1.88-2A1.86,1.86,0,0,0,936.15,439.39Z"/><path class="cls-1" d="M873.08,482h0l.09,0-.09-.11Z"/><path class="cls-67" d="M879,431.29c-.46,3.65-2.86,6.11-5.25,8.57-1.44,14-.32,28-.66,42.05l.09.11a2.93,2.93,0,0,0,3.19-.69h0c0-11.5,0-23,0-34.48,0-4.44.83-8.6,3.53-12.23a6.3,6.3,0,0,0,1.11-4c0-3.94,0-7.88,0-11.82h0a3,3,0,0,1,1.32-3.24c-3.35-.68-4.52.8-4,4a11,11,0,0,1,0,1.29h0C879.71,424.24,878.67,427.8,879,431.29Z"/><path class="cls-68" d="M889.54,482h0l-.67,0h0l-.33,0h-.33c-2.82,0-5.56-1-8.44-.68a8,8,0,0,0-3.41.69c0,.66,0,1.31,0,2h0c3.35,0,6.7,0,10.06,0,1.61,0,3-.25,3.66-2Z"/><path class="cls-69" d="M881,418.77h0c1.37-.73,1.92-.36,2,1.23.13,3.58.59,7.14.57,10.71,0,2.44,1.32,4.08,2.49,5.88.87,1.36,1.89,2.62,2.84,3.93h0c0-.24,0-.48,0-.72h0c-.43-3.14-3.44-4.91-4.08-8-.9-4.38-.14-8.85-1-13.22-.24-1.19.43-2.69-1.47-3h0A3,3,0,0,0,881,418.77Z"/><path class="cls-70" d="M873.08,482h0v-.08c.34-14-.78-28.05.66-42.05l-.63,0h0a18,18,0,0,0-.74,4.15c.06,12.65,0,25.3.06,38Z"/><path class="cls-71" d="M890.19,443.36a4.38,4.38,0,0,0-1.3-3.56h0c0,.24,0,.48,0,.72,0,.66,0,1.31,0,2h0c1.06,1,.63,2.26.63,3.41q0,18.06,0,36.1h.55Q890.14,462.67,890.19,443.36Z"/><path class="cls-72" d="M873.74,439.86c2.39-2.46,4.79-4.92,5.25-8.57l-.69-.69h0c-.71,3.67-4,5.86-5.19,9.28h0Z"/><path class="cls-73" d="M879,431.29c-.32-3.49.72-7.05-.62-10.48h0c0,3.26,0,6.53-.07,9.79h0Z"/><path class="cls-74" d="M876.36,481.33h0a2.93,2.93,0,0,1-3.19.69l-.09,0h-.65c.55,2.19,2.3,2,3.94,2h0c0-.66,0-1.31,0-2Z"/><path class="cls-75" d="M886,436.59c-1.17-1.8-2.51-3.44-2.49-5.88,0-3.57-.44-7.13-.57-10.71-.06-1.59-.61-2-2-1.23h0c0,3.94,0,7.88,0,11.82a6.3,6.3,0,0,1-1.11,4c-2.7,3.63-3.54,7.79-3.53,12.23,0,11.49,0,23,0,34.48h0V482a8,8,0,0,1,3.41-.69c2.88-.35,5.62.64,8.44.68q0-16.73,0-33.45c0-1.15-.43-2.43.64-3.4,0-.88,0-1.77,0-2.65h0c0-.65,0-1.3,0-2h0C887.92,439.21,886.9,438,886,436.59Z"/><path class="cls-76" d="M888.87,445.13V482l.67,0h0q0-18,0-36.1c0-1.15.43-2.43-.63-3.41h0C888.87,443.36,888.87,444.25,888.87,445.13Z"/><path class="cls-77" d="M888.87,445.13c-1.07,1-.63,2.25-.64,3.4q0,16.73,0,33.45h.33l.33,0h0Z"/><rect class="cls-84" x="804.32" y="404.52" width="73.44" height="65.4"/><rect class="cls-85" x="948.36" y="364.12" width="95.29" height="119.97"/><text class="cls-86" transform="translate(826.98 400.23)">recycling</text><rect class="cls-87" x="867.22" y="415.24" width="26.81" height="72"/><rect class="cls-88" x="899.8" y="440.78" width="28.37" height="47.64"/><rect class="cls-89" x="928.65" y="428.6" width="23.48" height="57.36"/><text class="cls-90" transform="translate(898.7 437.84)">compost</text><text class="cls-91" transform="translate(953.71 375.88)">landfill</text></g><path class="cls-92" d="M627.87,647.55c-23.74-17.44-89.9-32.37-89.9-32.37l-12.7,5.74c-10.15,13.58-37.88,54.34-38.83,113.47-1,62.92,29,106.48,38.83,119.68h97.78l8.37-183.27Z"/><path class="cls-93" d="M846.29,517.28s7.32-.33,9.07,1.64c0,0-.75,2.08-7,2.88C848.33,521.8,844.63,518.89,846.29,517.28Z"/><path class="cls-94" d="M846.29,517.28s4.65,3.47,2,4.52c0,0-12.11,4.12-23,3.48C825.33,525.28,829,515.24,846.29,517.28Z"/><path class="cls-93" d="M865,326.38s6.17-.56,5.11,2.41c0,0-6.84,4.7-12.15,4.1Z"/><path class="cls-94" d="M845.78,325,865,326.38s1.87,3.5-3.71,6.06C861.24,332.44,851.66,335.67,845.78,325Z"/><polygon class="cls-95" points="636.44 622.53 627.87 647.55 537.97 615.18 558.37 577.21 636.44 622.53"/><path class="cls-96" d="M613.83,630.67a4.61,4.61,0,1,0,4.61-4.59A4.59,4.59,0,0,0,613.83,630.67Z"/><path class="cls-97" d="M1077.1,423.54a6.39,6.39,0,1,1-6.39-6.36A6.38,6.38,0,0,1,1077.1,423.54Z"/><path class="cls-98" d="M782.52,453.43a3.83,3.83,0,0,1-3.84,3.81h0a3.83,3.83,0,0,1-3.83-3.81V393.65a3.83,3.83,0,0,1,3.83-3.82h0a3.83,3.83,0,0,1,3.84,3.82Z"/><path class="cls-92" d="M1326.58,621.17l-13.23-6s-66.17,14.93-89.91,32.37l-3.54,23.25,8.36,183.27h98.32c11.52-21.35,36.64-75,28.61-144.36A239.62,239.62,0,0,0,1326.58,621.17Z"/><path class="cls-93" d="M1005,517.28s-7.32-.33-9.07,1.64c0,0,.75,2.08,7,2.88C1003,521.8,1006.68,518.89,1005,517.28Z"/><path class="cls-94" d="M1005,517.28s-4.65,3.47-2,4.52c0,0,12.11,4.12,23,3.48C1026,525.28,1022.35,515.24,1005,517.28Z"/><path class="cls-93" d="M986.37,326.38s-6.18-.56-5.12,2.41c0,0,6.84,4.7,12.15,4.1Z"/><path class="cls-94" d="M1005.53,325l-19.16,1.41s-1.88,3.5,3.7,6.06C990.07,332.44,999.65,335.67,1005.53,325Z"/><path class="cls-99" d="M1281.59,585.06,1167.84,377.12s-12.78-27.35-26.84-20.35-3.83,23.53-3.83,23.53-56.23-67.41-60.07-67.41S1005.53,325,1005.53,325s-6.39,14.63-24.28,3.82c0,0-5.11,8.26,7,16.53s38.34,0,38.34,0,15.42,4.21,44.09-2.54c0,0,29.4,57.23,39.62,74.4,0,0,24.28,59.14.64,76.31s-55.59-.64-85.63,3.81S996,518.92,996,518.92s23.64-7,30,6.36c0,0,42.82,8.91,63.9,8.27,0,0,69.66-3.18,102.88,19.71s40.9,59.14,40.9,59.14Z"/><polygon class="cls-95" points="1214.87 622.53 1223.44 647.55 1313.35 615.18 1292.94 577.21 1214.87 622.53"/><path class="cls-96" d="M1237.48,630.67a4.61,4.61,0,1,1-4.61-4.59A4.59,4.59,0,0,1,1237.48,630.67Z"/><rect class="cls-100" x="790.91" y="353.97" width="29.97" height="139.07"/><rect class="cls-101" x="794.28" y="366.11" width="23.23" height="16.87"/><rect class="cls-102" x="796.19" y="367.82" width="19.41" height="13.46"/><polygon class="cls-102" points="818.35 433.2 817.52 434.02 804.95 421.58 805.78 420.76 818.35 433.2"/><path class="cls-102" d="M804,417.54a1.61,1.61,0,0,1,0,2.28,1.65,1.65,0,0,1-2.31,0,1.59,1.59,0,0,1,0-2.28A1.63,1.63,0,0,1,804,417.54Z"/><polygon class="cls-102" points="796.45 411.84 795.93 412.35 800.17 416.54 800.68 416.03 796.45 411.84"/><rect class="cls-102" x="793.46" y="418.87" width="5.99" height="0.72" transform="translate(-32.88 69.52) rotate(-4.9)"/><polygon class="cls-102" points="797.15 426.1 797.75 426.51 801.18 421.65 800.58 421.24 797.15 426.1"/><polygon class="cls-102" points="804.93 427.76 805.63 427.57 804.08 421.85 803.38 422.04 804.93 427.76"/><polygon class="cls-102" points="803.3 409.38 804.02 409.44 803.5 415.34 802.78 415.28 803.3 409.38"/><polygon class="cls-102" points="810.34 413.05 810.76 413.64 805.85 417.04 805.43 416.45 810.34 413.05"/><polygon class="cls-102" points="812.02 420.74 811.84 421.44 806.05 419.9 806.24 419.21 812.02 420.74"/><path class="cls-102" d="M811.74,464.56V460.9H800.06v3.66h-5.81V480h23.3V464.56Zm-5.84,12.57a4.83,4.83,0,1,1,4.88-4.83A4.86,4.86,0,0,1,805.9,477.13Z"/><rect class="cls-100" x="1030.84" y="353.59" width="29.97" height="139.06"/><path class="cls-102" d="M1049.32,367.92v-2.19h-7v2.19h-3.47v9.24h13.93v-9.24Zm-3.5,7.51a2.89,2.89,0,1,1,2.92-2.89A2.9,2.9,0,0,1,1045.82,375.43Z"/><polygon class="cls-102" points="1052.79 393.6 1049.66 395.39 1049.66 392.4 1038.86 392.4 1038.86 401.81 1049.66 401.81 1049.66 398.82 1052.79 400.62 1052.79 393.6"/><path class="cls-103" d="M1047.49,388.7a1.66,1.66,0,0,1-1.67,1.66h0a1.66,1.66,0,0,1-1.66-1.66v-7.76a1.66,1.66,0,0,1,1.66-1.66h0a1.66,1.66,0,0,1,1.67,1.66Z"/><path class="cls-102" d="M1047.49,380.94a1.67,1.67,0,1,1-1.67-1.66A1.67,1.67,0,0,1,1047.49,380.94Z"/><path class="cls-102" d="M1055.49,423.12a9.67,9.67,0,1,1-9.67-9.62A9.65,9.65,0,0,1,1055.49,423.12Z"/><path class="cls-104" d="M1051.39,423.12a5.57,5.57,0,1,1-5.57-5.54A5.55,5.55,0,0,1,1051.39,423.12Z"/><path class="cls-102" d="M1057.6,485a2.41,2.41,0,0,1-2.41,2.4h-18.73a2.41,2.41,0,0,1-2.41-2.4V465.71a2.4,2.4,0,0,1,2.41-2.39h18.73a2.4,2.4,0,0,1,2.41,2.39Z"/><path class="cls-99" d="M569.72,585.06,683.47,377.12s12.78-27.35,26.84-20.35,3.83,23.53,3.83,23.53,56.23-67.41,60.07-67.41S845.78,325,845.78,325s6.39,14.63,24.28,3.82c0,0,5.11,8.26-7,16.53s-38.34,0-38.34,0-15.42,4.21-44.09-2.54c0,0-29.4,57.23-39.62,74.4,0,0-24.28,59.14-.64,76.31s55.59-.64,85.63,3.81,29.39,21.62,29.39,21.62-23.64-7-30,6.36c0,0-42.81,8.91-63.9,8.27,0,0-69.65-3.18-102.88,19.71s-40.9,59.14-40.9,59.14Z"/></g></svg>