<svg id="Layer_1" data-name="Layer 1" xmlns="http://www.w3.org/2000/svg" viewBox="0 0 285 166.1"><defs><style>.cls-1{fill:#5a9e8e;}.cls-2{fill:#cac5c2;}.cls-3{fill:#c4854f;}.cls-4{fill:#b7794b;}.cls-5{fill:#5c7033;}.cls-6{fill:#a6cd5d;}.cls-7{fill:#6f843b;}.cls-8{fill:#85a943;}.cls-9{fill:#58863f;}.cls-10{fill:#4e7c39;}.cls-11{fill:#91b053;}.cls-12{fill:#85a4b4;}.cls-13{fill:#a0c4da;}.cls-14{fill:#bed9e7;}.cls-15{fill:#fff;}.cls-16{fill:#010101;}.cls-17{fill:#2a4235;}.cls-18{fill:#3b5849;}.cls-19{fill:#e9f2f1;}.cls-20{fill:#f4fffe;}.cls-21{fill:#6ab5a5;}</style></defs><title>trash</title><ellipse class="cls-1" cx="142.5" cy="152.12" rx="142.5" ry="13.99"/><path class="cls-2" d="M186,104.77l.61-8.08s-5.68-3.34-2.61-6,5.26,1.18,5.26,1.18,3.11-4,5.15-.82-2.9,5.11-2.9,5.11l-1,8.82-4.22.27" transform="translate(-101 -72.9)"/><path class="cls-3" d="M187,104.5a4.77,4.77,0,0,1-1.13-.18c-2.08,1.94-20,19.39-7.6,32.06a18.27,18.27,0,0,0,2.29,2C185.14,132.92,195.65,118,187,104.5Z" transform="translate(-101 -72.9)"/><path class="cls-4" d="M187,104.5c8.65,13.48-1.86,28.42-6.44,33.88,11.73,8.64,18.09-12.72,18.09-12.72S200.92,113,190.46,104A9.48,9.48,0,0,1,187,104.5Z" transform="translate(-101 -72.9)"/><path class="cls-5" d="M163.4,107.79a4.77,4.77,0,0,0-.77-3.58,4.71,4.71,0,0,0-3-1.87,5.55,5.55,0,0,0-1-3.55,5.71,5.71,0,0,0-6.84-1.9,6.53,6.53,0,0,0-.76-1.39c-1.87-2.63-5.2-3.47-7.43-1.88-2,1.42-2.44,4.29-1.18,6.76a5.32,5.32,0,0,0-.95,7.05,5,5,0,0,0,3.09,2,5.68,5.68,0,0,0,.38,5.73,5.54,5.54,0,0,0,4.39,2.27,7.51,7.51,0,0,0,1.29,3,6.94,6.94,0,0,0,9.22,2.2,30.51,30.51,0,0,1,7.19,7.2l1-.71.36-.26,1-.71a30.49,30.49,0,0,1-4.27-8.55l.09-.15a7,7,0,0,0,.74-9.27,7.43,7.43,0,0,0-2.42-2.2Z" transform="translate(-101 -72.9)"/><path class="cls-6" d="M168.26,128.79a.22.22,0,0,1-.31,0L143.42,94.29a.22.22,0,0,1,.36-.26l24.53,34.45A.22.22,0,0,1,168.26,128.79Z" transform="translate(-101 -72.9)"/><path class="cls-6" d="M151.74,105.59a6.71,6.71,0,0,1-3,1.08,15,15,0,0,1-3.31,0,23.28,23.28,0,0,1-3.78-.66.23.23,0,0,1-.16-.27.24.24,0,0,1,.28-.16,21.93,21.93,0,0,0,3.71.65c1.85.16,4.4.11,6-1a.22.22,0,0,1,.26.36Z" transform="translate(-101 -72.9)"/><path class="cls-6" d="M153.41,107.81a.23.23,0,0,1-.31,0,.22.22,0,0,1,.05-.31,8.88,8.88,0,0,0,3.22-5.58,13.8,13.8,0,0,0,.26-3.5.23.23,0,0,1,.21-.23.22.22,0,0,1,.24.2,15.33,15.33,0,0,1-.28,3.62,11.5,11.5,0,0,1-1.06,3.11A7.64,7.64,0,0,1,153.41,107.81Z" transform="translate(-101 -72.9)"/><path class="cls-6" d="M157.42,113.56a6.7,6.7,0,0,1-3.13,1.07,17.07,17.07,0,0,1-3.49,0,25.11,25.11,0,0,1-4-.78.22.22,0,0,1,.12-.42,25.72,25.72,0,0,0,4,.76c2,.21,4.66.21,6.31-1a.22.22,0,0,1,.26.36Z" transform="translate(-101 -72.9)"/><path class="cls-6" d="M156.13,111.69a.22.22,0,0,1-.31,0,.22.22,0,0,1,.06-.31,15.6,15.6,0,0,0,4-4.35,14.88,14.88,0,0,0,1.26-2.37.22.22,0,0,1,.29-.12.21.21,0,0,1,.12.28,14.38,14.38,0,0,1-1.29,2.45A16.24,16.24,0,0,1,156.13,111.69Z" transform="translate(-101 -72.9)"/><path class="cls-6" d="M162,120a6.54,6.54,0,0,1-2.78,1.08,11.66,11.66,0,0,1-2.86.07,15.41,15.41,0,0,1-3.15-.6.22.22,0,0,1-.14-.28.22.22,0,0,1,.28-.14h0a16,16,0,0,0,3.06.58,8.16,8.16,0,0,0,5.33-1.07.22.22,0,0,1,.26.36Z" transform="translate(-101 -72.9)"/><path class="cls-6" d="M162.28,116.32a9,9,0,0,1-2.14,1.16.23.23,0,0,1-.29-.13.23.23,0,0,1,.14-.29,8.74,8.74,0,0,0,2.32-1.31,7.6,7.6,0,0,0,2.92-4.55.23.23,0,0,1,.26-.18.23.23,0,0,1,.18.26,7.71,7.71,0,0,1-1.24,2.92,9.07,9.07,0,0,1-1.86,1.91Z" transform="translate(-101 -72.9)"/><path class="cls-7" d="M169.51,107.86a4.63,4.63,0,0,0-2.19-6.23,5.6,5.6,0,0,0-.06-3.7,5.72,5.72,0,0,0-6.11-3.6,7.13,7.13,0,0,0-.38-1.53c-1.13-3-4.13-4.7-6.69-3.74-2.29.85-3.47,3.51-2.9,6.22a5.33,5.33,0,0,0-2.73,6.56,5,5,0,0,0,2.46,2.74,5.67,5.67,0,0,0-1.11,5.64,5.56,5.56,0,0,0,3.65,3.33,7.69,7.69,0,0,0,.46,3.25,6.94,6.94,0,0,0,8.34,4.5,30.51,30.51,0,0,1,5.08,8.82l1.15-.43.42-.15,1.15-.43a30.9,30.9,0,0,1-1.92-9.37l.13-.12a7,7,0,0,0,3.12-8.76,7.62,7.62,0,0,0-1.77-2.75Z" transform="translate(-101 -72.9)"/><path class="cls-6" d="M168.77,129.4a.22.22,0,0,1-.28-.13L153.7,89.65a.22.22,0,0,1,.13-.29.22.22,0,0,1,.28.13l14.79,39.63A.21.21,0,0,1,168.77,129.4Z" transform="translate(-101 -72.9)"/><path class="cls-6" d="M158.82,102.72a6.84,6.84,0,0,1-3.2.26,14.79,14.79,0,0,1-3.2-.82,23,23,0,0,1-3.48-1.61.23.23,0,0,1-.08-.31.21.21,0,0,1,.3-.07,23.33,23.33,0,0,0,3.42,1.58c1.75.63,4.22,1.25,6.08.55a.22.22,0,1,1,.16.42Z" transform="translate(-101 -72.9)"/><path class="cls-6" d="M159.85,105.29a.22.22,0,0,1-.28-.13.23.23,0,0,1,.13-.29,8.86,8.86,0,0,0,4.55-4.55A14.72,14.72,0,0,0,165.41,97a.22.22,0,0,1,.43.09,14.53,14.53,0,0,1-1.2,3.42,11.91,11.91,0,0,1-1.82,2.73A7.81,7.81,0,0,1,159.85,105.29Z" transform="translate(-101 -72.9)"/><path class="cls-6" d="M162.24,111.88a6.64,6.64,0,0,1-3.3.22,15.72,15.72,0,0,1-3.36-.93,24.9,24.9,0,0,1-3.7-1.79.22.22,0,0,1-.07-.3.22.22,0,0,1,.3-.08,25.48,25.48,0,0,0,3.63,1.76c1.85.71,4.45,1.41,6.34.71a.22.22,0,0,1,.29.13A.22.22,0,0,1,162.24,111.88Z" transform="translate(-101 -72.9)"/><path class="cls-6" d="M161.48,109.75a.24.24,0,0,1-.29-.13.23.23,0,0,1,.13-.29,16.77,16.77,0,0,0,6.85-5.12.22.22,0,1,1,.35.26,14.36,14.36,0,0,1-1.88,2A16.16,16.16,0,0,1,161.48,109.75Z" transform="translate(-101 -72.9)"/><path class="cls-6" d="M165,119.24a6.6,6.6,0,0,1-3,.32,11.91,11.91,0,0,1-2.78-.67,16.13,16.13,0,0,1-2.89-1.4.22.22,0,0,1-.07-.3.22.22,0,0,1,.31-.07h0a15.15,15.15,0,0,0,2.81,1.35,8.18,8.18,0,0,0,5.43.35.22.22,0,0,1,.28.13A.23.23,0,0,1,165,119.24Z" transform="translate(-101 -72.9)"/><path class="cls-6" d="M166.22,115.81a10.19,10.19,0,0,1-2.37.57.23.23,0,0,1-.24-.21.22.22,0,0,1,.21-.24,9.18,9.18,0,0,0,2.58-.67,7.55,7.55,0,0,0,4-3.63.23.23,0,0,1,.3-.11.22.22,0,0,1,.1.3,7.37,7.37,0,0,1-1.95,2.49,9.09,9.09,0,0,1-2.28,1.37Z" transform="translate(-101 -72.9)"/><path class="cls-8" d="M178.13,109.94a4.62,4.62,0,0,0,.4-6.59,5.48,5.48,0,0,0,1.38-3.43,5.71,5.71,0,0,0-4.23-5.69,6.6,6.6,0,0,0,.24-1.56c.14-3.23-2-5.93-4.71-6-2.44-.1-4.55,1.9-5.08,4.61a5.33,5.33,0,0,0-5.07,5,5.11,5.11,0,0,0,1.21,3.49,5.67,5.67,0,0,0-3.22,4.76,5.53,5.53,0,0,0,2.08,4.48,7.65,7.65,0,0,0-.84,3.18,7,7,0,0,0,5.94,7.39,30.43,30.43,0,0,1,1.26,10.1l1.22,0,.46,0,1.22.05a30.31,30.31,0,0,1,1.87-9.38l.16-.06a7,7,0,0,0,6.27-6.87,7.65,7.65,0,0,0-.56-3.22Z" transform="translate(-101 -72.9)"/><path class="cls-6" d="M169.09,129.51a.23.23,0,0,1-.21-.23L170.63,87a.22.22,0,0,1,.44,0l-1.74,42.26A.23.23,0,0,1,169.09,129.51Z" transform="translate(-101 -72.9)"/><path class="cls-6" d="M170.28,101.05a6.76,6.76,0,0,1-3.05-1,15.66,15.66,0,0,1-2.63-2A23,23,0,0,1,162,95.22a.22.22,0,1,1,.36-.26,23,23,0,0,0,2.53,2.78c1.37,1.26,3.41,2.79,5.39,2.87a.22.22,0,1,1,0,.44Z" transform="translate(-101 -72.9)"/><path class="cls-6" d="M170.23,103.83a.23.23,0,0,1,0-.45,8.79,8.79,0,0,0,6-2.43,14.29,14.29,0,0,0,2.36-2.6.21.21,0,0,1,.3-.06.22.22,0,0,1,.06.31,15,15,0,0,1-2.43,2.69,11.44,11.44,0,0,1-2.74,1.8A7.61,7.61,0,0,1,170.23,103.83Z" transform="translate(-101 -72.9)"/><path class="cls-6" d="M169.87,110.83a6.6,6.6,0,0,1-3.12-1.08,16,16,0,0,1-2.74-2.16,25.56,25.56,0,0,1-2.71-3.09.22.22,0,0,1,.36-.25,25.5,25.5,0,0,0,2.66,3c1.43,1.38,3.55,3,5.57,3.11a.22.22,0,0,1,.21.24A.22.22,0,0,1,169.87,110.83Z" transform="translate(-101 -72.9)"/><path class="cls-6" d="M170,108.57a.22.22,0,0,1-.21-.23.23.23,0,0,1,.23-.22,15.84,15.84,0,0,0,5.85-1,17.12,17.12,0,0,0,2.45-1.1.21.21,0,0,1,.3.07.23.23,0,0,1-.08.31,15.92,15.92,0,0,1-2.52,1.14A16.43,16.43,0,0,1,170,108.57Z" transform="translate(-101 -72.9)"/><path class="cls-6" d="M169.55,118.67a6.68,6.68,0,0,1-2.86-.85,11.71,11.71,0,0,1-2.3-1.7,15.57,15.57,0,0,1-2.12-2.41.22.22,0,0,1,.06-.31.22.22,0,0,1,.3.06h0a15.64,15.64,0,0,0,2.07,2.34,8.19,8.19,0,0,0,4.87,2.43.22.22,0,1,1,0,.44Z" transform="translate(-101 -72.9)"/><path class="cls-6" d="M172,116a9.26,9.26,0,0,1-2.41-.4.22.22,0,0,1-.14-.28.24.24,0,0,1,.28-.14,9.2,9.2,0,0,0,2.65.39,7.61,7.61,0,0,0,5.09-1.8.22.22,0,1,1,.29.33,7.44,7.44,0,0,1-2.76,1.54,8.73,8.73,0,0,1-2.64.37Z" transform="translate(-101 -72.9)"/><path class="cls-3" d="M181.65,135.43c.58.54.91.74,1.4.24s.42-1.92,1.15-2.51.77.69,1.6-.1.3-1.49,1-1.84c-.42-.76-.87-1.63-1.33-2.59-2-4.23-.42-5-1.49-7.9s0-6.1-2.85-16S172.18,93,170.87,94.1s-4,2-6.72,13,15.4,25,15.4,25a11.76,11.76,0,0,1,.95,4.05C180.74,135.74,181.24,135,181.65,135.43Z" transform="translate(-101 -72.9)"/><path class="cls-2" d="M190.09,141.15c-.05-.39-.8-5.87-.8-5.87a36.78,36.78,0,0,1-2.51-4.06c-.68.35-.17,1.05-1,1.84s-.88-.5-1.6.1-.66,2-1.15,2.51-.82.3-1.4-.24c-.41-.4-.91.31-1.15.72a41,41,0,0,1,.33,7.2,2.9,2.9,0,0,0,1.86,2.94s5.55.7,7.53-1.3S190.15,141.54,190.09,141.15Z" transform="translate(-101 -72.9)"/><path class="cls-4" d="M169.88,115.19c1.78,4,4.73,6.68,6.59,5.86s1.92-4.76.15-8.81-4.73-6.68-6.59-5.87S168.1,111.14,169.88,115.19Z" transform="translate(-101 -72.9)"/><polygon class="cls-9" points="113.37 26.53 101.85 69.64 103.64 70.12 116.14 23.32 113.37 26.53"/><polygon class="cls-10" points="116.94 27.48 116.15 23.3 116.14 23.32 103.64 70.12 105.42 70.6 116.94 27.48"/><path class="cls-11" d="M215.76,101c-.26,1-.77,1-1.33.87s-1-.44-.72-1.42a5.73,5.73,0,0,1,1.66-2.12A5.76,5.76,0,0,1,215.76,101Z" transform="translate(-101 -72.9)"/><path class="cls-11" d="M218.3,100.11c-.24.9-.7.94-1.22.8s-.91-.41-.67-1.31A5.28,5.28,0,0,1,218,97.65,5.35,5.35,0,0,1,218.3,100.11Z" transform="translate(-101 -72.9)"/><path class="cls-11" d="M217.34,104.81c-.33,1-.84,1-1.39.78s-.95-.52-.61-1.48a5.68,5.68,0,0,1,1.82-2A5.7,5.7,0,0,1,217.34,104.81Z" transform="translate(-101 -72.9)"/><path class="cls-11" d="M213.77,107.36c-.18,1-.68,1.09-1.26,1s-1-.36-.84-1.36a5.83,5.83,0,0,1,1.49-2.25A5.73,5.73,0,0,1,213.77,107.36Z" transform="translate(-101 -72.9)"/><path class="cls-11" d="M215.73,111.08c-.34,1-.84,1-1.4.78s-.94-.52-.61-1.48a5.68,5.68,0,0,1,1.82-2A5.8,5.8,0,0,1,215.73,111.08Z" transform="translate(-101 -72.9)"/><path class="cls-11" d="M212.33,113c-.18,1-.68,1.09-1.26,1s-1-.36-.83-1.36a5.72,5.72,0,0,1,1.49-2.25A5.77,5.77,0,0,1,212.33,113Z" transform="translate(-101 -72.9)"/><path class="cls-11" d="M213.94,117.78c-.34,1-.84,1-1.4.78s-.95-.52-.61-1.48a5.68,5.68,0,0,1,1.82-2A5.8,5.8,0,0,1,213.94,117.78Z" transform="translate(-101 -72.9)"/><path class="cls-11" d="M210.42,118.53c-.15.88-.59,1-1.1.87s-.9-.32-.74-1.2a5.11,5.11,0,0,1,1.31-2A5.08,5.08,0,0,1,210.42,118.53Z" transform="translate(-101 -72.9)"/><polygon class="cls-9" points="117.74 30.63 106.22 73.74 108.01 74.22 120.51 27.42 117.74 30.63"/><polygon class="cls-10" points="121.31 31.58 120.52 27.4 120.51 27.42 108.01 74.22 109.8 74.7 121.31 31.58"/><path class="cls-11" d="M220.13,105.13c-.26,1-.76,1-1.33.87s-1-.44-.72-1.42a5.72,5.72,0,0,1,1.67-2.12A5.8,5.8,0,0,1,220.13,105.13Z" transform="translate(-101 -72.9)"/><path class="cls-11" d="M222.67,104.21c-.24.9-.7.94-1.22.8s-.91-.41-.67-1.31a5.28,5.28,0,0,1,1.54-2A5.35,5.35,0,0,1,222.67,104.21Z" transform="translate(-101 -72.9)"/><path class="cls-11" d="M221.71,108.91c-.33,1-.84,1-1.39.78s-.95-.52-.61-1.48a5.68,5.68,0,0,1,1.82-2A5.7,5.7,0,0,1,221.71,108.91Z" transform="translate(-101 -72.9)"/><path class="cls-11" d="M218.14,111.46c-.18,1-.68,1.09-1.26,1s-1-.36-.83-1.36a5.73,5.73,0,0,1,1.48-2.25A5.73,5.73,0,0,1,218.14,111.46Z" transform="translate(-101 -72.9)"/><path class="cls-11" d="M220.1,115.18c-.34,1-.84,1-1.4.78s-.94-.52-.61-1.48a5.78,5.78,0,0,1,1.82-2A5.8,5.8,0,0,1,220.1,115.18Z" transform="translate(-101 -72.9)"/><path class="cls-11" d="M216.7,117.06c-.18,1-.68,1.09-1.26,1s-1-.36-.83-1.36a5.72,5.72,0,0,1,1.49-2.25A5.77,5.77,0,0,1,216.7,117.06Z" transform="translate(-101 -72.9)"/><path class="cls-11" d="M218.31,121.88c-.34,1-.84,1-1.4.78s-.94-.52-.61-1.48a5.68,5.68,0,0,1,1.82-2A5.8,5.8,0,0,1,218.31,121.88Z" transform="translate(-101 -72.9)"/><path class="cls-11" d="M214.8,122.63c-.16.88-.6,1-1.11.87s-.9-.32-.74-1.2a5.11,5.11,0,0,1,1.31-2A5.18,5.18,0,0,1,214.8,122.63Z" transform="translate(-101 -72.9)"/><polygon class="cls-9" points="108.12 25.72 96.61 68.84 98.39 69.31 110.89 22.52 108.12 25.72"/><polygon class="cls-10" points="111.7 26.68 110.91 22.5 110.89 22.52 98.39 69.31 100.18 69.79 111.7 26.68"/><path class="cls-11" d="M210.52,100.22c-.26,1-.77,1-1.34.88s-1-.44-.72-1.42a5.78,5.78,0,0,1,1.67-2.13A5.76,5.76,0,0,1,210.52,100.22Z" transform="translate(-101 -72.9)"/><path class="cls-11" d="M213.06,99.31c-.24.9-.71.94-1.23.8s-.9-.41-.66-1.31a5.29,5.29,0,0,1,1.53-2A5.31,5.31,0,0,1,213.06,99.31Z" transform="translate(-101 -72.9)"/><path class="cls-11" d="M212.1,104c-.34,1-.84,1-1.4.77s-.95-.52-.61-1.47a5.68,5.68,0,0,1,1.82-2A5.78,5.78,0,0,1,212.1,104Z" transform="translate(-101 -72.9)"/><path class="cls-11" d="M208.52,106.55c-.18,1-.68,1.09-1.26,1s-1-.37-.83-1.36a5.78,5.78,0,0,1,1.49-2.26A5.81,5.81,0,0,1,208.52,106.55Z" transform="translate(-101 -72.9)"/><path class="cls-11" d="M210.48,110.28c-.33,1-.84,1-1.39.77s-1-.52-.62-1.47a5.77,5.77,0,0,1,1.83-2A5.69,5.69,0,0,1,210.48,110.28Z" transform="translate(-101 -72.9)"/><path class="cls-11" d="M207.09,112.15c-.18,1-.68,1.09-1.26,1s-1-.37-.84-1.36a5.78,5.78,0,0,1,1.49-2.26A5.77,5.77,0,0,1,207.09,112.15Z" transform="translate(-101 -72.9)"/><path class="cls-11" d="M208.69,117c-.33,1-.84,1-1.39.77s-1-.51-.62-1.47a5.77,5.77,0,0,1,1.83-2A5.69,5.69,0,0,1,208.69,117Z" transform="translate(-101 -72.9)"/><path class="cls-11" d="M205.18,117.73c-.16.88-.6,1-1.11.86s-.89-.32-.74-1.19a5.1,5.1,0,0,1,1.32-2A5.08,5.08,0,0,1,205.18,117.73Z" transform="translate(-101 -72.9)"/><polygon class="cls-9" points="101.91 21.75 90.53 64.91 88.74 64.43 101.1 17.59 101.91 21.75"/><polygon class="cls-10" points="98.34 20.81 101.09 17.58 101.1 17.59 88.74 64.43 86.95 63.96 98.34 20.81"/><path class="cls-11" d="M200.91,95.35c-.26,1,.15,1.28.72,1.43s1.08.1,1.33-.88a5.76,5.76,0,0,0-.39-2.67A5.63,5.63,0,0,0,200.91,95.35Z" transform="translate(-101 -72.9)"/><path class="cls-11" d="M199.16,93.3c-.24.9.14,1.17.66,1.3s1,.1,1.23-.81a5.35,5.35,0,0,0-.37-2.45A5.26,5.26,0,0,0,199.16,93.3Z" transform="translate(-101 -72.9)"/><path class="cls-11" d="M197.65,97.86c-.18,1,.26,1.25.83,1.36s1.08,0,1.27-1a5.77,5.77,0,0,0-.6-2.63A5.82,5.82,0,0,0,197.65,97.86Z" transform="translate(-101 -72.9)"/><path class="cls-11" d="M199.5,101.84c-.34,1,.05,1.28.6,1.48s1.06.19,1.4-.77a5.78,5.78,0,0,0-.17-2.7A5.68,5.68,0,0,0,199.5,101.84Z" transform="translate(-101 -72.9)"/><path class="cls-11" d="M196,104.1c-.19,1,.25,1.26.83,1.37s1.08,0,1.26-1a5.82,5.82,0,0,0-.6-2.64A5.72,5.72,0,0,0,196,104.1Z" transform="translate(-101 -72.9)"/><path class="cls-11" d="M198,107.41c-.34,1,.05,1.29.6,1.48s1.06.19,1.4-.77a5.75,5.75,0,0,0-.17-2.69A5.71,5.71,0,0,0,198,107.41Z" transform="translate(-101 -72.9)"/><path class="cls-11" d="M194.18,110.81c-.19,1,.25,1.26.83,1.36s1.08,0,1.26-1a5.68,5.68,0,0,0-.6-2.63A5.72,5.72,0,0,0,194.18,110.81Z" transform="translate(-101 -72.9)"/><path class="cls-11" d="M196.86,113.2c-.3.84,0,1.13.53,1.3s.94.17,1.24-.67a5.18,5.18,0,0,0-.16-2.38A5.13,5.13,0,0,0,196.86,113.2Z" transform="translate(-101 -72.9)"/><polygon class="cls-9" points="106.87 23.66 95.48 66.81 93.69 66.34 106.05 19.5 106.87 23.66"/><polygon class="cls-10" points="103.29 22.71 106.05 19.48 106.05 19.5 93.69 66.34 91.91 65.87 103.29 22.71"/><path class="cls-11" d="M205.86,97.26c-.26,1,.16,1.27.72,1.42s1.08.1,1.34-.88a5.72,5.72,0,0,0-.4-2.67A5.79,5.79,0,0,0,205.86,97.26Z" transform="translate(-101 -72.9)"/><path class="cls-11" d="M204.11,95.2c-.24.9.14,1.17.67,1.31s1,.09,1.22-.81a5.31,5.31,0,0,0-.36-2.46A5.35,5.35,0,0,0,204.11,95.2Z" transform="translate(-101 -72.9)"/><path class="cls-11" d="M202.61,99.76c-.19,1,.25,1.26.83,1.36s1.08,0,1.26-1a5.69,5.69,0,0,0-.6-2.64A5.72,5.72,0,0,0,202.61,99.76Z" transform="translate(-101 -72.9)"/><path class="cls-11" d="M204.45,103.74c-.34,1,.05,1.28.61,1.48s1.06.19,1.4-.77a5.7,5.7,0,0,0-.18-2.69A5.81,5.81,0,0,0,204.45,103.74Z" transform="translate(-101 -72.9)"/><path class="cls-11" d="M200.9,106c-.18,1,.25,1.25.83,1.36s1.08,0,1.26-1a5.67,5.67,0,0,0-.59-2.63A5.7,5.7,0,0,0,200.9,106Z" transform="translate(-101 -72.9)"/><path class="cls-11" d="M202.92,109.32c-.34,1,.05,1.28.6,1.48s1.07.18,1.41-.77a5.88,5.88,0,0,0-.18-2.7A5.77,5.77,0,0,0,202.92,109.32Z" transform="translate(-101 -72.9)"/><path class="cls-11" d="M199.13,112.71c-.18,1,.25,1.26.83,1.37s1.08,0,1.26-1a5.73,5.73,0,0,0-.59-2.64A5.82,5.82,0,0,0,199.13,112.71Z" transform="translate(-101 -72.9)"/><path class="cls-11" d="M201.81,115.1c-.3.85.05,1.13.54,1.31s.93.16,1.23-.68a5,5,0,0,0-.16-2.37A5.06,5.06,0,0,0,201.81,115.1Z" transform="translate(-101 -72.9)"/><polygon class="cls-12" points="189.22 2.85 194.36 1.7 194.41 1.32 194.91 1.58 195.83 1.38 195.84 2.05 198.04 3.17 198.03 3.63 189.2 3.31 189.22 2.85"/><path class="cls-13" d="M289.84,86.28l.36-10.07,8.83.31-.36,10.07s7.77,5.7,7.44,15.09-1.4,39-1.4,39h0c-.14,2.48-5.74,4.28-12.55,4s-12.26-2.45-12.22-4.93h0s1.06-29.61,1.4-39S289.84,86.28,289.84,86.28Z" transform="translate(-101 -72.9)"/><path class="cls-14" d="M288.85,74.27a1.41,1.41,0,0,0,1.37,1.47l8.82.32a1.43,1.43,0,0,0,1.48-1.37h0a1.43,1.43,0,0,0-1.37-1.48l-8.83-.31a1.41,1.41,0,0,0-1.47,1.37Z" transform="translate(-101 -72.9)"/><rect class="cls-15" x="291.56" y="80.23" width="9.44" height="2.81" transform="translate(102.62 301.75) rotate(-87.86)"/><path class="cls-15" d="M298.52,92.08a16.39,16.39,0,0,0-1.83-2.43l3.68.13c.15.22.3.44.45.68a22.09,22.09,0,0,1,2.52,5.71,26.64,26.64,0,0,1,.86,4.91l-2.83-.1A20.28,20.28,0,0,0,298.52,92.08Z" transform="translate(-101 -72.9)"/><path class="cls-15" d="M300.15,140.49l1.3-36.17v-.06l2.82.1v.06L303,140.93s-2.79,2.78-11.2,2.48C291.75,143.41,298.86,142.3,300.15,140.49Z" transform="translate(-101 -72.9)"/><polygon class="cls-12" points="169.14 10.96 163.88 10.53 163.79 10.16 163.33 10.48 162.39 10.41 162.47 11.08 160.44 12.49 160.52 12.94 169.22 11.41 169.14 10.96"/><path class="cls-13" d="M272,94.23l-1.75-9.92-8.7,1.53,1.75,9.92s-6.92,6.72-5.29,16l6.77,38.43h0c.47,2.44,6.27,3.46,13,2.27s11.81-4.11,11.43-6.56h0l-6.77-38.44C280.76,98.18,272,94.23,272,94.23Z" transform="translate(-101 -72.9)"/><path class="cls-14" d="M271.29,82.2a1.42,1.42,0,0,1-1.15,1.65l-8.7,1.53a1.43,1.43,0,0,1-1.65-1.15h0A1.42,1.42,0,0,1,261,82.58l8.7-1.54a1.43,1.43,0,0,1,1.64,1.16Z" transform="translate(-101 -72.9)"/><rect class="cls-15" x="263.54" y="85.8" width="2.81" height="9.44" transform="translate(-112.75 -25.16) rotate(-10.07)"/><path class="cls-15" d="M264.18,101.17a15.51,15.51,0,0,1,1.47-2.65l-3.63.64c-.12.23-.24.47-.35.72a21.88,21.88,0,0,0-1.7,6,25.65,25.65,0,0,0-.18,5l2.79-.49A20.16,20.16,0,0,1,264.18,101.17Z" transform="translate(-101 -72.9)"/><path class="cls-15" d="M269.23,149.35,263,113.71v-.07l-2.78.49,0,.06,6.33,36s3.15,2.37,11.44.91C278,151.08,270.76,151,269.23,149.35Z" transform="translate(-101 -72.9)"/><polygon class="cls-12" points="217.41 8.79 222.66 8.37 222.75 8 223.22 8.32 224.16 8.24 224.07 8.91 226.1 10.32 226.02 10.78 217.33 9.25 217.41 8.79"/><path class="cls-13" d="M316.58,92.07l1.75-9.92L327,83.68l-1.74,9.92s6.91,6.71,5.28,16L323.8,148h0c-.48,2.44-6.27,3.45-13,2.27s-11.82-4.11-11.43-6.57h0l6.77-38.43C307.79,96,316.58,92.07,316.58,92.07Z" transform="translate(-101 -72.9)"/><path class="cls-14" d="M317.25,80a1.43,1.43,0,0,0,1.16,1.65l8.69,1.53a1.42,1.42,0,0,0,1.65-1.16h0a1.43,1.43,0,0,0-1.15-1.65l-8.7-1.53A1.43,1.43,0,0,0,317.25,80Z" transform="translate(-101 -72.9)"/><rect class="cls-15" x="318.88" y="86.95" width="9.44" height="2.81" transform="translate(79.01 318.62) rotate(-79.93)"/><path class="cls-15" d="M324.37,99a16.82,16.82,0,0,0-1.47-2.66l3.63.64c.12.24.23.48.35.73a21.68,21.68,0,0,1,1.7,6,25.62,25.62,0,0,1,.18,5l-2.79-.49A20.14,20.14,0,0,0,324.37,99Z" transform="translate(-101 -72.9)"/><path class="cls-15" d="M319.31,147.19l6.28-35.65v-.06l2.77.49V112L322,148s-3.16,2.37-11.44.91C310.59,148.92,317.79,148.8,319.31,147.19Z" transform="translate(-101 -72.9)"/><rect class="cls-16" x="153.8" y="136.35" width="8.2" height="18.09" rx="2.04"/><rect class="cls-16" x="224.24" y="136.35" width="8.2" height="18.09" rx="2.04"/><path class="cls-17" d="M334.21,126.25v-.4H254c0,.13,0,.27,0,.4l.16,3.14,79.45,8.85Z" transform="translate(-101 -72.9)"/><path class="cls-18" d="M254.17,129.39l4.4,88.5a10,10,0,0,0,10,10h51.09a10,10,0,0,0,10-10l4-79.65Z" transform="translate(-101 -72.9)"/><rect class="cls-18" x="149.82" y="45.74" width="86.6" height="9.29" rx="2.73"/><path class="cls-15" d="M298.51,163.91l-4,2.82,5.25-.63.23,0,.67-.08,4.67-.56,2-4,.21-.42,2.65-5.32-4.07,2.86-3.51-6.08a4.12,4.12,0,0,0-2.91-2.19c-1.73-.08-3.48,1.47-4.73,3-.34.44-.65.88-.93,1.29l-.31.48c.1.2.2.42.31.63s.3.61.47.94C295.54,158.59,296.94,161.15,298.51,163.91Z" transform="translate(-101 -72.9)"/><path class="cls-15" d="M309.1,183.11l-1.74-.11c-2.25-.1-5.16-.17-8.34-.19l-.44-4.88-2.08,4.86-.09.21-.27.62L294.29,188l2.47,3.74.26.39,3.28,5-.44-5h7a4.15,4.15,0,0,0,3.35-1.42c.94-1.46.47-3.75-.22-5.59A19.12,19.12,0,0,0,309.1,183.11Z" transform="translate(-101 -72.9)"/><path class="cls-15" d="M317.14,179.83a2.37,2.37,0,0,0-.18-1l-.08-.15-6.25-10.82-7.21,3.82c.45.75,1,1.71,1.56,2.73l3.95,6.83c.14.21.46.72.84,1.42h0l.12.22a16.12,16.12,0,0,1,.91,2,8.6,8.6,0,0,1,.74,4.66Z" transform="translate(-101 -72.9)"/><path class="cls-15" d="M294,153.1l.33-.42a8.59,8.59,0,0,1,3.67-3H286.87a2.5,2.5,0,0,0-.82.68l-.08.15-6.25,10.82,6.92,4.33c.43-.77,1-1.71,1.58-2.72l3.94-6.83c.12-.23.4-.76.81-1.44v0l.13-.21A16.62,16.62,0,0,1,294,153.1Z" transform="translate(-101 -72.9)"/><path class="cls-15" d="M276.57,183.13a19.83,19.83,0,0,0,2.15.19c.3-.43.62-.92,1-1.46,1.21-1.89,2.72-4.38,4.34-7.12l4.44,2.06-3.17-4.23-.14-.19-.4-.54-2.82-3.76-4.47.27-.47,0-5.94.36,4.52,2.09-3.51,6.08a4.13,4.13,0,0,0-.44,3.62C272.42,182.07,274.64,182.81,276.57,183.13Z" transform="translate(-101 -72.9)"/><path class="cls-15" d="M288.35,184.12h-7.88c-.26,0-.86,0-1.65,0l0,0h-.24a14.57,14.57,0,0,1-2.19-.21,8.57,8.57,0,0,1-4.41-1.69l5.58,9.67a2.3,2.3,0,0,0,1,.37H291.2l.3-8.16C290.62,184.14,289.53,184.14,288.35,184.12Z" transform="translate(-101 -72.9)"/><rect class="cls-16" x="39.89" y="136.35" width="8.2" height="18.09" rx="2.04"/><rect class="cls-16" x="110.32" y="136.35" width="8.2" height="18.09" rx="2.04"/><path class="cls-19" d="M220.3,126.25v-.4H140.11c0,.13,0,.27,0,.4l.16,3.14,79.45,8.85Z" transform="translate(-101 -72.9)"/><path class="cls-20" d="M140.26,129.39l4.4,88.5a10,10,0,0,0,10,10h51.09a10,10,0,0,0,10-10l4-79.65Z" transform="translate(-101 -72.9)"/><rect class="cls-20" x="35.91" y="45.74" width="86.6" height="9.29" rx="2.73"/><path class="cls-21" d="M184.61,163.91l-4,2.82,5.25-.63.24,0,.67-.08,4.66-.56,2-4,.21-.42,2.65-5.32-4.07,2.86-3.51-6.08a4.12,4.12,0,0,0-2.91-2.19c-1.73-.08-3.48,1.47-4.73,3-.34.44-.65.88-.93,1.29l-.31.48c.1.2.2.42.31.63s.3.61.47.94C181.64,158.59,183,161.15,184.61,163.91Z" transform="translate(-101 -72.9)"/><path class="cls-21" d="M195.2,183.11c-.52,0-1.1-.08-1.74-.11-2.25-.1-5.16-.17-8.34-.19l-.43-4.88-2.09,4.86-.09.21-.27.62L180.39,188l2.48,3.74.25.39,3.28,5-.44-5h7a4.13,4.13,0,0,0,3.35-1.42c.94-1.46.47-3.75-.22-5.59A19.12,19.12,0,0,0,195.2,183.11Z" transform="translate(-101 -72.9)"/><path class="cls-21" d="M203.25,179.83a2.33,2.33,0,0,0-.19-1l-.08-.15-6.25-10.82-7.21,3.82c.45.75,1,1.71,1.56,2.73L195,181.2c.14.21.46.72.84,1.42h0l.12.22a16.12,16.12,0,0,1,.91,2,8.6,8.6,0,0,1,.74,4.66Z" transform="translate(-101 -72.9)"/><path class="cls-21" d="M180.14,153.1l.33-.42a8.65,8.65,0,0,1,3.67-3H173a2.42,2.42,0,0,0-.81.68l-.09.15-6.25,10.82,6.92,4.33c.43-.77,1-1.71,1.58-2.72l3.94-6.83c.12-.23.4-.76.81-1.44v0l.13-.21A16.62,16.62,0,0,1,180.14,153.1Z" transform="translate(-101 -72.9)"/><path class="cls-21" d="M162.67,183.13a19.83,19.83,0,0,0,2.15.19c.3-.43.62-.92,1-1.46,1.22-1.89,2.72-4.38,4.34-7.12l4.44,2.06-3.17-4.23-.14-.19-.4-.54L168,168.08l-4.47.27-.47,0-5.94.36,4.52,2.09-3.51,6.08a4.13,4.13,0,0,0-.44,3.62C158.52,182.07,160.74,182.81,162.67,183.13Z" transform="translate(-101 -72.9)"/><path class="cls-21" d="M174.46,184.12h-7.89c-.26,0-.86,0-1.65,0l0,0h-.24a14.57,14.57,0,0,1-2.19-.21,8.61,8.61,0,0,1-4.41-1.69l5.58,9.67a2.3,2.3,0,0,0,1,.37h12.67l.29-8.16C176.72,184.14,175.63,184.14,174.46,184.12Z" transform="translate(-101 -72.9)"/></svg>