<svg id="Layer_1" data-name="Layer 1" xmlns="http://www.w3.org/2000/svg" viewBox="0 0 177.78 225.55"><defs><style>.cls-1{fill:none;stroke:#fff;stroke-miterlimit:10;stroke-width:1.83px;}</style></defs><title>white-leaf</title><path class="cls-1" d="M63.45,249.49c-21.24,27.36,42.49-54.7,63.74-82.06C133.11,148,139,132.2,143.56,121c12-29.93,18.29-45.21,31.85-60.78a126.74,126.74,0,0,1,34.76-27.82C207.69,39,204.05,49.23,200.32,62c-6.84,23.35-7,31.35-11.82,43.44-8.42,21.27-22.78,34.13-28.37,39.36a126.18,126.18,0,0,1-32.41,22Z" transform="translate(-56.13 -30.37)"/><path class="cls-1" d="M128.78,165.38c19.55-21.82,30.15-41.2,36.26-55.16,4-9.12,9.8-23.24,17.59-36.77a243.07,243.07,0,0,1,18.82-27h0l6.37-8.21" transform="translate(-56.13 -30.37)"/><path class="cls-1" d="M116,181.79a310.76,310.76,0,0,0,1.33-58.17,310.87,310.87,0,0,0-12-66.36A136.43,136.43,0,0,0,95.17,104.2C93.88,141.66,108.64,169.7,116,181.79Z" transform="translate(-56.13 -30.37)"/><line class="cls-1" x1="59.9" y1="151.43" x2="49.49" y2="29.32"/><path class="cls-1" d="M89,216.82c12.87-19.35,26.26-26,34.65-28.76,14.68-4.78,25.53-1.16,70.71,6.57,15.8,2.7,28.58,4.67,36.36,5.84a239.81,239.81,0,0,1-55.69,17A241.08,241.08,0,0,1,89,216.82Z" transform="translate(-56.13 -30.37)"/><path class="cls-1" d="M89.48,216a124.41,124.41,0,0,1,32-10.2c19.16-3.31,32-.76,48.14.11a226.88,226.88,0,0,0,61.06-5.2" transform="translate(-56.13 -30.37)"/><path class="cls-1" d="M68.55,243.05a311.35,311.35,0,0,0,9.8-57.36,311.78,311.78,0,0,0-2.24-67.41,136.31,136.31,0,0,0-16.88,45C52.49,200.11,63,230,68.55,243.05Z" transform="translate(-56.13 -30.37)"/><line class="cls-1" x1="12.42" y1="212.68" x2="19.92" y2="90.36"/></svg>