<svg id="Hand" xmlns="http://www.w3.org/2000/svg" viewBox="0 0 143.12 100.01"><defs><style>.cls-1{fill:#ebb98d;}</style></defs><title>img05</title><path class="cls-1" d="M252.84,204.48s.68,7.51,6.83,9.56a47.09,47.09,0,0,0,13,2.05s-15.72,13-20.5,15S235.07,238,235.07,238Z" transform="translate(-225.88 -189.37)"/><path class="cls-1" d="M244.87,199.16l23.92,12.3,13.66,40.31-47.83,13.66L227,252c.31-11.44,2.59-27.74,12-44A85.81,85.81,0,0,1,244.87,199.16Z" transform="translate(-225.88 -189.37)"/><path class="cls-1" d="M369,261c-4.92,1.67-12.58,4.2-22,7-45.32,13.48-106.94,31.81-119,14-7.43-11,6.4-32.06,14.24-44,8.72-13.3,35.54-54.18,73-48C343.22,194.61,367.14,223.84,369,261Z" transform="translate(-225.88 -189.37)"/></svg>