<svg id="Layer_1" data-name="Layer 1" xmlns="http://www.w3.org/2000/svg" viewBox="0 0 148.85 339.1"><defs><style>.cls-1{fill:#fff;}.cls-2{fill:#87b7c4;}.cls-3{fill:#77a3ad;}.cls-4,.cls-5{fill:#595959;}.cls-5,.cls-8{stroke:#595959;stroke-miterlimit:10;}.cls-5{stroke-linecap:round;stroke-width:1.56px;}.cls-6{fill:#e8f7fc;}.cls-7{fill:#acd7e5;opacity:0.48;}.cls-8{fill:none;}</style></defs><title>img04</title><path class="cls-1" d="M258.36,144.42c4.12-13.79,6.33-19.73,4.62-28.37-1-5-3-8.44-4.9-17.34a103.49,103.49,0,0,1-2-15.34L299,76a142,142,0,0,1,4.44,16.29c2,9.43,1.74,12.88,3,17.77,2.14,8.54,6.68,13,16.28,23.69,16.21,18.09,24.31,27.13,26.66,32.58,5.75,13.32,1,20.33,1.48,40,.31,13,2.9,31.24,13.32,53.3q11.57,40.24,22.21,82.92,4.65,18.67,8.89,37c.56,2.16,2,8.71-1.48,14.81-4.5,8-15.44,12-26.65,8.88a36,36,0,0,1-10.37,7.41c-3.76,1.77-9.44,4.44-16.29,3a20.82,20.82,0,0,1-8.88-4.44c-2.61,1.26-16.79,7.87-26.28,1.31-1.33-.92-5.45-2.59-7.65-12.76q-4-18.39-7.77-37.27-8.61-43.11-15.29-84.47c0-24.39-5.44-42-10.7-53.89-7.95-18-15.23-22.29-15.72-36.79C248,179.33,251.43,167.7,258.36,144.42Z" transform="translate(-247.65 -75.4)"/><polygon class="cls-2" points="51.34 0.56 57.26 25.74 12.84 33.14 8.4 12.41 8.4 7.97 51.34 0.56"/><polygon class="cls-3" points="9.88 13.89 24.69 31.66 13.54 34.42 9.88 13.89"/><rect class="cls-4" x="257.41" y="102.39" width="50.86" height="3.81" rx="1.21" transform="translate(332.71 77.5) rotate(169.04)"/><line class="cls-5" x1="47.9" y1="6.64" x2="49.7" y2="16.66"/><line class="cls-5" x1="44.13" y1="7.32" x2="45.94" y2="17.34"/><line class="cls-5" x1="40.36" y1="8" x2="42.17" y2="18.02"/><line class="cls-5" x1="36.6" y1="8.68" x2="38.4" y2="18.7"/><line class="cls-5" x1="32.83" y1="9.36" x2="34.64" y2="19.38"/><line class="cls-5" x1="29.06" y1="10.04" x2="30.87" y2="20.06"/><line class="cls-5" x1="25.29" y1="10.72" x2="27.1" y2="20.74"/><line class="cls-5" x1="21.53" y1="11.4" x2="23.34" y2="21.42"/><line class="cls-5" x1="17.76" y1="12.08" x2="19.57" y2="22.1"/><line class="cls-5" x1="13.99" y1="12.76" x2="15.8" y2="22.78"/><path class="cls-6" d="M306.4,120.38l-42.95-1.48A119.88,119.88,0,0,1,259,144.08c-4.51,15.52-9.74,21.47-10.36,35.53a61,61,0,0,0,1.48,16.29c3,13,9.32,20.42,13.32,26.65,5.23,8.14,5.66,13,11.85,53.31,6.83,44.57,5.65,38,7.4,47.38,6.26,33.48,11.16,46.91,11.85,59.23.38,6.81,1.24,10,3,16.29,1.25,4.57,2,6.11,3,7.41,4.26,6,11.58,7.11,13.33,7.4,8.27,1.35,15.15-2.7,17.77-4.44a24.1,24.1,0,0,0,10.36,4.44c13.77,2.23,24.19-9.24,25.18-10.37,2.41,1,10.52,3.91,16.28,0,5.41-3.66,5.93-11.41,5.93-17.77,0-24.27-7.62-45.13-13.33-62.19-6.59-19.69-3.24-12.2-14.81-48.86-10-31.72-11.95-35.53-13.32-47.38-2.66-22.92-3-37-3-37-.14-8.31.16-11.93-1.48-17.77-2.63-9.39-7.47-14.48-16.28-25.17C322.18,141,315,132,306.4,120.38Z" transform="translate(-247.65 -75.4)"/><path class="cls-7" d="M260.49,138.15c-2.64,12.72-5.05,32.37,0,54.79,6.71,29.78,19.46,32.9,31.1,66.63,10.55,30.6,12.49,62.28,13.32,77,.67,11.81.95,28.47,7.41,50.35a176.26,176.26,0,0,0,8.88,23.69,13.52,13.52,0,0,1-7.4,3c-7.41.47-12.36-6.19-13.33-7.4-4.37-5.49-4.38-12.11-4.44-14.81-.2-9.24-2.08-23.36-8.88-45.9a272.79,272.79,0,0,1-10.37-54.79c-1.21-14.82-.91-27.2-5.92-45.9-3.36-12.54-5-18.81-8.89-25.18-4.29-7.1-9.21-12-11.84-22.21A51.62,51.62,0,0,1,248.65,187c-.35-7.77,1.06-13.45,5.92-29.62C256.8,150,258.81,143.49,260.49,138.15Z" transform="translate(-247.65 -75.4)"/><path class="cls-8" d="M258.36,144.42c4.12-13.79,6.33-19.73,4.62-28.37-1-5-3-8.44-4.9-17.34a103.49,103.49,0,0,1-2-15.34L299,76a142,142,0,0,1,4.44,16.29c2,9.43,1.74,12.88,3,17.77,2.14,8.54,6.68,13,16.28,23.69,16.21,18.09,24.31,27.13,26.66,32.58,5.75,13.32,1,20.33,1.48,40,.31,13,2.9,31.24,13.32,53.3q11.57,40.24,22.21,82.92,4.65,18.67,8.89,37c.56,2.16,2,8.71-1.48,14.81-4.5,8-15.44,12-26.65,8.88a36,36,0,0,1-10.37,7.41c-3.76,1.77-9.44,4.44-16.29,3a20.82,20.82,0,0,1-8.88-4.44c-2.61,1.26-16.79,7.87-26.28,1.31-1.33-.92-5.45-2.59-7.65-12.76q-4-18.39-7.77-37.27-8.61-43.11-15.29-84.47c0-24.39-5.44-42-10.7-53.89-7.95-18-15.23-22.29-15.72-36.79C248,179.33,251.43,167.7,258.36,144.42Z" transform="translate(-247.65 -75.4)"/></svg>