<svg id="Hand_Front" data-name="Hand Front" xmlns="http://www.w3.org/2000/svg" viewBox="0 0 145.86 86.24"><defs><style>.cls-1{fill:#ebb98d;}</style></defs><title>img03</title><path class="cls-1" d="M351.2,206.51l14.93-7.35c4.11-2,6-7.56,4.32-12.37h0c-1.73-4.82-6.46-7.08-10.57-5.06L345,189.08c-4.11,2-6,7.57-4.32,12.38h0C342.36,206.27,347.09,208.53,351.2,206.51Z" transform="translate(-241.16 -174)"/><path class="cls-1" d="M357,224.44l15.44-5.77c4.24-1.59,6.59-6.91,5.23-11.88h0c-1.36-5-5.9-7.72-10.14-6.13l-15.44,5.77c-4.24,1.59-6.58,6.9-5.23,11.88h0C348.24,223.28,352.78,226,357,224.44Z" transform="translate(-241.16 -174)"/><path class="cls-1" d="M360.41,243l15.43-5.77c4.25-1.59,6.59-6.91,5.23-11.88h0c-1.35-5-5.89-7.72-10.14-6.13L355.5,225c-4.25,1.59-6.59,6.91-5.24,11.88h0C351.62,241.83,356.16,244.57,360.41,243Z" transform="translate(-241.16 -174)"/><path class="cls-1" d="M366,259.79,381.4,254c4.25-1.58,6.59-6.9,5.24-11.87h0c-1.36-5-5.9-7.72-10.15-6.13l-15.43,5.77c-4.24,1.58-6.59,6.9-5.23,11.87h0C357.18,258.64,361.72,261.38,366,259.79Z" transform="translate(-241.16 -174)"/><path class="cls-1" d="M265.83,217.62l15.95-19.71-8.61-11.3-.28-.37-23.55,10.14C254.78,203.66,260.39,210.34,265.83,217.62Z" transform="translate(-241.16 -174)"/><circle class="cls-1" cx="14.01" cy="34.14" r="14.01"/><path class="cls-1" d="M260.64,195l27.49-20.46a2.83,2.83,0,0,1,4,.66,9,9,0,0,1,1.26,6.14c-.49,4.44-4.2,10.32-6.22,13.23a11,11,0,0,1-3,2.91L272,205.61Z" transform="translate(-241.16 -174)"/><ellipse class="cls-1" cx="24.6" cy="26.5" rx="7.86" ry="8.2"/></svg>