<svg id="Layer_1" data-name="Layer 1" xmlns="http://www.w3.org/2000/svg" viewBox="0 0 165.12 262.02"><defs><style>.cls-1{fill:#85a4b4;}.cls-2{fill:#a0c4da;}.cls-3{fill:#bed9e7;}.cls-4{fill:#fff;}.cls-5{fill:#7da1b2;}.cls-6{fill:#010101;}.cls-7{fill:#006442;}.cls-8{fill:#6ab5a5;}</style></defs><title>img_0</title><polygon class="cls-1" points="103.59 5.46 111.78 2.82 111.79 2.2 112.65 2.54 114.11 2.07 114.23 3.17 117.99 4.65 118.03 5.4 103.64 6.22 103.59 5.46"/><path class="cls-2" d="M165.88,33.64,165,17.22l14.39-.82.93,16.42s13.5,8.09,14.37,23.41l3.61,63.6h0c.15,4-8.68,7.83-19.78,8.46s-20.31-2.13-20.61-6.17h0l-3.61-63.6C153.38,43.2,165.88,33.64,165.88,33.64Z" transform="translate(-61.31 -11)"/><path class="cls-3" d="M162.45,14.27a2.33,2.33,0,0,0,2.46,2.19l14.39-.81a2.33,2.33,0,0,0,2.19-2.46h0A2.33,2.33,0,0,0,179,11l-14.4.82a2.33,2.33,0,0,0-2.19,2.45Z" transform="translate(-61.31 -11)"/><rect class="cls-4" x="173.35" y="17.42" width="4.59" height="15.4" transform="translate(-62.43 -1.29) rotate(-3.16)"/><path class="cls-4" d="M180.85,41.76a26.32,26.32,0,0,0-3.33-3.67l6-.34c.27.32.55.67.82,1a35.35,35.35,0,0,1,5,8.9,41,41,0,0,1,2.14,7.85l-4.61.26A32.89,32.89,0,0,0,180.85,41.76Z" transform="translate(-61.31 -11)"/><path class="cls-4" d="M190.82,120.2l-3.35-59v-.11l4.58-.26s0,.07,0,.11l3.37,59.52s-4.12,5-17.84,5.73C177.59,126.21,189,123.33,190.82,120.2Z" transform="translate(-61.31 -11)"/><path class="cls-5" d="M225.73,26a1.26,1.26,0,0,1,.49-.24,2,2,0,0,0-.87-2.73L217,18.86a2,2,0,0,0-2.69,1,1.35,1.35,0,0,1,.11.54,1.52,1.52,0,0,1-.16.54l11.17,5.53A1.37,1.37,0,0,1,225.73,26Z" transform="translate(-61.31 -11)"/><path class="cls-5" d="M216.11,60.34l.09,0c-3.09-1.24-7-3-11.86-5.42s-8.76-4.52-11.51-6.18a.36.36,0,0,0,0,.11s-7.37,7.71-10.09,17a80.59,80.59,0,0,0,12.32,7.73A101,101,0,0,0,208.7,79a.82.82,0,0,0,0-.26C214.44,70.91,216.11,60.34,216.11,60.34Z" transform="translate(-61.31 -11)"/><path class="cls-2" d="M197.23,97.47c.13-.27.26-.52.38-.78.72-1.32,1.34-2.25,1.52-2.61.47-1,7.08-10.15,8.47-12.35A5.54,5.54,0,0,0,208.7,79a101,101,0,0,1-13.6-5.42,80.59,80.59,0,0,1-12.32-7.73s0,0,0,.06-.87.25-1.77,2.69-4.21,13.26-4.69,14.22c-.18.36-.55,1.44-1.18,2.83-.11.24-.23.48-.36.73-3,6.08-7,7.8-8.93,11.73-2.59,5.23-.62,9.59,9.8,14.76s15.08,4.08,17.67-1.15C195.26,107.75,194.22,103.54,197.23,97.47Z" transform="translate(-61.31 -11)"/><path class="cls-2" d="M204.34,54.89c4.89,2.42,8.77,4.18,11.86,5.42,1.38-.56,1.5-6,1.5-6,.09-1.42.22-3,.36-4.53.31-3.34.67-6.32.67-6.32h0c.29-1.36.74-3.33,1.37-5.42,1.19-3.1,2.65-6.12,3.13-7.09.37-.75,1.32-.24,1.66-.92a14.31,14.31,0,0,0,.44-3.43.64.64,0,0,1,.08-.2L214.22,20.9a.94.94,0,0,1-.11.18,14.43,14.43,0,0,0-2.46,2.43c-.34.68.64,1.12.27,1.88-.48,1-2,3.95-3.73,6.76-1.29,1.78-2.58,3.34-3.5,4.39h0s-2.16,2.09-4.63,4.36c-1.12,1-2.31,2.1-3.38,3,0,0-4.17,3.32-3.84,4.78C195.58,50.37,199.31,52.4,204.34,54.89Z" transform="translate(-61.31 -11)"/><polygon class="cls-1" points="16.16 19.6 7.79 21.55 7.46 21.03 6.89 21.76 5.4 22.11 5.86 23.11 3.41 26.31 3.76 26.98 16.52 20.27 16.16 19.6"/><path class="cls-2" d="M85.49,45.82,77.83,31.27,65.07,38l7.67,14.56S65.34,66.42,72.49,80l29.68,56.36h0c2,3.55,11.47,2.24,21.31-2.94s16.31-12.29,14.48-15.91h0L108.28,61.14C101.13,47.57,85.49,45.82,85.49,45.82Z" transform="translate(-61.31 -11)"/><path class="cls-3" d="M78.45,27.46a2.32,2.32,0,0,1-1,3.14L64.72,37.31a2.32,2.32,0,0,1-3.14-1h0a2.33,2.33,0,0,1,1-3.14l12.76-6.72a2.32,2.32,0,0,1,3.14,1Z" transform="translate(-61.31 -11)"/><rect class="cls-4" x="70.44" y="35.85" width="4.59" height="15.4" transform="translate(-73.23 28.04) rotate(-27.86)"/><path class="cls-4" d="M76.85,60.49a26.17,26.17,0,0,1,1-4.86l-5.32,2.8c-.07.42-.13.86-.18,1.31a35.64,35.64,0,0,0,.34,10.18,41.07,41.07,0,0,0,2.22,7.83L79,75.6A33,33,0,0,1,76.85,60.49Z" transform="translate(-61.31 -11)"/><path class="cls-4" d="M108.73,132.85,81.2,80.58l0-.09-4.06,2.14,0,.09,27.78,52.75s6.08,2.11,18.24-4.29C123.16,131.18,111.91,134.59,108.73,132.85Z" transform="translate(-61.31 -11)"/><rect class="cls-6" x="7.28" y="228.39" width="14.79" height="32.65" rx="3.68"/><rect class="cls-6" x="134.38" y="228.39" width="14.79" height="32.65" rx="3.68"/><path class="cls-7" d="M211.9,89.64c0-.24,0-.49,0-.73H67.2c0,.24,0,.49,0,.73l.29,5.67,143.35,16Z" transform="translate(-61.31 -11)"/><path class="cls-8" d="M67.47,95.31,75.41,255a18,18,0,0,0,18,18h92.18a18,18,0,0,0,18-18l7.15-143.71Z" transform="translate(-61.31 -11)"/><rect class="cls-8" x="0.1" y="64.9" width="156.25" height="16.75" rx="4.93"/><path class="cls-4" d="M147.47,157.59l-7.23,5.09,9.48-1.13.41-.05,1.21-.15,8.43-1,3.61-7.24.38-.76,4.79-9.6-7.35,5.17-6.33-11c-1.7-2.63-3.49-3.77-5.25-3.95-3.12-.16-6.29,2.64-8.54,5.38-.61.78-1.18,1.58-1.67,2.33-.2.29-.39.58-.56.86.17.36.36.74.56,1.14s.54,1.09.85,1.68C142.11,148,144.65,152.6,147.47,157.59Z" transform="translate(-61.31 -11)"/><path class="cls-4" d="M166.58,192.23c-.94-.07-2-.13-3.15-.19-4-.2-9.3-.31-15-.36l-.79-8.8-3.76,8.78-.17.38-.48,1.12-3.34,7.8,4.46,6.75.47.7,5.92,9-.81-9h12.68c3.12-.15,5-1.13,6-2.56,1.69-2.63.85-6.77-.39-10.09C167.71,194.47,167.12,193.26,166.58,192.23Z" transform="translate(-61.31 -11)"/><path class="cls-4" d="M181.1,186.32a4.41,4.41,0,0,0-.33-1.89l-.16-.27-11.27-19.52-13,6.9c.81,1.35,1.78,3.08,2.82,4.92l7.12,12.33c.25.38.83,1.3,1.52,2.56h0l.21.39a28.67,28.67,0,0,1,1.64,3.61c1,2.68,1.9,5.75,1.34,8.42Z" transform="translate(-61.31 -11)"/><path class="cls-4" d="M139.41,138.08l.59-.76c1.8-2.24,4-4.51,6.62-5.36H126.47a4.33,4.33,0,0,0-1.47,1.23l-.16.27L113.57,153l12.49,7.82c.77-1.38,1.77-3.09,2.85-4.91L136,143.57c.21-.42.72-1.38,1.46-2.6l0,0,.23-.37A28.53,28.53,0,0,1,139.41,138.08Z" transform="translate(-61.31 -11)"/><path class="cls-4" d="M107.89,192.27a36,36,0,0,0,3.88.34c.53-.78,1.12-1.66,1.74-2.63,2.2-3.41,4.92-7.91,7.83-12.84l8,3.71-5.72-7.64-.25-.34-.73-1-5.09-6.79-8.07.49-.85.05-10.71.65,8.16,3.78-6.34,11c-1.42,2.78-1.52,4.9-.8,6.52C100.39,190.35,104.4,191.69,107.89,192.27Z" transform="translate(-61.31 -11)"/><path class="cls-4" d="M129.15,194.06H114.91c-.46,0-1.54.07-3,0l0,0h-.44a28.79,28.79,0,0,1-4-.39c-2.84-.43-5.92-1.22-8-3l10.08,17.45a4.41,4.41,0,0,0,1.8.66h22.85l.53-14.72C133.24,194.1,131.26,194.09,129.15,194.06Z" transform="translate(-61.31 -11)"/></svg>