<svg id="Layer_1" data-name="Layer 1" xmlns="http://www.w3.org/2000/svg" viewBox="0 0 71.47 254.85"><defs><style>.cls-1{fill:#a0c4da;}.cls-2{fill:#7da1b2;}</style></defs><title>img_0</title><path class="cls-1" d="M171.9,111.23c-.51-27.44-23.09-31.81-23.09-31.81l-.17-64-25,.07.17,64S101.29,84,100.92,111.42l0,.14v.64l.41,150.45c11.66,4.63,24.25,5.86,35.54,5.55,11.3.25,23.88-1.05,35.52-5.74L172,112v-.64A.82.82,0,0,0,171.9,111.23Z" transform="translate(-100.88 -13.39)"/><rect class="cls-2" x="101" y="136.43" width="71.06" height="40.97" transform="translate(-101.3 -13.03) rotate(-0.15)"/><polygon class="cls-2" points="49.69 0 48.25 0 22.29 0.07 20.85 0.08 20.9 20 22.34 20 22.43 52.65 48.39 52.58 48.3 19.93 49.75 19.92 49.69 0"/><rect class="cls-1" x="106.11" y="145.61" width="60.61" height="24.7" rx="8.48" transform="translate(-101.31 -13.03) rotate(-0.15)"/></svg>